<svg width="1440" height="1137" viewBox="0 0 1440 1137" fill="none" xmlns="http://www.w3.org/2000/svg">
<g opacity="0.05">
<path d="M1627.6 864.259C1508.19 855.695 1392.67 810.037 1298.57 736.215C1250.67 698.634 1209.38 653.887 1174.8 603.832C1136.13 547.867 1103.67 487.035 1056.97 437.038C1033.58 411.997 1006.35 389.685 974.019 377.395C939.886 364.414 902.764 361.368 866.888 356.319C828.888 350.942 790.952 345.165 753.08 338.989C718.42 333.328 682.85 328.844 649.283 318.172C621.787 309.638 596.725 294.665 576.179 274.498C557.24 255.913 541.472 234.464 524.784 213.915C508.23 193.539 490.44 173.345 467.937 159.311C438.24 140.879 404.069 138.542 370.003 139.892C337.307 141.186 305.1 143.322 272.423 140.084C242.409 137.085 212.781 131.022 184.002 121.988C125.859 103.801 72.0505 73.9128 25.887 34.16C14.3845 24.1853 3.41638 13.6104 -6.97156 2.47965C-8.22656 1.1289 -6.2052 -0.911598 -4.93103 0.448734C81.7661 93.1333 207.922 144.28 334.634 138.81C367.627 137.382 401.53 133.388 433.977 141.684C459.105 148.102 480.621 162.548 498.947 180.559C536.414 217.364 561.838 266.901 606.911 295.736C636.063 314.379 670.454 321.86 704.07 327.81C741.431 334.41 778.84 340.34 816.306 346.011C852.71 351.51 889.439 355.591 925.727 361.914C959.017 367.661 990.161 378.142 1017.75 398.039C1069.98 435.716 1105.81 492.17 1140.02 545.568C1174.95 600.077 1210.96 652.766 1258.16 697.551C1346.5 781.365 1460.65 837.79 1581.09 856.231C1596.52 858.597 1612.04 860.283 1627.61 861.404C1629.44 861.529 1629.46 864.403 1627.61 864.278L1627.6 864.259Z" fill="#D81159"/>
<path d="M1583.21 932.228C1463.8 923.673 1348.28 878.006 1254.18 804.184C1206.28 766.602 1164.99 721.855 1130.41 671.81C1091.74 615.836 1059.29 555.014 1012.58 505.007C989.193 479.965 961.958 457.664 929.626 445.373C895.493 432.392 858.372 429.336 822.495 424.297C784.502 418.933 746.569 413.159 708.697 406.977C674.028 401.315 638.458 396.822 604.89 386.15C577.396 377.617 552.334 362.648 531.787 342.486C512.857 323.891 497.089 302.442 480.391 281.903C463.837 261.527 446.057 241.323 423.554 227.298C393.857 208.857 359.686 206.52 325.61 207.87C292.915 209.173 260.707 211.31 228.031 208.062C197.99 205.076 168.335 199.015 139.532 189.975C81.4033 171.795 27.6106 141.909 -18.5342 102.157C-30.0366 92.1792 -41.0048 81.6012 -51.3928 70.4674C-52.6573 69.1167 -50.6266 67.0857 -49.3621 68.4365C37.3351 161.131 163.501 212.268 290.203 206.798C323.206 205.38 357.099 201.385 389.556 209.671C414.683 216.08 436.19 230.527 454.526 248.537C491.983 285.342 517.417 334.879 562.49 363.715C591.641 382.366 626.033 389.848 659.648 395.797C697.01 402.398 734.371 408.328 771.885 413.999C808.288 419.507 845.008 423.579 881.296 429.911C914.595 435.659 945.73 446.13 973.329 466.036C1025.56 503.704 1061.38 560.167 1095.6 613.565C1130.53 668.065 1166.49 720.754 1213.72 765.539C1302.08 849.362 1416.23 905.778 1536.67 924.228C1552.09 926.585 1567.6 928.306 1583.18 929.392C1585.02 929.526 1585.03 932.4 1583.18 932.266L1583.21 932.228Z" fill="#D81159"/>
<path d="M1538.77 1000.21C1419.35 991.641 1303.84 945.984 1209.73 872.162C1161.83 834.581 1120.54 789.833 1085.97 739.779C1047.29 683.814 1014.84 622.982 968.137 572.985C944.743 547.943 917.507 525.632 885.185 513.341C851.052 500.361 813.931 497.314 778.045 492.266C740.051 486.888 702.118 481.112 664.246 474.936C629.587 469.274 594.017 464.791 560.449 454.119C532.954 445.585 507.892 430.612 487.346 410.445C468.406 391.86 452.638 370.411 435.95 349.862C419.387 329.486 401.607 309.292 379.104 295.257C349.406 276.816 315.235 274.488 281.169 275.839C248.474 277.132 216.257 279.269 183.59 276.031C153.575 273.032 123.947 266.968 95.1681 257.934C37.042 239.742 -16.7493 209.854 -62.8987 170.107C-74.4011 160.132 -85.3693 149.557 -95.7572 138.426C-97.0217 137.076 -94.991 135.035 -93.7264 136.386C-7.01965 229.08 119.137 280.227 245.849 274.756C278.841 273.329 312.744 269.334 345.191 277.63C370.319 284.049 391.835 298.495 410.161 316.505C447.628 353.311 473.053 402.848 518.126 431.683C547.277 450.325 581.668 457.807 615.284 463.756C652.645 470.357 690.006 476.287 727.521 481.958C763.924 487.457 800.653 491.538 836.941 497.86C870.231 503.608 901.375 514.089 928.965 533.986C981.194 571.663 1017.02 628.117 1051.23 681.515C1086.17 736.024 1122.12 788.713 1169.37 833.498C1257.71 917.312 1371.87 973.737 1492.3 992.178C1507.74 994.544 1523.25 996.23 1538.82 997.351C1540.65 997.475 1540.67 1000.35 1538.82 1000.22L1538.77 1000.21Z" fill="#D81159"/>
<path d="M1494.35 1068.17C1374.93 1059.62 1259.42 1013.95 1165.32 940.131C1117.42 902.549 1076.13 857.802 1041.55 807.757C1002.87 751.782 970.426 690.96 923.715 640.954C900.321 615.912 873.096 593.61 840.764 581.319C806.631 568.339 769.509 565.283 733.633 560.244C695.639 554.879 657.707 549.102 619.835 542.914C585.165 537.262 549.596 532.769 516.028 522.097C488.534 513.564 463.472 498.595 442.924 478.432C423.985 459.838 408.226 438.389 391.529 417.85C374.975 397.473 357.185 377.27 334.692 363.245C304.995 344.804 270.814 342.466 236.748 343.817C204.052 345.12 171.845 347.256 139.168 344.009C109.155 341.031 79.5261 334.983 50.7468 325.96C-7.38232 307.78 -61.175 277.894 -107.32 238.142C-118.822 228.164 -129.79 217.586 -140.178 206.452C-141.443 205.102 -139.412 203.071 -138.148 204.421C-51.4506 297.115 74.7155 348.252 201.418 342.782C234.42 341.365 268.314 337.37 300.77 345.656C325.898 352.065 347.404 366.512 365.74 384.522C403.197 421.327 428.622 470.864 473.704 499.699C502.846 518.351 537.238 525.833 570.863 531.782C608.224 538.383 645.585 544.313 683.099 549.984C719.503 555.492 756.222 559.564 792.51 565.896C825.81 571.644 856.944 582.114 884.543 602.021C936.763 639.689 972.591 696.152 1006.81 749.55C1041.75 804.05 1077.7 856.738 1124.94 901.524C1213.29 985.347 1327.44 1041.76 1447.88 1060.21C1463.31 1062.57 1478.81 1064.29 1494.39 1065.38C1496.23 1065.51 1496.24 1068.38 1494.39 1068.25L1494.35 1068.17Z" fill="#D81159"/>
<path d="M1449.93 1136.15C1330.52 1127.59 1215 1081.93 1120.9 1008.11C1073 970.527 1031.71 925.78 997.125 875.726C958.461 819.76 926.004 758.929 879.293 708.932C855.899 683.89 828.664 661.579 796.332 649.288C762.209 636.307 725.087 633.261 689.201 628.212C651.208 622.841 613.275 617.065 575.403 610.883C540.743 605.221 505.174 600.738 471.596 590.066C444.105 581.529 419.046 566.556 398.503 546.391C379.563 527.807 363.795 506.357 347.107 485.809C330.543 465.433 312.763 445.238 290.26 431.204C260.611 412.763 226.392 410.435 192.317 411.786C159.621 413.079 127.413 415.215 94.7463 411.977C64.7328 408.974 35.105 402.91 6.32483 393.881C-51.8022 375.691 -105.594 345.803 -151.742 306.054C-163.244 296.079 -174.213 285.504 -184.6 274.373C-185.865 273.022 -183.834 270.982 -182.57 272.333C-95.8629 365.027 30.2935 416.173 156.996 410.703C189.998 409.276 223.891 405.281 256.348 413.577C281.476 419.996 302.992 434.442 321.318 452.452C358.785 489.258 384.209 538.795 429.282 567.62C458.434 586.272 492.825 593.754 526.441 599.703C563.802 606.303 601.211 612.233 638.678 617.905C675.081 623.403 711.81 627.484 748.089 633.807C781.388 639.555 812.522 650.035 840.122 669.933C892.351 707.61 928.179 764.064 962.389 817.461C997.326 871.97 1033.28 924.659 1080.53 969.445C1168.87 1053.26 1283.02 1109.68 1403.46 1128.12C1418.89 1130.49 1434.4 1132.18 1449.98 1133.3C1451.81 1133.42 1451.82 1136.3 1449.98 1136.17L1449.93 1136.15Z" fill="#D81159"/>
</g>
</svg>
