<svg width="1440" height="1869" viewBox="0 0 1440 1869" fill="none" xmlns="http://www.w3.org/2000/svg">
<g opacity="0.05">
<path d="M-237.621 759.825C-128.752 809.626 -5.5001 825.015 112.487 805.419C172.546 795.44 230.254 776.006 284.61 748.689C345.399 718.154 403.07 680.366 468.038 658.92C500.58 648.18 535.174 641.674 569.437 646.41C605.612 651.405 639.64 666.55 673.537 679.341C709.455 692.863 745.508 706.003 781.697 718.763C814.82 730.432 848.177 743.571 882.748 750.321C910.965 756.031 940.138 754.925 967.842 747.094C993.378 739.88 1017.51 728.632 1042.01 718.614C1066.31 708.684 1091.61 699.507 1118.09 697.995C1152.99 696.08 1184.09 710.43 1213.32 727.966C1241.39 744.794 1268.62 762.127 1298.84 774.97C1326.61 786.746 1355.51 795.647 1385.09 801.535C1444.83 813.488 1506.38 813.093 1565.96 800.376C1580.84 797.147 1595.54 793.134 1609.99 788.355C1611.74 787.772 1610.95 785.012 1609.18 785.594C1488.63 825.292 1353.41 809.61 1244.87 743.993C1216.61 726.905 1188.79 707.128 1156.34 698.832C1131.22 692.402 1105.41 694.748 1080.69 701.752C1030.15 716.058 984.07 747.313 930.688 750.975C896.166 753.338 862.404 743.395 830.058 732.479C794.114 720.337 758.449 707.584 722.859 694.576C688.283 681.927 654.103 667.879 619.233 656.008C587.27 645.072 554.918 639.318 521.163 643.531C457.26 651.516 398.732 683.845 343.091 714.27C286.278 745.321 229.405 774.265 166.502 790.899C48.77 822.024 -78.4568 816.734 -192.965 775.106C-207.64 769.774 -222.064 763.804 -236.259 757.316C-237.924 756.547 -239.32 759.059 -237.639 759.837L-237.621 759.825Z" fill="#D81159"/>
<path d="M-231.299 840.759C-122.435 890.569 0.821352 905.95 118.808 886.354C178.867 876.375 236.567 856.937 290.926 829.632C351.712 799.084 409.379 761.304 474.359 739.855C506.893 729.11 541.491 722.617 575.754 727.353C611.929 732.349 645.962 747.485 679.854 760.284C715.76 773.814 751.809 786.956 788 799.71C821.133 811.383 854.494 824.514 889.064 831.264C917.28 836.974 946.451 835.871 974.155 828.045C999.686 820.819 1023.81 809.57 1048.32 799.566C1072.62 789.636 1097.92 780.445 1124.39 778.942C1159.3 777.018 1190.4 791.369 1219.64 808.909C1247.7 825.746 1274.93 843.078 1305.15 855.913C1332.94 867.713 1361.87 876.629 1391.47 882.523C1451.2 894.474 1512.73 894.075 1572.29 881.35C1587.17 878.117 1601.87 874.102 1616.33 869.32C1618.09 868.742 1617.28 865.986 1615.52 866.564C1494.97 906.27 1359.75 890.575 1251.22 824.963C1222.95 807.878 1195.13 788.106 1162.68 779.797C1137.56 773.359 1111.76 775.71 1087.03 782.709C1036.5 797.019 990.412 828.27 937.03 831.932C902.504 834.303 868.741 824.36 836.396 813.444C800.451 801.302 764.829 788.572 729.196 775.541C694.616 762.901 660.449 748.848 625.575 736.986C593.603 726.046 561.263 720.288 527.496 724.505C463.597 732.481 405.073 764.823 349.423 795.244C292.615 826.286 235.785 855.253 172.848 871.869C55.1029 902.998 -72.1193 897.7 -186.633 856.079C-201.294 850.744 -215.721 844.813 -229.913 838.285C-231.591 837.52 -232.979 840.037 -231.293 840.807L-231.299 840.759Z" fill="#D81159"/>
<path d="M-224.94 921.726C-116.071 971.528 7.18099 986.917 125.176 967.326C185.235 957.346 242.935 937.908 297.291 910.591C358.08 880.056 415.751 842.268 480.719 820.822C513.261 810.082 547.863 803.581 582.118 808.312C618.293 813.307 652.321 828.452 686.227 841.247C722.139 854.766 758.189 867.905 794.378 880.665C827.501 892.334 860.858 905.473 895.429 912.222C923.646 917.933 952.819 916.826 980.524 908.996C1006.06 901.782 1030.19 890.533 1054.69 880.516C1079 870.591 1104.29 861.409 1130.77 859.897C1165.67 857.973 1196.77 872.332 1226.01 889.868C1254.07 906.696 1281.31 924.033 1311.52 936.872C1339.29 948.647 1368.19 957.549 1397.78 963.437C1457.5 975.376 1519.04 974.974 1578.6 962.255C1593.48 959.025 1608.18 955.013 1622.63 950.234C1624.39 949.656 1623.59 946.891 1621.83 947.469C1501.27 987.171 1366.05 971.489 1257.51 905.871C1229.25 888.783 1201.43 869.006 1168.98 860.711C1143.86 854.281 1118.05 856.627 1093.32 863.631C1042.79 877.937 996.709 909.191 943.327 912.854C908.805 915.217 875.043 905.273 842.697 894.358C806.753 882.216 771.131 869.486 735.498 856.455C700.922 843.806 666.742 829.757 631.872 817.887C599.909 806.951 567.557 801.197 533.802 805.41C469.899 813.395 411.371 845.724 355.73 876.149C298.917 907.2 242.086 936.166 179.141 952.778C61.4091 983.903 -65.8177 978.613 -180.326 936.984C-195.001 931.653 -209.417 925.687 -223.62 919.194C-225.285 918.425 -226.681 920.937 -224.999 921.716L-224.94 921.726Z" fill="#D81159"/>
<path d="M-218.593 1002.67C-109.729 1052.48 13.5276 1067.87 131.515 1048.27C191.574 1038.29 249.273 1018.85 303.633 991.547C364.427 961.004 422.085 923.22 487.066 901.77C519.608 891.03 554.197 884.533 588.46 889.269C624.635 894.264 658.668 909.4 692.56 922.2C728.466 935.729 764.516 948.868 800.711 961.617C833.839 973.299 867.2 986.43 901.771 993.179C929.986 998.89 959.157 997.786 986.861 989.961C1012.4 982.739 1036.52 971.485 1061.03 961.481C1085.33 951.551 1110.63 942.365 1137.1 940.858C1172 938.934 1203.11 953.289 1232.35 970.825C1260.41 987.661 1287.64 1004.99 1317.86 1017.83C1345.62 1029.62 1374.52 1038.54 1404.09 1044.44C1463.82 1056.39 1525.35 1055.99 1584.91 1043.26C1599.79 1040.03 1614.49 1036.01 1628.95 1031.23C1630.71 1030.65 1629.9 1027.9 1628.14 1028.48C1507.59 1068.18 1372.37 1052.49 1263.84 986.875C1235.57 969.791 1207.75 950.018 1175.3 941.709C1150.18 935.271 1124.38 937.622 1099.65 944.621C1049.12 958.932 1003.04 990.186 949.651 993.844C915.133 996.22 881.371 986.277 849.016 975.356C813.072 963.214 777.45 950.484 741.817 937.453C707.237 924.813 673.069 910.761 638.195 898.898C606.223 887.958 573.884 882.2 540.117 886.417C476.226 894.398 417.693 926.736 362.044 957.156C305.236 988.198 248.405 1017.16 185.468 1033.78C67.7235 1064.91 -59.4903 1059.62 -174.012 1017.99C-188.674 1012.66 -203.101 1006.72 -217.293 1000.2C-218.971 999.432 -220.358 1001.95 -218.672 1002.72L-218.593 1002.67Z" fill="#D81159"/>
<path d="M-212.259 1083.63C-103.39 1133.43 19.8702 1148.82 137.857 1129.23C197.916 1119.25 255.616 1099.81 309.98 1072.5C370.761 1041.96 428.432 1004.17 493.408 982.727C525.951 971.987 560.553 965.486 594.816 970.222C630.982 975.213 665.011 990.358 698.916 1003.15C734.825 1016.68 770.875 1029.82 807.067 1042.57C840.191 1054.24 873.547 1067.38 908.126 1074.13C936.342 1079.84 965.511 1078.73 993.213 1070.9C1018.75 1063.69 1042.88 1052.44 1067.38 1042.42C1091.69 1032.5 1116.98 1023.31 1143.46 1021.8C1178.32 1019.86 1209.46 1034.24 1238.7 1051.78C1266.77 1068.61 1294 1085.94 1324.21 1098.78C1351.98 1110.55 1380.88 1119.45 1410.46 1125.34C1470.19 1137.28 1531.73 1136.88 1591.29 1124.16C1606.17 1120.93 1620.87 1116.92 1635.32 1112.14C1637.08 1111.56 1636.28 1108.8 1634.52 1109.37C1513.96 1149.08 1378.74 1133.39 1270.21 1067.78C1241.94 1050.69 1214.13 1030.92 1181.67 1022.62C1156.55 1016.19 1130.74 1018.53 1106.01 1025.54C1055.48 1039.84 1009.4 1071.1 956.021 1074.75C921.495 1077.12 887.732 1067.18 855.387 1056.26C819.442 1044.12 783.778 1031.37 748.187 1018.36C713.612 1005.71 679.431 991.663 644.57 979.797C612.598 968.856 580.254 963.107 546.492 967.315C482.588 975.3 424.06 1007.63 368.419 1038.05C311.606 1069.11 254.776 1098.07 191.83 1114.68C74.0984 1145.81 -53.1285 1140.52 -167.637 1098.89C-182.312 1093.56 -196.728 1087.59 -210.931 1081.1C-212.596 1080.33 -213.984 1082.85 -212.31 1083.62L-212.259 1083.63Z" fill="#D81159"/>
</g>
<path opacity="0.2" fill-rule="evenodd" clip-rule="evenodd" d="M275.566 455.769C412.274 486.488 539.613 587.617 571.653 723.983C600.026 844.743 479.418 935.361 412.838 1040.02C358.452 1125.51 324.26 1228.58 228.872 1262.82C115.817 1303.4 -27.3699 1313.68 -111.933 1228.38C-193.1 1146.49 -133.994 1015.44 -130.561 900.221C-127.139 785.35 -169.983 659.597 -92.4571 574.755C-0.973104 474.638 143.21 426.028 275.566 455.769Z" fill="#FBB13C"/>
</svg>
