<svg width="587" height="470" viewBox="0 0 587 470" fill="none" xmlns="http://www.w3.org/2000/svg">
<path opacity="0.5" d="M13.7135 197.152V200.44H9.24947V214H5.14547V200.44H0.681469V197.152H13.7135ZM19.8772 202.84C20.3572 202.104 20.9572 201.528 21.6772 201.112C22.3972 200.68 23.1972 200.464 24.0772 200.464V204.808H22.9492C21.9252 204.808 21.1572 205.032 20.6452 205.48C20.1332 205.912 19.8772 206.68 19.8772 207.784V214H15.7732V200.608H19.8772V202.84ZM25.2228 207.28C25.2228 205.904 25.4788 204.696 25.9908 203.656C26.5188 202.616 27.2308 201.816 28.1268 201.256C29.0228 200.696 30.0228 200.416 31.1268 200.416C32.0708 200.416 32.8948 200.608 33.5988 200.992C34.3188 201.376 34.8708 201.88 35.2548 202.504V200.608H39.3588V214H35.2548V212.104C34.8548 212.728 34.2948 213.232 33.5748 213.616C32.8708 214 32.0468 214.192 31.1028 214.192C30.0148 214.192 29.0228 213.912 28.1268 213.352C27.2308 212.776 26.5188 211.968 25.9908 210.928C25.4788 209.872 25.2228 208.656 25.2228 207.28ZM35.2548 207.304C35.2548 206.28 34.9668 205.472 34.3908 204.88C33.8308 204.288 33.1428 203.992 32.3268 203.992C31.5108 203.992 30.8148 204.288 30.2388 204.88C29.6788 205.456 29.3988 206.256 29.3988 207.28C29.3988 208.304 29.6788 209.12 30.2388 209.728C30.8148 210.32 31.5108 210.616 32.3268 210.616C33.1428 210.616 33.8308 210.32 34.3908 209.728C34.9668 209.136 35.2548 208.328 35.2548 207.304ZM50.4878 200.464C52.0558 200.464 53.3038 200.976 54.2318 202C55.1758 203.008 55.6478 204.4 55.6478 206.176V214H51.5678V206.728C51.5678 205.832 51.3358 205.136 50.8718 204.64C50.4078 204.144 49.7838 203.896 48.9998 203.896C48.2158 203.896 47.5918 204.144 47.1278 204.64C46.6638 205.136 46.4318 205.832 46.4318 206.728V214H42.3278V200.608H46.4318V202.384C46.8478 201.792 47.4078 201.328 48.1118 200.992C48.8158 200.64 49.6078 200.464 50.4878 200.464ZM63.9477 214.192C62.7797 214.192 61.7397 213.992 60.8277 213.592C59.9157 213.192 59.1957 212.648 58.6677 211.96C58.1397 211.256 57.8437 210.472 57.7797 209.608H61.8357C61.8837 210.072 62.0997 210.448 62.4837 210.736C62.8677 211.024 63.3397 211.168 63.8997 211.168C64.4117 211.168 64.8037 211.072 65.0757 210.88C65.3637 210.672 65.5077 210.408 65.5077 210.088C65.5077 209.704 65.3077 209.424 64.9077 209.248C64.5077 209.056 63.8597 208.848 62.9637 208.624C62.0037 208.4 61.2037 208.168 60.5637 207.928C59.9237 207.672 59.3717 207.28 58.9077 206.752C58.4437 206.208 58.2117 205.48 58.2117 204.568C58.2117 203.8 58.4197 203.104 58.8357 202.48C59.2677 201.84 59.8917 201.336 60.7077 200.968C61.5397 200.6 62.5237 200.416 63.6597 200.416C65.3397 200.416 66.6597 200.832 67.6197 201.664C68.5957 202.496 69.1557 203.6 69.2997 204.976H65.5077C65.4437 204.512 65.2357 204.144 64.8837 203.872C64.5477 203.6 64.0997 203.464 63.5397 203.464C63.0597 203.464 62.6917 203.56 62.4357 203.752C62.1797 203.928 62.0517 204.176 62.0517 204.496C62.0517 204.88 62.2517 205.168 62.6517 205.36C63.0677 205.552 63.7077 205.744 64.5717 205.936C65.5637 206.192 66.3717 206.448 66.9957 206.704C67.6197 206.944 68.1637 207.344 68.6277 207.904C69.1077 208.448 69.3557 209.184 69.3717 210.112C69.3717 210.896 69.1477 211.6 68.6997 212.224C68.2677 212.832 67.6357 213.312 66.8037 213.664C65.9877 214.016 65.0357 214.192 63.9477 214.192ZM75.9865 202.504C76.3865 201.88 76.9385 201.376 77.6425 200.992C78.3465 200.608 79.1705 200.416 80.1145 200.416C81.2185 200.416 82.2185 200.696 83.1145 201.256C84.0105 201.816 84.7145 202.616 85.2265 203.656C85.7545 204.696 86.0185 205.904 86.0185 207.28C86.0185 208.656 85.7545 209.872 85.2265 210.928C84.7145 211.968 84.0105 212.776 83.1145 213.352C82.2185 213.912 81.2185 214.192 80.1145 214.192C79.1865 214.192 78.3625 214 77.6425 213.616C76.9385 213.232 76.3865 212.736 75.9865 212.128V220.384H71.8825V200.608H75.9865V202.504ZM81.8425 207.28C81.8425 206.256 81.5545 205.456 80.9785 204.88C80.4185 204.288 79.7225 203.992 78.8905 203.992C78.0745 203.992 77.3785 204.288 76.8025 204.88C76.2425 205.472 75.9625 206.28 75.9625 207.304C75.9625 208.328 76.2425 209.136 76.8025 209.728C77.3785 210.32 78.0745 210.616 78.8905 210.616C79.7065 210.616 80.4025 210.32 80.9785 209.728C81.5545 209.12 81.8425 208.304 81.8425 207.28ZM87.3556 207.28C87.3556 205.904 87.6116 204.696 88.1236 203.656C88.6516 202.616 89.3636 201.816 90.2596 201.256C91.1556 200.696 92.1556 200.416 93.2596 200.416C94.2036 200.416 95.0276 200.608 95.7316 200.992C96.4516 201.376 97.0036 201.88 97.3876 202.504V200.608H101.492V214H97.3876V212.104C96.9876 212.728 96.4276 213.232 95.7076 213.616C95.0036 214 94.1796 214.192 93.2356 214.192C92.1476 214.192 91.1556 213.912 90.2596 213.352C89.3636 212.776 88.6516 211.968 88.1236 210.928C87.6116 209.872 87.3556 208.656 87.3556 207.28ZM97.3876 207.304C97.3876 206.28 97.0996 205.472 96.5236 204.88C95.9636 204.288 95.2756 203.992 94.4596 203.992C93.6436 203.992 92.9476 204.288 92.3716 204.88C91.8116 205.456 91.5316 206.256 91.5316 207.28C91.5316 208.304 91.8116 209.12 92.3716 209.728C92.9476 210.32 93.6436 210.616 94.4596 210.616C95.2756 210.616 95.9636 210.32 96.5236 209.728C97.0996 209.136 97.3876 208.328 97.3876 207.304ZM108.565 202.84C109.045 202.104 109.645 201.528 110.365 201.112C111.085 200.68 111.885 200.464 112.765 200.464V204.808H111.637C110.613 204.808 109.845 205.032 109.333 205.48C108.821 205.912 108.565 206.68 108.565 207.784V214H104.461V200.608H108.565V202.84ZM127.35 207.088C127.35 207.472 127.326 207.872 127.278 208.288H117.99C118.054 209.12 118.318 209.76 118.782 210.208C119.262 210.64 119.846 210.856 120.534 210.856C121.558 210.856 122.27 210.424 122.67 209.56H127.038C126.814 210.44 126.406 211.232 125.814 211.936C125.238 212.64 124.51 213.192 123.63 213.592C122.75 213.992 121.766 214.192 120.678 214.192C119.366 214.192 118.198 213.912 117.174 213.352C116.15 212.792 115.35 211.992 114.774 210.952C114.198 209.912 113.91 208.696 113.91 207.304C113.91 205.912 114.19 204.696 114.75 203.656C115.326 202.616 116.126 201.816 117.15 201.256C118.174 200.696 119.35 200.416 120.678 200.416C121.974 200.416 123.126 200.688 124.134 201.232C125.142 201.776 125.926 202.552 126.486 203.56C127.062 204.568 127.35 205.744 127.35 207.088ZM123.15 206.008C123.15 205.304 122.91 204.744 122.43 204.328C121.95 203.912 121.35 203.704 120.63 203.704C119.942 203.704 119.358 203.904 118.878 204.304C118.414 204.704 118.126 205.272 118.014 206.008H123.15ZM137.675 200.464C139.243 200.464 140.491 200.976 141.419 202C142.363 203.008 142.835 204.4 142.835 206.176V214H138.755V206.728C138.755 205.832 138.523 205.136 138.059 204.64C137.595 204.144 136.971 203.896 136.187 203.896C135.403 203.896 134.779 204.144 134.315 204.64C133.851 205.136 133.619 205.832 133.619 206.728V214H129.515V200.608H133.619V202.384C134.035 201.792 134.595 201.328 135.299 200.992C136.003 200.64 136.795 200.464 137.675 200.464ZM144.871 207.304C144.871 205.912 145.151 204.696 145.711 203.656C146.287 202.616 147.079 201.816 148.087 201.256C149.111 200.696 150.279 200.416 151.591 200.416C153.271 200.416 154.671 200.856 155.791 201.736C156.927 202.616 157.671 203.856 158.023 205.456H153.655C153.287 204.432 152.575 203.92 151.519 203.92C150.767 203.92 150.167 204.216 149.719 204.808C149.271 205.384 149.047 206.216 149.047 207.304C149.047 208.392 149.271 209.232 149.719 209.824C150.167 210.4 150.767 210.688 151.519 210.688C152.575 210.688 153.287 210.176 153.655 209.152H158.023C157.671 210.72 156.927 211.952 155.791 212.848C154.655 213.744 153.255 214.192 151.591 214.192C150.279 214.192 149.111 213.912 148.087 213.352C147.079 212.792 146.287 211.992 145.711 210.952C145.151 209.912 144.871 208.696 144.871 207.304ZM173.898 200.608L165.498 220.36H161.082L164.154 213.544L158.706 200.608H163.29L166.386 208.984L169.458 200.608H173.898Z" fill="#FBB13C"/>
<path fill-rule="evenodd" clip-rule="evenodd" d="M267.476 79.5707C313.476 54.4828 368.295 71.3234 416.347 92.216C456.617 109.725 484.525 142.545 503.448 182.17C524.761 226.797 547.479 276.956 525.799 321.404C502.925 368.302 450.272 394.495 398.207 397.936C350.822 401.067 313.48 368.082 276.85 337.856C235.954 304.11 184.287 272.815 182.364 219.828C180.277 162.329 216.964 107.119 267.476 79.5707Z" fill="#E9F3F2"/>
<path d="M408.122 236.551C407.992 234.883 406.355 233.783 404.819 233.117C402.574 232.143 399.889 231.258 399.025 228.967C398.934 228.768 398.905 228.545 398.942 228.329C399.017 228.109 399.161 227.92 399.353 227.789C400.646 226.76 402.68 226.829 403.897 227.942C403.035 227.942 402.426 226.877 402.75 226.078C403.073 225.28 404.088 224.902 404.915 225.147C405.742 225.391 406.352 226.138 406.607 226.958C406.184 225.341 406.525 223.619 407.533 222.286C407.936 221.768 408.472 221.296 409.122 221.181C410.531 220.934 411.646 222.368 412.155 223.703C412.846 225.516 413.1 227.466 412.897 229.395C413.543 228.442 414.464 227.364 415.599 227.572C416.671 227.769 417.178 228.995 417.423 230.054C417.952 232.352 418.124 234.718 417.931 237.069L417.943 236.211" fill="#020A44"/>
<path d="M420.939 236.657C421.036 233.708 422.533 230.981 424.97 229.316C425.313 229.887 425.455 230.555 425.376 231.216C425.068 227.695 428.093 224.813 431.068 222.917C431.297 222.772 431.545 222.623 431.816 222.631C432.462 222.651 432.733 223.478 432.707 224.125C432.643 225.529 432.041 226.854 431.025 227.826C431.305 226.624 431.958 225.129 433.188 225.23C434.022 225.297 434.603 226.18 434.621 227.017C434.64 227.854 434.241 228.641 433.827 229.368C431.827 232.875 429.207 235.99 426.094 238.561C425.661 238.92 424.846 239.169 424.681 238.632" fill="#020A44"/>
<path d="M414.726 238.189C414.444 231.482 410.791 224.994 405.2 221.287C403.957 220.46 402.601 219.742 401.636 218.604C400.671 217.465 400.195 215.736 400.989 214.471C401.783 213.206 404.094 213.14 404.581 214.548C403.465 213.921 402.382 212.818 402.58 211.552C402.778 210.287 405.013 209.851 405.233 211.113L401.094 206.884C401.624 205.638 403.762 205.634 404.297 206.884C397.803 205.02 394.853 197.681 392.784 191.247C394.692 190.729 396.89 191.617 397.905 193.316C395.333 190.765 393.783 187.36 393.548 183.744C393.467 182.411 393.643 180.911 394.663 180.049C395.636 179.23 397.08 179.262 398.294 179.635C401.641 180.663 403.898 183.734 405.682 186.75C410.914 195.602 414.169 205.482 415.221 215.711C415.926 214.103 417.801 212.219 419.041 213.46C419.362 213.783 419.5 214.237 419.583 214.688C419.888 216.34 419.602 218.047 418.776 219.511C420.156 219.212 421.242 220.992 420.864 222.357C420.486 223.721 419.253 224.638 418.098 225.452C419.65 229.786 419.909 234.477 418.845 238.955" fill="#020A44"/>
<path d="M416.208 231.82C417.114 223.389 416.708 214.868 415.005 206.561C414.401 203.62 414.168 199.621 416.986 198.583L418.424 201.04C418.178 199.673 417.937 198.238 418.369 196.918C418.801 195.597 420.149 194.46 421.502 194.777C420.914 193.373 420.315 191.849 420.666 190.368C421.017 188.887 422.794 187.676 424.091 188.473C421.159 179.855 421.923 170.046 426.161 161.985C426.855 160.666 427.774 159.283 429.215 158.904C430.549 158.553 431.954 159.181 433.052 160.015C437.224 163.184 438.365 168.953 438.462 174.192C438.644 185.309 435.548 196.234 429.558 205.602C431.073 205.204 431.628 203.229 433.051 202.564C435.061 201.62 437.285 204.14 436.973 206.338C436.661 208.535 434.87 210.184 433.191 211.641L436.148 211.53C434.8 215.231 432.348 218.429 429.124 220.691C430.345 218.545 434.169 218.952 435 221.276C435.832 223.601 433.319 226.321 430.914 225.769L432.65 227.009C430.426 228.76 427.683 229.696 425.239 231.126C422.795 232.555 420.5 234.775 420.257 237.594" fill="#020A44"/>
<path d="M353.92 169.857H335.174C326.387 169.858 318.353 174.822 314.422 182.681L306.855 197.808C304.701 202.116 303.528 206.848 303.422 211.663L303.366 214.228C303.26 219.039 300.523 223.403 296.24 225.595L288.557 229.526C284.571 231.565 282.064 235.664 282.063 240.141C282.063 246.727 287.402 252.066 293.987 252.066H359.573C376.66 252.066 390.811 238.795 391.906 221.741C392.179 217.492 391.612 213.231 390.236 209.201L384.203 191.523C379.783 178.566 367.61 169.857 353.92 169.857V169.857Z" fill="#FBB13C"/>
<path d="M339.136 152.447C338.114 152.11 337.268 151.125 337.324 150.051C337.381 148.977 338.557 148.042 339.568 148.412C339.228 147.483 339.421 146.442 340.071 145.696C340.721 144.95 341.725 144.616 342.692 144.825C343.299 143.135 344.87 141.982 346.664 141.908C348.458 141.833 350.118 142.853 350.863 144.487C352.081 143.39 354.227 144.01 355.053 145.425C355.88 146.84 355.607 148.682 354.822 150.119C355.76 149.312 357.348 150.266 357.562 151.485C357.775 152.705 357.101 153.893 356.388 154.907C357.294 154.691 358.044 155.813 357.859 156.718C357.674 157.624 356.923 158.292 356.215 158.889C357.007 158.697 357.553 159.863 357.157 160.57C356.761 161.278 355.906 161.578 355.126 161.814C355.683 162.164 355.505 163.107 354.96 163.472C354.416 163.837 353.704 163.819 353.047 163.779C353.765 163.976 353.823 165.088 353.285 165.606C352.747 166.125 351.936 166.198 351.191 166.212C351.487 166.689 351.398 167.311 350.978 167.685C350.559 168.059 349.932 168.078 349.491 167.729C347.869 169.023 345.047 168.09 344.503 166.093" fill="#101010"/>
<path d="M337.322 241.911L331.574 245.618L341.822 250.822L343.092 253.984C343.228 254.247 343.51 254.401 343.805 254.373C344.1 254.344 344.348 254.139 344.43 253.855L346.289 247.49C346.296 247.467 346.302 247.445 346.306 247.421C346.36 247.114 346.196 246.81 345.909 246.688C345.4 246.456 344.885 246.239 344.4 245.961L337.322 241.911Z" fill="#101010"/>
<path d="M329.539 243.755L329.608 243.711L327.57 242.676C327.918 242.857 328.662 243.26 329.539 243.755Z" fill="#101010"/>
<path d="M340.553 223.741L315.778 206.377C315.778 206.377 302.971 199.297 298.752 211.939C294.532 224.582 334.406 246.832 334.406 246.832L336.288 245.345C336.288 245.345 323.974 235.875 326.045 230.817C328.116 225.759 309.472 217.279 309.472 217.279C309.472 217.279 330.935 237.284 345.682 236.995C360.019 236.717 340.553 223.741 340.553 223.741Z" fill="#101010"/>
<path d="M329.612 177.865L334.755 187.294C328.273 197.914 316.459 208.52 315.109 202.615C313.76 196.71 329.612 177.865 329.612 177.865V177.865Z" fill="#73D2DE"/>
<path d="M334.013 184.715C331.952 184.715 330.107 183.611 330.107 187.89C330.107 188.938 326.995 196.285 327.176 197.197C329.485 194.728 331.594 192.078 333.481 189.273C332.802 187.58 335.163 184.715 334.013 184.715Z" fill="#101010"/>
<path d="M311.749 201.516C314.175 200.497 314.668 199.964 317.135 199.048C319.602 198.132 323.185 197.401 326.697 197.307C326.901 197.31 327.097 197.382 327.254 197.512C327.424 197.668 327.55 197.868 327.616 198.089C327.903 198.831 328.111 199.602 328.234 200.388C328.317 200.913 328.364 201.467 328.162 201.961C328.013 202.293 327.801 202.592 327.537 202.842C326.502 203.895 325.144 204.582 323.734 205.016C322.324 205.451 320.854 205.65 319.391 205.847L314.279 206.535C313.528 206.636 312.768 206.738 312.018 206.632C311.267 206.526 310.52 206.187 310.085 205.568C309.813 205.179 309.683 204.71 309.557 204.252C309.447 203.851 309.38 203.33 309.73 203.106" fill="#73D2DE"/>
<path d="M331.906 245.706L335.422 251.36C335.568 251.596 335.534 251.901 335.339 252.098L333.249 254.204C333.04 254.413 332.98 254.728 333.097 255C333.214 255.271 333.485 255.444 333.78 255.436L341.502 255.235C341.525 255.236 341.549 255.236 341.573 255.235C341.783 255.201 341.967 255.073 342.069 254.886C342.172 254.699 342.183 254.475 342.098 254.28L338.384 245.354L331.906 245.706Z" fill="#BD7B63"/>
<path d="M357.036 202.295C356.963 201.017 360.298 197.816 360.221 196.538C360.124 194.931 360.032 193.323 359.963 191.714C359.851 189.187 361.016 186.463 360.386 183.992C357.981 174.562 344.931 172.917 336.363 175.015C332.417 175.981 329.58 176.241 328.262 180.331C327.615 182.356 328.427 183.944 329.102 185.821C330.047 188.442 329.807 191.42 330.655 194.108C331.474 196.71 333.578 198.796 333.783 201.611C333.854 202.58 330.177 217.064 330.065 217.042C337.64 218.535 352.703 220.121 359.956 218.292C360.667 218.116 361.161 217.472 361.149 216.74C361.061 211.282 357.351 207.748 357.036 202.295Z" fill="#73D2DE"/>
<path d="M359.871 218.206C360.581 218.029 361.076 217.386 361.063 216.654C360.992 212.134 358.44 208.933 357.383 204.874C356.082 204.384 354.734 204.025 353.361 203.803C351.58 203.508 349.755 203.398 348.041 202.835C345.628 202.041 343.539 200.377 341.063 199.817C339.319 199.42 338.881 199.123 337.11 198.869C335.339 198.616 331.59 196.6 330.917 194.94C331.869 197.14 333.519 199.045 333.697 201.518C333.768 202.487 330.092 216.972 329.979 216.95C337.554 218.449 352.619 220.035 359.871 218.206Z" fill="#73D2DE"/>
<path d="M357.495 205.29C355.814 204.877 354.067 204.727 352.333 204.622C350.598 204.518 348.823 204.453 347.066 204.431C346.091 204.418 345.107 204.419 344.149 204.606C342.367 204.952 340.73 205.929 338.922 206.093C336.86 206.28 334.668 205.405 332.754 206.106C332.431 207.479 332.058 209.005 331.692 210.472C332.425 211.206 333.556 211.438 334.6 211.61C340.914 212.645 347.277 213.422 353.666 213.769C355.714 213.883 357.779 213.953 359.806 213.64C360.074 213.597 360.341 213.547 360.606 213.491C359.846 210.623 358.318 208.158 357.495 205.29Z" fill="#101010"/>
<path d="M336.363 175.015C336.142 175.069 335.927 175.121 335.716 175.171C335.692 178.241 336.084 181.921 339.538 182.066C344.841 182.291 346.363 177.943 347.338 174.48C343.678 173.983 339.958 174.164 336.363 175.015Z" fill="#BD7B63"/>
<path d="M323.094 200.287L324.227 198.836C325.381 197.684 326.971 197.079 328.599 197.174C329.088 197.205 329.602 197.315 329.959 197.65C330.183 197.883 330.355 198.16 330.463 198.465C331.179 200.197 331.307 202.117 330.828 203.929C330.788 204.091 330.646 204.207 330.48 204.215C330.247 204.215 330.173 204.01 330.124 203.827C329.829 202.75 329.535 201.672 329.241 200.593C329.167 201.587 329.092 202.581 329.017 203.576C328.995 203.877 328.968 204.194 328.758 204.427C328.641 204.564 328.459 204.628 328.281 204.595C327.982 204.527 327.893 204.197 327.839 203.912C327.659 202.902 327.555 201.88 327.528 200.854C327.58 201.911 327.565 202.97 327.483 204.025C327.46 204.321 327.383 204.682 327.066 204.736C326.936 204.756 326.804 204.716 326.707 204.627C326.492 204.445 326.438 204.172 326.387 203.911C326.206 202.962 326.024 202.014 325.843 201.065C325.791 201.927 325.739 202.79 325.686 203.652C325.667 203.982 325.606 204.375 325.298 204.514C325.137 204.573 324.96 204.576 324.797 204.523C324.492 204.444 324.214 204.285 323.99 204.063C323.447 203.528 323.232 202.806 323.101 202.087C322.909 201.021 322.246 200.968 323.094 200.287Z" fill="#BD7B63"/>
<path d="M345.796 199.587C345.796 199.587 353.321 199.244 351.896 190.899C350.757 184.245 357.617 192.063 360.443 195.513C360.48 196.19 360.52 196.867 360.56 197.544C360.637 198.824 360.715 200.102 360.789 201.38L360.836 202.192L345.796 199.587Z" fill="#73D2DE"/>
<path d="M351.896 190.899L360.158 194.687C360.192 195.303 360.228 195.92 360.265 196.538C360.341 197.816 360.42 199.095 360.494 200.373L360.541 201.184L354.639 200.162C353.602 196.893 351.896 190.899 351.896 190.899Z" fill="#101010"/>
<path d="M356.621 178.113C361.001 182.501 365.011 187.564 368.032 192.977C369.552 195.701 371.078 198.553 371.677 201.644C372.049 203.564 371.946 205.813 370.976 207.554C370.459 208.491 369.57 209.279 368.518 209.455C367.806 209.572 367.066 209.407 366.411 209.098C364.859 208.362 363.794 206.891 362.918 205.411C359.507 199.641 354.795 194.466 350.321 189.47L356.621 178.113Z" fill="#73D2DE"/>
<path d="M359.404 199.883L353.308 192.397C352.783 191.75 352.229 191.117 351.845 190.375C351.731 190.152 351.396 190.349 351.51 190.57C351.85 191.228 352.324 191.8 352.789 192.371L354.334 194.267L357.382 198.011L359.129 200.157C359.287 200.351 359.56 200.074 359.404 199.883Z" fill="#101010"/>
<path d="M344.011 163.357L345.697 175.888L338.013 176.355L336.793 165.566L344.011 163.357Z" fill="#BD7B63"/>
<path d="M347.165 155.695C346.584 154.09 345.176 153.271 343.525 152.752C342.061 152.301 340.521 152.149 338.997 152.305C336.37 152.563 333.443 153.441 332.945 156.385C332.773 157.395 332.815 158.438 332.784 159.458C332.737 161.047 332.797 162.637 332.964 164.218C333.084 165.335 333.266 166.474 333.8 167.463C334.516 168.79 335.731 169.653 337.124 170.27C337.49 170.432 337.868 170.577 338.252 170.709C339.473 171.126 340.798 171.126 342.019 170.709C342.407 170.579 342.781 170.432 343.146 170.27C344.539 169.653 345.755 168.79 346.472 167.463C347.006 166.474 347.187 165.335 347.308 164.218C347.451 162.873 347.517 161.522 347.507 160.17C347.496 158.9 347.593 157.544 347.331 156.296C347.29 156.092 347.234 155.891 347.165 155.695Z" fill="#BD7B63"/>
<ellipse cx="1.73601" cy="1.97013" rx="1.73601" ry="1.97013" transform="matrix(0.943629 -0.331006 0.331011 0.943627 330.799 160.6)" fill="#BD7B63"/>
<ellipse cx="1.97014" cy="1.73601" rx="1.97014" ry="1.73601" transform="matrix(0.331012 -0.943626 0.943629 0.331005 344.908 163.18)" fill="#BD7B63"/>
<path d="M332.842 160.878C333.435 160.748 333.877 160.218 334.048 159.636C334.219 159.054 334.158 158.43 334.057 157.825C334.045 157.755 334.016 157.668 333.945 157.666C333.536 158.238 333.148 158.825 332.78 159.427" fill="#101010"/>
<path d="M345.231 157.955C345.065 158.624 345.122 159.329 345.394 159.963C345.653 160.557 346.121 161.083 346.735 161.279C346.902 161.335 347.078 161.358 347.253 161.347C347.293 161.349 347.333 161.333 347.359 161.302C347.375 161.272 347.38 161.237 347.372 161.204C347.261 160.17 347.078 159.145 346.822 158.138C346.795 158.034 346.741 157.909 346.635 157.909" fill="#101010"/>
<path d="M332.568 161.404C332.568 161.453 332.527 161.513 332.472 161.509L332.445 161.501C332.433 161.487 332.466 161.501 332.445 161.501C332.454 161.509 332.462 161.518 332.47 161.527C332.454 161.505 332.49 161.549 332.47 161.527C332.485 161.549 332.503 161.575 332.519 161.6C332.548 161.647 332.574 161.696 332.598 161.746C332.612 161.776 332.589 161.724 332.598 161.754C332.607 161.783 332.607 161.778 332.612 161.79C332.617 161.801 332.631 161.845 332.639 161.874C332.654 161.924 332.666 161.975 332.675 162.027C332.675 162.027 332.683 162.08 332.675 162.059C332.668 162.038 332.675 162.078 332.675 162.081V162.16V162.325C332.675 162.337 332.675 162.353 332.675 162.325L332.668 162.373C332.668 162.403 332.656 162.431 332.648 162.46L332.973 162.375L332.951 162.351C332.964 162.371 332.965 162.372 332.951 162.351C332.943 162.338 332.935 162.324 332.929 162.31C332.948 162.353 332.929 162.3 332.929 162.29V162.267C332.929 162.292 332.929 162.294 332.929 162.267C332.929 162.24 332.929 162.236 332.929 162.221C332.929 162.271 332.929 162.206 332.939 162.195C332.93 162.226 332.939 162.195 332.939 162.184C332.944 162.175 332.951 162.167 332.957 162.159C332.942 162.177 332.943 162.178 332.957 162.159C333.029 162.082 333.026 161.963 332.953 161.889C332.879 161.815 332.76 161.813 332.683 161.884C332.482 162.098 332.487 162.433 332.696 162.64C332.746 162.687 332.816 162.705 332.883 162.688C332.949 162.67 333.001 162.619 333.021 162.553C333.102 162.222 333.07 161.873 332.931 161.562C332.872 161.405 332.773 161.266 332.643 161.16C332.553 161.095 332.436 161.083 332.335 161.13C332.235 161.176 332.168 161.273 332.159 161.384C332.161 161.49 332.247 161.576 332.353 161.578C332.459 161.575 332.545 161.49 332.547 161.384L332.568 161.404Z" fill="#101010"/>
<path d="M348.099 161.404C348.091 161.295 348.026 161.198 347.927 161.151C347.829 161.104 347.713 161.113 347.623 161.175C347.488 161.28 347.385 161.421 347.327 161.582C347.188 161.894 347.156 162.242 347.237 162.573C347.257 162.639 347.309 162.69 347.375 162.708C347.442 162.726 347.513 162.708 347.562 162.66C347.771 162.453 347.777 162.118 347.575 161.905C347.499 161.833 347.379 161.835 347.306 161.909C347.232 161.983 347.23 162.102 347.301 162.179C347.315 162.194 347.315 162.196 347.301 162.179C347.307 162.187 347.313 162.196 347.318 162.205C347.327 162.22 347.331 162.249 347.318 162.215C347.318 162.215 347.334 162.278 347.328 162.25C347.321 162.221 347.328 162.281 347.328 162.287C347.328 162.33 347.338 162.26 347.328 162.299C347.328 162.308 347.303 162.37 347.328 162.326C347.321 162.34 347.314 162.354 347.306 162.368C347.293 162.386 347.294 162.384 347.306 162.368L347.284 162.391L347.607 162.476C347.607 162.45 347.596 162.426 347.591 162.4L347.583 162.351C347.583 162.319 347.583 162.378 347.583 162.351C347.579 162.296 347.579 162.24 347.583 162.185C347.583 162.159 347.583 162.134 347.583 162.108V162.069C347.583 162.101 347.583 162.059 347.583 162.052C347.591 161.997 347.604 161.943 347.62 161.89C347.62 161.866 347.636 161.84 347.644 161.817L347.658 161.779C347.658 161.77 347.669 161.753 347.658 161.771C347.68 161.721 347.706 161.672 347.735 161.625C347.75 161.601 347.766 161.576 347.783 161.551C347.8 161.527 347.801 161.531 347.783 161.551L347.808 161.524C347.826 161.506 347.82 161.524 347.799 161.524C347.739 161.538 347.695 161.475 347.693 161.422C347.693 161.529 347.78 161.616 347.887 161.616C347.994 161.616 348.081 161.529 348.081 161.422L348.099 161.404Z" fill="#101010"/>
<path d="M338.953 164.152V164.466L339.199 164.278C338.966 164.244 338.731 164.331 338.578 164.51C338.421 164.671 338.364 164.905 338.431 165.121C338.583 165.537 339.077 165.656 339.482 165.63C339.707 165.631 339.918 165.525 340.051 165.344C340.105 165.251 340.074 165.133 339.982 165.078C339.889 165.026 339.772 165.057 339.716 165.148C339.703 165.166 339.703 165.167 339.716 165.148L339.693 165.172C339.668 165.199 339.715 165.163 339.68 165.183L339.636 165.207L339.613 165.215C339.593 165.221 339.573 165.227 339.553 165.231C339.544 165.231 339.494 165.241 339.535 165.231C339.492 165.236 339.449 165.238 339.406 165.238C339.24 165.248 339.075 165.214 338.926 165.14C338.87 165.111 338.825 165.066 338.797 165.011C338.778 164.977 338.797 165.024 338.789 164.989C338.785 164.977 338.782 164.965 338.78 164.952C338.78 164.97 338.78 164.973 338.78 164.952C338.78 164.934 338.788 164.892 338.78 164.925C338.784 164.905 338.79 164.886 338.797 164.867C338.788 164.893 338.811 164.839 338.815 164.831C338.819 164.823 338.852 164.776 338.838 164.796C338.851 164.78 338.865 164.765 338.879 164.751C338.879 164.751 338.926 164.71 338.904 164.727C338.927 164.71 338.951 164.695 338.976 164.683L338.995 164.674H339.007C339.007 164.674 339.068 164.66 339.036 164.665C339.045 164.665 339.115 164.665 339.088 164.665C339.146 164.68 339.208 164.667 339.256 164.631C339.303 164.594 339.332 164.538 339.333 164.478V164.163C339.333 164.056 339.246 163.97 339.139 163.969C339.033 163.971 338.947 164.057 338.945 164.163L338.953 164.152Z" fill="#101010"/>
<path d="M335.965 160.298C336.387 160.298 336.81 160.277 337.23 160.242C337.336 160.239 337.421 160.154 337.424 160.048C337.423 159.941 337.337 159.855 337.23 159.854C336.81 159.889 336.387 159.907 335.965 159.91C335.858 159.91 335.771 159.997 335.771 160.104C335.771 160.211 335.858 160.298 335.965 160.298Z" fill="#101010"/>
<path d="M343.023 159.91C342.6 159.91 342.178 159.891 341.758 159.854C341.706 159.854 341.656 159.874 341.62 159.91C341.583 159.947 341.563 159.996 341.563 160.048C341.566 160.154 341.652 160.239 341.758 160.242C342.178 160.277 342.6 160.295 343.023 160.298C343.129 160.296 343.215 160.21 343.217 160.104C343.214 159.998 343.129 159.912 343.023 159.91Z" fill="#101010"/>
<path d="M341.737 165.688C341.708 165.733 341.677 165.776 341.644 165.817C341.644 165.81 341.66 165.797 341.644 165.817L341.618 165.848C341.601 165.869 341.583 165.89 341.565 165.909C341.493 165.989 341.414 166.064 341.331 166.132L341.305 166.152C341.262 166.186 341.336 166.13 341.293 166.162L341.227 166.209C341.184 166.238 341.142 166.265 341.098 166.291C341.054 166.317 341.003 166.344 340.955 166.369L340.882 166.402C340.851 166.415 340.865 166.41 340.882 166.402L340.836 166.42C340.738 166.453 340.683 166.556 340.71 166.656C340.737 166.755 340.838 166.816 340.939 166.794C341.408 166.616 341.809 166.293 342.082 165.872C342.131 165.781 342.101 165.668 342.014 165.613C341.92 165.562 341.803 165.593 341.747 165.683L341.737 165.688Z" fill="#101010"/>
<path d="M369.906 208.821C369.906 208.821 368.591 203.757 365.556 201.609C362.662 199.558 346.54 198.773 343.306 198.375C342.992 198.335 342.674 198.405 342.407 198.575C341.631 199.068 340.363 200.375 341.436 203.325C341.569 203.688 341.852 203.977 342.212 204.117C345.795 205.518 365.808 213.071 369.906 208.821Z" fill="#73D2DE"/>
<path d="M365.654 201.44C365.271 201.191 364.856 200.996 364.419 200.861C363.823 200.659 363.216 200.492 362.601 200.36C360.993 199.998 359.357 199.759 357.723 199.547C355.863 199.305 353.998 199.112 352.13 198.94C350.434 198.783 348.737 198.646 347.038 198.51C345.874 198.417 344.716 198.337 343.558 198.212L343.3 198.182C343.052 198.152 343.054 198.54 343.3 198.57C344.351 198.699 345.413 198.769 346.469 198.853C348.118 198.983 349.768 199.112 351.416 199.263C353.267 199.429 355.115 199.613 356.959 199.838C358.627 200.043 360.296 200.276 361.944 200.614C362.591 200.743 363.248 200.9 363.885 201.094C364.349 201.221 364.798 201.4 365.222 201.628C365.301 201.673 365.377 201.721 365.452 201.773C365.657 201.918 365.851 201.581 365.648 201.438L365.654 201.44Z" fill="white"/>
<path d="M333.85 203.564C333.875 203.76 334.026 203.916 334.222 203.946C334.417 203.976 334.608 203.873 334.691 203.694C334.719 203.634 334.745 203.573 334.77 203.515C335.12 202.699 335.47 201.884 335.819 201.068C335.772 202.003 335.731 202.967 336.05 203.846C336.18 204.185 336.367 204.524 336.721 204.655C336.896 204.724 337.094 204.71 337.257 204.615C337.516 204.453 337.525 204.167 337.524 203.907C337.524 203.853 337.524 203.8 337.524 203.746C337.653 204.166 338.099 204.535 338.437 204.179C338.509 204.1 338.559 204.004 338.585 203.901C338.789 203.13 338.994 202.359 339.199 201.588C339.144 202.23 339.17 202.877 339.279 203.513C339.328 203.802 339.409 204.108 339.651 204.289C339.784 204.39 339.961 204.414 340.116 204.352C340.326 204.26 340.356 204.06 340.375 203.874C340.394 203.687 340.401 203.486 340.402 203.288C340.402 203.162 340.482 203.049 340.601 203.007C340.72 202.966 340.852 203.003 340.931 203.101C341.068 203.271 341.229 203.419 341.41 203.541C342.277 204.114 343.564 203.8 344.169 202.958C344.522 202.44 344.661 201.806 344.557 201.188C344.466 200.643 344.212 200.138 343.83 199.739C342.425 198.224 340.467 197.184 338.397 197.177C337.841 197.153 337.287 197.255 336.776 197.475C336.04 197.826 335.528 198.51 335.102 199.211C334.308 200.515 333.696 202.068 333.85 203.564Z" fill="#BD7B63"/>
<path d="M297.021 207.491H326.108L319.751 185.216C319.623 184.766 319.211 184.456 318.743 184.456H290.016C289.857 184.456 289.707 184.53 289.611 184.657C289.515 184.784 289.483 184.949 289.526 185.102L295.606 206.422C295.786 207.055 296.364 207.491 297.021 207.491Z" fill="#101010"/>
<path d="M342.076 207.491H303.581V204.349H343.15C343.453 204.349 343.698 204.594 343.698 204.897V205.87C343.698 206.766 342.972 207.492 342.076 207.492V207.491Z" fill="#E7E7E7"/>
<path d="M295.837 207.491H324.929L318.572 185.216C318.443 184.767 318.033 184.456 317.565 184.456H288.835C288.677 184.458 288.528 184.534 288.433 184.66C288.337 184.786 288.304 184.949 288.344 185.102L294.424 206.422C294.603 207.054 295.18 207.491 295.837 207.491Z" fill="#E7E7E7"/>
<path d="M358.598 224.134L338.486 213.078C338.486 213.078 319.299 199.519 312.02 206.632C304.741 213.746 332.768 247.885 332.768 247.885H339.859C339.859 247.885 336.866 238.993 333.768 230.597C336.315 233.544 339.658 236.103 343.875 236.862C355.459 238.947 359.391 225.768 358.598 224.134Z" fill="#020A44"/>
<rect x="340.66" y="206.213" width="1.60149" height="0.58989" rx="0.294945" transform="rotate(-180 340.66 206.213)" fill="#101010"/>
<rect x="338.13" y="206.213" width="1.60147" height="0.58989" rx="0.294945" transform="rotate(-180 338.13 206.213)" fill="#101010"/>
<path d="M367.793 209.725C366.292 209.963 364.745 209.901 363.239 209.756C361.406 209.565 359.586 209.263 357.789 208.851C355.882 208.432 353.995 207.931 352.123 207.379C350.349 206.853 348.59 206.283 346.844 205.668C345.446 205.176 344.055 204.657 342.683 204.097L342.27 203.926C342.169 203.898 342.064 203.955 342.032 204.055C342.005 204.156 342.062 204.261 342.161 204.293C343.486 204.846 344.83 205.354 346.18 205.838C347.901 206.455 349.637 207.028 351.388 207.558C353.269 208.128 355.167 208.645 357.08 209.084C358.914 209.517 360.772 209.846 362.643 210.071C364.204 210.248 365.799 210.341 367.364 210.157C367.538 210.137 367.711 210.113 367.882 210.086C368.128 210.047 368.023 209.672 367.778 209.712L367.793 209.725Z" fill="#101010"/>
<path d="M344.155 202.698C343.719 203.224 343.1 203.566 342.422 203.655C342.073 203.72 341.712 203.656 341.407 203.475C341.121 203.284 340.915 202.987 340.72 202.709C340.578 202.506 340.241 202.699 340.385 202.905C340.595 203.24 340.861 203.536 341.172 203.782C341.526 204.014 341.953 204.109 342.372 204.049C343.172 203.972 343.91 203.585 344.429 202.972C344.589 202.782 344.316 202.506 344.155 202.698Z" fill="#101010"/>
<path d="M337.233 200.903C336.974 201.966 336.982 203.077 337.257 204.137C337.292 204.232 337.394 204.284 337.492 204.257C337.59 204.23 337.65 204.133 337.632 204.033C337.375 203.044 337.366 202.005 337.608 201.011C337.666 200.77 337.292 200.666 337.233 200.909V200.903Z" fill="#101010"/>
<path d="M335.793 200.895C335.535 201.375 335.311 201.872 335.123 202.383C335.034 202.624 334.961 202.869 334.88 203.113C334.838 203.303 334.727 203.47 334.568 203.582C334.508 203.617 334.472 203.682 334.472 203.751C334.473 203.82 334.51 203.884 334.57 203.919C334.631 203.953 334.705 203.952 334.765 203.917C335.199 203.673 335.282 203.109 335.428 202.678C335.619 202.131 335.853 201.6 336.128 201.091C336.247 200.871 335.912 200.674 335.793 200.895Z" fill="#101010"/>
<path d="M339.239 201.292C338.851 202.068 338.713 202.946 338.516 203.779C338.459 204.022 338.833 204.126 338.89 203.883C338.988 203.465 339.084 203.046 339.186 202.629C339.273 202.235 339.403 201.852 339.574 201.487C339.686 201.264 339.351 201.068 339.239 201.292Z" fill="#101010"/>
<path d="M340.486 202.257C340.338 202.79 340.236 203.335 340.181 203.885C340.181 203.992 340.268 204.079 340.375 204.079C340.482 204.079 340.569 203.992 340.569 203.885C340.622 203.369 340.72 202.859 340.861 202.361C340.879 202.261 340.818 202.164 340.721 202.137C340.623 202.111 340.521 202.163 340.486 202.257Z" fill="#101010"/>
<path d="M329.031 200.629C329.316 201.123 329.404 201.7 329.521 202.25L329.92 204.111C329.973 204.354 330.347 204.251 330.295 204.008L329.882 202.083C329.761 201.519 329.659 200.941 329.365 200.434C329.309 200.345 329.193 200.317 329.103 200.37C329.013 200.422 328.981 200.537 329.03 200.629H329.031Z" fill="#101010"/>
<path d="M327.221 201.253C327.479 202.288 327.446 203.366 327.663 204.407C327.713 204.652 328.087 204.548 328.037 204.304C327.821 203.269 327.852 202.185 327.594 201.15C327.534 200.908 327.16 201.012 327.221 201.253Z" fill="#101010"/>
<path d="M325.668 201.264C325.831 202.113 325.956 202.967 326.043 203.827C326.045 203.933 326.131 204.019 326.237 204.021C326.344 204.021 326.431 203.934 326.431 203.827C326.345 202.933 326.216 202.045 326.043 201.161C325.997 200.916 325.621 201.02 325.669 201.264H325.668Z" fill="#101010"/>
<path d="M339.324 213.622C343.602 216.432 348.521 218.115 353.624 218.514L354.659 218.926C356.33 221.566 357.609 224.513 358.171 227.572C356.657 231.62 353.815 235.165 349.544 236.452C348.291 236.823 346.991 237.006 345.685 236.996C344.524 236.992 343.416 236.51 342.621 235.664C341.826 234.819 341.413 233.683 341.481 232.524C341.64 229.793 341.998 227.054 342.033 224.32C342.081 220.295 341.205 215.924 338.489 213.077C338.775 213.262 339.054 213.451 339.324 213.622Z" fill="#020A44"/>
<path d="M359.159 218.439C359.427 218.41 359.575 218.391 359.575 218.391C359.704 218.374 359.404 222.118 359.377 222.385C358.923 226.85 356.982 231.57 353.438 234.399C354.343 222.772 342.212 215.298 342.212 215.298C347.437 217.966 353.325 219.057 359.159 218.439Z" fill="#101010"/>
<path d="M305.32 197.41H306.962C307.229 197.411 307.481 197.286 307.642 197.073C307.802 196.86 307.854 196.584 307.78 196.328L307.53 195.453C307.384 194.939 306.914 194.584 306.379 194.584H304.71C304.442 194.584 304.189 194.71 304.027 194.924C303.865 195.138 303.814 195.416 303.888 195.674L304.117 196.505C304.27 197.042 304.761 197.412 305.32 197.41Z" fill="#E7E7E7"/>
<path d="M326.017 218C327.892 219.395 329.341 221.274 330.493 223.29C331.706 225.412 332.584 227.688 333.422 229.978C333.908 231.305 334.413 232.623 334.997 233.909C335.101 234.136 335.436 233.939 335.332 233.713C334.298 231.429 333.554 229.029 332.586 226.718C331.653 224.493 330.541 222.319 329.037 220.427C328.22 219.387 327.27 218.458 326.213 217.665C326.012 217.515 325.824 217.853 326.017 218Z" fill="#101010"/>
<path d="M325.131 217.472L325.188 217.416C325.207 217.399 325.22 217.377 325.228 217.353C325.24 217.33 325.246 217.305 325.245 217.279C325.246 217.253 325.24 217.227 325.228 217.204C325.22 217.18 325.207 217.158 325.188 217.141L325.149 217.111C325.119 217.093 325.085 217.085 325.051 217.085L324.999 217.091C324.967 217.101 324.938 217.117 324.914 217.141L324.857 217.198C324.839 217.215 324.825 217.236 324.817 217.26C324.794 217.307 324.794 217.362 324.817 217.41C324.825 217.433 324.839 217.454 324.857 217.472L324.897 217.503C324.926 217.52 324.96 217.529 324.994 217.529H325.046C325.078 217.52 325.108 217.503 325.131 217.478V217.472Z" fill="#101010"/>
<path d="M326.981 216.582C327.329 217.348 327.51 218.179 327.511 219.021C327.511 219.128 327.598 219.215 327.705 219.215C327.812 219.215 327.899 219.128 327.899 219.021C327.895 218.111 327.696 217.212 327.316 216.385C327.281 216.326 327.216 216.289 327.147 216.29C327.078 216.29 327.014 216.328 326.979 216.388C326.945 216.448 326.946 216.522 326.981 216.582Z" fill="#101010"/>
<path d="M302 210.841C302.802 210.58 303.641 210.451 304.484 210.461C304.591 210.461 304.678 210.374 304.678 210.267C304.678 210.159 304.591 210.073 304.484 210.073C303.606 210.06 302.732 210.191 301.897 210.461C301.66 210.537 301.761 210.912 302 210.835V210.841Z" fill="#020A44"/>
<path d="M302.229 212.795C302.717 212.538 303.258 212.397 303.81 212.385C304.06 212.385 304.06 211.997 303.81 211.997C303.19 212.011 302.581 212.17 302.033 212.46C301.811 212.576 302.008 212.911 302.229 212.795Z" fill="#020A44"/>
<path d="M305.243 212.218C305.351 212.218 305.437 212.131 305.437 212.024C305.437 211.917 305.351 211.83 305.243 211.83C305.136 211.83 305.049 211.917 305.049 212.024C305.049 212.131 305.136 212.218 305.243 212.218Z" fill="#020A44"/>
<path d="M301.113 214.831C301.22 214.831 301.307 214.745 301.307 214.637C301.307 214.53 301.22 214.443 301.113 214.443C301.006 214.443 300.919 214.53 300.919 214.637C300.919 214.745 301.006 214.831 301.113 214.831Z" fill="#020A44"/>
<path d="M340.929 97.4285L337.446 100.908L333.964 97.4285C331.632 95.0964 328.469 93.7863 325.171 93.7863C321.873 93.7863 318.71 95.0964 316.379 97.4285C314.046 99.7604 312.736 102.923 312.736 106.221C312.736 109.519 314.046 112.682 316.379 115.014L319.861 118.501L333.955 132.601C334.881 133.529 336.137 134.049 337.447 134.049C338.758 134.049 340.014 133.529 340.94 132.601L355.04 118.501L358.514 115.009C360.846 112.677 362.156 109.514 362.156 106.216C362.156 102.918 360.846 99.7552 358.514 97.4233C356.181 95.092 353.018 93.7827 349.72 93.7837C346.422 93.7847 343.26 95.0958 340.929 97.4285Z" fill="#FBB13C"/>
<path d="M297.669 137.413L295.677 139.405L293.683 137.413C292.349 136.077 290.539 135.327 288.651 135.327C286.763 135.327 284.952 136.077 283.618 137.413C282.283 138.747 281.532 140.558 281.532 142.445C281.532 144.333 282.283 146.144 283.618 147.478L285.618 149.47L293.685 157.537C294.215 158.067 294.933 158.365 295.683 158.365C296.432 158.365 297.151 158.067 297.681 157.537L305.748 149.47L307.738 147.478C309.073 146.144 309.823 144.334 309.823 142.446C309.823 140.559 309.073 138.748 307.738 137.414C306.404 136.077 304.593 135.326 302.704 135.326C300.815 135.325 299.004 136.076 297.669 137.413Z" fill="#E7E7E7"/>
<path d="M381.215 137.412L379.221 139.405L377.229 137.412C375.895 136.077 374.084 135.327 372.197 135.327C370.309 135.327 368.498 136.077 367.164 137.412C365.828 138.747 365.078 140.557 365.078 142.445C365.078 144.333 365.828 146.143 367.164 147.478L369.157 149.47L377.224 157.537C377.754 158.067 378.473 158.365 379.222 158.365C379.972 158.365 380.69 158.067 381.22 157.537L389.287 149.47L391.28 147.477C392.615 146.142 393.365 144.332 393.365 142.444C393.365 140.557 392.615 138.747 391.28 137.412C389.946 136.077 388.136 135.327 386.248 135.327C384.36 135.327 382.549 136.077 381.215 137.412Z" fill="#E7E7E7"/>
<path d="M336.161 108.668H339.105V118.717H336.161V108.668Z" fill="white"/>
<ellipse cx="335.476" cy="118.717" rx="3.62984" ry="3.62984" fill="white"/>
<path d="M343.046 105.476L336.161 106.944V108.447V110.923V112.426L343.046 110.958V105.476Z" fill="white"/>
<path d="M336.036 163.131C336.457 163.283 336.923 163.249 337.317 163.035C337.406 162.981 337.436 162.868 337.387 162.776C337.332 162.685 337.214 162.654 337.122 162.707L337.054 162.74L337.019 162.756C337.035 162.756 337.038 162.756 337.019 162.756C336.978 162.771 336.937 162.786 336.89 162.797C336.843 162.809 336.805 162.819 336.761 162.827L336.724 162.833C336.743 162.833 336.744 162.833 336.724 162.833H336.659C336.612 162.836 336.564 162.836 336.517 162.833C336.499 162.835 336.48 162.835 336.461 162.833C336.454 162.833 336.379 162.823 336.419 162.833C336.325 162.819 336.234 162.795 336.145 162.761C336.044 162.733 335.939 162.79 335.907 162.89C335.88 162.992 335.937 163.096 336.036 163.13V163.131Z" fill="#101010"/>
<path d="M341.772 163.131C342.194 163.283 342.66 163.248 343.054 163.035C343.142 162.979 343.171 162.863 343.118 162.773C343.065 162.683 342.951 162.65 342.859 162.7L342.792 162.733L342.757 162.749H342.75C342.71 162.764 342.667 162.779 342.621 162.79C342.574 162.802 342.535 162.812 342.491 162.82L342.454 162.827C342.475 162.827 342.475 162.827 342.454 162.827H342.388C342.341 162.829 342.293 162.829 342.246 162.827C342.227 162.828 342.209 162.828 342.19 162.827C342.182 162.827 342.109 162.816 342.147 162.827C342.054 162.812 341.963 162.788 341.874 162.754C341.773 162.726 341.668 162.783 341.636 162.883C341.61 162.985 341.666 163.089 341.766 163.123L341.772 163.131Z" fill="#101010"/>
<path d="M339.63 171.199C341.412 171.323 343.179 170.801 344.606 169.728C344.803 169.579 344.606 169.241 344.411 169.393C343.044 170.428 341.348 170.934 339.636 170.816C339.388 170.799 339.389 171.187 339.636 171.204L339.63 171.199Z" fill="#101010"/>
<path d="M333.234 158.955C333.057 158.789 332.778 158.817 332.543 158.878C331.873 159.045 331.268 159.409 330.807 159.924C330.348 160.443 330.108 161.121 330.136 161.813C330.203 162.957 331.084 163.907 332.076 164.476C332.243 164.584 332.431 164.654 332.627 164.681C332.829 164.706 333.026 164.614 333.137 164.445C333.2 164.294 333.217 164.129 333.186 163.969C333.065 162.603 332.973 161.336 333.256 159.996C333.327 159.499 333.468 159.176 333.234 158.955Z" fill="#73D2DE"/>
<path d="M346.726 159.741C346.902 159.576 347.183 159.604 347.417 159.665C348.087 159.831 348.691 160.195 349.152 160.71C349.611 161.23 349.852 161.907 349.824 162.6C349.756 163.744 348.876 164.693 347.884 165.262C347.718 165.371 347.529 165.441 347.333 165.468C347.132 165.492 346.935 165.401 346.824 165.231C346.761 165.081 346.744 164.915 346.775 164.755C346.897 163.389 346.989 162.123 346.705 160.783C346.632 160.285 346.491 159.962 346.726 159.741Z" fill="#73D2DE"/>
<path d="M347.854 160.257C348.341 160.098 348.745 159.752 348.977 159.295C349.208 158.838 349.249 158.307 349.089 157.82C349.245 157.732 349.406 157.924 349.477 158.079L350.245 159.698C350.392 160.01 350.543 160.345 350.466 160.687C350.242 161.648 349.22 162.48 348.38 162.917" fill="#73D2DE"/>
<path d="M332.629 160.257C332.141 160.099 331.737 159.752 331.505 159.295C331.273 158.838 331.232 158.307 331.392 157.82C331.237 157.732 331.075 157.924 331.004 158.079L330.237 159.698C330.089 160.01 329.939 160.345 330.017 160.687C330.239 161.648 331.263 162.48 332.101 162.917" fill="#73D2DE"/>
<path d="M330.247 160.295C329.86 161.121 329.827 162.07 330.157 162.921C330.487 163.772 331.15 164.451 331.993 164.801C332.367 164.957 332.956 165.189 333.249 164.781C333.398 164.579 333.06 164.385 332.914 164.586C332.828 164.705 332.472 164.561 332.368 164.529C332.154 164.459 331.948 164.364 331.755 164.246C330.467 163.476 329.962 161.861 330.582 160.494C330.684 160.268 330.349 160.07 330.247 160.298V160.295Z" fill="#101010"/>
<path d="M346.84 165.565C347.924 165.733 348.889 164.899 349.45 164.053C350.013 163.206 350.258 162.187 350.143 161.176C350.111 160.932 349.723 160.929 349.754 161.176C349.862 162.067 349.665 162.968 349.196 163.733C348.749 164.46 347.881 165.336 346.943 165.191C346.699 165.154 346.593 165.528 346.84 165.565Z" fill="#101010"/>
<path d="M340.596 152.006C339.809 151.254 338.623 151.047 337.547 151.208C336.47 151.368 335.477 151.847 334.491 152.32L332.093 153.484C331.132 153.949 330.102 154.478 329.764 155.554C329.648 155.903 329.688 156.285 329.873 156.603C330.318 157.334 331.218 157.092 331.886 157.405C331.313 157.405 330.87 158.04 330.965 158.607C331.059 159.174 331.582 159.604 332.147 159.703C332.713 159.801 333.296 159.615 333.78 159.307C334.264 158.999 334.663 158.579 335.058 158.162C335.211 158.46 335.588 158.582 335.918 158.536C336.248 158.467 336.558 158.324 336.824 158.117C337.522 157.636 338.179 157.097 338.785 156.504C338.517 156.956 339.015 157.553 339.542 157.575C340.068 157.597 340.532 157.256 340.931 156.912C341.472 156.446 341.981 155.942 342.455 155.407C342.553 155.296 342.704 155.249 342.848 155.284C342.991 155.319 343.104 155.43 343.14 155.573C343.464 156.822 344.121 157.958 345.041 158.862C345.147 158.956 345.243 159.062 345.326 159.177C345.404 159.298 345.456 159.436 345.524 159.556C345.777 159.951 346.272 160.113 346.709 159.945C346.901 160.522 347.486 160.979 348.087 160.911C348.689 160.842 349.17 160.141 348.923 159.588C349.193 159.771 349.586 159.523 349.67 159.206C349.754 158.889 349.63 158.559 349.509 158.254C348.871 156.651 348.135 154.931 346.638 154.072C346.932 154.435 347.7 154.35 347.627 153.574C347.625 153.55 347.62 153.528 347.611 153.506C347.522 153.329 347.388 153.179 347.223 153.069C346.705 152.655 346.18 152.23 345.548 152.045C344.915 151.86 344.148 151.97 343.737 152.486C343.101 151.753 342.246 151.245 341.3 151.034C341.025 150.973 340.721 150.944 340.479 151.087C340.237 151.231 340.131 151.605 340.342 151.796" fill="#101010"/>
<path d="M397.644 236.258C397.638 242.277 400.422 247.959 405.18 251.644C405.531 251.915 405.962 252.061 406.405 252.06H427.832C428.276 252.061 428.707 251.915 429.059 251.644C433.816 247.958 436.599 242.277 436.594 236.258C436.592 235.517 436.549 234.777 436.464 234.041C436.349 233.022 435.487 232.253 434.462 232.252H399.773C398.747 232.251 397.885 233.022 397.77 234.041C397.686 234.777 397.644 235.517 397.644 236.258Z" fill="#E7E7E7"/>
<path d="M325.774 147.901C326.506 148.882 327.157 149.92 327.722 151.006C327.837 151.227 328.172 151.031 328.057 150.81C327.493 149.724 326.842 148.686 326.109 147.706C325.962 147.508 325.624 147.706 325.774 147.901Z" fill="#101010"/>
<path d="M324.168 152.514L326.108 153.693C326.321 153.823 326.517 153.488 326.303 153.358L324.363 152.179C324.149 152.049 323.954 152.384 324.168 152.514Z" fill="#101010"/>
<path d="M331.01 147.421L331.333 149.193C331.348 149.263 331.401 149.319 331.47 149.339C331.539 149.358 331.613 149.338 331.662 149.286C331.712 149.234 331.729 149.159 331.706 149.091L331.386 147.318C331.353 147.217 331.248 147.16 331.146 147.188C331.044 147.219 330.984 147.324 331.01 147.428V147.421Z" fill="#101010"/>
<path d="M334.128 149.418C334.235 149.418 334.322 149.331 334.322 149.224C334.322 149.117 334.235 149.03 334.128 149.03C334.021 149.03 333.934 149.117 333.934 149.224C333.934 149.331 334.021 149.418 334.128 149.418Z" fill="#101010"/>
<path d="M374.148 199.262C375.341 202.344 375.377 205.753 374.249 208.858C374.164 209.094 374.539 209.195 374.623 208.962C375.507 206.496 375.69 203.833 375.15 201.27C374.997 200.551 374.787 199.845 374.522 199.159C374.433 198.929 374.058 199.03 374.148 199.262Z" fill="#101010"/>
<path d="M377.763 203.731C377.931 204.414 377.968 205.122 377.873 205.819C377.846 205.92 377.903 206.025 378.002 206.058C378.103 206.087 378.209 206.03 378.241 205.929C378.351 205.164 378.314 204.385 378.131 203.634C378.072 203.392 377.698 203.495 377.757 203.738L377.763 203.731Z" fill="#101010"/>
<path d="M282.934 185.829C283.326 184.196 284.334 182.779 285.747 181.873C285.958 181.743 285.764 181.403 285.552 181.538C284.052 182.496 282.981 183.997 282.561 185.726C282.503 185.968 282.877 186.072 282.935 185.829H282.934Z" fill="#101010"/>
<path d="M280.636 182.382L281.661 181.384C281.71 181.335 281.729 181.263 281.711 181.196C281.693 181.129 281.64 181.077 281.573 181.059C281.506 181.041 281.434 181.061 281.385 181.11L280.361 182.107C280.285 182.183 280.285 182.307 280.361 182.382C280.438 182.458 280.561 182.458 280.636 182.382Z" fill="#101010"/>
<path d="M219.854 326.528H208.718V337.92H198.35V326.528H187.214V316.736H198.35V305.28H208.718V316.736H219.854V326.528ZM238.916 307.456V297.28H256.644V344H245.252V307.456H238.916ZM297.026 306.816H277.058V315.648C277.911 314.709 279.106 313.941 280.642 313.344C282.178 312.747 283.842 312.448 285.634 312.448C288.834 312.448 291.479 313.173 293.57 314.624C295.703 316.075 297.261 317.952 298.242 320.256C299.223 322.56 299.714 325.056 299.714 327.744C299.714 332.736 298.306 336.704 295.49 339.648C292.674 342.549 288.706 344 283.586 344C280.173 344 277.207 343.424 274.69 342.272C272.173 341.077 270.231 339.435 268.866 337.344C267.501 335.253 266.754 332.843 266.626 330.112H277.314C277.57 331.435 278.189 332.544 279.17 333.44C280.151 334.293 281.495 334.72 283.202 334.72C285.207 334.72 286.701 334.08 287.682 332.8C288.663 331.52 289.154 329.813 289.154 327.68C289.154 325.589 288.642 323.989 287.618 322.88C286.594 321.771 285.101 321.216 283.138 321.216C281.687 321.216 280.493 321.579 279.554 322.304C278.615 322.987 277.997 323.904 277.698 325.056H267.138V297.216H297.026V306.816ZM371.286 299.072V344H360.342V317.056L350.294 344H341.462L331.35 316.992V344H320.406V299.072H333.333L345.942 330.176L358.422 299.072H371.286ZM384.66 304.576C382.74 304.576 381.161 304.021 379.924 302.912C378.729 301.76 378.132 300.352 378.132 298.688C378.132 296.981 378.729 295.573 379.924 294.464C381.161 293.312 382.74 292.736 384.66 292.736C386.537 292.736 388.073 293.312 389.268 294.464C390.505 295.573 391.124 296.981 391.124 298.688C391.124 300.352 390.505 301.76 389.268 302.912C388.073 304.021 386.537 304.576 384.66 304.576ZM390.1 308.288V344H379.156V308.288H390.1ZM408.975 296.64V344H398.031V296.64H408.975ZM427.85 296.64V344H416.906V296.64H427.85ZM441.285 304.576C439.365 304.576 437.786 304.021 436.549 302.912C435.354 301.76 434.757 300.352 434.757 298.688C434.757 296.981 435.354 295.573 436.549 294.464C437.786 293.312 439.365 292.736 441.285 292.736C443.162 292.736 444.698 293.312 445.893 294.464C447.13 295.573 447.749 296.981 447.749 298.688C447.749 300.352 447.13 301.76 445.893 302.912C444.698 304.021 443.162 304.576 441.285 304.576ZM446.725 308.288V344H435.781V308.288H446.725ZM470.912 344.512C467.413 344.512 464.256 343.765 461.44 342.272C458.666 340.779 456.469 338.645 454.848 335.872C453.269 333.099 452.48 329.856 452.48 326.144C452.48 322.475 453.29 319.253 454.911 316.48C456.533 313.664 458.752 311.509 461.568 310.016C464.384 308.523 467.541 307.776 471.04 307.776C474.538 307.776 477.696 308.523 480.512 310.016C483.328 311.509 485.546 313.664 487.168 316.48C488.789 319.253 489.6 322.475 489.6 326.144C489.6 329.813 488.768 333.056 487.104 335.872C485.482 338.645 483.242 340.779 480.384 342.272C477.568 343.765 474.41 344.512 470.912 344.512ZM470.912 335.04C473.002 335.04 474.773 334.272 476.224 332.736C477.717 331.2 478.464 329.003 478.464 326.144C478.464 323.285 477.738 321.088 476.288 319.552C474.88 318.016 473.13 317.248 471.04 317.248C468.906 317.248 467.136 318.016 465.728 319.552C464.32 321.045 463.616 323.243 463.616 326.144C463.616 329.003 464.298 331.2 465.664 332.736C467.072 334.272 468.821 335.04 470.912 335.04ZM517.166 307.904C521.347 307.904 524.675 309.269 527.15 312C529.667 314.688 530.926 318.4 530.926 323.136V344H520.046V324.608C520.046 322.219 519.427 320.363 518.19 319.04C516.952 317.717 515.288 317.056 513.198 317.056C511.107 317.056 509.443 317.717 508.206 319.04C506.968 320.363 506.35 322.219 506.35 324.608V344H495.406V308.288H506.35V313.024C507.459 311.445 508.952 310.208 510.83 309.312C512.707 308.373 514.819 307.904 517.166 307.904Z" fill="#101010"/>
<path d="M251.571 380.624C251.571 378.992 251.939 377.528 252.675 376.232C253.411 374.92 254.411 373.896 255.675 373.16C256.955 372.424 258.371 372.056 259.923 372.056C261.747 372.056 263.339 372.496 264.699 373.376C266.059 374.256 267.051 375.504 267.675 377.12H265.059C264.595 376.112 263.923 375.336 263.043 374.792C262.179 374.248 261.139 373.976 259.923 373.976C258.755 373.976 257.707 374.248 256.779 374.792C255.851 375.336 255.123 376.112 254.595 377.12C254.067 378.112 253.803 379.28 253.803 380.624C253.803 381.952 254.067 383.12 254.595 384.128C255.123 385.12 255.851 385.888 256.779 386.432C257.707 386.976 258.755 387.248 259.923 387.248C261.139 387.248 262.179 386.984 263.043 386.456C263.923 385.912 264.595 385.136 265.059 384.128H267.675C267.051 385.728 266.059 386.968 264.699 387.848C263.339 388.712 261.747 389.144 259.923 389.144C258.371 389.144 256.955 388.784 255.675 388.064C254.411 387.328 253.411 386.312 252.675 385.016C251.939 383.72 251.571 382.256 251.571 380.624ZM276.662 389.216C275.43 389.216 274.31 388.936 273.302 388.376C272.31 387.816 271.526 387.024 270.95 386C270.39 384.96 270.11 383.76 270.11 382.4C270.11 381.056 270.398 379.872 270.974 378.848C271.566 377.808 272.366 377.016 273.374 376.472C274.382 375.912 275.51 375.632 276.758 375.632C278.006 375.632 279.134 375.912 280.142 376.472C281.15 377.016 281.942 377.8 282.518 378.824C283.11 379.848 283.406 381.04 283.406 382.4C283.406 383.76 283.102 384.96 282.494 386C281.902 387.024 281.094 387.816 280.07 388.376C279.046 388.936 277.91 389.216 276.662 389.216ZM276.662 387.296C277.446 387.296 278.182 387.112 278.87 386.744C279.558 386.376 280.11 385.824 280.526 385.088C280.958 384.352 281.174 383.456 281.174 382.4C281.174 381.344 280.966 380.448 280.55 379.712C280.134 378.976 279.59 378.432 278.918 378.08C278.246 377.712 277.518 377.528 276.734 377.528C275.934 377.528 275.198 377.712 274.526 378.08C273.87 378.432 273.342 378.976 272.942 379.712C272.542 380.448 272.342 381.344 272.342 382.4C272.342 383.472 272.534 384.376 272.918 385.112C273.318 385.848 273.846 386.4 274.502 386.768C275.158 387.12 275.878 387.296 276.662 387.296ZM302.094 375.608C303.118 375.608 304.03 375.824 304.83 376.256C305.63 376.672 306.262 377.304 306.726 378.152C307.19 379 307.422 380.032 307.422 381.248V389H305.262V381.56C305.262 380.248 304.934 379.248 304.278 378.56C303.638 377.856 302.766 377.504 301.662 377.504C300.526 377.504 299.622 377.872 298.95 378.608C298.278 379.328 297.942 380.376 297.942 381.752V389H295.782V381.56C295.782 380.248 295.454 379.248 294.798 378.56C294.158 377.856 293.286 377.504 292.182 377.504C291.046 377.504 290.142 377.872 289.47 378.608C288.798 379.328 288.462 380.376 288.462 381.752V389H286.278V375.848H288.462V377.744C288.894 377.056 289.47 376.528 290.19 376.16C290.926 375.792 291.734 375.608 292.614 375.608C293.718 375.608 294.694 375.856 295.542 376.352C296.39 376.848 297.022 377.576 297.438 378.536C297.806 377.608 298.414 376.888 299.262 376.376C300.11 375.864 301.054 375.608 302.094 375.608ZM326.82 375.608C327.844 375.608 328.756 375.824 329.556 376.256C330.356 376.672 330.988 377.304 331.452 378.152C331.916 379 332.148 380.032 332.148 381.248V389H329.988V381.56C329.988 380.248 329.66 379.248 329.004 378.56C328.364 377.856 327.492 377.504 326.388 377.504C325.252 377.504 324.348 377.872 323.676 378.608C323.004 379.328 322.668 380.376 322.668 381.752V389H320.508V381.56C320.508 380.248 320.18 379.248 319.524 378.56C318.884 377.856 318.012 377.504 316.908 377.504C315.772 377.504 314.868 377.872 314.196 378.608C313.524 379.328 313.188 380.376 313.188 381.752V389H311.004V375.848H313.188V377.744C313.62 377.056 314.196 376.528 314.916 376.16C315.652 375.792 316.46 375.608 317.34 375.608C318.444 375.608 319.42 375.856 320.268 376.352C321.116 376.848 321.748 377.576 322.164 378.536C322.532 377.608 323.14 376.888 323.988 376.376C324.836 375.864 325.78 375.608 326.82 375.608ZM347.395 375.848V389H345.211V387.056C344.795 387.728 344.211 388.256 343.459 388.64C342.723 389.008 341.907 389.192 341.011 389.192C339.987 389.192 339.067 388.984 338.251 388.568C337.435 388.136 336.787 387.496 336.307 386.648C335.843 385.8 335.611 384.768 335.611 383.552V375.848H337.771V383.264C337.771 384.56 338.099 385.56 338.755 386.264C339.411 386.952 340.307 387.296 341.443 387.296C342.611 387.296 343.531 386.936 344.203 386.216C344.875 385.496 345.211 384.448 345.211 383.072V375.848H347.395ZM357.49 375.608C359.09 375.608 360.386 376.096 361.378 377.072C362.37 378.032 362.866 379.424 362.866 381.248V389H360.706V381.56C360.706 380.248 360.378 379.248 359.722 378.56C359.066 377.856 358.17 377.504 357.034 377.504C355.882 377.504 354.962 377.864 354.274 378.584C353.602 379.304 353.266 380.352 353.266 381.728V389H351.082V375.848H353.266V377.72C353.698 377.048 354.282 376.528 355.018 376.16C355.77 375.792 356.594 375.608 357.49 375.608ZM367.562 373.712C367.146 373.712 366.794 373.568 366.506 373.28C366.218 372.992 366.074 372.64 366.074 372.224C366.074 371.808 366.218 371.456 366.506 371.168C366.794 370.88 367.146 370.736 367.562 370.736C367.962 370.736 368.298 370.88 368.57 371.168C368.858 371.456 369.002 371.808 369.002 372.224C369.002 372.64 368.858 372.992 368.57 373.28C368.298 373.568 367.962 373.712 367.562 373.712ZM368.618 375.848V389H366.434V375.848H368.618ZM375.004 377.648V385.4C375.004 386.04 375.14 386.496 375.412 386.768C375.684 387.024 376.156 387.152 376.828 387.152H378.436V389H376.468C375.252 389 374.34 388.72 373.732 388.16C373.124 387.6 372.82 386.68 372.82 385.4V377.648H371.116V375.848H372.82V372.536H375.004V375.848H378.436V377.648H375.004ZM392.41 375.848L384.49 395.192H382.234L384.826 388.856L379.522 375.848H381.946L386.074 386.504L390.154 375.848H392.41ZM406.74 389.216C405.508 389.216 404.388 388.936 403.38 388.376C402.388 387.816 401.604 387.024 401.028 386C400.468 384.96 400.188 383.76 400.188 382.4C400.188 381.056 400.476 379.872 401.052 378.848C401.644 377.808 402.444 377.016 403.452 376.472C404.46 375.912 405.588 375.632 406.836 375.632C408.084 375.632 409.212 375.912 410.22 376.472C411.228 377.016 412.02 377.8 412.596 378.824C413.188 379.848 413.484 381.04 413.484 382.4C413.484 383.76 413.18 384.96 412.572 386C411.98 387.024 411.172 387.816 410.148 388.376C409.124 388.936 407.988 389.216 406.74 389.216ZM406.74 387.296C407.524 387.296 408.26 387.112 408.948 386.744C409.636 386.376 410.188 385.824 410.604 385.088C411.036 384.352 411.252 383.456 411.252 382.4C411.252 381.344 411.044 380.448 410.628 379.712C410.212 378.976 409.668 378.432 408.996 378.08C408.324 377.712 407.596 377.528 406.812 377.528C406.012 377.528 405.276 377.712 404.604 378.08C403.948 378.432 403.42 378.976 403.02 379.712C402.62 380.448 402.42 381.344 402.42 382.4C402.42 383.472 402.612 384.376 402.996 385.112C403.396 385.848 403.924 386.4 404.58 386.768C405.236 387.12 405.956 387.296 406.74 387.296ZM421.708 377.648H418.948V389H416.764V377.648H415.06V375.848H416.764V374.912C416.764 373.44 417.14 372.368 417.892 371.696C418.66 371.008 419.884 370.664 421.564 370.664V372.488C420.604 372.488 419.924 372.68 419.524 373.064C419.14 373.432 418.948 374.048 418.948 374.912V375.848H421.708V377.648ZM436.389 389.216C435.157 389.216 434.037 388.936 433.029 388.376C432.037 387.816 431.253 387.024 430.677 386C430.117 384.96 429.837 383.76 429.837 382.4C429.837 381.056 430.125 379.872 430.701 378.848C431.293 377.808 432.093 377.016 433.101 376.472C434.109 375.912 435.237 375.632 436.485 375.632C437.733 375.632 438.861 375.912 439.869 376.472C440.877 377.016 441.669 377.8 442.245 378.824C442.837 379.848 443.133 381.04 443.133 382.4C443.133 383.76 442.829 384.96 442.221 386C441.629 387.024 440.821 387.816 439.797 388.376C438.773 388.936 437.637 389.216 436.389 389.216ZM436.389 387.296C437.173 387.296 437.909 387.112 438.597 386.744C439.285 386.376 439.837 385.824 440.253 385.088C440.685 384.352 440.901 383.456 440.901 382.4C440.901 381.344 440.693 380.448 440.277 379.712C439.861 378.976 439.317 378.432 438.645 378.08C437.973 377.712 437.245 377.528 436.461 377.528C435.661 377.528 434.925 377.712 434.253 378.08C433.597 378.432 433.069 378.976 432.669 379.712C432.269 380.448 432.069 381.344 432.069 382.4C432.069 383.472 432.261 384.376 432.645 385.112C433.045 385.848 433.573 386.4 434.229 386.768C434.885 387.12 435.605 387.296 436.389 387.296ZM457.668 375.848V389H455.484V387.056C455.068 387.728 454.484 388.256 453.732 388.64C452.996 389.008 452.18 389.192 451.284 389.192C450.26 389.192 449.34 388.984 448.524 388.568C447.708 388.136 447.06 387.496 446.58 386.648C446.116 385.8 445.884 384.768 445.884 383.552V375.848H448.044V383.264C448.044 384.56 448.372 385.56 449.028 386.264C449.684 386.952 450.58 387.296 451.716 387.296C452.884 387.296 453.804 386.936 454.476 386.216C455.148 385.496 455.484 384.448 455.484 383.072V375.848H457.668ZM463.54 377.984C463.924 377.232 464.468 376.648 465.172 376.232C465.892 375.816 466.764 375.608 467.788 375.608V377.864H467.212C464.764 377.864 463.54 379.192 463.54 381.848V389H461.356V375.848H463.54V377.984ZM296.675 409.712C296.259 409.712 295.907 409.568 295.619 409.28C295.331 408.992 295.187 408.64 295.187 408.224C295.187 407.808 295.331 407.456 295.619 407.168C295.907 406.88 296.259 406.736 296.675 406.736C297.075 406.736 297.411 406.88 297.683 407.168C297.971 407.456 298.115 407.808 298.115 408.224C298.115 408.64 297.971 408.992 297.683 409.28C297.411 409.568 297.075 409.712 296.675 409.712ZM297.731 411.848V425H295.547V411.848H297.731ZM307.861 411.608C309.461 411.608 310.757 412.096 311.749 413.072C312.741 414.032 313.237 415.424 313.237 417.248V425H311.077V417.56C311.077 416.248 310.749 415.248 310.093 414.56C309.437 413.856 308.541 413.504 307.405 413.504C306.253 413.504 305.333 413.864 304.645 414.584C303.973 415.304 303.637 416.352 303.637 417.728V425H301.453V411.848H303.637V413.72C304.069 413.048 304.653 412.528 305.389 412.16C306.141 411.792 306.965 411.608 307.861 411.608ZM322.157 413.648H319.397V425H317.213V413.648H315.509V411.848H317.213V410.912C317.213 409.44 317.589 408.368 318.341 407.696C319.109 407.008 320.333 406.664 322.013 406.664V408.488C321.053 408.488 320.373 408.68 319.973 409.064C319.589 409.432 319.397 410.048 319.397 410.912V411.848H322.157V413.648ZM326.887 407.24V425H324.703V407.24H326.887ZM342.274 411.848V425H340.09V423.056C339.674 423.728 339.09 424.256 338.338 424.64C337.602 425.008 336.786 425.192 335.89 425.192C334.866 425.192 333.946 424.984 333.13 424.568C332.314 424.136 331.666 423.496 331.186 422.648C330.722 421.8 330.49 420.768 330.49 419.552V411.848H332.65V419.264C332.65 420.56 332.978 421.56 333.634 422.264C334.29 422.952 335.186 423.296 336.322 423.296C337.49 423.296 338.41 422.936 339.082 422.216C339.754 421.496 340.09 420.448 340.09 419.072V411.848H342.274ZM357.961 417.92C357.961 418.336 357.937 418.776 357.889 419.24H347.377C347.457 420.536 347.897 421.552 348.697 422.288C349.513 423.008 350.497 423.368 351.649 423.368C352.593 423.368 353.377 423.152 354.001 422.72C354.641 422.272 355.089 421.68 355.345 420.944H357.697C357.345 422.208 356.641 423.24 355.585 424.04C354.529 424.824 353.217 425.216 351.649 425.216C350.401 425.216 349.281 424.936 348.289 424.376C347.313 423.816 346.545 423.024 345.985 422C345.425 420.96 345.145 419.76 345.145 418.4C345.145 417.04 345.417 415.848 345.961 414.824C346.505 413.8 347.265 413.016 348.241 412.472C349.233 411.912 350.369 411.632 351.649 411.632C352.897 411.632 354.001 411.904 354.961 412.448C355.921 412.992 356.657 413.744 357.169 414.704C357.697 415.648 357.961 416.72 357.961 417.92ZM355.705 417.464C355.705 416.632 355.521 415.92 355.153 415.328C354.785 414.72 354.281 414.264 353.641 413.96C353.017 413.64 352.321 413.48 351.553 413.48C350.449 413.48 349.505 413.832 348.721 414.536C347.953 415.24 347.513 416.216 347.401 417.464H355.705ZM367.252 411.608C368.852 411.608 370.148 412.096 371.14 413.072C372.132 414.032 372.628 415.424 372.628 417.248V425H370.468V417.56C370.468 416.248 370.14 415.248 369.484 414.56C368.828 413.856 367.932 413.504 366.796 413.504C365.644 413.504 364.724 413.864 364.036 414.584C363.364 415.304 363.028 416.352 363.028 417.728V425H360.844V411.848H363.028V413.72C363.46 413.048 364.044 412.528 364.78 412.16C365.532 411.792 366.356 411.608 367.252 411.608ZM375.38 418.4C375.38 417.04 375.652 415.856 376.196 414.848C376.74 413.824 377.492 413.032 378.452 412.472C379.428 411.912 380.54 411.632 381.788 411.632C383.404 411.632 384.732 412.024 385.772 412.808C386.828 413.592 387.524 414.68 387.86 416.072H385.508C385.284 415.272 384.844 414.64 384.188 414.176C383.548 413.712 382.748 413.48 381.788 413.48C380.54 413.48 379.532 413.912 378.764 414.776C377.996 415.624 377.612 416.832 377.612 418.4C377.612 419.984 377.996 421.208 378.764 422.072C379.532 422.936 380.54 423.368 381.788 423.368C382.748 423.368 383.548 423.144 384.188 422.696C384.828 422.248 385.268 421.608 385.508 420.776H387.86C387.508 422.12 386.804 423.2 385.748 424.016C384.692 424.816 383.372 425.216 381.788 425.216C380.54 425.216 379.428 424.936 378.452 424.376C377.492 423.816 376.74 423.024 376.196 422C375.652 420.976 375.38 419.776 375.38 418.4ZM402.774 417.92C402.774 418.336 402.75 418.776 402.702 419.24H392.19C392.27 420.536 392.71 421.552 393.51 422.288C394.326 423.008 395.31 423.368 396.462 423.368C397.406 423.368 398.19 423.152 398.814 422.72C399.454 422.272 399.902 421.68 400.158 420.944H402.51C402.158 422.208 401.454 423.24 400.398 424.04C399.342 424.824 398.03 425.216 396.462 425.216C395.214 425.216 394.094 424.936 393.102 424.376C392.126 423.816 391.358 423.024 390.798 422C390.238 420.96 389.958 419.76 389.958 418.4C389.958 417.04 390.23 415.848 390.774 414.824C391.318 413.8 392.078 413.016 393.054 412.472C394.046 411.912 395.182 411.632 396.462 411.632C397.71 411.632 398.814 411.904 399.774 412.448C400.734 412.992 401.47 413.744 401.982 414.704C402.51 415.648 402.774 416.72 402.774 417.92ZM400.518 417.464C400.518 416.632 400.334 415.92 399.966 415.328C399.598 414.72 399.094 414.264 398.454 413.96C397.83 413.64 397.134 413.48 396.366 413.48C395.262 413.48 394.318 413.832 393.534 414.536C392.766 415.24 392.326 416.216 392.214 417.464H400.518ZM407.841 413.984C408.225 413.232 408.769 412.648 409.473 412.232C410.193 411.816 411.065 411.608 412.089 411.608V413.864H411.513C409.065 413.864 407.841 415.192 407.841 417.848V425H405.657V411.848H407.841V413.984ZM419.266 425.216C418.258 425.216 417.354 425.048 416.554 424.712C415.754 424.36 415.122 423.88 414.658 423.272C414.194 422.648 413.938 421.936 413.89 421.136H416.146C416.21 421.792 416.514 422.328 417.058 422.744C417.618 423.16 418.346 423.368 419.242 423.368C420.074 423.368 420.73 423.184 421.21 422.816C421.69 422.448 421.93 421.984 421.93 421.424C421.93 420.848 421.674 420.424 421.162 420.152C420.65 419.864 419.858 419.584 418.786 419.312C417.81 419.056 417.01 418.8 416.386 418.544C415.778 418.272 415.25 417.88 414.802 417.368C414.37 416.84 414.154 416.152 414.154 415.304C414.154 414.632 414.354 414.016 414.754 413.456C415.154 412.896 415.722 412.456 416.458 412.136C417.194 411.8 418.034 411.632 418.978 411.632C420.434 411.632 421.61 412 422.506 412.736C423.402 413.472 423.882 414.48 423.946 415.76H421.762C421.714 415.072 421.434 414.52 420.922 414.104C420.426 413.688 419.754 413.48 418.906 413.48C418.122 413.48 417.498 413.648 417.034 413.984C416.57 414.32 416.338 414.76 416.338 415.304C416.338 415.736 416.474 416.096 416.746 416.384C417.034 416.656 417.386 416.88 417.802 417.056C418.234 417.216 418.826 417.4 419.578 417.608C420.522 417.864 421.29 418.12 421.882 418.376C422.474 418.616 422.978 418.984 423.394 419.48C423.826 419.976 424.05 420.624 424.066 421.424C424.066 422.144 423.866 422.792 423.466 423.368C423.066 423.944 422.498 424.4 421.762 424.736C421.042 425.056 420.21 425.216 419.266 425.216Z" fill="#101010"/>
</svg>
