<svg width="575" height="460" viewBox="0 0 575 460" fill="none" xmlns="http://www.w3.org/2000/svg">
<path opacity="0.5" d="M0.0498125 91.552C0.0498125 89.888 0.409813 88.408 1.12981 87.112C1.84981 85.8 2.84981 84.784 4.12981 84.064C5.42581 83.328 6.88981 82.96 8.52181 82.96C10.5218 82.96 12.2338 83.488 13.6578 84.544C15.0818 85.6 16.0338 87.04 16.5138 88.864H12.0018C11.6658 88.16 11.1858 87.624 10.5618 87.256C9.95381 86.888 9.25781 86.704 8.47381 86.704C7.20981 86.704 6.18581 87.144 5.40181 88.024C4.61781 88.904 4.22581 90.08 4.22581 91.552C4.22581 93.024 4.61781 94.2 5.40181 95.08C6.18581 95.96 7.20981 96.4 8.47381 96.4C9.25781 96.4 9.95381 96.216 10.5618 95.848C11.1858 95.48 11.6658 94.944 12.0018 94.24H16.5138C16.0338 96.064 15.0818 97.504 13.6578 98.56C12.2338 99.6 10.5218 100.12 8.52181 100.12C6.88981 100.12 5.42581 99.76 4.12981 99.04C2.84981 98.304 1.84981 97.288 1.12981 95.992C0.409813 94.696 0.0498125 93.216 0.0498125 91.552ZM25.1231 100.192C23.8111 100.192 22.6271 99.912 21.5711 99.352C20.5311 98.792 19.7071 97.992 19.0991 96.952C18.5071 95.912 18.2111 94.696 18.2111 93.304C18.2111 91.928 18.5151 90.72 19.1231 89.68C19.7311 88.624 20.5631 87.816 21.6191 87.256C22.6751 86.696 23.8591 86.416 25.1711 86.416C26.4831 86.416 27.6671 86.696 28.7231 87.256C29.7791 87.816 30.6111 88.624 31.2191 89.68C31.8271 90.72 32.1311 91.928 32.1311 93.304C32.1311 94.68 31.8191 95.896 31.1951 96.952C30.5871 97.992 29.7471 98.792 28.6751 99.352C27.6191 99.912 26.4351 100.192 25.1231 100.192ZM25.1231 96.64C25.9071 96.64 26.5711 96.352 27.1151 95.776C27.6751 95.2 27.9551 94.376 27.9551 93.304C27.9551 92.232 27.6831 91.408 27.1391 90.832C26.6111 90.256 25.9551 89.968 25.1711 89.968C24.3711 89.968 23.7071 90.256 23.1791 90.832C22.6511 91.392 22.3871 92.216 22.3871 93.304C22.3871 94.376 22.6431 95.2 23.1551 95.776C23.6831 96.352 24.3391 96.64 25.1231 96.64ZM38.4123 82.24V100H34.3083V82.24H38.4123ZM45.4904 82.24V100H41.3864V82.24H45.4904ZM47.6486 93.28C47.6486 91.904 47.9046 90.696 48.4166 89.656C48.9446 88.616 49.6566 87.816 50.5526 87.256C51.4486 86.696 52.4486 86.416 53.5526 86.416C54.4966 86.416 55.3206 86.608 56.0246 86.992C56.7446 87.376 57.2966 87.88 57.6806 88.504V86.608H61.7846V100H57.6806V98.104C57.2806 98.728 56.7206 99.232 56.0006 99.616C55.2966 100 54.4726 100.192 53.5286 100.192C52.4406 100.192 51.4486 99.912 50.5526 99.352C49.6566 98.776 48.9446 97.968 48.4166 96.928C47.9046 95.872 47.6486 94.656 47.6486 93.28ZM57.6806 93.304C57.6806 92.28 57.3926 91.472 56.8166 90.88C56.2566 90.288 55.5686 89.992 54.7526 89.992C53.9366 89.992 53.2406 90.288 52.6646 90.88C52.1046 91.456 51.8246 92.256 51.8246 93.28C51.8246 94.304 52.1046 95.12 52.6646 95.728C53.2406 96.32 53.9366 96.616 54.7526 96.616C55.5686 96.616 56.2566 96.32 56.8166 95.728C57.3926 95.136 57.6806 94.328 57.6806 93.304ZM68.8576 88.504C69.2416 87.88 69.7936 87.376 70.5136 86.992C71.2336 86.608 72.0576 86.416 72.9856 86.416C74.0896 86.416 75.0896 86.696 75.9856 87.256C76.8816 87.816 77.5856 88.616 78.0976 89.656C78.6256 90.696 78.8896 91.904 78.8896 93.28C78.8896 94.656 78.6256 95.872 78.0976 96.928C77.5856 97.968 76.8816 98.776 75.9856 99.352C75.0896 99.912 74.0896 100.192 72.9856 100.192C72.0416 100.192 71.2176 100.008 70.5136 99.64C69.8096 99.256 69.2576 98.752 68.8576 98.128V100H64.7536V82.24H68.8576V88.504ZM74.7136 93.28C74.7136 92.256 74.4256 91.456 73.8496 90.88C73.2896 90.288 72.5936 89.992 71.7616 89.992C70.9456 89.992 70.2496 90.288 69.6736 90.88C69.1136 91.472 68.8336 92.28 68.8336 93.304C68.8336 94.328 69.1136 95.136 69.6736 95.728C70.2496 96.32 70.9456 96.616 71.7616 96.616C72.5776 96.616 73.2736 96.32 73.8496 95.728C74.4256 95.12 74.7136 94.304 74.7136 93.28ZM87.1387 100.192C85.8267 100.192 84.6427 99.912 83.5867 99.352C82.5467 98.792 81.7227 97.992 81.1147 96.952C80.5227 95.912 80.2267 94.696 80.2267 93.304C80.2267 91.928 80.5307 90.72 81.1387 89.68C81.7467 88.624 82.5787 87.816 83.6347 87.256C84.6907 86.696 85.8747 86.416 87.1867 86.416C88.4987 86.416 89.6827 86.696 90.7387 87.256C91.7947 87.816 92.6267 88.624 93.2347 89.68C93.8427 90.72 94.1467 91.928 94.1467 93.304C94.1467 94.68 93.8347 95.896 93.2107 96.952C92.6027 97.992 91.7627 98.792 90.6907 99.352C89.6347 99.912 88.4507 100.192 87.1387 100.192ZM87.1387 96.64C87.9227 96.64 88.5867 96.352 89.1307 95.776C89.6907 95.2 89.9707 94.376 89.9707 93.304C89.9707 92.232 89.6987 91.408 89.1547 90.832C88.6267 90.256 87.9707 89.968 87.1867 89.968C86.3867 89.968 85.7227 90.256 85.1947 90.832C84.6667 91.392 84.4027 92.216 84.4027 93.304C84.4027 94.376 84.6587 95.2 85.1707 95.776C85.6987 96.352 86.3547 96.64 87.1387 96.64ZM100.428 88.84C100.908 88.104 101.508 87.528 102.228 87.112C102.948 86.68 103.748 86.464 104.628 86.464V90.808H103.5C102.476 90.808 101.708 91.032 101.196 91.48C100.684 91.912 100.428 92.68 100.428 93.784V100H96.3239V86.608H100.428V88.84ZM105.774 93.28C105.774 91.904 106.03 90.696 106.542 89.656C107.07 88.616 107.782 87.816 108.678 87.256C109.574 86.696 110.574 86.416 111.678 86.416C112.622 86.416 113.446 86.608 114.15 86.992C114.87 87.376 115.422 87.88 115.806 88.504V86.608H119.91V100H115.806V98.104C115.406 98.728 114.846 99.232 114.126 99.616C113.422 100 112.598 100.192 111.654 100.192C110.566 100.192 109.574 99.912 108.678 99.352C107.782 98.776 107.07 97.968 106.542 96.928C106.03 95.872 105.774 94.656 105.774 93.28ZM115.806 93.304C115.806 92.28 115.518 91.472 114.942 90.88C114.382 90.288 113.694 89.992 112.878 89.992C112.062 89.992 111.366 90.288 110.79 90.88C110.23 91.456 109.95 92.256 109.95 93.28C109.95 94.304 110.23 95.12 110.79 95.728C111.366 96.32 112.062 96.616 112.878 96.616C113.694 96.616 114.382 96.32 114.942 95.728C115.518 95.136 115.806 94.328 115.806 93.304ZM130.343 96.52V100H128.255C126.767 100 125.607 99.64 124.775 98.92C123.943 98.184 123.527 96.992 123.527 95.344V90.016H121.895V86.608H123.527V83.344H127.631V86.608H130.319V90.016H127.631V95.392C127.631 95.792 127.727 96.08 127.919 96.256C128.111 96.432 128.431 96.52 128.879 96.52H130.343ZM134.693 85.216C133.973 85.216 133.381 85.008 132.917 84.592C132.469 84.16 132.245 83.632 132.245 83.008C132.245 82.368 132.469 81.84 132.917 81.424C133.381 80.992 133.973 80.776 134.693 80.776C135.397 80.776 135.973 80.992 136.421 81.424C136.885 81.84 137.117 82.368 137.117 83.008C137.117 83.632 136.885 84.16 136.421 84.592C135.973 85.008 135.397 85.216 134.693 85.216ZM136.733 86.608V100H132.629V86.608H136.733ZM145.731 96.16L148.635 86.608H153.003L148.251 100H143.187L138.435 86.608H142.827L145.731 96.16ZM167.354 93.088C167.354 93.472 167.33 93.872 167.282 94.288H157.994C158.058 95.12 158.322 95.76 158.786 96.208C159.266 96.64 159.85 96.856 160.538 96.856C161.562 96.856 162.274 96.424 162.674 95.56H167.042C166.818 96.44 166.41 97.232 165.818 97.936C165.242 98.64 164.514 99.192 163.634 99.592C162.754 99.992 161.77 100.192 160.682 100.192C159.37 100.192 158.202 99.912 157.178 99.352C156.154 98.792 155.354 97.992 154.778 96.952C154.202 95.912 153.914 94.696 153.914 93.304C153.914 91.912 154.194 90.696 154.754 89.656C155.33 88.616 156.13 87.816 157.154 87.256C158.178 86.696 159.354 86.416 160.682 86.416C161.978 86.416 163.13 86.688 164.138 87.232C165.146 87.776 165.93 88.552 166.49 89.56C167.066 90.568 167.354 91.744 167.354 93.088ZM163.154 92.008C163.154 91.304 162.914 90.744 162.434 90.328C161.954 89.912 161.354 89.704 160.634 89.704C159.946 89.704 159.362 89.904 158.882 90.304C158.418 90.704 158.13 91.272 158.018 92.008H163.154ZM187.229 93.088C187.229 93.472 187.205 93.872 187.157 94.288H177.869C177.933 95.12 178.197 95.76 178.661 96.208C179.141 96.64 179.725 96.856 180.413 96.856C181.437 96.856 182.149 96.424 182.549 95.56H186.917C186.693 96.44 186.285 97.232 185.693 97.936C185.117 98.64 184.389 99.192 183.509 99.592C182.629 99.992 181.645 100.192 180.557 100.192C179.245 100.192 178.077 99.912 177.053 99.352C176.029 98.792 175.229 97.992 174.653 96.952C174.077 95.912 173.789 94.696 173.789 93.304C173.789 91.912 174.069 90.696 174.629 89.656C175.205 88.616 176.005 87.816 177.029 87.256C178.053 86.696 179.229 86.416 180.557 86.416C181.853 86.416 183.005 86.688 184.013 87.232C185.021 87.776 185.805 88.552 186.365 89.56C186.941 90.568 187.229 91.744 187.229 93.088ZM183.029 92.008C183.029 91.304 182.789 90.744 182.309 90.328C181.829 89.912 181.229 89.704 180.509 89.704C179.821 89.704 179.237 89.904 178.757 90.304C178.293 90.704 178.005 91.272 177.893 92.008H183.029ZM188.578 93.304C188.578 91.912 188.858 90.696 189.418 89.656C189.994 88.616 190.786 87.816 191.794 87.256C192.818 86.696 193.986 86.416 195.298 86.416C196.978 86.416 198.378 86.856 199.498 87.736C200.634 88.616 201.378 89.856 201.73 91.456H197.362C196.994 90.432 196.282 89.92 195.226 89.92C194.474 89.92 193.874 90.216 193.426 90.808C192.978 91.384 192.754 92.216 192.754 93.304C192.754 94.392 192.978 95.232 193.426 95.824C193.874 96.4 194.474 96.688 195.226 96.688C196.282 96.688 196.994 96.176 197.362 95.152H201.73C201.378 96.72 200.634 97.952 199.498 98.848C198.362 99.744 196.962 100.192 195.298 100.192C193.986 100.192 192.818 99.912 191.794 99.352C190.786 98.792 189.994 97.992 189.418 96.952C188.858 95.912 188.578 94.696 188.578 93.304ZM210.022 100.192C208.71 100.192 207.526 99.912 206.47 99.352C205.43 98.792 204.606 97.992 203.998 96.952C203.406 95.912 203.11 94.696 203.11 93.304C203.11 91.928 203.414 90.72 204.021 89.68C204.63 88.624 205.462 87.816 206.518 87.256C207.574 86.696 208.758 86.416 210.07 86.416C211.382 86.416 212.566 86.696 213.622 87.256C214.678 87.816 215.51 88.624 216.118 89.68C216.726 90.72 217.03 91.928 217.03 93.304C217.03 94.68 216.718 95.896 216.094 96.952C215.486 97.992 214.646 98.792 213.574 99.352C212.518 99.912 211.334 100.192 210.022 100.192ZM210.022 96.64C210.806 96.64 211.47 96.352 212.014 95.776C212.574 95.2 212.854 94.376 212.854 93.304C212.854 92.232 212.582 91.408 212.038 90.832C211.51 90.256 210.854 89.968 210.07 89.968C209.27 89.968 208.606 90.256 208.078 90.832C207.55 91.392 207.286 92.216 207.286 93.304C207.286 94.376 207.542 95.2 208.054 95.776C208.582 96.352 209.238 96.64 210.022 96.64ZM227.367 86.464C228.935 86.464 230.183 86.976 231.111 88C232.055 89.008 232.527 90.4 232.527 92.176V100H228.447V92.728C228.447 91.832 228.215 91.136 227.751 90.64C227.287 90.144 226.663 89.896 225.879 89.896C225.095 89.896 224.471 90.144 224.007 90.64C223.543 91.136 223.311 91.832 223.311 92.728V100H219.207V86.608H223.311V88.384C223.727 87.792 224.287 87.328 224.991 86.992C225.695 86.64 226.487 86.464 227.367 86.464ZM241.475 100.192C240.163 100.192 238.979 99.912 237.923 99.352C236.883 98.792 236.059 97.992 235.451 96.952C234.859 95.912 234.563 94.696 234.563 93.304C234.563 91.928 234.867 90.72 235.475 89.68C236.083 88.624 236.915 87.816 237.971 87.256C239.027 86.696 240.211 86.416 241.523 86.416C242.835 86.416 244.019 86.696 245.075 87.256C246.131 87.816 246.963 88.624 247.571 89.68C248.179 90.72 248.483 91.928 248.483 93.304C248.483 94.68 248.171 95.896 247.547 96.952C246.939 97.992 246.099 98.792 245.027 99.352C243.971 99.912 242.787 100.192 241.475 100.192ZM241.475 96.64C242.259 96.64 242.923 96.352 243.467 95.776C244.027 95.2 244.307 94.376 244.307 93.304C244.307 92.232 244.035 91.408 243.491 90.832C242.963 90.256 242.307 89.968 241.523 89.968C240.723 89.968 240.059 90.256 239.531 90.832C239.003 91.392 238.739 92.216 238.739 93.304C238.739 94.376 238.995 95.2 239.507 95.776C240.035 96.352 240.691 96.64 241.475 96.64ZM267.748 86.464C269.412 86.464 270.732 86.968 271.708 87.976C272.7 88.984 273.196 90.384 273.196 92.176V100H269.116V92.728C269.116 91.864 268.884 91.2 268.42 90.736C267.972 90.256 267.348 90.016 266.548 90.016C265.748 90.016 265.116 90.256 264.652 90.736C264.204 91.2 263.98 91.864 263.98 92.728V100H259.9V92.728C259.9 91.864 259.668 91.2 259.204 90.736C258.756 90.256 258.132 90.016 257.332 90.016C256.532 90.016 255.9 90.256 255.436 90.736C254.988 91.2 254.764 91.864 254.764 92.728V100H250.66V86.608H254.764V88.288C255.18 87.728 255.724 87.288 256.396 86.968C257.068 86.632 257.828 86.464 258.676 86.464C259.684 86.464 260.58 86.68 261.364 87.112C262.164 87.544 262.788 88.16 263.236 88.96C263.7 88.224 264.332 87.624 265.132 87.16C265.932 86.696 266.804 86.464 267.748 86.464ZM289.746 86.608L281.346 106.36H276.93L280.002 99.544L274.554 86.608H279.138L282.234 94.984L285.306 86.608H289.746Z" fill="#FBB13C"/>
<path opacity="0.5" d="M234.55 442.152L228.574 459H223.438L217.462 442.152H221.83L226.006 454.872L230.206 442.152H234.55ZM235.449 452.28C235.449 450.904 235.705 449.696 236.217 448.656C236.745 447.616 237.457 446.816 238.353 446.256C239.249 445.696 240.249 445.416 241.353 445.416C242.297 445.416 243.121 445.608 243.825 445.992C244.545 446.376 245.097 446.88 245.481 447.504V445.608H249.585V459H245.481V457.104C245.081 457.728 244.521 458.232 243.801 458.616C243.097 459 242.273 459.192 241.329 459.192C240.241 459.192 239.249 458.912 238.353 458.352C237.457 457.776 236.745 456.968 236.217 455.928C235.705 454.872 235.449 453.656 235.449 452.28ZM245.481 452.304C245.481 451.28 245.193 450.472 244.617 449.88C244.057 449.288 243.369 448.992 242.553 448.992C241.737 448.992 241.041 449.288 240.465 449.88C239.905 450.456 239.625 451.256 239.625 452.28C239.625 453.304 239.905 454.12 240.465 454.728C241.041 455.32 241.737 455.616 242.553 455.616C243.369 455.616 244.057 455.32 244.617 454.728C245.193 454.136 245.481 453.328 245.481 452.304ZM256.658 441.24V459H252.554V441.24H256.658ZM272.857 445.608V459H268.753V457.176C268.337 457.768 267.769 458.248 267.049 458.616C266.345 458.968 265.561 459.144 264.697 459.144C263.673 459.144 262.769 458.92 261.985 458.472C261.201 458.008 260.593 457.344 260.161 456.48C259.729 455.616 259.513 454.6 259.513 453.432V445.608H263.593V452.88C263.593 453.776 263.825 454.472 264.289 454.968C264.753 455.464 265.377 455.712 266.161 455.712C266.961 455.712 267.593 455.464 268.057 454.968C268.521 454.472 268.753 453.776 268.753 452.88V445.608H272.857ZM288.428 452.088C288.428 452.472 288.404 452.872 288.356 453.288H279.068C279.132 454.12 279.396 454.76 279.86 455.208C280.34 455.64 280.924 455.856 281.612 455.856C282.636 455.856 283.348 455.424 283.748 454.56H288.116C287.892 455.44 287.484 456.232 286.892 456.936C286.316 457.64 285.588 458.192 284.708 458.592C283.828 458.992 282.844 459.192 281.756 459.192C280.444 459.192 279.276 458.912 278.252 458.352C277.228 457.792 276.428 456.992 275.852 455.952C275.276 454.912 274.988 453.696 274.988 452.304C274.988 450.912 275.268 449.696 275.828 448.656C276.404 447.616 277.204 446.816 278.228 446.256C279.252 445.696 280.428 445.416 281.756 445.416C283.052 445.416 284.204 445.688 285.212 446.232C286.22 446.776 287.004 447.552 287.564 448.56C288.14 449.568 288.428 450.744 288.428 452.088ZM284.228 451.008C284.228 450.304 283.988 449.744 283.508 449.328C283.028 448.912 282.428 448.704 281.708 448.704C281.02 448.704 280.436 448.904 279.956 449.304C279.492 449.704 279.204 450.272 279.092 451.008H284.228ZM303.143 455.52V459H301.055C299.567 459 298.407 458.64 297.575 457.92C296.743 457.184 296.327 455.992 296.327 454.344V449.016H294.695V445.608H296.327V442.344H300.431V445.608H303.119V449.016H300.431V454.392C300.431 454.792 300.527 455.08 300.719 455.256C300.911 455.432 301.231 455.52 301.679 455.52H303.143ZM309.533 447.84C310.013 447.104 310.613 446.528 311.333 446.112C312.053 445.68 312.853 445.464 313.733 445.464V449.808H312.605C311.581 449.808 310.813 450.032 310.301 450.48C309.789 450.912 309.533 451.68 309.533 452.784V459H305.429V445.608H309.533V447.84ZM314.879 452.28C314.879 450.904 315.135 449.696 315.647 448.656C316.175 447.616 316.887 446.816 317.783 446.256C318.679 445.696 319.679 445.416 320.783 445.416C321.727 445.416 322.551 445.608 323.255 445.992C323.975 446.376 324.527 446.88 324.911 447.504V445.608H329.015V459H324.911V457.104C324.511 457.728 323.951 458.232 323.231 458.616C322.527 459 321.703 459.192 320.759 459.192C319.671 459.192 318.679 458.912 317.783 458.352C316.887 457.776 316.175 456.968 315.647 455.928C315.135 454.872 314.879 453.656 314.879 452.28ZM324.911 452.304C324.911 451.28 324.623 450.472 324.047 449.88C323.487 449.288 322.799 448.992 321.983 448.992C321.167 448.992 320.471 449.288 319.895 449.88C319.335 450.456 319.055 451.256 319.055 452.28C319.055 453.304 319.335 454.12 319.895 454.728C320.471 455.32 321.167 455.616 321.983 455.616C322.799 455.616 323.487 455.32 324.047 454.728C324.623 454.136 324.911 453.328 324.911 452.304ZM340.144 445.464C341.712 445.464 342.96 445.976 343.888 447C344.832 448.008 345.304 449.4 345.304 451.176V459H341.224V451.728C341.224 450.832 340.992 450.136 340.528 449.64C340.064 449.144 339.44 448.896 338.656 448.896C337.872 448.896 337.248 449.144 336.784 449.64C336.32 450.136 336.088 450.832 336.088 451.728V459H331.984V445.608H336.088V447.384C336.504 446.792 337.064 446.328 337.768 445.992C338.472 445.64 339.264 445.464 340.144 445.464ZM353.604 459.192C352.436 459.192 351.396 458.992 350.484 458.592C349.572 458.192 348.852 457.648 348.324 456.96C347.796 456.256 347.5 455.472 347.436 454.608H351.492C351.54 455.072 351.756 455.448 352.14 455.736C352.524 456.024 352.996 456.168 353.556 456.168C354.068 456.168 354.46 456.072 354.732 455.88C355.02 455.672 355.164 455.408 355.164 455.088C355.164 454.704 354.964 454.424 354.564 454.248C354.164 454.056 353.516 453.848 352.62 453.624C351.66 453.4 350.86 453.168 350.22 452.928C349.58 452.672 349.028 452.28 348.564 451.752C348.1 451.208 347.868 450.48 347.868 449.568C347.868 448.8 348.076 448.104 348.492 447.48C348.924 446.84 349.548 446.336 350.364 445.968C351.196 445.6 352.18 445.416 353.316 445.416C354.996 445.416 356.316 445.832 357.276 446.664C358.252 447.496 358.812 448.6 358.956 449.976H355.164C355.1 449.512 354.892 449.144 354.54 448.872C354.204 448.6 353.756 448.464 353.196 448.464C352.716 448.464 352.348 448.56 352.092 448.752C351.836 448.928 351.708 449.176 351.708 449.496C351.708 449.88 351.908 450.168 352.308 450.36C352.724 450.552 353.364 450.744 354.228 450.936C355.22 451.192 356.028 451.448 356.652 451.704C357.276 451.944 357.82 452.344 358.284 452.904C358.764 453.448 359.012 454.184 359.028 455.112C359.028 455.896 358.804 456.6 358.356 457.224C357.924 457.832 357.292 458.312 356.46 458.664C355.644 459.016 354.692 459.192 353.604 459.192ZM368.259 449.016H366.051V459H361.947V449.016H360.459V445.608H361.947V445.224C361.947 443.576 362.419 442.328 363.363 441.48C364.307 440.616 365.691 440.184 367.515 440.184C367.819 440.184 368.043 440.192 368.187 440.208V443.688C367.403 443.64 366.851 443.752 366.531 444.024C366.211 444.296 366.051 444.784 366.051 445.488V445.608H368.259V449.016ZM382.811 452.088C382.811 452.472 382.787 452.872 382.739 453.288H373.451C373.515 454.12 373.779 454.76 374.243 455.208C374.723 455.64 375.307 455.856 375.995 455.856C377.019 455.856 377.731 455.424 378.131 454.56H382.499C382.275 455.44 381.867 456.232 381.275 456.936C380.699 457.64 379.971 458.192 379.091 458.592C378.211 458.992 377.227 459.192 376.139 459.192C374.827 459.192 373.659 458.912 372.635 458.352C371.611 457.792 370.811 456.992 370.235 455.952C369.659 454.912 369.371 453.696 369.371 452.304C369.371 450.912 369.651 449.696 370.211 448.656C370.787 447.616 371.587 446.816 372.611 446.256C373.635 445.696 374.811 445.416 376.139 445.416C377.435 445.416 378.587 445.688 379.595 446.232C380.603 446.776 381.387 447.552 381.947 448.56C382.523 449.568 382.811 450.744 382.811 452.088ZM378.611 451.008C378.611 450.304 378.371 449.744 377.891 449.328C377.411 448.912 376.811 448.704 376.091 448.704C375.403 448.704 374.819 448.904 374.339 449.304C373.875 449.704 373.587 450.272 373.475 451.008H378.611ZM389.08 447.84C389.56 447.104 390.16 446.528 390.88 446.112C391.6 445.68 392.4 445.464 393.28 445.464V449.808H392.152C391.128 449.808 390.36 450.032 389.848 450.48C389.336 450.912 389.08 451.68 389.08 452.784V459H384.976V445.608H389.08V447.84Z" fill="#D81159"/>
<path fill-rule="evenodd" clip-rule="evenodd" d="M399.935 85.3421C455.94 81.0976 521.92 73.48 556.835 117.415C591.711 161.301 568.483 223.455 552.333 277.11C538.022 324.652 518.344 373.51 473.377 394.673C428.77 415.666 377.918 401.531 333.528 380.086C289.261 358.7 248.107 327.327 235.642 279.822C222.745 230.67 237.494 177.968 270.303 139.132C302.048 101.554 350.846 89.0625 399.935 85.3421Z" fill="#FBE7EE"/>
<path d="M283.821 174.438C300.129 173.269 315.904 167.033 328.756 156.952C335.297 151.819 340.937 145.708 345.659 138.872C350.941 131.229 355.373 122.921 361.751 116.093C364.946 112.674 368.664 109.627 373.08 107.948C377.741 106.175 382.811 105.759 387.711 105.07C392.9 104.335 398.081 103.546 403.253 102.703C407.987 101.93 412.844 101.318 417.429 99.8601C421.184 98.6945 424.606 96.6497 427.412 93.8955C429.999 91.3574 432.152 88.4281 434.431 85.6218C436.692 82.8391 439.121 80.0812 442.195 78.1645C446.25 75.6474 450.917 75.3281 455.569 75.5126C460.035 75.6892 464.433 75.981 468.896 75.5388C472.995 75.1293 477.041 74.3011 480.971 73.0674C488.912 70.5837 496.26 66.5019 502.565 61.0729C504.136 59.7107 505.634 58.2665 507.052 56.7464C507.224 56.5619 506.948 56.2832 506.774 56.469C494.934 69.1268 477.705 76.1118 460.4 75.3648C455.894 75.1698 451.264 74.6243 446.833 75.7573C443.401 76.6338 440.462 78.6067 437.96 81.0663C432.843 86.0928 429.371 92.858 423.215 96.796C419.234 99.342 414.537 100.364 409.946 101.176C404.844 102.078 399.735 102.887 394.618 103.662C389.647 104.413 384.631 104.97 379.675 105.834C375.129 106.619 370.875 108.05 367.107 110.767C359.975 115.913 355.082 123.623 350.41 130.915C345.638 138.359 340.722 145.555 334.276 151.671C322.21 163.118 306.621 170.824 290.173 173.342C288.065 173.665 285.946 173.895 283.82 174.049C283.57 174.066 283.567 174.458 283.82 174.441L283.821 174.438Z" fill="#E9E3E0"/>
<path d="M289.884 183.721C306.192 182.553 321.967 176.316 334.819 166.234C341.36 161.102 346.999 154.991 351.722 148.156C357.002 140.512 361.435 132.205 367.814 125.376C371.007 121.956 374.727 118.91 379.142 117.232C383.804 115.459 388.874 115.042 393.773 114.354C398.962 113.621 404.142 112.832 409.314 111.988C414.049 111.215 418.907 110.601 423.491 109.144C427.246 107.979 430.669 105.934 433.475 103.181C436.06 100.641 438.214 97.712 440.494 94.907C442.755 92.1242 445.183 89.365 448.256 87.4496C452.312 84.9312 456.978 84.6119 461.632 84.7964C466.097 84.9743 470.496 85.2661 474.958 84.8226C479.061 84.4148 483.111 83.5871 487.045 82.3525C494.983 79.8696 502.33 75.7881 508.631 70.3593C510.202 68.9966 511.7 67.552 513.119 66.0315C513.292 65.847 513.014 65.5696 512.842 65.7541C501.001 78.4132 483.771 85.3969 466.468 84.6499C461.96 84.4563 457.332 83.9107 452.899 85.0424C449.468 85.9176 446.53 87.8905 444.026 90.3501C438.911 95.3766 435.437 102.142 429.282 106.08C425.301 108.627 420.604 109.649 416.013 110.461C410.911 111.363 405.808 112.173 400.685 112.947C395.713 113.699 390.699 114.255 385.743 115.12C381.195 115.905 376.943 117.335 373.174 120.054C366.041 125.198 361.149 132.909 356.476 140.202C351.705 147.645 346.795 154.84 340.344 160.956C328.277 172.404 312.687 180.109 296.239 182.628C294.133 182.95 292.016 183.185 289.888 183.334C289.636 183.352 289.635 183.744 289.888 183.726L289.884 183.721Z" fill="#E9E3E0"/>
<path d="M295.953 193.004C312.261 191.835 328.037 185.599 340.889 175.518C347.431 170.385 353.07 164.274 357.791 157.438C363.073 149.795 367.505 141.487 373.883 134.659C377.078 131.24 380.798 128.193 385.212 126.514C389.873 124.741 394.943 124.325 399.844 123.636C405.033 122.901 410.213 122.112 415.385 121.269C420.119 120.496 424.976 119.884 429.561 118.426C433.316 117.261 436.738 115.216 439.544 112.462C442.131 109.923 444.284 106.994 446.563 104.188C448.825 101.405 451.254 98.6472 454.327 96.7306C458.382 94.2121 463.049 93.8942 467.701 94.0786C472.167 94.2553 476.567 94.547 481.028 94.1048C485.127 93.6953 489.173 92.8672 493.103 91.6334C501.042 89.1489 508.388 85.0671 514.69 79.6389C516.261 78.2767 517.759 76.8325 519.178 75.3124C519.351 75.1279 519.073 74.8492 518.901 75.0337C507.059 87.6928 489.83 94.6778 472.525 93.9308C468.019 93.7359 463.389 93.1903 458.958 94.3233C455.526 95.1998 452.588 97.1728 450.085 99.6324C444.968 104.659 441.496 111.424 435.341 115.362C431.36 117.908 426.663 118.93 422.072 119.742C416.97 120.644 411.867 121.453 406.744 122.228C401.772 122.979 396.756 123.536 391.8 124.4C387.254 125.185 383.001 126.616 379.233 129.333C372.1 134.479 367.207 142.189 362.535 149.481C357.764 156.925 352.854 164.121 346.401 170.237C334.336 181.684 318.746 189.39 302.298 191.908C300.191 192.231 298.073 192.461 295.945 192.615C295.695 192.632 295.693 193.024 295.945 193.007L295.953 193.004Z" fill="#E9E3E0"/>
<path d="M302.02 202.287C318.328 201.119 334.103 194.882 346.955 184.8C353.496 179.668 359.135 173.557 363.858 166.722C369.139 159.078 373.571 150.771 379.95 143.942C383.145 140.522 386.863 137.476 391.278 135.798C395.94 134.025 401.01 133.608 405.909 132.92C411.098 132.187 416.278 131.398 421.45 130.553C426.185 129.781 431.043 129.167 435.627 127.71C439.382 126.545 442.805 124.5 445.611 121.747C448.197 119.207 450.349 116.278 452.63 113.473C454.891 110.69 457.32 107.931 460.392 106.016C464.448 103.497 469.116 103.178 473.768 103.362C478.233 103.54 482.632 103.832 487.094 103.389C491.193 102.982 495.24 102.156 499.17 100.924C507.109 98.4409 514.455 94.3594 520.757 88.9306C522.328 87.5679 523.826 86.1233 525.244 84.6028C525.417 84.4183 525.14 84.1409 524.967 84.3254C513.127 96.9845 495.897 103.968 478.593 103.221C474.086 103.028 469.457 102.482 465.025 103.614C461.593 104.489 458.656 106.462 456.152 108.921C451.036 113.948 447.564 120.713 441.407 124.651C437.427 127.198 432.731 128.22 428.138 129.033C423.036 129.934 417.934 130.744 412.81 131.518C407.839 132.271 402.824 132.827 397.868 133.691C393.321 134.476 389.069 135.906 385.299 138.625C378.168 143.769 373.275 151.48 368.602 158.773C363.83 166.216 358.92 173.411 352.469 179.528C340.403 190.975 324.814 198.68 308.365 201.2C306.259 201.522 304.141 201.757 302.013 201.905C301.762 201.923 301.761 202.316 302.013 202.297L302.02 202.287Z" fill="#E9E3E0"/>
<path d="M308.085 211.57C324.393 210.401 340.169 204.165 353.021 194.084C359.562 188.951 365.201 182.84 369.924 176.004C375.204 168.361 379.637 160.053 386.016 153.225C389.211 149.805 392.93 146.758 397.346 145.08C402.006 143.307 407.076 142.891 411.977 142.202C417.165 141.468 422.346 140.679 427.518 139.835C432.251 139.062 437.109 138.449 441.695 136.992C445.449 135.826 448.871 133.781 451.677 131.027C454.264 128.489 456.417 125.56 458.696 122.754C460.958 119.971 463.386 117.213 466.46 115.296C470.509 112.778 475.182 112.46 479.836 112.645C484.301 112.821 488.699 113.113 493.161 112.671C497.26 112.261 501.306 111.432 505.236 110.199C513.175 107.715 520.521 103.633 526.823 98.2048C528.394 96.8426 529.892 95.3984 531.311 93.8783C531.483 93.6938 531.206 93.4152 531.033 93.5996C519.192 106.259 501.963 113.244 484.659 112.497C480.152 112.302 475.523 111.756 471.091 112.889C467.659 113.766 464.721 115.739 462.218 118.198C457.101 123.225 453.629 129.99 447.473 133.927C443.492 136.474 438.796 137.496 434.205 138.308C429.102 139.21 423.993 140.019 418.877 140.794C413.905 141.545 408.889 142.102 403.935 142.966C399.387 143.751 395.135 145.182 391.366 147.899C384.233 153.045 379.34 160.755 374.668 168.047C369.897 175.491 364.986 182.687 358.534 188.803C346.469 200.25 330.879 207.955 314.431 210.474C312.323 210.797 310.205 211.027 308.078 211.18C307.828 211.197 307.827 211.59 308.078 211.573L308.085 211.57Z" fill="#E9E3E0"/>
<path d="M346.944 191.691C349.011 197.14 354.179 201.286 359.946 202.122C361.399 202.332 362.884 202.349 364.31 202.701C367.86 203.578 370.548 206.365 373.372 208.689C376.195 211.014 379.846 213.046 383.355 212.02C385.031 211.53 386.495 210.372 388.234 210.167C390.539 209.896 392.724 211.365 395.037 211.391C396.922 211.412 398.713 210.46 400.087 209.167C401.461 207.874 402.48 206.261 403.489 204.665C404.004 203.845 404.535 202.942 404.438 201.979C404.289 200.569 402.891 199.691 401.674 198.97C396.233 195.716 391.454 191.251 385.527 188.998C381.431 187.439 376.994 187.021 372.776 185.828C367.064 184.214 361.787 181.188 355.965 180.025C353.803 179.593 351.418 179.462 349.534 180.605" fill="#101010"/>
<path d="M372.709 91.7944C372.602 90.9356 372.284 90.1167 371.783 89.4107C370.858 88.1024 369.474 87.1932 368.082 86.3938C366.69 85.5944 365.242 84.8644 364.054 83.785C362.85 82.6821 361.96 81.2469 360.621 80.3076C358.632 78.909 355.928 78.7913 354.018 77.288C353.11 76.5737 352.497 75.5663 351.522 74.9239C350.748 74.415 349.755 74.1546 348.883 74.4608C347.305 75.0194 347.161 76.8982 345.813 77.6884C345.018 78.1554 343.779 78.264 343.622 79.1733C343.415 80.3665 345.431 80.8374 345.603 82.0358C344.877 81.6774 344.137 81.315 343.337 81.1907C342.536 81.0664 341.654 81.2155 341.067 81.7716C340.479 82.3276 340.282 83.1832 340.052 83.9656C339.584 85.5368 338.84 87.0117 337.854 88.3209C337.252 89.1203 336.518 90.0583 336.835 91.0082C337.096 91.7931 337.96 92.1739 338.747 92.4133C342.411 93.5279 346.448 93.5044 349.839 95.2915C353.186 97.0525 355.494 100.37 358.813 102.181C361.158 103.45 363.862 103.894 366.49 103.444C366.448 103.12 366.847 102.954 367.144 102.813C367.88 102.457 368.29 101.668 368.614 100.917C369.399 99.0856 369.999 97.1336 371.204 95.544C371.596 95.0207 372.058 94.5419 372.357 93.961C372.688 93.2901 372.811 92.5356 372.709 91.7944Z" fill="#020A44"/>
<path d="M406.082 107.055C405.918 106.939 405.697 106.947 405.541 107.074C405.386 107.201 405.334 107.416 405.415 107.6C405.442 107.662 405.47 107.722 405.497 107.781C405.879 108.592 406.261 109.404 406.644 110.217C405.968 109.553 405.267 108.874 404.386 108.526C404.047 108.396 403.661 108.311 403.325 108.49C403.155 108.576 403.034 108.736 402.995 108.923C402.941 109.232 403.154 109.427 403.353 109.601L403.476 109.708C403.074 109.519 402.492 109.612 402.534 110.107C402.546 110.215 402.584 110.317 402.646 110.406L403.983 112.423C403.534 111.95 403.027 111.536 402.473 111.191C402.222 111.034 401.94 110.887 401.639 110.955C401.473 110.987 401.336 111.104 401.279 111.263C401.208 111.483 401.34 111.642 401.47 111.779C401.6 111.916 401.747 112.061 401.895 112.194C401.989 112.279 402.019 112.413 401.971 112.53C401.923 112.647 401.807 112.722 401.681 112.717C401.46 112.707 401.24 112.73 401.026 112.785C400.011 113.054 399.382 114.237 399.615 115.263C399.77 115.879 400.158 116.41 400.697 116.746C401.17 117.046 401.723 117.195 402.282 117.176C404.376 117.13 406.469 116.342 407.864 114.788C408.255 114.383 408.55 113.896 408.727 113.362C408.956 112.569 408.778 111.719 408.537 110.93C408.078 109.445 407.314 107.939 406.082 107.055Z" fill="#FFD1BB"/>
<path d="M385.994 136.893C383.655 134.724 383.201 134.998 372.257 122.666L373.833 112.892C376.59 113.006 377.917 114.152 378.564 114.738C384.975 120.54 391.221 129.415 393.173 132.557C394.253 134.298 395.862 136.239 394.873 138.034C394.039 139.551 392.004 140.069 390.326 139.647C388.647 139.224 387.263 138.07 385.994 136.893Z" fill="#FFD1BB"/>
<path d="M388.592 137.436C389.502 139.791 392.551 140.445 394.383 138.701C396.858 136.346 398.177 134.539 400.357 127.057C403.332 116.869 403.808 114.988 403.808 114.988L399.86 114.007C399.86 114.007 387.729 129.267 388.055 134.764C388.095 135.677 388.277 136.578 388.592 137.436Z" fill="#FFD1BB"/>
<path d="M390.054 128.368C389.132 129.81 388.468 131.401 388.091 133.07C388.036 133.316 388.415 133.422 388.469 133.175C388.838 131.538 389.489 129.979 390.394 128.567C390.525 128.352 390.19 128.156 390.054 128.368Z" fill="#101010"/>
<path d="M403.808 109.99C404.511 110.455 405.247 110.945 405.667 111.7C405.79 111.92 406.129 111.722 406.006 111.501C405.552 110.688 404.764 110.152 404.006 109.651C403.795 109.511 403.597 109.85 403.808 109.99Z" fill="#101010"/>
<path d="M404.028 112.746C404.136 112.746 404.224 112.659 404.224 112.55C404.224 112.442 404.136 112.354 404.028 112.354C403.919 112.354 403.832 112.442 403.832 112.55C403.832 112.659 403.919 112.746 404.028 112.746Z" fill="#101010"/>
<path d="M407.04 110.985C407.148 110.985 407.236 110.897 407.236 110.789C407.236 110.68 407.148 110.592 407.04 110.592C406.931 110.592 406.843 110.68 406.843 110.789C406.843 110.897 406.931 110.985 407.04 110.985Z" fill="#101010"/>
<path d="M300.701 105.776C300.808 106.594 300.996 107.443 301.533 108.07C301.915 108.483 302.385 108.805 302.908 109.013C304.814 109.853 307.056 109.701 308.977 108.882C309.495 108.669 309.936 108.304 310.243 107.835C310.593 107.307 310.725 106.663 310.611 106.039C310.4 105.011 309.339 104.192 308.302 104.366C308.085 104.404 307.875 104.475 307.679 104.575C307.565 104.634 307.426 104.615 307.333 104.526C307.24 104.437 307.213 104.299 307.267 104.183C307.347 104.002 307.419 103.818 307.483 103.631C307.547 103.444 307.599 103.252 307.444 103.082C307.325 102.961 307.152 102.912 306.987 102.952C306.687 103.014 306.49 103.266 306.333 103.512C305.972 104.055 305.68 104.641 305.465 105.257C305.594 104.461 305.722 103.665 305.85 102.868C305.871 102.762 305.864 102.652 305.829 102.55C305.664 102.082 305.095 102.237 304.807 102.575L304.874 102.426C304.984 102.186 305.097 101.921 304.92 101.662C304.809 101.506 304.632 101.409 304.441 101.4C304.062 101.375 303.742 101.609 303.49 101.871C302.836 102.551 302.473 103.461 302.132 104.342C302.143 103.445 302.156 102.547 302.17 101.65C302.17 101.586 302.17 101.519 302.17 101.454C302.167 101.253 302.032 101.079 301.838 101.027C301.644 100.976 301.44 101.059 301.338 101.231C300.574 102.55 300.499 104.236 300.701 105.776Z" fill="#FFD1BB"/>
<path d="M330.644 124.634C333.676 123.643 333.973 124.081 349.071 117.462L351.73 107.923C349.18 106.877 347.495 107.361 346.66 107.621C338.405 110.205 329.024 115.653 325.936 117.695C324.227 118.823 321.953 119.919 322.098 121.955C322.22 123.682 323.851 125.005 325.553 125.324C327.255 125.643 329.002 125.172 330.644 124.634Z" fill="#FFD1BB"/>
<path d="M329.809 121.678C329.954 124.201 327.445 126.051 325.058 125.222C321.832 124.103 319.887 122.998 314.81 117.093C307.892 109.044 306.681 107.526 306.681 107.526L309.868 104.992C309.868 104.992 327.218 113.876 329.194 119.02C329.535 119.869 329.742 120.766 329.809 121.678Z" fill="#FFD1BB"/>
<path d="M324.52 114.355C325.913 115.258 327.139 116.397 328.141 117.721C328.292 117.92 328.633 117.721 328.48 117.522C327.44 116.143 326.167 114.956 324.718 114.016C324.506 113.877 324.308 114.217 324.52 114.355Z" fill="#101010"/>
<path d="M304.286 102.756C303.798 103.531 303.316 104.34 303.239 105.273C303.218 105.524 303.611 105.523 303.632 105.273C303.705 104.417 304.181 103.663 304.627 102.953C304.758 102.739 304.422 102.542 304.288 102.756H304.286Z" fill="#101010"/>
<path d="M305.472 105.588C305.581 105.588 305.668 105.5 305.668 105.392C305.668 105.283 305.581 105.195 305.472 105.195C305.364 105.195 305.276 105.283 305.276 105.392C305.276 105.5 305.364 105.588 305.472 105.588Z" fill="#101010"/>
<path d="M302.001 105.228C302.11 105.228 302.198 105.141 302.198 105.032C302.198 104.924 302.11 104.836 302.001 104.836C301.893 104.836 301.805 104.924 301.805 105.032C301.805 105.141 301.893 105.228 302.001 105.228Z" fill="#101010"/>
<path d="M310.745 165.634L315.436 171.744L320.29 169.185L314.412 157.486C314.22 157.165 313.82 157.035 313.476 157.183L303.098 161.645C302.898 161.731 302.779 161.938 302.806 162.153C302.833 162.369 302.998 162.541 303.213 162.575L306.472 163.099C308.168 163.367 309.697 164.274 310.745 165.634Z" fill="#FFD1BB"/>
<path d="M368.003 146.248L349.113 147.346C352.8 164.734 382.017 181.635 384.384 183.174C386.75 184.712 388.178 195.856 396.646 205.361C409.274 219.53 414.21 227.263 414.21 227.263L420.229 224.592C394.628 174.439 368.003 146.248 368.003 146.248Z" fill="#FFD1BB"/>
<path d="M361.759 98.7285L357.303 113.746L364.945 116.783L367.695 105.526L361.759 98.7285Z" fill="#FFD1BB"/>
<path d="M372.506 93.6651C372.727 95.379 372.686 97.4212 373.908 98.6144C374.015 98.7134 374.075 98.8523 374.075 98.9977C374.075 99.1432 374.015 99.2821 373.908 99.3811L373.65 99.6152C373.474 99.7797 373.391 100.021 373.429 100.259C373.645 101.595 373.981 106.366 369.928 106.424C366.972 106.466 363.796 106.132 361.546 104.094C357.442 100.378 356.369 92.7702 360.599 88.7184C364.515 84.9688 370.999 87.6966 372.307 92.6106C372.396 92.9574 372.462 93.3097 372.506 93.6651Z" fill="#FFD1BB"/>
<path d="M365.716 97.6989C367.63 96.8001 367.547 93.7073 367.371 91.4557C367.364 91.3731 367.407 91.2943 367.48 91.2556C367.553 91.2168 367.642 91.2255 367.707 91.2778C369.461 92.7051 370.488 93.1565 371.565 93.4443C371.763 93.5111 371.974 93.5299 372.181 93.4992C372.435 93.4237 372.654 93.2629 372.803 93.044C373.444 92.2197 373.588 91.0815 373.365 90.0637C373.143 89.0458 372.614 88.1169 372.016 87.2626C371.798 86.9512 371.548 86.6294 371.188 86.5064C370.828 86.3834 370.342 86.5692 370.293 86.946C369.873 86.492 369.684 85.8549 369.103 85.5278C368.885 85.3992 368.62 85.378 368.384 85.4702C367.801 85.7123 367.861 86.4789 367.992 87.0611C365.451 85.9477 362.331 86.39 360.119 88.062C357.906 89.734 356.637 92.539 356.71 95.3125C356.784 98.0861 356.031 100.046 358.15 101.841C358.307 101.972 360.274 103.28 360.473 103.332C360.768 103.408 361.389 102.843 361.672 102.719C362.684 102.26 363.634 101.604 364.288 100.705C364.942 99.8066 365.282 98.6461 365.06 97.5576" fill="#020A44"/>
<path d="M336.902 90.8771C336.954 89.7506 337.549 88.6425 338.508 88.0485C339.675 87.3276 341.191 87.431 342.48 87.9033C343.769 88.3756 344.906 89.1723 346.113 89.8213C347.321 90.4702 348.679 90.983 350.038 90.8064C350.711 90.7188 351.379 90.4636 352.049 90.5722C353.072 90.7384 353.772 91.6947 354.189 92.6433C354.607 93.5918 354.879 94.6437 355.561 95.4142C356.333 96.2734 357.498 96.6672 358.634 96.453C359.236 96.3327 359.899 96.0527 360.422 96.3719C360.684 96.5289 360.84 96.8037 361.076 96.9908C361.61 97.412 362.372 97.2969 363.047 97.2119C363.722 97.1268 364.532 97.1517 364.914 97.7142C365.267 98.2376 365.734 98.3985 365.437 98.9493C364.945 99.8507 366.082 98.3305 365.718 99.2907C365.064 101.024 361.916 102.847 361.314 103.107C360.006 103.674 358.505 103.091 357.192 102.527C353.777 101.06 350.097 99.6492 346.434 100.28C343.537 100.777 340.792 102.531 337.883 102.122C337.497 102.067 337.098 101.966 336.806 101.71C336.514 101.453 336.357 101.006 336.538 100.663C336.619 100.506 336.764 100.377 336.793 100.201C336.848 99.8729 336.487 99.6479 336.206 99.4687C334.871 98.6157 334.456 96.6061 335.345 95.2939C335.83 94.5769 336.606 94.1046 337.408 93.7802C336.671 92.8892 336.8 91.5914 336.968 90.4479" fill="#020A44"/>
<ellipse cx="366.692" cy="98.3975" rx="1.61968" ry="2.11029" transform="rotate(-35.27 366.692 98.3975)" fill="#FFD1BB"/>
<path d="M368.537 143.428C368.645 143.428 368.733 143.34 368.733 143.231C368.733 143.123 368.645 143.035 368.537 143.035C368.429 143.035 368.341 143.123 368.341 143.231C368.341 143.34 368.429 143.428 368.537 143.428Z" fill="#101010"/>
<path d="M366.435 97.8886C366.381 97.8651 366.435 97.8886 366.454 97.9017C366.474 97.9148 366.488 97.9265 366.505 97.9344C366.475 97.9095 366.491 97.9344 366.505 97.9344L366.529 97.9553C366.544 97.9687 366.558 97.9832 366.571 97.9985L366.587 98.0168C366.568 97.9906 366.614 98.0482 366.587 98.0168L366.622 98.0678C366.644 98.1033 366.664 98.14 366.682 98.1777C366.686 98.1877 366.69 98.1973 366.695 98.2065C366.698 98.2661 366.748 98.3126 366.808 98.3112C366.867 98.3097 366.915 98.261 366.915 98.2013C366.915 98.1416 366.867 98.0928 366.808 98.0914C366.748 98.09 366.698 98.1364 366.695 98.1961C366.704 98.2157 366.711 98.2353 366.719 98.2562C366.733 98.2968 366.746 98.3374 366.757 98.3792C366.767 98.4211 366.776 98.4616 366.787 98.5035C366.787 98.5035 366.797 98.5454 366.787 98.5035C366.787 98.5035 366.78 98.5519 366.787 98.5218C366.79 98.5004 366.8 98.4804 366.814 98.4643C366.856 98.4226 366.921 98.4145 366.973 98.4446L367.071 98.6134L367.052 98.4538C367.05 98.3463 366.964 98.2596 366.856 98.2575C366.748 98.2583 366.661 98.3457 366.66 98.4538L366.676 98.5964C366.678 98.6367 366.688 98.6761 366.704 98.7128C366.734 98.7607 366.781 98.7951 366.835 98.8083C366.956 98.8415 367.084 98.7875 367.145 98.6775C367.188 98.5803 367.193 98.4705 367.158 98.3701C367.144 98.3073 367.127 98.2392 367.107 98.1843C367.067 98.0544 367.007 97.9316 366.928 97.8206C366.834 97.6904 366.705 97.589 366.556 97.5275C366.505 97.5133 366.45 97.5209 366.405 97.5484C366.361 97.5741 366.328 97.6158 366.314 97.6649C366.288 97.7673 366.345 97.8727 366.445 97.9069L366.435 97.8886Z" fill="#101010"/>
<path d="M371.052 96.7618C370.939 96.9657 370.909 97.2047 370.967 97.4303C370.996 97.5763 371.12 97.684 371.269 97.6919C371.433 97.6828 371.559 97.5433 371.551 97.3792C371.532 97.2012 371.38 97.0674 371.201 97.0705C371.092 97.0705 371.004 97.1584 371.004 97.2667C371.007 97.374 371.093 97.4602 371.201 97.463H371.227H371.175C371.189 97.4657 371.204 97.4696 371.218 97.4747L371.171 97.4551C371.184 97.4616 371.197 97.469 371.209 97.4774L371.168 97.446C371.177 97.4536 371.185 97.4619 371.193 97.4708L371.161 97.4303C371.169 97.4394 371.174 97.4495 371.178 97.4604L371.159 97.4133C371.16 97.4211 371.16 97.429 371.159 97.4368V97.3845V97.4093V97.357C371.157 97.3673 371.155 97.3774 371.151 97.3871L371.171 97.34C371.167 97.35 371.162 97.3593 371.155 97.3675L371.185 97.3282L371.169 97.3452L371.209 97.3138L371.189 97.3256L371.236 97.306H371.214L371.266 97.2994H371.26L371.312 97.306H371.288L371.335 97.3256L371.316 97.3138L371.355 97.3439C371.347 97.3375 371.339 97.33 371.333 97.3217L371.363 97.3622C371.354 97.3479 371.346 97.333 371.338 97.3178L371.359 97.3649C371.345 97.3286 371.336 97.2908 371.332 97.2523L371.339 97.3047C371.332 97.2404 371.332 97.1754 371.339 97.1111L371.333 97.1634C371.342 97.0996 371.359 97.0371 371.384 96.9776L371.364 97.0247C371.373 97.0051 371.383 96.9855 371.393 96.9671C371.445 96.8728 371.414 96.7545 371.322 96.6976C371.229 96.6454 371.11 96.6766 371.054 96.7683L371.052 96.7618Z" fill="#101010"/>
<path d="M370.571 95.566H370.613H370.641H370.624L370.708 95.5555C370.766 95.5476 370.824 95.5411 370.883 95.5359C370.999 95.5228 371.117 95.5136 371.233 95.5058C371.342 95.5058 371.43 95.4179 371.43 95.3095C371.43 95.2011 371.342 95.1133 371.233 95.1133C370.972 95.1303 370.722 95.1591 370.467 95.1944C370.418 95.2082 370.376 95.2406 370.35 95.2847C370.324 95.3306 370.317 95.3853 370.331 95.4364C370.344 95.4857 370.377 95.5276 370.421 95.5529C370.467 95.5773 370.52 95.5847 370.571 95.5738V95.566Z" fill="#101010"/>
<path d="M375.997 113.483C375.813 113.032 356.242 108.728 350.063 107.377C349.559 107.268 349.033 107.379 348.616 107.683C348.2 107.986 347.932 108.453 347.882 108.966C347.338 114.356 348.944 122.126 350.136 126.9C350.853 129.771 350.663 132.794 349.593 135.553L347.127 141.905C347.127 146.469 351.215 152.193 355.303 153.801C362.629 156.679 369.375 146.922 369.375 146.922L369.244 134.996C368.511 131.713 369.696 131.565 371.236 128.576C374.482 122.274 376.154 113.86 375.997 113.483Z" fill="#FFD1BB"/>
<path d="M373.495 123.221C373.385 123.026 372.448 122.698 372.25 122.598C364.892 119.109 357.902 119.526 348.547 118.952C348.892 121.709 349.304 122.894 349.669 124.786C350.039 126.7 349.822 128.674 349.601 130.612C349.529 131.244 349.452 131.894 349.159 132.459C348.854 133.046 348.339 133.498 347.981 134.056L347.974 134.067C347.816 134.326 347.809 134.65 347.956 134.916C348.103 135.182 348.38 135.349 348.684 135.354C355.931 135.498 364.017 135.988 370.598 138.858C370.869 138.979 371.187 138.915 371.391 138.699C371.594 138.482 371.639 138.161 371.502 137.898C370.704 136.343 370.063 134.718 370.02 132.989C369.966 131.006 372.458 125.897 373.179 124.045C373.133 124.164 373.088 124.282 373.067 124.333C373.082 124.293 373.118 124.202 373.179 124.045C373.301 123.739 373.657 123.506 373.495 123.221Z" fill="#FBB13C"/>
<path d="M371.851 127.434C371.287 127.172 370.674 127.068 370.073 126.89C369.041 126.582 368.081 126.068 367.051 125.753C364.903 125.099 362.603 125.339 360.353 125.36C358.102 125.381 355.694 125.099 353.99 123.635C353.012 122.794 352.36 121.636 351.45 120.72C350.687 119.953 349.598 119.357 348.562 119.473C348.905 122.141 349.309 123.319 349.669 125.183C350.039 127.097 349.822 129.071 349.601 131.007C349.529 131.64 349.452 132.289 349.159 132.856C348.854 133.443 348.339 133.893 347.981 134.452L347.974 134.464C347.816 134.723 347.809 135.047 347.956 135.313C348.103 135.579 348.38 135.746 348.684 135.751C355.931 135.894 364.017 136.384 370.598 139.255C370.869 139.375 371.187 139.311 371.391 139.095C371.594 138.879 371.639 138.558 371.502 138.294C370.704 136.74 370.063 135.115 370.02 133.386C369.986 132.126 370.979 129.606 371.892 127.459L371.851 127.434Z" fill="#FBB13C"/>
<path d="M370.082 100.251C370.287 100.629 370.617 100.923 371.017 101.082C371.068 101.096 371.123 101.088 371.168 101.061C371.212 101.036 371.245 100.994 371.259 100.945C371.272 100.893 371.265 100.839 371.239 100.793C371.21 100.751 371.169 100.719 371.121 100.703C371.079 100.686 371.162 100.722 371.121 100.703L371.092 100.69L371.031 100.659C370.992 100.639 370.952 100.616 370.916 100.593C370.904 100.585 370.805 100.527 370.806 100.517L370.822 100.529L370.806 100.517L370.782 100.497L370.73 100.451C370.698 100.421 370.666 100.39 370.636 100.357L370.589 100.306C370.589 100.306 370.547 100.262 370.55 100.257C370.565 100.279 370.569 100.283 370.56 100.272L370.55 100.257C370.543 100.248 370.537 100.239 370.531 100.23C370.517 100.212 370.504 100.193 370.492 100.173C370.467 100.134 370.444 100.094 370.421 100.052C370.366 99.96 370.246 99.9291 370.153 99.9831C370.062 100.039 370.031 100.157 370.082 100.251Z" fill="#101010"/>
<path d="M347.127 141.898C347.127 141.898 339.712 154.727 339.369 189.406C339.369 189.406 339.566 184.975 332.124 179.063C324.274 172.83 317.34 163.321 317.34 163.321L310.741 165.19C310.741 165.19 335.562 210.788 345.803 200.775C356.045 190.763 361.567 161.066 361.567 161.066L347.127 141.898Z" fill="#FFD1BB"/>
<path d="M339.65 186.464C339.379 188.022 339.318 189.61 339.47 191.184C339.493 191.433 339.886 191.436 339.862 191.184C339.711 189.645 339.767 188.093 340.03 186.569C340.072 186.321 339.694 186.215 339.65 186.464Z" fill="#101010"/>
<path d="M365.663 106.368C366.094 106.454 366.533 106.489 366.972 106.472C367.079 106.47 367.165 106.383 367.168 106.276C367.167 106.168 367.08 106.081 366.972 106.08C366.569 106.098 366.165 106.068 365.769 105.99C365.667 105.963 365.561 106.02 365.527 106.12C365.5 106.225 365.561 106.331 365.665 106.361L365.663 106.368Z" fill="#101010"/>
<path d="M373.902 117.963C373.908 120.6 373.43 123.216 372.493 125.682C372.227 126.379 371.924 127.062 371.586 127.728C371.471 127.953 371.81 128.152 371.925 127.926C373.491 124.84 374.303 121.427 374.294 117.967C374.294 117.858 374.206 117.771 374.098 117.771C373.99 117.771 373.902 117.858 373.902 117.967V117.963Z" fill="#101010"/>
<path d="M421.407 226.084L416.645 220.029L411.82 222.645L417.838 234.276C418.033 234.595 418.434 234.72 418.776 234.568L429.105 229.989C429.304 229.9 429.42 229.691 429.389 229.475C429.359 229.26 429.19 229.09 428.974 229.06L425.703 228.581C424.005 228.328 422.467 227.435 421.407 226.084Z" fill="#FFD1BB"/>
<path d="M411.91 201.082C411.193 199.797 410.285 198.576 409.602 197.475C407.57 194.19 405.465 190.952 403.286 187.761C398.969 181.438 394.422 175.201 389.252 169.551C381.834 161.439 377.223 157.437 372.439 147.299C371.916 146.179 372.33 144.621 371.363 143.846C370.692 143.309 367.599 142.554 366.761 142.368C358.639 140.57 354.145 139.547 347.993 140.191C347.118 140.283 346.439 140.995 346.388 141.873V141.901C346.368 142.241 346.253 142.568 346.056 142.846C341.257 149.672 339.572 158.153 339.092 166.354C338.848 170.5 339.118 174.616 339.063 178.758C339.031 181.103 337.316 184.859 339.194 186.81C339.666 187.299 340.342 187.563 340.991 187.718C343.571 188.331 346.529 187.617 349.014 188.561C354.918 190.806 360.185 194.42 365.747 197.415C373.05 201.345 380.867 204.232 388.971 205.995C393.031 206.881 397.152 207.459 401.3 207.725C403.297 207.851 405.298 207.899 407.302 207.869C409.694 207.831 413.026 208.306 413.077 204.869C413.098 203.579 412.591 202.301 411.91 201.082Z" fill="#8F2D56"/>
<path d="M366.812 90.4362C367.527 91.2283 368.335 91.9312 369.218 92.5295C370.054 93.096 371.023 93.6638 372.071 93.6063C372.605 93.5864 373.114 93.3794 373.51 93.0214C373.695 92.8474 373.416 92.5701 373.233 92.7428C372.55 93.3838 371.522 93.287 370.724 92.9429C369.835 92.5609 369.013 91.9552 368.283 91.3285C367.859 90.9645 367.459 90.5738 367.085 90.1589C366.915 89.9705 366.638 90.2492 366.808 90.4362H366.812Z" fill="#101010"/>
<path d="M364.551 90.7465C365.077 91.4637 365.761 92.0505 366.55 92.4616C366.775 92.5768 366.974 92.2379 366.749 92.1228C366.017 91.7483 365.381 91.2112 364.889 90.5528C364.833 90.4654 364.72 90.4348 364.627 90.4822C364.534 90.5373 364.503 90.6567 364.556 90.7504L364.551 90.7465Z" fill="#101010"/>
<path d="M363.572 92.1185C363.878 92.7101 364.363 93.1896 364.958 93.4884C365.018 93.5268 365.095 93.5289 365.158 93.4941C365.221 93.4592 365.259 93.3928 365.259 93.321C365.258 93.2492 365.219 93.1834 365.155 93.1495C364.888 93.0199 364.644 92.8466 364.433 92.6366C364.22 92.4288 364.043 92.187 363.91 91.921C363.876 91.8577 363.81 91.818 363.738 91.8174C363.667 91.8168 363.6 91.8555 363.565 91.9183C363.53 91.9811 363.533 92.0579 363.571 92.1185H363.572Z" fill="#101010"/>
<path d="M363.633 94.4464C363.765 94.7046 364.027 94.8704 364.317 94.8795C364.425 94.8795 364.513 94.7916 364.513 94.6832C364.513 94.5749 364.425 94.487 364.317 94.487H364.257H364.308C364.258 94.4798 364.209 94.4666 364.163 94.4477L364.21 94.4674C364.16 94.4465 364.114 94.4193 364.072 94.3863L364.112 94.4177C364.072 94.3863 364.036 94.3503 364.004 94.3104L364.036 94.3509C364.011 94.3186 363.99 94.284 363.972 94.2476C363.945 94.2034 363.903 94.1711 363.854 94.1573C363.749 94.1289 363.642 94.1904 363.613 94.2947C363.601 94.3456 363.608 94.399 363.633 94.4451V94.4464Z" fill="#101010"/>
<path d="M366.192 94.5429C366.3 94.5429 366.388 94.455 366.388 94.3466C366.388 94.2383 366.3 94.1504 366.192 94.1504C366.083 94.1504 365.996 94.2383 365.996 94.3466C365.996 94.455 366.083 94.5429 366.192 94.5429Z" fill="#101010"/>
<path d="M348.488 117.959C348.944 117.59 349.527 117.414 350.111 117.469C350.22 117.469 350.308 117.381 350.308 117.272C350.305 117.165 350.219 117.079 350.111 117.076C349.423 117.022 348.741 117.239 348.21 117.682C348.138 117.759 348.14 117.88 348.215 117.954C348.29 118.029 348.41 118.031 348.488 117.959Z" fill="#101010"/>
<path d="M351.132 118.07C351.24 118.07 351.328 117.982 351.328 117.874C351.328 117.766 351.24 117.678 351.132 117.678C351.023 117.678 350.936 117.766 350.936 117.874C350.936 117.982 351.023 118.07 351.132 118.07Z" fill="#101010"/>
<path d="M318.822 125.405C320.018 126.747 321.6 127.686 323.352 128.091C323.852 128.206 324.362 128.275 324.876 128.299C325.128 128.31 325.128 127.918 324.876 127.906C322.656 127.791 320.576 126.79 319.101 125.127C318.933 124.938 318.656 125.216 318.822 125.405Z" fill="#101010"/>
<path d="M318.817 128.823C319.723 129.594 320.849 130.06 322.035 130.155C322.288 130.176 322.286 129.782 322.035 129.762C320.952 129.672 319.924 129.247 319.094 128.546C318.903 128.382 318.623 128.658 318.817 128.823Z" fill="#101010"/>
<path d="M324.364 130.346C324.473 130.346 324.56 130.258 324.56 130.149C324.56 130.041 324.473 129.953 324.364 129.953C324.256 129.953 324.168 130.041 324.168 130.149C324.168 130.258 324.256 130.346 324.364 130.346Z" fill="#101010"/>
<path d="M411.178 128.47C411.386 129.268 411.679 130.085 412.288 130.641C412.718 131.004 413.225 131.266 413.769 131.407C415.766 132.003 417.972 131.574 419.776 130.521C420.263 130.246 420.655 129.83 420.902 129.328C421.185 128.759 421.236 128.102 421.045 127.496C420.707 126.501 419.552 125.82 418.546 126.121C418.335 126.187 418.135 126.283 417.952 126.406C417.847 126.479 417.707 126.477 417.604 126.402C417.501 126.326 417.458 126.194 417.495 126.072C417.552 125.882 417.601 125.69 417.641 125.496C417.68 125.302 417.71 125.103 417.535 124.957C417.402 124.851 417.224 124.823 417.065 124.882C416.774 124.982 416.611 125.254 416.479 125.519C416.187 126.103 415.971 126.721 415.835 127.359C415.864 126.553 415.892 125.747 415.92 124.941C415.926 124.833 415.905 124.725 415.86 124.627C415.638 124.184 415.092 124.409 414.849 124.779C414.864 124.727 414.88 124.676 414.897 124.623C414.976 124.372 415.054 124.1 414.846 123.859C414.716 123.72 414.529 123.648 414.338 123.663C413.959 123.687 413.672 123.957 413.454 124.249C412.885 125.005 412.643 125.95 412.407 126.866C412.308 125.973 412.209 125.082 412.11 124.19C412.104 124.125 412.096 124.059 412.087 123.994C412.06 123.795 411.904 123.638 411.704 123.61C411.505 123.583 411.312 123.692 411.232 123.876C410.652 125.284 410.788 126.966 411.178 128.47Z" fill="#FFD7AD"/>
<path d="M443.967 138.811C444.826 135.739 445.357 135.737 448.232 119.503L447.309 111.601C444.204 111.994 443.567 115.561 442.957 116.783C438.287 126.136 435.598 135.173 435.579 138.873C435.568 140.921 435.211 143.416 436.99 144.43C438.495 145.287 440.5 144.664 441.711 143.427C442.921 142.189 443.502 140.479 443.967 138.811Z" fill="#FFD7AD"/>
<path d="M441.887 114.419C440.462 115.947 439.56 119.202 439.019 121.222C438.326 123.815 437.283 126.302 435.92 128.614C435.711 128.969 435.486 129.361 435.555 129.767C435.617 130.13 435.9 130.41 436.171 130.66C438.609 132.899 440.489 131.679 444.64 137.034C444.738 137.133 444.883 137.169 445.017 137.128C445.166 137.089 445.25 136.935 445.316 136.795C446.028 135.297 446.328 133.179 447.039 131.681C447.161 131.419 447.263 131.07 447.039 130.896" fill="#020A44"/>
<path d="M442.039 140.633C442.496 143.119 440.236 145.266 437.765 144.74C434.425 144.03 432.356 143.17 426.587 137.946C418.723 130.818 417.332 129.463 417.332 129.463L420.179 126.553C420.179 126.553 438.495 133.215 441.097 138.066C441.542 138.868 441.86 139.734 442.039 140.633Z" fill="#FFD7AD"/>
<path d="M435.855 134.012C437.366 134.741 438.739 135.73 439.91 136.932C440.087 137.114 440.364 136.836 440.188 136.655C438.994 135.429 437.597 134.42 436.057 133.673C435.831 133.563 435.632 133.901 435.859 134.012H435.855Z" fill="#101010"/>
<path d="M414.37 125.007C413.985 125.834 413.594 126.698 413.631 127.631C413.64 127.884 414.032 127.885 414.023 127.631C413.989 126.769 414.353 125.968 414.709 125.204C414.76 125.11 414.729 124.992 414.638 124.936C414.546 124.886 414.431 124.917 414.376 125.007H414.37Z" fill="#101010"/>
<path d="M415.864 127.691C415.972 127.691 416.06 127.603 416.06 127.495C416.06 127.387 415.972 127.299 415.864 127.299C415.755 127.299 415.667 127.387 415.667 127.495C415.667 127.603 415.755 127.691 415.864 127.691Z" fill="#101010"/>
<path d="M418.917 127.766C419.026 127.766 419.114 127.678 419.114 127.57C419.114 127.461 419.026 127.374 418.917 127.374C418.809 127.374 418.721 127.461 418.721 127.57C418.721 127.678 418.809 127.766 418.917 127.766Z" fill="#101010"/>
<path d="M474.706 69.7482C474.505 69.7437 474.326 69.8732 474.268 70.065C474.209 70.2569 474.286 70.4643 474.455 70.5724C474.51 70.609 474.566 70.643 474.622 70.6771L476.927 72.0691C475.997 71.8925 475.037 71.7145 474.112 71.9134C473.755 71.9893 473.389 72.1358 473.208 72.4707C473.114 72.637 473.102 72.837 473.174 73.0137C473.305 73.3015 473.583 73.346 473.845 73.38L474.007 73.4009C473.569 73.4677 473.136 73.868 473.446 74.2566C473.517 74.3392 473.606 74.4031 473.708 74.4423L475.932 75.3804C475.296 75.2354 474.644 75.1721 473.992 75.192C473.696 75.2011 473.379 75.2352 473.166 75.4536C473.045 75.5721 472.995 75.7456 473.035 75.9102C473.098 76.1327 473.297 76.1915 473.48 76.2334C473.663 76.2753 473.873 76.3145 474.064 76.342C474.19 76.3599 474.291 76.4553 474.316 76.5802C474.342 76.7052 474.285 76.8325 474.176 76.898C473.987 77.0117 473.816 77.1528 473.669 77.3167C472.973 78.1016 473.106 79.4387 473.867 80.1622C474.336 80.5885 474.952 80.8168 475.585 80.7994C476.145 80.7859 476.688 80.6035 477.142 80.276C478.855 79.0803 480.171 77.2578 480.466 75.1946C480.566 74.6409 480.541 74.0719 480.393 73.5291C480.145 72.7442 479.524 72.1332 478.887 71.6099C477.694 70.6313 476.222 69.8018 474.706 69.7482Z" fill="#FFD7AD"/>
<path d="M479.053 107.003C476.607 109.051 476.829 109.536 463.216 118.845L453.717 116.054C454.175 113.334 455.479 112.162 456.142 111.593C462.702 105.954 472.289 100.877 475.652 99.3342C477.515 98.4811 479.641 97.1271 481.298 98.332C482.7 99.3485 482.959 101.433 482.328 103.042C481.697 104.651 480.38 105.895 479.053 107.003Z" fill="#FFD7AD"/>
<path d="M476.986 104.73C479.05 106.188 481.947 105.038 482.507 102.574C483.265 99.2434 483.356 97.0088 481.032 89.5764C477.862 79.4475 477.214 77.6172 477.214 77.6172L473.378 78.9804C473.378 78.9804 471.738 98.4048 475.057 102.802C475.597 103.54 476.247 104.191 476.986 104.73Z" fill="#FFD7AD"/>
<path d="M473.177 96.3617C473.207 98.0729 473.535 99.7658 474.146 101.365C474.236 101.599 474.616 101.495 474.525 101.261C473.924 99.6962 473.6 98.0381 473.569 96.3617C473.569 96.1092 473.177 96.1079 473.177 96.3617H473.177Z" fill="#101010"/>
<path d="M474.43 73.4496C475.27 73.4496 476.157 73.4496 476.922 73.8421C477.147 73.956 477.346 73.6184 477.121 73.5033C476.288 73.0768 475.344 73.0611 474.43 73.0637C474.322 73.0637 474.234 73.1515 474.234 73.2599C474.234 73.3683 474.322 73.4562 474.43 73.4562V73.4496Z" fill="#101010"/>
<path d="M476.043 75.6581C476.152 75.6581 476.239 75.5702 476.239 75.4619C476.239 75.3535 476.152 75.2656 476.043 75.2656C475.935 75.2656 475.847 75.3535 475.847 75.4619C475.847 75.5702 475.935 75.6581 476.043 75.6581Z" fill="#101010"/>
<path d="M477.574 72.5234C477.682 72.5234 477.77 72.4355 477.77 72.3271C477.77 72.2187 477.682 72.1309 477.574 72.1309C477.465 72.1309 477.377 72.2187 477.377 72.3271C477.377 72.4355 477.465 72.5234 477.574 72.5234Z" fill="#101010"/>
<path d="M505.684 173.477L499.165 177.581L495.501 173.498L505.072 164.564C505.363 164.329 505.783 164.345 506.054 164.603L514.243 172.387C514.402 172.537 514.442 172.774 514.342 172.967C514.241 173.161 514.025 173.264 513.811 173.221L510.576 172.576C508.89 172.239 507.139 172.562 505.684 173.477Z" fill="#FFD7AD"/>
<path d="M454.456 98.7285L458.912 113.747L451.27 116.783L448.52 105.526L454.456 98.7285Z" fill="#FFD7AD"/>
<path d="M443.71 93.6654C443.49 95.3792 443.529 97.4215 442.307 98.6146C442.201 98.7137 442.14 98.8525 442.14 98.998C442.14 99.1434 442.201 99.2823 442.307 99.3813L442.562 99.6155C442.739 99.7796 442.822 100.021 442.783 100.259C442.568 101.595 442.231 106.366 446.284 106.424C449.243 106.466 452.416 106.132 454.668 104.094C458.771 100.378 459.844 92.7705 455.614 88.7187C451.698 84.9652 445.209 87.693 443.902 92.6069C443.814 92.9551 443.75 93.3087 443.71 93.6654Z" fill="#FFD7AD"/>
<path d="M448.987 97.8087C449.095 96.8789 449.146 95.9435 449.139 95.0076C449.139 94.3875 449.093 93.7268 448.731 93.2231C448.484 92.8803 448.111 92.6448 447.864 92.3073C447.501 91.8049 447.458 91.1494 447.312 90.5476C447.195 90.074 446.952 89.5716 446.555 89.3257C446.422 89.2432 446.338 89.1014 446.329 88.9454C446.319 88.7893 446.386 88.6384 446.508 88.5407L446.593 88.474C449.643 86.2499 453.934 86.5442 456.621 89.1975C459.309 91.8507 460.154 96.1314 458.664 99.605C458.163 100.72 457.465 101.737 456.604 102.605C456.258 102.965 455.836 103.402 455.296 103.413C454.879 103.423 454.567 103.167 454.265 102.915C453.403 102.194 452.541 101.476 451.671 100.76C450.801 100.045 449.839 99.0934 450.052 97.9866" fill="#020A44"/>
<path d="M459.251 94.3063C458.867 94.3263 458.481 94.3215 458.097 94.2919C456.519 94.2108 454.923 94.2304 453.378 94.5679C451.833 94.9055 450.336 95.5753 449.192 96.6612L449.075 96.8117C449.052 97.1427 449.023 97.4737 448.985 97.8034L450.054 97.9839C449.835 99.0907 450.801 100.043 451.672 100.757C452.543 101.472 453.404 102.197 454.266 102.912C454.569 103.165 454.88 103.42 455.297 103.411C455.834 103.399 456.255 102.962 456.606 102.602C457.467 101.734 458.164 100.718 458.665 99.6023C459.369 97.9308 459.572 96.0911 459.251 94.3063Z" fill="#020A44"/>
<ellipse cx="2.11955" cy="1.62678" rx="2.11955" ry="1.62678" transform="matrix(0.577463 -0.816417 0.816415 0.577466 447.753 98.8125)" fill="#FFD7AD"/>
<path d="M447.678 143.428C447.786 143.428 447.874 143.34 447.874 143.231C447.874 143.123 447.786 143.035 447.678 143.035C447.569 143.035 447.481 143.123 447.481 143.231C447.481 143.34 447.569 143.428 447.678 143.428Z" fill="#101010"/>
<path d="M449.675 97.509C449.527 97.5705 449.398 97.672 449.304 97.8021C449.225 97.9129 449.165 98.0357 449.126 98.1658C449.105 98.2267 449.088 98.2887 449.074 98.3516C449.039 98.4521 449.044 98.5618 449.087 98.659C449.147 98.769 449.276 98.823 449.397 98.7899C449.441 98.7777 449.48 98.751 449.508 98.714C449.535 98.6754 449.55 98.6301 449.552 98.5831L449.568 98.4405C449.569 98.3884 449.548 98.3383 449.511 98.3014C449.474 98.2645 449.424 98.2439 449.372 98.2443C449.265 98.2471 449.178 98.3333 449.176 98.4405L449.159 98.6002L449.255 98.4314C449.288 98.4133 449.327 98.4101 449.362 98.4226C449.398 98.4351 449.426 98.4621 449.44 98.4968C449.44 98.5203 449.44 98.5243 449.44 98.4968C449.429 98.5413 449.44 98.4693 449.44 98.4968C449.45 98.4523 449.458 98.4131 449.469 98.3725C449.479 98.332 449.491 98.294 449.505 98.2548C449.52 98.2155 449.52 98.2155 449.528 98.1946C449.528 98.1946 449.535 98.1737 449.528 98.1946C449.531 98.1846 449.535 98.175 449.541 98.1658C449.558 98.13 449.577 98.095 449.598 98.0611C449.609 98.0428 449.621 98.0258 449.632 98.0088C449.613 98.0324 449.644 97.9918 449.632 98.0088L449.652 97.9853C449.665 97.9696 449.679 97.9551 449.695 97.9421L449.712 97.9251C449.728 97.912 449.749 97.9081 449.712 97.9251C449.728 97.9172 449.742 97.9041 449.758 97.895C449.774 97.8858 449.838 97.8557 449.783 97.8793C449.831 97.8639 449.873 97.8319 449.9 97.789C449.94 97.7198 449.934 97.6335 449.886 97.5703C449.837 97.507 449.755 97.4793 449.678 97.4999L449.675 97.509Z" fill="#101010"/>
<path d="M444.826 96.9608L444.853 97.0183L444.833 96.9712C444.858 97.0308 444.875 97.0932 444.885 97.157V97.1047C444.892 97.169 444.892 97.234 444.885 97.2983V97.246C444.88 97.2844 444.872 97.3222 444.858 97.3585L444.878 97.3114C444.87 97.3266 444.862 97.3415 444.853 97.3559L444.883 97.3153C444.877 97.3237 444.869 97.3312 444.861 97.3375L444.9 97.3075L444.881 97.3192L444.928 97.2996H444.904L444.956 97.2931H444.941L444.993 97.2996H444.971L445.018 97.3192L444.998 97.3075L445.039 97.3389L445.022 97.3218L445.052 97.3611C445.046 97.3526 445.04 97.3434 445.036 97.3336L445.056 97.3807C445.052 97.371 445.049 97.3609 445.048 97.3506V97.403V97.3781V97.4304C445.047 97.4226 445.047 97.4147 445.048 97.4069L445.028 97.454C445.033 97.4434 445.039 97.4333 445.045 97.4239L445.014 97.4645L445.039 97.4396L445 97.471C445.011 97.4624 445.023 97.4549 445.036 97.4488L444.99 97.4684C445.004 97.4631 445.018 97.4591 445.032 97.4566H444.98H445.006C445.115 97.4566 445.202 97.3687 445.202 97.2604C445.202 97.152 445.115 97.0641 445.006 97.0641C444.854 97.063 444.718 97.158 444.667 97.3009C444.622 97.4592 444.711 97.6249 444.868 97.6751C444.944 97.697 445.026 97.6846 445.093 97.6411C445.157 97.5947 445.206 97.5293 445.231 97.454C445.249 97.4002 445.26 97.3444 445.264 97.2878C445.268 97.2395 445.268 97.1909 445.264 97.1426C445.254 97.0078 445.217 96.8763 445.154 96.7567C445.118 96.6962 445.053 96.6592 444.983 96.6597C444.913 96.6602 444.848 96.6981 444.814 96.7591C444.779 96.8201 444.78 96.895 444.815 96.9555L444.826 96.9608Z" fill="#101010"/>
<path d="M445.964 111.914C446.15 111.464 459.974 108.716 466.155 107.366C466.659 107.257 467.186 107.369 467.603 107.673C468.02 107.978 468.287 108.446 468.336 108.96C468.881 114.35 467.273 122.12 466.082 126.894C465.365 129.765 465.554 132.788 466.625 135.547L469.091 141.899C469.091 146.463 465.002 152.187 460.915 153.795C453.589 156.673 447.68 151.264 447.68 151.264C448.413 147.981 446.519 131.559 444.979 128.57C441.733 122.274 445.804 112.306 445.964 111.914Z" fill="#FFD7AD"/>
<path d="M500.296 169.019C500.296 169.019 490.493 175.533 480.974 178.658C471.947 181.624 470.592 185.847 470.592 185.847C478.31 161.041 469.088 141.899 469.088 141.899L456.251 155.78C456.251 155.78 454.469 181.323 460.607 194.273C466.744 207.222 505.837 173.061 505.837 173.061L500.296 169.019Z" fill="#101010"/>
<path d="M470.963 182.922C470.682 184.443 470.198 185.92 469.524 187.314C469.414 187.54 469.753 187.739 469.863 187.511C470.552 186.089 471.048 184.58 471.337 183.026C471.383 182.779 471.005 182.673 470.959 182.922H470.963Z" fill="#101010"/>
<path d="M450.449 105.99C450.053 106.067 449.649 106.097 449.247 106.08C449.138 106.08 449.05 106.168 449.05 106.276C449.052 106.384 449.139 106.471 449.247 106.472C449.685 106.49 450.124 106.454 450.555 106.368C450.657 106.336 450.715 106.23 450.686 106.127C450.652 106.027 450.547 105.97 450.445 105.996L450.449 105.99Z" fill="#101010"/>
<path d="M445.469 217.833L438.954 210.884L444.664 206.895L447.206 210.452C448.727 212.582 450.658 214.388 452.885 215.764C453.729 216.287 454.38 216.736 454.298 216.856L447.84 226.128C447.716 226.307 447.489 226.382 447.283 226.312C447.077 226.242 446.942 226.044 446.952 225.827L447.101 222.53C447.178 220.813 446.594 219.133 445.469 217.833Z" fill="#FFD7AD"/>
<path d="M460.13 151.585L449.246 147.767C449.246 147.767 416.87 164.631 415.864 176.987C414.858 189.342 444.757 215.582 444.757 215.582L447.429 211.272C447.429 211.272 439.607 196.051 435.455 187.415C433.306 182.942 430.386 180.518 428.667 179.393C428.44 179.246 428.32 178.979 428.36 178.712C428.401 178.444 428.595 178.225 428.855 178.152C436.237 176.076 466.032 166.686 460.13 151.585Z" fill="#FBB13C"/>
<path d="M460.13 151.585L449.246 147.767C449.246 147.767 448.545 148.132 447.347 148.794C444.628 155.128 444.068 162.18 445.755 168.863C445.952 169.713 446.243 170.538 446.621 171.323C455.515 166.731 463.442 160.059 460.13 151.585Z" fill="#8F2D56"/>
<path d="M472.877 150.263C472.21 147.117 471.11 144.079 469.606 141.236C469.334 140.721 469.046 140.213 468.749 139.712L448.03 144.823C449.062 146.731 446.275 147.216 448.03 148.487C450.95 150.609 459.477 163.688 462.692 165.328C465.906 166.969 469.11 161.343 472.719 161.354C472.785 161.36 472.851 161.347 472.91 161.315C472.98 161.267 473.481 160.468 473.476 160.384C472.936 152.684 473.535 153.374 472.877 150.263Z" fill="#101010"/>
<path d="M449.172 90.9806C447.654 91.7394 445.862 91.606 444.172 91.4542C443.432 91.3875 442.658 91.309 442.043 90.8943C441.428 90.4795 441.05 89.6095 441.428 88.9698C441.951 88.0749 443.39 88.2986 444.155 87.6C443.551 86.9733 443.721 85.8547 444.366 85.2712C445.011 84.6877 445.976 84.5765 446.823 84.7701C447.671 84.9637 448.431 85.4242 449.178 85.8717C449.602 85.2568 450.447 85.0396 451.18 85.1874C451.913 85.3353 452.55 85.7801 453.115 86.2681C453.657 85.631 454.705 86.0483 455.339 86.5965C457.192 88.2345 458.212 90.6181 458.117 93.0896" fill="#020A44"/>
<path d="M441.713 90.6861C442.558 91.3583 443.582 91.7677 444.658 91.8636C445.824 91.9554 446.995 91.7492 448.06 91.2644C448.291 91.1636 448.091 90.8261 447.862 90.9255C445.969 91.7497 443.644 91.7458 441.984 90.4022C441.789 90.2452 441.51 90.5212 441.707 90.6795L441.713 90.6861Z" fill="#101010"/>
<path d="M448.58 92.9744C449.439 92.9967 450.276 92.7056 450.935 92.1554C451.012 92.0788 451.012 91.9547 450.935 91.8781C450.858 91.8037 450.735 91.8037 450.658 91.8781C450.073 92.3567 449.334 92.6068 448.579 92.5819C448.327 92.5741 448.327 92.9666 448.579 92.9744H448.58Z" fill="#101010"/>
<path d="M449.889 94.2107C450.192 94.1625 450.476 94.0297 450.708 93.8273C450.784 93.7507 450.784 93.6266 450.708 93.55C450.63 93.4755 450.508 93.4755 450.43 93.55L450.392 93.5814L450.404 93.5722L450.384 93.5879L450.303 93.6429C450.246 93.6783 450.187 93.7102 450.127 93.7384L450.104 93.7475C450.082 93.758 450.142 93.7331 450.119 93.7475L450.073 93.7645C450.042 93.7763 450.012 93.7855 449.98 93.7946C449.916 93.8138 449.85 93.8278 449.784 93.8365C449.734 93.8503 449.692 93.8826 449.666 93.9268C449.612 94.0207 449.643 94.1412 449.737 94.1963C449.784 94.2197 449.837 94.2266 449.889 94.2159V94.2107Z" fill="#101010"/>
<path d="M471.049 138.022C468.503 135.511 467.054 132.095 467.017 128.519C466.997 124.611 468.682 120.783 468.269 116.896C467.972 114.1 466.61 110.243 465.249 107.782C464.658 106.712 463.933 105.544 462.744 105.255C461.973 105.068 461.174 105.301 460.413 105.531C455.011 107.189 449.783 109.367 444.802 112.036C443.055 112.968 441.501 114.417 440.859 116.289C440.367 117.728 440.44 119.29 440.681 120.788C441.247 124.306 442.689 127.614 443.716 131.027C444.468 133.527 445.286 136.01 445.87 138.56C446.224 140.117 446.575 141.7 446.615 143.297C446.647 144.061 446.578 144.826 446.41 145.571C446.225 146.329 445.951 147.068 446.157 147.856C446.202 148.059 446.301 148.246 446.443 148.399C446.784 148.733 447.266 148.529 447.678 148.507C450.828 148.376 455.83 147.158 458.811 146.134C463.18 144.632 467.629 143.087 471.32 140.308C471.531 140.173 471.706 139.987 471.828 139.768C472.113 139.148 471.537 138.499 471.049 138.022Z" fill="#020A44"/>
<path d="M471.049 138.022C468.503 135.51 467.054 132.094 467.017 128.518C466.997 124.611 468.683 120.782 468.269 116.895C468.252 116.729 468.23 116.559 468.205 116.385C468.118 116.414 468.031 116.445 467.943 116.479C461.349 119.04 456.197 124.569 449.515 126.883C447.522 127.573 445.408 127.962 443.304 127.83L442.912 128.521C443.196 129.353 443.474 130.187 443.727 131.026C444.479 133.527 445.297 136.01 445.88 138.56C446.235 140.116 446.585 141.7 446.626 143.297C446.657 144.061 446.588 144.825 446.42 145.571C446.236 146.328 445.961 147.067 446.168 147.855C446.213 148.058 446.311 148.246 446.453 148.398C446.795 148.733 447.276 148.529 447.688 148.507C450.839 148.376 455.84 147.158 458.822 146.133C463.19 144.631 467.64 143.086 471.331 140.308C471.542 140.172 471.716 139.986 471.838 139.767C472.113 139.147 471.537 138.498 471.049 138.022Z" fill="#020A44"/>
<path d="M460.364 108.773C461.075 110.927 462.797 112.56 464.246 114.302C464.9 115.094 465.514 115.922 466.093 116.772C466.136 116.897 466.24 116.99 466.368 117.019C466.496 117.049 466.63 117.01 466.723 116.918C468.565 115.823 470.428 114.76 472.218 113.572C473.512 112.713 474.685 111.704 475.948 110.805C476.264 110.58 476.576 110.316 476.522 109.889C476.468 109.463 475.528 109.282 474.654 108.463C472.762 106.692 471.446 104.52 470.417 102.153C470.27 101.813 469.877 101.652 469.533 101.792C467.832 102.492 462.903 104.524 457.605 106.696" fill="#020A44"/>
<path d="M448.936 109.964C448.834 110.457 448.855 110.948 449.198 111.296C449.434 111.515 449.737 111.649 450.059 111.678C451.2 111.835 452.303 111.241 453.251 110.589C454.8 109.523 456.227 108.198 457.176 106.592C454.374 107.574 451.623 108.7 448.936 109.964Z" fill="#FFD7AD"/>
<path d="M464.947 118.401L466.573 117.254C467.069 116.905 467.565 116.534 468.135 116.315C468.37 116.225 468.266 115.845 468.031 115.937C467.445 116.162 466.937 116.519 466.428 116.879L464.748 118.056C464.544 118.2 464.739 118.541 464.947 118.395V118.401Z" fill="#101010"/>
<path d="M441.601 120.713C441.614 122.859 441.837 124.997 442.265 127.099C442.699 129.222 443.273 131.314 443.983 133.361C444.375 134.512 444.802 135.653 445.248 136.785C445.34 137.016 445.719 136.915 445.626 136.68C444.841 134.682 444.115 132.657 443.522 130.591C442.919 128.536 442.481 126.436 442.214 124.311C442.07 123.119 441.997 121.92 441.994 120.719C441.994 120.61 441.907 120.522 441.798 120.522C441.69 120.522 441.602 120.61 441.602 120.719L441.601 120.713Z" fill="#101010"/>
<path d="M425.162 178.922C426.231 178.79 427.293 178.604 428.342 178.363C428.588 178.307 428.484 177.927 428.238 177.985C427.222 178.219 426.196 178.4 425.162 178.529C425.055 178.532 424.968 178.618 424.966 178.725C424.966 178.834 425.054 178.921 425.162 178.922Z" fill="#101010"/>
<path d="M426.186 180.117L426.983 179.897C427.054 179.881 427.11 179.828 427.13 179.758C427.15 179.688 427.129 179.613 427.077 179.563C427.024 179.513 426.949 179.496 426.88 179.519L426.082 179.738C425.98 179.77 425.923 179.877 425.951 179.979C425.984 180.08 426.09 180.137 426.193 180.11L426.186 180.117Z" fill="#101010"/>
<path d="M463.937 191.428L466.112 189.496C466.301 189.328 466.023 189.051 465.834 189.218L463.665 191.147C463.475 191.316 463.754 191.592 463.943 191.424L463.937 191.428Z" fill="#FBB13C"/>
<path d="M465.288 193.117L467.451 191.183C467.641 191.015 467.362 190.739 467.174 190.906L465.01 192.84C464.82 193.008 465.099 193.284 465.288 193.117Z" fill="#FBB13C"/>
<path d="M463.247 193.656C463.355 193.656 463.443 193.568 463.443 193.459C463.443 193.351 463.355 193.263 463.247 193.263C463.138 193.263 463.05 193.351 463.05 193.459C463.05 193.568 463.138 193.656 463.247 193.656Z" fill="#FBB13C"/>
<path d="M470.822 67.4305C473.521 65.8315 476.658 65.1298 479.781 65.4262C480.032 65.4497 480.031 65.0573 479.781 65.0337C476.587 64.7378 473.382 65.458 470.623 67.0917C470.529 67.1466 470.498 67.2669 470.553 67.3605C470.608 67.4541 470.728 67.4854 470.822 67.4305Z" fill="#101010"/>
<path d="M472.364 62.4804C473.857 61.8306 475.443 61.42 477.063 61.2636C477.313 61.2401 477.316 60.8476 477.063 60.8711C475.374 61.0341 473.722 61.4628 472.166 62.1415C471.935 62.2422 472.135 62.5811 472.364 62.4804Z" fill="#101010"/>
<path d="M482.858 66.6386C482.966 66.6386 483.054 66.5507 483.054 66.4423C483.054 66.334 482.966 66.2461 482.858 66.2461C482.749 66.2461 482.662 66.334 482.662 66.4423C482.662 66.5507 482.749 66.6386 482.858 66.6386Z" fill="#101010"/>
<path d="M444.849 95.4864C444.935 95.4257 445.026 95.3739 445.123 95.332L445.075 95.3529C445.193 95.3033 445.317 95.269 445.443 95.2509L445.391 95.2587H445.401C445.453 95.2563 445.502 95.2359 445.54 95.2012C445.576 95.1642 445.597 95.1145 445.597 95.0625C445.598 95.01 445.577 94.9596 445.54 94.9225C445.503 94.8855 445.453 94.8652 445.401 94.8662C445.131 94.8956 444.874 94.9928 444.652 95.1488C444.608 95.1755 444.576 95.2169 444.561 95.2653C444.548 95.3165 444.555 95.3709 444.581 95.417C444.636 95.5056 444.75 95.5364 444.843 95.4877L444.849 95.4864Z" fill="#101010"/>
<path d="M444.345 100.758C444.652 100.654 444.941 100.503 445.202 100.312C445.319 100.208 445.458 100.133 445.608 100.091C445.869 100.073 446.108 100.24 446.18 100.492C446.241 100.74 446.207 101.003 446.084 101.228C446 101.418 445.864 101.581 445.692 101.698C445.519 101.816 445.3 101.843 445.104 101.771C445.013 101.729 444.931 101.669 444.864 101.594C444.666 101.39 444.537 101.13 444.493 100.85" fill="#101010"/>
<path d="M444.394 100.947C444.721 100.836 445.03 100.676 445.31 100.473C445.407 100.38 445.526 100.315 445.656 100.282C445.761 100.286 445.858 100.34 445.918 100.426C446.097 100.662 445.984 101.004 445.851 101.233C445.719 101.462 445.473 101.695 445.197 101.596C445.056 101.53 444.939 101.42 444.864 101.283C444.77 101.136 444.708 100.97 444.682 100.798C444.665 100.728 444.611 100.673 444.542 100.655C444.473 100.636 444.399 100.657 444.35 100.708C444.3 100.76 444.283 100.834 444.304 100.902C444.363 101.312 444.594 101.676 444.938 101.906C445.315 102.128 445.783 101.959 446.045 101.644C446.307 101.329 446.478 100.877 446.369 100.467C446.269 100.092 445.87 99.7902 445.477 99.9171C445.263 99.9865 445.096 100.149 444.908 100.266C444.713 100.389 444.504 100.49 444.287 100.566C444.186 100.6 444.129 100.706 444.156 100.808C444.187 100.91 444.294 100.968 444.397 100.939L444.394 100.947Z" fill="#101010"/>
<path d="M445.451 101.476C445.459 101.442 445.467 101.408 445.477 101.374C445.488 101.34 445.489 101.337 445.496 101.319C445.502 101.301 445.496 101.298 445.505 101.294C445.514 101.29 445.485 101.34 445.505 101.307C445.535 101.242 445.571 101.18 445.613 101.121C445.592 101.149 445.613 101.121 445.613 101.121C445.624 101.107 445.635 101.094 445.647 101.081C445.671 101.055 445.697 101.031 445.723 101.008L445.762 100.974C445.715 101.017 445.762 100.974 445.778 100.963C445.808 100.943 445.84 100.924 445.872 100.907C445.936 100.873 445.975 100.807 445.976 100.735C445.977 100.664 445.938 100.597 445.875 100.562C445.812 100.527 445.735 100.53 445.675 100.568C445.363 100.738 445.142 101.036 445.069 101.383C445.042 101.485 445.1 101.591 445.2 101.624C445.302 101.652 445.409 101.594 445.441 101.493L445.451 101.476Z" fill="#D81159"/>
<path d="M398.262 207.48C394.51 202.205 391.161 196.654 388.243 190.876C387.182 188.774 386.082 186.532 384.092 185.272C383.409 184.84 382.63 184.53 382.08 183.94C381.319 183.125 381.14 181.946 380.811 180.882C379.43 176.434 375.078 173.541 370.678 172.002C366.278 170.462 361.564 169.891 357.26 168.102C352.836 166.262 348.887 163.055 346.698 158.798C344.582 154.694 344.081 147.154 346.07 142.825L346.054 142.85C341.255 149.677 339.57 158.157 339.09 166.359C338.847 170.505 339.116 174.621 339.061 178.763C339.03 181.107 337.315 184.863 339.192 186.814C339.665 187.303 340.341 187.568 340.99 187.722C343.57 188.336 346.528 187.621 349.012 188.566C354.917 190.811 360.184 194.425 365.745 197.419C373.048 201.349 380.865 204.237 388.969 205.999C392.036 206.667 395.139 207.162 398.262 207.48Z" fill="#D81159"/>
<path d="M359.568 111.521C360.876 112.179 362.148 112.901 363.384 113.688C363.597 113.818 363.795 113.484 363.581 113.349C362.346 112.564 361.074 111.842 359.765 111.182C359.54 111.068 359.341 111.407 359.568 111.521Z" fill="#EDB59F"/>
<path d="M368.692 114.721C369.021 114.741 369.349 114.669 369.64 114.515C369.73 114.46 369.761 114.345 369.711 114.253C369.655 114.165 369.541 114.134 369.449 114.182C369.418 114.199 369.386 114.214 369.354 114.229C369.321 114.245 369.335 114.237 369.354 114.229L369.325 114.241L369.283 114.257C369.216 114.281 369.148 114.3 369.079 114.314C369.044 114.322 369.009 114.329 368.974 114.333C369.026 114.333 368.974 114.333 368.966 114.333H368.905C368.834 114.337 368.763 114.337 368.693 114.333C368.584 114.333 368.497 114.421 368.497 114.529C368.499 114.636 368.586 114.722 368.693 114.725L368.692 114.721Z" fill="#EDB59F"/>
<path d="M364.206 138.684C364.103 139.134 364.057 139.596 364.067 140.058C364.067 140.254 364.067 140.484 364.185 140.65C364.246 140.741 364.345 140.801 364.454 140.813C364.564 140.826 364.673 140.79 364.754 140.716C364.796 140.672 364.816 140.612 364.808 140.551C364.8 140.491 364.765 140.438 364.713 140.407C364.564 140.34 364.449 140.214 364.395 140.06C364.315 139.822 363.936 139.929 364.017 140.165C364.098 140.418 364.278 140.627 364.516 140.746L364.476 140.437C364.49 140.432 364.504 140.429 364.518 140.426C364.493 140.426 364.488 140.426 364.503 140.426C364.517 140.426 364.522 140.454 364.503 140.426C364.481 140.379 364.47 140.327 364.471 140.275C364.461 140.112 364.458 139.949 364.462 139.785C364.473 139.452 364.517 139.121 364.593 138.796C364.648 138.55 364.268 138.444 364.213 138.692L364.206 138.684Z" fill="#EDB59F"/>
<path d="M419.362 250.038C419.362 250.954 401.217 251.411 378.839 251.691C355.987 251.976 338.151 251.05 338.316 250.038C338.461 249.138 356.459 248.387 378.839 248.387C401.219 248.387 419.362 249.126 419.362 250.038Z" fill="#E9E3E0"/>
<ellipse cx="471.903" cy="250.038" rx="40.5233" ry="1.65105" fill="#E9E3E0"/>
<path d="M321.447 290.528H310.311V301.92H299.943V290.528H288.807V280.736H299.943V269.28H310.311V280.736H321.447V290.528ZM327.715 299.232C329.165 298.08 329.827 297.547 329.699 297.632C333.88 294.176 337.165 291.339 339.555 289.12C341.987 286.901 344.035 284.576 345.699 282.144C347.363 279.712 348.195 277.344 348.195 275.04C348.195 273.291 347.789 271.925 346.979 270.944C346.168 269.963 344.952 269.472 343.331 269.472C341.709 269.472 340.429 270.091 339.491 271.328C338.595 272.523 338.147 274.229 338.147 276.448H327.587C327.672 272.821 328.44 269.792 329.891 267.36C331.384 264.928 333.325 263.136 335.715 261.984C338.147 260.832 340.835 260.256 343.779 260.256C348.856 260.256 352.675 261.557 355.235 264.16C357.837 266.763 359.139 270.155 359.139 274.336C359.139 278.901 357.581 283.147 354.467 287.072C351.352 290.955 347.384 294.752 342.563 298.464H359.843V307.36H327.715V299.232ZM364.277 299.232C365.728 298.08 366.389 297.547 366.261 297.632C370.443 294.176 373.728 291.339 376.117 289.12C378.549 286.901 380.597 284.576 382.261 282.144C383.925 279.712 384.757 277.344 384.757 275.04C384.757 273.291 384.352 271.925 383.541 270.944C382.731 269.963 381.515 269.472 379.893 269.472C378.272 269.472 376.992 270.091 376.053 271.328C375.157 272.523 374.709 274.229 374.709 276.448H364.149C364.235 272.821 365.003 269.792 366.453 267.36C367.947 264.928 369.888 263.136 372.277 261.984C374.709 260.832 377.397 260.256 380.341 260.256C385.419 260.256 389.237 261.557 391.797 264.16C394.4 266.763 395.701 270.155 395.701 274.336C395.701 278.901 394.144 283.147 391.029 287.072C387.915 290.955 383.947 294.752 379.125 298.464H396.405V307.36H364.277V299.232ZM414.088 297.888L406.984 316.256H400.008L403.72 297.888H414.088ZM419.599 284C419.599 276.661 421.007 270.88 423.823 266.656C426.681 262.432 431.268 260.32 437.583 260.32C443.897 260.32 448.463 262.432 451.279 266.656C454.137 270.88 455.567 276.661 455.567 284C455.567 291.424 454.137 297.248 451.279 301.472C448.463 305.696 443.897 307.808 437.583 307.808C431.268 307.808 426.681 305.696 423.823 301.472C421.007 297.248 419.599 291.424 419.599 284ZM444.815 284C444.815 279.691 444.345 276.384 443.407 274.08C442.468 271.733 440.527 270.56 437.583 270.56C434.639 270.56 432.697 271.733 431.759 274.08C430.82 276.384 430.351 279.691 430.351 284C430.351 286.901 430.521 289.312 430.863 291.232C431.204 293.109 431.887 294.645 432.911 295.84C433.977 296.992 435.535 297.568 437.583 297.568C439.631 297.568 441.167 296.992 442.191 295.84C443.257 294.645 443.961 293.109 444.303 291.232C444.644 289.312 444.815 286.901 444.815 284ZM461.349 284C461.349 276.661 462.757 270.88 465.573 266.656C468.431 262.432 473.018 260.32 479.333 260.32C485.647 260.32 490.213 262.432 493.029 266.656C495.887 270.88 497.317 276.661 497.317 284C497.317 291.424 495.887 297.248 493.029 301.472C490.213 305.696 485.647 307.808 479.333 307.808C473.018 307.808 468.431 305.696 465.573 301.472C462.757 297.248 461.349 291.424 461.349 284ZM486.565 284C486.565 279.691 486.095 276.384 485.157 274.08C484.218 271.733 482.277 270.56 479.333 270.56C476.389 270.56 474.447 271.733 473.509 274.08C472.57 276.384 472.101 279.691 472.101 284C472.101 286.901 472.271 289.312 472.613 291.232C472.954 293.109 473.637 294.645 474.661 295.84C475.727 296.992 477.285 297.568 479.333 297.568C481.381 297.568 482.917 296.992 483.941 295.84C485.007 294.645 485.711 293.109 486.053 291.232C486.394 289.312 486.565 286.901 486.565 284ZM503.099 284C503.099 276.661 504.507 270.88 507.323 266.656C510.181 262.432 514.768 260.32 521.083 260.32C527.397 260.32 531.963 262.432 534.779 266.656C537.637 270.88 539.067 276.661 539.067 284C539.067 291.424 537.637 297.248 534.779 301.472C531.963 305.696 527.397 307.808 521.083 307.808C514.768 307.808 510.181 305.696 507.323 301.472C504.507 297.248 503.099 291.424 503.099 284ZM528.315 284C528.315 279.691 527.845 276.384 526.907 274.08C525.968 271.733 524.027 270.56 521.083 270.56C518.139 270.56 516.197 271.733 515.259 274.08C514.32 276.384 513.851 279.691 513.851 284C513.851 286.901 514.021 289.312 514.363 291.232C514.704 293.109 515.387 294.645 516.411 295.84C517.477 296.992 519.035 297.568 521.083 297.568C523.131 297.568 524.667 296.992 525.691 295.84C526.757 294.645 527.461 293.109 527.803 291.232C528.144 289.312 528.315 286.901 528.315 284Z" fill="#101010"/>
<path d="M351.121 334.272V344.856C351.121 346.344 351.481 347.448 352.201 348.168C352.937 348.888 353.953 349.248 355.249 349.248C356.529 349.248 357.529 348.888 358.249 348.168C358.985 347.448 359.353 346.344 359.353 344.856V334.272H361.537V344.832C361.537 346.224 361.257 347.4 360.697 348.36C360.137 349.304 359.377 350.008 358.417 350.472C357.473 350.936 356.409 351.168 355.225 351.168C354.041 351.168 352.969 350.936 352.009 350.472C351.065 350.008 350.313 349.304 349.753 348.36C349.209 347.4 348.937 346.224 348.937 344.832V334.272H351.121ZM369.836 351.216C368.828 351.216 367.924 351.048 367.124 350.712C366.324 350.36 365.692 349.88 365.228 349.272C364.764 348.648 364.508 347.936 364.46 347.136H366.716C366.78 347.792 367.084 348.328 367.628 348.744C368.188 349.16 368.916 349.368 369.812 349.368C370.644 349.368 371.3 349.184 371.78 348.816C372.26 348.448 372.5 347.984 372.5 347.424C372.5 346.848 372.244 346.424 371.732 346.152C371.22 345.864 370.428 345.584 369.356 345.312C368.38 345.056 367.58 344.8 366.956 344.544C366.348 344.272 365.82 343.88 365.372 343.368C364.94 342.84 364.724 342.152 364.724 341.304C364.724 340.632 364.924 340.016 365.324 339.456C365.724 338.896 366.292 338.456 367.028 338.136C367.764 337.8 368.604 337.632 369.548 337.632C371.004 337.632 372.18 338 373.076 338.736C373.972 339.472 374.452 340.48 374.516 341.76H372.332C372.284 341.072 372.004 340.52 371.492 340.104C370.996 339.688 370.324 339.48 369.476 339.48C368.692 339.48 368.068 339.648 367.604 339.984C367.14 340.32 366.908 340.76 366.908 341.304C366.908 341.736 367.044 342.096 367.316 342.384C367.604 342.656 367.956 342.88 368.372 343.056C368.804 343.216 369.396 343.4 370.148 343.608C371.092 343.864 371.86 344.12 372.452 344.376C373.044 344.616 373.548 344.984 373.964 345.48C374.396 345.976 374.62 346.624 374.636 347.424C374.636 348.144 374.436 348.792 374.036 349.368C373.636 349.944 373.068 350.4 372.332 350.736C371.612 351.056 370.78 351.216 369.836 351.216ZM389.719 343.92C389.719 344.336 389.695 344.776 389.647 345.24H379.135C379.215 346.536 379.655 347.552 380.455 348.288C381.271 349.008 382.255 349.368 383.407 349.368C384.351 349.368 385.135 349.152 385.759 348.72C386.399 348.272 386.847 347.68 387.103 346.944H389.455C389.103 348.208 388.399 349.24 387.343 350.04C386.287 350.824 384.975 351.216 383.407 351.216C382.159 351.216 381.039 350.936 380.047 350.376C379.071 349.816 378.303 349.024 377.743 348C377.183 346.96 376.903 345.76 376.903 344.4C376.903 343.04 377.175 341.848 377.719 340.824C378.263 339.8 379.023 339.016 379.999 338.472C380.991 337.912 382.127 337.632 383.407 337.632C384.655 337.632 385.759 337.904 386.719 338.448C387.679 338.992 388.415 339.744 388.927 340.704C389.455 341.648 389.719 342.72 389.719 343.92ZM387.463 343.464C387.463 342.632 387.279 341.92 386.911 341.328C386.543 340.72 386.039 340.264 385.399 339.96C384.775 339.64 384.079 339.48 383.311 339.48C382.207 339.48 381.263 339.832 380.479 340.536C379.711 341.24 379.271 342.216 379.159 343.464H387.463ZM394.786 339.984C395.17 339.232 395.714 338.648 396.418 338.232C397.138 337.816 398.01 337.608 399.034 337.608V339.864H398.458C396.01 339.864 394.786 341.192 394.786 343.848V351H392.602V337.848H394.786V339.984ZM406.211 351.216C405.203 351.216 404.299 351.048 403.499 350.712C402.699 350.36 402.067 349.88 401.603 349.272C401.139 348.648 400.883 347.936 400.835 347.136H403.091C403.155 347.792 403.459 348.328 404.003 348.744C404.563 349.16 405.291 349.368 406.187 349.368C407.019 349.368 407.675 349.184 408.155 348.816C408.635 348.448 408.875 347.984 408.875 347.424C408.875 346.848 408.619 346.424 408.107 346.152C407.595 345.864 406.803 345.584 405.731 345.312C404.755 345.056 403.955 344.8 403.331 344.544C402.723 344.272 402.195 343.88 401.747 343.368C401.315 342.84 401.099 342.152 401.099 341.304C401.099 340.632 401.299 340.016 401.699 339.456C402.099 338.896 402.667 338.456 403.403 338.136C404.139 337.8 404.979 337.632 405.923 337.632C407.379 337.632 408.555 338 409.451 338.736C410.347 339.472 410.827 340.48 410.891 341.76H408.707C408.659 341.072 408.379 340.52 407.867 340.104C407.371 339.688 406.699 339.48 405.851 339.48C405.067 339.48 404.443 339.648 403.979 339.984C403.515 340.32 403.283 340.76 403.283 341.304C403.283 341.736 403.419 342.096 403.691 342.384C403.979 342.656 404.331 342.88 404.747 343.056C405.179 343.216 405.771 343.4 406.523 343.608C407.467 343.864 408.235 344.12 408.827 344.376C409.419 344.616 409.923 344.984 410.339 345.48C410.771 345.976 410.995 346.624 411.011 347.424C411.011 348.144 410.811 348.792 410.411 349.368C410.011 349.944 409.443 350.4 408.707 350.736C407.987 351.056 407.155 351.216 406.211 351.216ZM422.254 328.392L415.678 355.08H413.518L420.07 328.392H422.254ZM434.964 334.272V336.048H427.692V341.688H433.596V343.464H427.692V351H425.508V334.272H434.964ZM436.786 344.376C436.786 343.032 437.058 341.856 437.602 340.848C438.146 339.824 438.89 339.032 439.834 338.472C440.794 337.912 441.858 337.632 443.026 337.632C444.178 337.632 445.178 337.88 446.026 338.376C446.874 338.872 447.506 339.496 447.922 340.248V337.848H450.13V351H447.922V348.552C447.49 349.32 446.842 349.96 445.978 350.472C445.13 350.968 444.138 351.216 443.002 351.216C441.834 351.216 440.778 350.928 439.834 350.352C438.89 349.776 438.146 348.968 437.602 347.928C437.058 346.888 436.786 345.704 436.786 344.376ZM447.922 344.4C447.922 343.408 447.722 342.544 447.322 341.808C446.922 341.072 446.378 340.512 445.69 340.128C445.018 339.728 444.274 339.528 443.458 339.528C442.642 339.528 441.898 339.72 441.226 340.104C440.554 340.488 440.018 341.048 439.618 341.784C439.218 342.52 439.018 343.384 439.018 344.376C439.018 345.384 439.218 346.264 439.618 347.016C440.018 347.752 440.554 348.32 441.226 348.72C441.898 349.104 442.642 349.296 443.458 349.296C444.274 349.296 445.018 349.104 445.69 348.72C446.378 348.32 446.922 347.752 447.322 347.016C447.722 346.264 447.922 345.392 447.922 344.4ZM460.229 337.608C461.829 337.608 463.125 338.096 464.117 339.072C465.109 340.032 465.605 341.424 465.605 343.248V351H463.445V343.56C463.445 342.248 463.117 341.248 462.461 340.56C461.805 339.856 460.909 339.504 459.773 339.504C458.621 339.504 457.701 339.864 457.013 340.584C456.341 341.304 456.005 342.352 456.005 343.728V351H453.821V337.848H456.005V339.72C456.437 339.048 457.021 338.528 457.757 338.16C458.509 337.792 459.333 337.608 460.229 337.608ZM473.828 351.216C472.82 351.216 471.916 351.048 471.116 350.712C470.316 350.36 469.684 349.88 469.22 349.272C468.756 348.648 468.5 347.936 468.452 347.136H470.708C470.772 347.792 471.076 348.328 471.62 348.744C472.18 349.16 472.908 349.368 473.804 349.368C474.636 349.368 475.292 349.184 475.772 348.816C476.252 348.448 476.492 347.984 476.492 347.424C476.492 346.848 476.236 346.424 475.724 346.152C475.212 345.864 474.42 345.584 473.348 345.312C472.372 345.056 471.572 344.8 470.948 344.544C470.34 344.272 469.812 343.88 469.364 343.368C468.932 342.84 468.716 342.152 468.716 341.304C468.716 340.632 468.916 340.016 469.316 339.456C469.716 338.896 470.284 338.456 471.02 338.136C471.756 337.8 472.596 337.632 473.54 337.632C474.996 337.632 476.172 338 477.068 338.736C477.964 339.472 478.444 340.48 478.508 341.76H476.324C476.276 341.072 475.996 340.52 475.484 340.104C474.988 339.688 474.316 339.48 473.468 339.48C472.684 339.48 472.06 339.648 471.596 339.984C471.132 340.32 470.9 340.76 470.9 341.304C470.9 341.736 471.036 342.096 471.308 342.384C471.596 342.656 471.948 342.88 472.364 343.056C472.796 343.216 473.388 343.4 474.14 343.608C475.084 343.864 475.852 344.12 476.444 344.376C477.036 344.616 477.54 344.984 477.956 345.48C478.388 345.976 478.612 346.624 478.628 347.424C478.628 348.144 478.428 348.792 478.028 349.368C477.628 349.944 477.06 350.4 476.324 350.736C475.604 351.056 474.772 351.216 473.828 351.216Z" fill="#101010"/>
</svg>
