<svg width="626" height="504" viewBox="0 0 626 504" fill="none" xmlns="http://www.w3.org/2000/svg">
<path opacity="0.5" d="M13.901 147.152V150.44H9.43697V164H5.33297V150.44H0.868969V147.152H13.901ZM20.0647 152.84C20.5447 152.104 21.1447 151.528 21.8647 151.112C22.5847 150.68 23.3847 150.464 24.2647 150.464V154.808H23.1367C22.1127 154.808 21.3447 155.032 20.8327 155.48C20.3207 155.912 20.0647 156.68 20.0647 157.784V164H15.9607V150.608H20.0647V152.84ZM25.4103 157.28C25.4103 155.904 25.6663 154.696 26.1783 153.656C26.7063 152.616 27.4183 151.816 28.3143 151.256C29.2103 150.696 30.2103 150.416 31.3143 150.416C32.2583 150.416 33.0823 150.608 33.7863 150.992C34.5063 151.376 35.0583 151.88 35.4423 152.504V150.608H39.5463V164H35.4423V162.104C35.0423 162.728 34.4823 163.232 33.7623 163.616C33.0583 164 32.2343 164.192 31.2903 164.192C30.2023 164.192 29.2103 163.912 28.3143 163.352C27.4183 162.776 26.7063 161.968 26.1783 160.928C25.6663 159.872 25.4103 158.656 25.4103 157.28ZM35.4423 157.304C35.4423 156.28 35.1543 155.472 34.5783 154.88C34.0183 154.288 33.3303 153.992 32.5143 153.992C31.6983 153.992 31.0023 154.288 30.4263 154.88C29.8663 155.456 29.5863 156.256 29.5863 157.28C29.5863 158.304 29.8663 159.12 30.4263 159.728C31.0023 160.32 31.6983 160.616 32.5143 160.616C33.3303 160.616 34.0183 160.32 34.5783 159.728C35.1543 159.136 35.4423 158.328 35.4423 157.304ZM50.6753 150.464C52.2433 150.464 53.4913 150.976 54.4193 152C55.3633 153.008 55.8353 154.4 55.8353 156.176V164H51.7553V156.728C51.7553 155.832 51.5233 155.136 51.0593 154.64C50.5953 154.144 49.9713 153.896 49.1873 153.896C48.4033 153.896 47.7793 154.144 47.3153 154.64C46.8513 155.136 46.6193 155.832 46.6193 156.728V164H42.5153V150.608H46.6193V152.384C47.0353 151.792 47.5953 151.328 48.2993 150.992C49.0033 150.64 49.7953 150.464 50.6753 150.464ZM64.1352 164.192C62.9672 164.192 61.9272 163.992 61.0152 163.592C60.1032 163.192 59.3832 162.648 58.8552 161.96C58.3272 161.256 58.0312 160.472 57.9672 159.608H62.0232C62.0712 160.072 62.2872 160.448 62.6712 160.736C63.0552 161.024 63.5272 161.168 64.0872 161.168C64.5992 161.168 64.9912 161.072 65.2632 160.88C65.5512 160.672 65.6952 160.408 65.6952 160.088C65.6952 159.704 65.4952 159.424 65.0952 159.248C64.6952 159.056 64.0472 158.848 63.1512 158.624C62.1912 158.4 61.3912 158.168 60.7512 157.928C60.1112 157.672 59.5592 157.28 59.0952 156.752C58.6312 156.208 58.3992 155.48 58.3992 154.568C58.3992 153.8 58.6072 153.104 59.0232 152.48C59.4552 151.84 60.0792 151.336 60.8952 150.968C61.7272 150.6 62.7112 150.416 63.8472 150.416C65.5272 150.416 66.8472 150.832 67.8072 151.664C68.7832 152.496 69.3432 153.6 69.4872 154.976H65.6952C65.6312 154.512 65.4232 154.144 65.0712 153.872C64.7352 153.6 64.2872 153.464 63.7272 153.464C63.2472 153.464 62.8792 153.56 62.6232 153.752C62.3672 153.928 62.2392 154.176 62.2392 154.496C62.2392 154.88 62.4392 155.168 62.8392 155.36C63.2552 155.552 63.8952 155.744 64.7592 155.936C65.7512 156.192 66.5592 156.448 67.1832 156.704C67.8072 156.944 68.3512 157.344 68.8152 157.904C69.2952 158.448 69.5432 159.184 69.5592 160.112C69.5592 160.896 69.3352 161.6 68.8872 162.224C68.4552 162.832 67.8232 163.312 66.9912 163.664C66.1752 164.016 65.2232 164.192 64.1352 164.192ZM76.174 152.504C76.574 151.88 77.126 151.376 77.83 150.992C78.534 150.608 79.358 150.416 80.302 150.416C81.406 150.416 82.406 150.696 83.302 151.256C84.198 151.816 84.902 152.616 85.414 153.656C85.942 154.696 86.206 155.904 86.206 157.28C86.206 158.656 85.942 159.872 85.414 160.928C84.902 161.968 84.198 162.776 83.302 163.352C82.406 163.912 81.406 164.192 80.302 164.192C79.374 164.192 78.55 164 77.83 163.616C77.126 163.232 76.574 162.736 76.174 162.128V170.384H72.07V150.608H76.174V152.504ZM82.03 157.28C82.03 156.256 81.742 155.456 81.166 154.88C80.606 154.288 79.91 153.992 79.078 153.992C78.262 153.992 77.566 154.288 76.99 154.88C76.43 155.472 76.15 156.28 76.15 157.304C76.15 158.328 76.43 159.136 76.99 159.728C77.566 160.32 78.262 160.616 79.078 160.616C79.894 160.616 80.59 160.32 81.166 159.728C81.742 159.12 82.03 158.304 82.03 157.28ZM87.5431 157.28C87.5431 155.904 87.7991 154.696 88.3111 153.656C88.8391 152.616 89.5511 151.816 90.4471 151.256C91.3431 150.696 92.3431 150.416 93.4471 150.416C94.3911 150.416 95.2151 150.608 95.9191 150.992C96.6391 151.376 97.1911 151.88 97.5751 152.504V150.608H101.679V164H97.5751V162.104C97.1751 162.728 96.6151 163.232 95.8951 163.616C95.1911 164 94.3671 164.192 93.4231 164.192C92.3351 164.192 91.3431 163.912 90.4471 163.352C89.5511 162.776 88.8391 161.968 88.3111 160.928C87.7991 159.872 87.5431 158.656 87.5431 157.28ZM97.5751 157.304C97.5751 156.28 97.2871 155.472 96.7111 154.88C96.1511 154.288 95.4631 153.992 94.6471 153.992C93.8311 153.992 93.1351 154.288 92.5591 154.88C91.9991 155.456 91.7191 156.256 91.7191 157.28C91.7191 158.304 91.9991 159.12 92.5591 159.728C93.1351 160.32 93.8311 160.616 94.6471 160.616C95.4631 160.616 96.1511 160.32 96.7111 159.728C97.2871 159.136 97.5751 158.328 97.5751 157.304ZM108.752 152.84C109.232 152.104 109.832 151.528 110.552 151.112C111.272 150.68 112.072 150.464 112.952 150.464V154.808H111.824C110.8 154.808 110.032 155.032 109.52 155.48C109.008 155.912 108.752 156.68 108.752 157.784V164H104.648V150.608H108.752V152.84ZM127.538 157.088C127.538 157.472 127.514 157.872 127.466 158.288H118.178C118.242 159.12 118.506 159.76 118.97 160.208C119.45 160.64 120.034 160.856 120.722 160.856C121.746 160.856 122.458 160.424 122.858 159.56H127.226C127.002 160.44 126.594 161.232 126.002 161.936C125.426 162.64 124.698 163.192 123.818 163.592C122.938 163.992 121.954 164.192 120.866 164.192C119.554 164.192 118.386 163.912 117.362 163.352C116.338 162.792 115.538 161.992 114.962 160.952C114.386 159.912 114.098 158.696 114.098 157.304C114.098 155.912 114.378 154.696 114.938 153.656C115.514 152.616 116.314 151.816 117.338 151.256C118.362 150.696 119.538 150.416 120.866 150.416C122.162 150.416 123.314 150.688 124.322 151.232C125.33 151.776 126.114 152.552 126.674 153.56C127.25 154.568 127.538 155.744 127.538 157.088ZM123.338 156.008C123.338 155.304 123.098 154.744 122.618 154.328C122.138 153.912 121.538 153.704 120.818 153.704C120.13 153.704 119.546 153.904 119.066 154.304C118.602 154.704 118.314 155.272 118.202 156.008H123.338ZM137.863 150.464C139.431 150.464 140.679 150.976 141.607 152C142.551 153.008 143.023 154.4 143.023 156.176V164H138.943V156.728C138.943 155.832 138.711 155.136 138.247 154.64C137.783 154.144 137.159 153.896 136.375 153.896C135.591 153.896 134.967 154.144 134.503 154.64C134.039 155.136 133.807 155.832 133.807 156.728V164H129.703V150.608H133.807V152.384C134.223 151.792 134.783 151.328 135.487 150.992C136.191 150.64 136.983 150.464 137.863 150.464ZM145.059 157.304C145.059 155.912 145.339 154.696 145.899 153.656C146.475 152.616 147.267 151.816 148.275 151.256C149.299 150.696 150.467 150.416 151.779 150.416C153.459 150.416 154.859 150.856 155.979 151.736C157.115 152.616 157.859 153.856 158.211 155.456H153.843C153.475 154.432 152.763 153.92 151.707 153.92C150.955 153.92 150.355 154.216 149.907 154.808C149.459 155.384 149.235 156.216 149.235 157.304C149.235 158.392 149.459 159.232 149.907 159.824C150.355 160.4 150.955 160.688 151.707 160.688C152.763 160.688 153.475 160.176 153.843 159.152H158.211C157.859 160.72 157.115 161.952 155.979 162.848C154.843 163.744 153.443 164.192 151.779 164.192C150.467 164.192 149.299 163.912 148.275 163.352C147.267 162.792 146.475 161.992 145.899 160.952C145.339 159.912 145.059 158.696 145.059 157.304ZM173.03 157.088C173.03 157.472 173.006 157.872 172.958 158.288H163.67C163.734 159.12 163.998 159.76 164.462 160.208C164.942 160.64 165.526 160.856 166.214 160.856C167.238 160.856 167.95 160.424 168.35 159.56H172.718C172.494 160.44 172.086 161.232 171.494 161.936C170.918 162.64 170.19 163.192 169.31 163.592C168.43 163.992 167.446 164.192 166.358 164.192C165.046 164.192 163.878 163.912 162.854 163.352C161.83 162.792 161.03 161.992 160.454 160.952C159.878 159.912 159.59 158.696 159.59 157.304C159.59 155.912 159.87 154.696 160.43 153.656C161.006 152.616 161.806 151.816 162.83 151.256C163.854 150.696 165.03 150.416 166.358 150.416C167.654 150.416 168.806 150.688 169.814 151.232C170.822 151.776 171.606 152.552 172.166 153.56C172.742 154.568 173.03 155.744 173.03 157.088ZM168.83 156.008C168.83 155.304 168.59 154.744 168.11 154.328C167.63 153.912 167.03 153.704 166.31 153.704C165.622 153.704 165.038 153.904 164.558 154.304C164.094 154.704 163.806 155.272 163.694 156.008H168.83Z" fill="#FBB13C"/>
<path fill-rule="evenodd" clip-rule="evenodd" d="M282.294 90.6622C334.434 61.5979 394.298 76.937 446.472 96.9384C490.197 113.701 519.492 147.436 538.512 188.885C559.931 235.565 582.639 288.093 556.477 336.675C528.874 387.935 469.315 418.504 411.513 424.717C358.907 430.372 319.177 396.919 280.101 366.382C236.473 332.289 180.803 301.34 181.253 244.777C181.741 183.397 225.039 122.577 282.294 90.6622Z" fill="url(#paint0_radial_1130_4)"/>
<path d="M433.122 231.552C432.992 229.883 431.355 228.784 429.819 228.117C427.574 227.143 424.889 226.258 424.025 223.967C423.934 223.768 423.905 223.546 423.942 223.33C424.017 223.11 424.161 222.92 424.353 222.789C425.646 221.761 427.68 221.829 428.897 222.943C428.035 222.943 427.426 221.877 427.75 221.079C428.073 220.281 429.088 219.903 429.915 220.147C430.742 220.392 431.352 221.138 431.607 221.959C431.184 220.341 431.525 218.619 432.533 217.286C432.936 216.769 433.472 216.296 434.122 216.181C435.531 215.934 436.646 217.369 437.155 218.704C437.846 220.517 438.1 222.466 437.897 224.396C438.543 223.442 439.464 222.365 440.599 222.573C441.671 222.77 442.178 223.996 442.423 225.054C442.952 227.352 443.124 229.719 442.931 232.069L442.943 231.212" fill="#020A44"/>
<path d="M445.939 231.657C446.036 228.708 447.533 225.981 449.97 224.316C450.313 224.887 450.455 225.555 450.376 226.216C450.068 222.695 453.093 219.813 456.068 217.917C456.297 217.772 456.545 217.623 456.816 217.631C457.462 217.651 457.733 218.478 457.707 219.125C457.643 220.529 457.041 221.854 456.025 222.826C456.305 221.624 456.958 220.129 458.188 220.23C459.022 220.297 459.603 221.18 459.621 222.017C459.64 222.854 459.241 223.641 458.827 224.368C456.827 227.875 454.207 230.99 451.094 233.561C450.661 233.92 449.846 234.169 449.681 233.632" fill="#020A44"/>
<path d="M439.726 233.189C439.444 226.482 435.791 219.994 430.2 216.287C428.957 215.46 427.601 214.742 426.636 213.604C425.671 212.465 425.195 210.736 425.989 209.471C426.783 208.206 429.094 208.14 429.581 209.548C428.465 208.921 427.382 207.818 427.58 206.552C427.778 205.287 430.013 204.851 430.233 206.113L426.094 201.884C426.624 200.638 428.762 200.634 429.297 201.884C422.803 200.02 419.853 192.681 417.784 186.247C419.692 185.729 421.89 186.617 422.905 188.316C420.333 185.765 418.783 182.36 418.548 178.744C418.467 177.411 418.643 175.911 419.663 175.049C420.636 174.23 422.08 174.262 423.294 174.635C426.641 175.663 428.898 178.734 430.682 181.75C435.914 190.602 439.169 200.482 440.221 210.711C440.926 209.103 442.801 207.219 444.041 208.46C444.362 208.783 444.5 209.237 444.583 209.688C444.888 211.34 444.602 213.047 443.776 214.511C445.156 214.212 446.242 215.992 445.864 217.357C445.486 218.721 444.253 219.638 443.098 220.452C444.65 224.786 444.909 229.477 443.845 233.955" fill="#020A44"/>
<path d="M441.208 226.82C442.114 218.389 441.708 209.868 440.005 201.561C439.401 198.62 439.168 194.621 441.986 193.583L443.424 196.04C443.178 194.673 442.937 193.238 443.369 191.918C443.801 190.597 445.149 189.46 446.502 189.777C445.914 188.373 445.315 186.849 445.666 185.368C446.017 183.887 447.794 182.676 449.091 183.473C446.159 174.855 446.923 165.046 451.161 156.985C451.855 155.666 452.774 154.283 454.215 153.904C455.549 153.553 456.954 154.181 458.052 155.015C462.224 158.184 463.365 163.953 463.462 169.192C463.644 180.309 460.548 191.234 454.558 200.602C456.073 200.204 456.628 198.229 458.051 197.564C460.061 196.62 462.285 199.14 461.973 201.338C461.661 203.535 459.87 205.184 458.191 206.641L461.148 206.53C459.8 210.231 457.348 213.429 454.124 215.691C455.345 213.545 459.169 213.952 460 216.276C460.832 218.601 458.319 221.321 455.914 220.769L457.65 222.009C455.426 223.76 452.683 224.696 450.239 226.126C447.795 227.555 445.5 229.775 445.257 232.594" fill="#020A44"/>
<path d="M378.92 164.857H360.174C351.387 164.857 343.353 169.821 339.422 177.68L331.855 192.808C329.701 197.115 328.528 201.847 328.422 206.662L328.366 209.227C328.26 214.038 325.523 218.403 321.24 220.594L313.557 224.526C309.571 226.565 307.064 230.664 307.063 235.141C307.063 241.726 312.402 247.065 318.987 247.065H384.573C401.66 247.065 415.811 233.794 416.906 216.741C417.179 212.491 416.612 208.23 415.236 204.2L409.203 186.522C404.783 173.565 392.61 164.856 378.92 164.857V164.857Z" fill="#D81159"/>
<path d="M364.136 147.447C363.114 147.11 362.268 146.125 362.324 145.051C362.381 143.977 363.557 143.042 364.568 143.412C364.228 142.483 364.421 141.442 365.071 140.696C365.721 139.95 366.725 139.616 367.692 139.825C368.299 138.135 369.87 136.982 371.664 136.908C373.458 136.833 375.118 137.853 375.863 139.487C377.081 138.39 379.227 139.01 380.053 140.425C380.88 141.84 380.607 143.682 379.822 145.119C380.76 144.312 382.348 145.266 382.562 146.485C382.775 147.705 382.101 148.893 381.388 149.907C382.294 149.691 383.044 150.813 382.859 151.718C382.674 152.624 381.923 153.292 381.215 153.889C382.007 153.697 382.553 154.863 382.157 155.57C381.761 156.278 380.906 156.578 380.126 156.814C380.683 157.164 380.505 158.107 379.96 158.472C379.416 158.837 378.704 158.819 378.047 158.779C378.765 158.977 378.823 160.088 378.285 160.606C377.747 161.125 376.936 161.198 376.191 161.212C376.487 161.689 376.398 162.311 375.979 162.685C375.559 163.059 374.932 163.078 374.491 162.729C372.869 164.023 370.047 163.09 369.503 161.093" fill="#101010"/>
<path d="M362.322 236.911L356.574 240.618L366.822 245.822L368.092 248.984C368.228 249.247 368.51 249.401 368.805 249.373C369.1 249.344 369.348 249.139 369.43 248.855L371.289 242.49C371.296 242.467 371.302 242.445 371.306 242.421C371.36 242.114 371.196 241.81 370.909 241.688C370.4 241.456 369.885 241.239 369.4 240.961L362.322 236.911Z" fill="#101010"/>
<path d="M354.539 238.755L354.608 238.711L352.57 237.676C352.918 237.857 353.662 238.26 354.539 238.755Z" fill="#101010"/>
<path d="M365.553 218.741L340.778 201.377C340.778 201.377 327.971 194.297 323.752 206.939C319.532 219.582 359.406 241.832 359.406 241.832L361.288 240.345C361.288 240.345 348.974 230.875 351.045 225.817C353.116 220.759 334.472 212.279 334.472 212.279C334.472 212.279 355.935 232.284 370.682 231.995C385.019 231.717 365.553 218.741 365.553 218.741Z" fill="#101010"/>
<path d="M354.612 172.865L359.755 182.294C353.273 192.914 341.459 203.52 340.109 197.615C338.76 191.71 354.612 172.865 354.612 172.865V172.865Z" fill="#73D2DE"/>
<path d="M359.013 179.715C356.952 179.715 355.107 178.611 355.107 182.89C355.107 183.938 351.995 191.285 352.176 192.197C354.485 189.728 356.594 187.078 358.481 184.273C357.802 182.58 360.163 179.715 359.013 179.715V179.715Z" fill="#101010"/>
<path d="M336.749 196.516C339.175 195.497 339.668 194.964 342.135 194.048C344.602 193.132 348.185 192.401 351.697 192.307C351.901 192.31 352.097 192.382 352.254 192.512C352.424 192.668 352.55 192.868 352.616 193.089C352.903 193.831 353.111 194.602 353.234 195.388C353.317 195.913 353.364 196.467 353.162 196.961C353.013 197.293 352.801 197.592 352.537 197.842C351.502 198.895 350.144 199.582 348.734 200.016C347.324 200.451 345.854 200.65 344.391 200.847L339.279 201.535C338.528 201.636 337.768 201.738 337.018 201.632C336.267 201.526 335.52 201.187 335.085 200.568C334.813 200.179 334.683 199.71 334.557 199.252C334.447 198.851 334.38 198.33 334.73 198.106" fill="#73D2DE"/>
<path d="M356.906 240.706L360.422 246.36C360.568 246.596 360.534 246.901 360.339 247.098L358.249 249.204C358.04 249.413 357.98 249.728 358.097 250C358.214 250.271 358.485 250.444 358.78 250.436L366.502 250.235C366.525 250.236 366.549 250.236 366.573 250.235C366.783 250.201 366.967 250.073 367.069 249.886C367.172 249.699 367.183 249.475 367.098 249.28L363.384 240.354L356.906 240.706Z" fill="#BD7B63"/>
<path d="M382.036 197.295C381.963 196.017 385.298 192.816 385.221 191.538C385.124 189.931 385.032 188.323 384.963 186.714C384.851 184.187 386.016 181.463 385.386 178.992C382.981 169.562 369.931 167.917 361.363 170.015C357.417 170.981 354.58 171.241 353.262 175.331C352.615 177.356 353.427 178.944 354.102 180.821C355.047 183.442 354.807 186.42 355.655 189.108C356.474 191.71 358.578 193.796 358.783 196.611C358.854 197.58 355.177 212.065 355.065 212.043C362.64 213.535 377.703 215.121 384.956 213.292C385.667 213.116 386.161 212.472 386.149 211.74C386.061 206.282 382.351 202.748 382.036 197.295V197.295Z" fill="#73D2DE"/>
<path d="M384.871 213.206C385.581 213.029 386.076 212.386 386.063 211.654C385.992 207.134 383.44 203.933 382.383 199.874C381.082 199.384 379.734 199.025 378.361 198.803C376.58 198.508 374.755 198.398 373.041 197.835C370.628 197.041 368.539 195.377 366.063 194.817C364.319 194.42 363.881 194.123 362.11 193.869C360.339 193.616 356.59 191.6 355.917 189.94C356.869 192.14 358.519 194.045 358.697 196.518C358.768 197.487 355.092 211.972 354.979 211.95C362.554 213.449 377.619 215.035 384.871 213.206V213.206Z" fill="#73D2DE"/>
<path d="M382.495 200.29C380.814 199.877 379.067 199.727 377.333 199.622C375.598 199.518 373.823 199.453 372.066 199.431C371.091 199.418 370.107 199.419 369.149 199.606C367.367 199.952 365.73 200.929 363.922 201.093C361.86 201.28 359.668 200.405 357.754 201.106C357.431 202.479 357.058 204.005 356.692 205.472C357.425 206.206 358.556 206.438 359.6 206.61C365.914 207.645 372.277 208.422 378.666 208.769C380.714 208.883 382.779 208.953 384.806 208.64C385.074 208.597 385.341 208.547 385.606 208.491C384.846 205.623 383.318 203.158 382.495 200.29V200.29Z" fill="#101010"/>
<path d="M361.363 170.015C361.142 170.07 360.927 170.122 360.716 170.172C360.692 173.241 361.084 176.922 364.538 177.067C369.841 177.292 371.363 172.944 372.338 169.481C368.678 168.984 364.958 169.165 361.363 170.015V170.015Z" fill="#BD7B63"/>
<path d="M348.094 195.287L349.227 193.836C350.381 192.684 351.971 192.079 353.599 192.174C354.088 192.205 354.602 192.315 354.959 192.65C355.183 192.883 355.355 193.16 355.463 193.465C356.179 195.197 356.307 197.117 355.828 198.929C355.788 199.091 355.646 199.207 355.48 199.215C355.247 199.215 355.173 199.01 355.124 198.827C354.829 197.75 354.535 196.672 354.241 195.593C354.167 196.587 354.092 197.581 354.017 198.576C353.995 198.877 353.968 199.194 353.758 199.427C353.641 199.564 353.459 199.628 353.281 199.595C352.982 199.527 352.893 199.197 352.839 198.912C352.659 197.902 352.555 196.88 352.528 195.854C352.58 196.911 352.565 197.97 352.483 199.025C352.46 199.321 352.383 199.682 352.066 199.736C351.936 199.756 351.804 199.716 351.707 199.627C351.492 199.445 351.438 199.172 351.387 198.911C351.206 197.962 351.024 197.014 350.843 196.065C350.791 196.927 350.739 197.79 350.686 198.652C350.667 198.982 350.606 199.375 350.298 199.514C350.137 199.573 349.96 199.576 349.797 199.523C349.492 199.444 349.214 199.285 348.99 199.063C348.447 198.528 348.232 197.806 348.101 197.087C347.909 196.021 347.246 195.968 348.094 195.287V195.287Z" fill="#BD7B63"/>
<path d="M370.796 194.587C370.796 194.587 378.321 194.244 376.896 185.899C375.757 179.245 382.617 187.063 385.443 190.513C385.48 191.19 385.52 191.867 385.56 192.544C385.637 193.824 385.715 195.102 385.789 196.38L385.836 197.192L370.796 194.587Z" fill="#73D2DE"/>
<path d="M376.896 185.899L385.158 189.687C385.192 190.303 385.228 190.92 385.265 191.538C385.341 192.816 385.42 194.095 385.494 195.373L385.541 196.184L379.639 195.162C378.602 191.893 376.896 185.899 376.896 185.899Z" fill="#101010"/>
<path d="M381.621 173.113C386.001 177.501 390.011 182.564 393.032 187.977C394.552 190.701 396.078 193.553 396.677 196.644C397.049 198.564 396.946 200.813 395.976 202.554C395.459 203.491 394.57 204.279 393.518 204.455C392.806 204.572 392.066 204.407 391.411 204.098C389.859 203.362 388.794 201.891 387.918 200.411C384.507 194.641 379.795 189.466 375.321 184.47L381.621 173.113Z" fill="#73D2DE"/>
<path d="M384.404 194.883L378.308 187.397C377.783 186.75 377.229 186.117 376.845 185.375C376.731 185.152 376.396 185.349 376.51 185.57C376.85 186.228 377.324 186.8 377.789 187.371L379.334 189.267L382.382 193.011L384.129 195.157C384.287 195.351 384.56 195.074 384.404 194.883V194.883Z" fill="#101010"/>
<path d="M369.011 158.357L370.697 170.888L363.013 171.355L361.793 160.566L369.011 158.357Z" fill="#BD7B63"/>
<path d="M372.165 150.695C371.584 149.09 370.176 148.271 368.525 147.752C367.061 147.301 365.521 147.149 363.997 147.305C361.37 147.563 358.443 148.441 357.945 151.385C357.773 152.395 357.815 153.438 357.784 154.458C357.737 156.047 357.797 157.637 357.964 159.218C358.084 160.335 358.266 161.474 358.8 162.463C359.516 163.79 360.731 164.653 362.124 165.27C362.49 165.432 362.868 165.577 363.252 165.709C364.473 166.126 365.798 166.126 367.019 165.709C367.407 165.579 367.781 165.432 368.146 165.27C369.539 164.653 370.755 163.79 371.472 162.463C372.006 161.474 372.187 160.335 372.308 159.218C372.451 157.873 372.517 156.522 372.507 155.17C372.496 153.9 372.593 152.544 372.331 151.296C372.29 151.092 372.234 150.891 372.165 150.695V150.695Z" fill="#BD7B63"/>
<ellipse cx="1.73601" cy="1.97014" rx="1.73601" ry="1.97014" transform="matrix(0.943629 -0.331005 0.331012 0.943627 355.799 155.6)" fill="#BD7B63"/>
<ellipse cx="1.97014" cy="1.73601" rx="1.97014" ry="1.73601" transform="matrix(0.331011 -0.943627 0.943629 0.331006 369.908 158.18)" fill="#BD7B63"/>
<path d="M357.842 155.878C358.435 155.749 358.877 155.218 359.048 154.636C359.219 154.054 359.158 153.431 359.057 152.825C359.045 152.755 359.016 152.669 358.945 152.666C358.536 153.239 358.148 153.826 357.78 154.428" fill="#101010"/>
<path d="M370.231 152.956C370.065 153.625 370.122 154.33 370.394 154.963C370.653 155.557 371.121 156.084 371.735 156.279C371.902 156.335 372.078 156.358 372.253 156.348C372.293 156.35 372.333 156.333 372.359 156.302C372.375 156.272 372.38 156.237 372.372 156.204C372.261 155.17 372.078 154.146 371.822 153.138C371.795 153.035 371.741 152.909 371.635 152.909" fill="#101010"/>
<path d="M357.568 156.405C357.568 156.454 357.527 156.513 357.472 156.51L357.445 156.502C357.466 156.502 357.433 156.488 357.445 156.502C357.454 156.51 357.462 156.518 357.47 156.528C357.49 156.55 357.454 156.506 357.47 156.528C357.485 156.55 357.503 156.576 357.519 156.6C357.548 156.647 357.574 156.696 357.598 156.746C357.612 156.776 357.589 156.724 357.598 156.754C357.607 156.784 357.607 156.779 357.612 156.79C357.617 156.802 357.631 156.846 357.639 156.874C357.654 156.924 357.666 156.975 357.675 157.027C357.675 157.027 357.683 157.08 357.675 157.059C357.668 157.039 357.675 157.079 357.675 157.081V157.16V157.326C357.675 157.338 357.675 157.353 357.675 157.326L357.668 157.374C357.668 157.403 357.656 157.432 357.648 157.46L357.973 157.375L357.951 157.352C357.964 157.371 357.965 157.372 357.951 157.352C357.943 157.338 357.935 157.325 357.929 157.31C357.948 157.353 357.929 157.3 357.929 157.291V157.268C357.929 157.292 357.929 157.295 357.929 157.268C357.929 157.24 357.929 157.237 357.929 157.221C357.929 157.272 357.929 157.207 357.939 157.195C357.93 157.226 357.939 157.195 357.939 157.185C357.944 157.176 357.951 157.167 357.957 157.159C357.942 157.177 357.943 157.178 357.957 157.159C358.029 157.083 358.026 156.963 357.953 156.89C357.879 156.816 357.76 156.814 357.683 156.885C357.482 157.098 357.487 157.434 357.696 157.64C357.746 157.688 357.816 157.706 357.883 157.688C357.949 157.67 358.001 157.619 358.021 157.554C358.102 157.222 358.07 156.874 357.931 156.563C357.872 156.406 357.773 156.267 357.643 156.16C357.553 156.095 357.436 156.084 357.335 156.13C357.235 156.177 357.168 156.274 357.159 156.384C357.161 156.491 357.247 156.577 357.353 156.578C357.459 156.575 357.545 156.49 357.547 156.384L357.568 156.405Z" fill="#101010"/>
<path d="M373.099 156.404C373.091 156.295 373.026 156.199 372.927 156.152C372.829 156.104 372.713 156.113 372.623 156.175C372.488 156.281 372.385 156.422 372.327 156.583C372.188 156.894 372.156 157.243 372.237 157.574C372.257 157.64 372.309 157.691 372.375 157.708C372.442 157.726 372.513 157.708 372.562 157.661C372.771 157.454 372.777 157.119 372.575 156.905C372.499 156.834 372.379 156.836 372.306 156.91C372.232 156.984 372.23 157.103 372.301 157.179C372.315 157.196 372.315 157.195 372.301 157.179C372.307 157.187 372.313 157.196 372.318 157.205C372.327 157.221 372.331 157.249 372.318 157.216C372.318 157.216 372.334 157.279 372.328 157.25C372.321 157.222 372.328 157.281 372.328 157.288C372.328 157.331 372.338 157.261 372.328 157.3C372.328 157.309 372.303 157.371 372.328 157.327C372.321 157.341 372.314 157.355 372.306 157.368C372.293 157.386 372.294 157.385 372.306 157.368L372.284 157.391L372.607 157.477C372.607 157.451 372.596 157.426 372.591 157.401L372.583 157.351C372.583 157.319 372.583 157.379 372.583 157.351C372.579 157.296 372.579 157.241 372.583 157.186C372.583 157.16 372.583 157.134 372.583 157.108V157.069C372.583 157.102 372.583 157.059 372.583 157.053C372.591 156.998 372.604 156.944 372.62 156.891C372.62 156.866 372.636 156.84 372.644 156.817L372.658 156.78C372.658 156.771 372.669 156.754 372.658 156.772C372.68 156.721 372.706 156.672 372.735 156.626C372.75 156.601 372.766 156.576 372.783 156.552C372.8 156.527 372.801 156.531 372.783 156.552L372.808 156.525C372.826 156.507 372.82 156.525 372.799 156.525C372.739 156.539 372.695 156.476 372.693 156.423C372.693 156.53 372.78 156.617 372.887 156.617C372.994 156.617 373.081 156.53 373.081 156.423L373.099 156.404Z" fill="#101010"/>
<path d="M363.953 159.153V159.467L364.199 159.279C363.966 159.245 363.731 159.332 363.578 159.511C363.421 159.672 363.364 159.906 363.431 160.122C363.583 160.538 364.077 160.657 364.482 160.631C364.707 160.632 364.918 160.526 365.051 160.345C365.105 160.252 365.074 160.134 364.982 160.079C364.889 160.027 364.772 160.058 364.716 160.149C364.703 160.167 364.703 160.168 364.716 160.149L364.693 160.173C364.668 160.2 364.715 160.164 364.68 160.184L364.636 160.208L364.613 160.216C364.593 160.222 364.573 160.228 364.553 160.231C364.544 160.231 364.494 160.242 364.535 160.231C364.492 160.237 364.449 160.239 364.406 160.239C364.24 160.249 364.075 160.215 363.926 160.141C363.87 160.112 363.825 160.067 363.797 160.012C363.778 159.978 363.797 160.025 363.789 159.99C363.785 159.978 363.782 159.966 363.78 159.953C363.78 159.974 363.78 159.971 363.78 159.953C363.78 159.935 363.788 159.893 363.78 159.926C363.784 159.906 363.79 159.887 363.797 159.868C363.788 159.894 363.811 159.84 363.815 159.832C363.819 159.824 363.852 159.777 363.838 159.797C363.851 159.781 363.865 159.766 363.879 159.752C363.879 159.752 363.926 159.711 363.904 159.728C363.927 159.711 363.951 159.696 363.976 159.684L363.995 159.675H364.007C364.007 159.675 364.068 159.661 364.036 159.666C364.045 159.666 364.115 159.666 364.088 159.666C364.146 159.681 364.208 159.668 364.256 159.631C364.303 159.595 364.332 159.539 364.333 159.479V159.164C364.333 159.057 364.246 158.971 364.139 158.97C364.033 158.972 363.947 159.058 363.945 159.164L363.953 159.153Z" fill="#101010"/>
<path d="M360.965 155.298C361.387 155.298 361.81 155.278 362.23 155.243C362.336 155.24 362.421 155.155 362.424 155.049C362.423 154.942 362.337 154.856 362.23 154.854C361.81 154.889 361.387 154.908 360.965 154.91C360.858 154.91 360.771 154.997 360.771 155.104C360.771 155.211 360.858 155.298 360.965 155.298V155.298Z" fill="#101010"/>
<path d="M368.023 154.91C367.6 154.91 367.178 154.892 366.758 154.854C366.706 154.854 366.656 154.874 366.62 154.911C366.583 154.947 366.563 154.997 366.563 155.049C366.566 155.155 366.652 155.24 366.758 155.243C367.178 155.277 367.6 155.296 368.023 155.298C368.129 155.297 368.215 155.211 368.217 155.104C368.214 154.998 368.129 154.913 368.023 154.91V154.91Z" fill="#101010"/>
<path d="M366.737 160.689C366.708 160.734 366.677 160.777 366.644 160.818C366.66 160.798 366.644 160.811 366.644 160.818L366.618 160.849C366.601 160.87 366.583 160.891 366.565 160.91C366.493 160.99 366.414 161.065 366.331 161.133L366.305 161.153C366.262 161.187 366.336 161.131 366.293 161.163L366.227 161.21C366.184 161.239 366.142 161.266 366.098 161.292C366.054 161.318 366.003 161.345 365.955 161.369L365.882 161.403C365.865 161.411 365.851 161.416 365.882 161.403L365.836 161.421C365.738 161.454 365.683 161.557 365.71 161.657C365.737 161.756 365.838 161.817 365.939 161.795C366.408 161.617 366.809 161.294 367.082 160.873C367.131 160.782 367.101 160.669 367.014 160.614C366.92 160.563 366.803 160.594 366.747 160.684L366.737 160.689Z" fill="#101010"/>
<path d="M394.906 203.821C394.906 203.821 393.591 198.757 390.556 196.609C387.662 194.558 371.54 193.773 368.306 193.375C367.992 193.335 367.674 193.405 367.407 193.575C366.631 194.068 365.363 195.375 366.436 198.325C366.569 198.688 366.852 198.977 367.212 199.117C370.795 200.518 390.808 208.071 394.906 203.821V203.821Z" fill="#73D2DE"/>
<path d="M390.654 196.44C390.271 196.191 389.856 195.996 389.419 195.861C388.823 195.659 388.216 195.492 387.601 195.36C385.993 194.998 384.357 194.759 382.723 194.547C380.863 194.305 378.998 194.112 377.13 193.94C375.434 193.783 373.737 193.646 372.038 193.51C370.874 193.417 369.716 193.337 368.558 193.212L368.3 193.182C368.052 193.152 368.054 193.54 368.3 193.57C369.351 193.699 370.413 193.769 371.469 193.853C373.118 193.983 374.768 194.112 376.416 194.263C378.267 194.429 380.115 194.613 381.959 194.838C383.627 195.043 385.296 195.276 386.944 195.614C387.591 195.743 388.248 195.9 388.885 196.094C389.349 196.221 389.798 196.4 390.222 196.628C390.301 196.673 390.377 196.721 390.452 196.773C390.657 196.918 390.851 196.581 390.648 196.438L390.654 196.44Z" fill="white"/>
<path d="M358.85 198.564C358.875 198.76 359.026 198.916 359.222 198.946C359.417 198.976 359.608 198.873 359.691 198.694C359.719 198.634 359.745 198.573 359.77 198.515C360.12 197.699 360.47 196.884 360.819 196.068C360.772 197.003 360.731 197.967 361.05 198.846C361.18 199.185 361.367 199.524 361.721 199.655C361.896 199.724 362.094 199.71 362.257 199.615C362.516 199.453 362.525 199.167 362.524 198.907C362.524 198.853 362.524 198.8 362.524 198.746C362.653 199.166 363.099 199.535 363.437 199.179C363.509 199.1 363.559 199.004 363.585 198.901C363.789 198.13 363.994 197.359 364.199 196.588C364.144 197.23 364.17 197.877 364.279 198.513C364.328 198.802 364.409 199.108 364.651 199.289C364.784 199.39 364.961 199.414 365.116 199.352C365.326 199.26 365.356 199.06 365.375 198.874C365.394 198.687 365.401 198.486 365.402 198.288C365.402 198.162 365.482 198.049 365.601 198.007C365.72 197.966 365.852 198.003 365.931 198.101C366.068 198.271 366.229 198.419 366.41 198.541C367.277 199.114 368.564 198.8 369.169 197.958C369.522 197.44 369.661 196.806 369.557 196.188C369.466 195.643 369.212 195.138 368.83 194.739C367.425 193.224 365.467 192.184 363.397 192.177C362.841 192.153 362.287 192.255 361.776 192.475C361.04 192.826 360.528 193.51 360.102 194.211C359.308 195.515 358.696 197.068 358.85 198.564V198.564Z" fill="#BD7B63"/>
<path d="M322.021 202.491H351.108L344.751 180.216C344.623 179.766 344.211 179.456 343.743 179.456H315.016C314.857 179.456 314.707 179.53 314.611 179.657C314.515 179.784 314.483 179.949 314.526 180.102L320.606 201.422C320.786 202.055 321.364 202.491 322.021 202.491V202.491Z" fill="#101010"/>
<path d="M367.076 202.491H328.581V199.349H368.15C368.453 199.349 368.698 199.594 368.698 199.897V200.87C368.698 201.766 367.972 202.492 367.076 202.492V202.491Z" fill="#E7E7E7"/>
<path d="M320.837 202.491H349.929L343.572 180.216C343.443 179.767 343.033 179.456 342.565 179.456H313.835C313.677 179.458 313.528 179.534 313.433 179.66C313.337 179.786 313.304 179.949 313.344 180.102L319.424 201.422C319.603 202.054 320.18 202.491 320.837 202.491V202.491Z" fill="#E7E7E7"/>
<path d="M383.598 219.134L363.486 208.078C363.486 208.078 344.299 194.519 337.02 201.632C329.741 208.746 357.768 242.885 357.768 242.885H364.859C364.859 242.885 361.866 233.993 358.768 225.597C361.315 228.544 364.658 231.103 368.875 231.862C380.459 233.947 384.391 220.768 383.598 219.134V219.134Z" fill="#020A44"/>
<rect x="365.66" y="201.213" width="1.60149" height="0.58989" rx="0.294945" transform="rotate(-180 365.66 201.213)" fill="#101010"/>
<rect x="363.13" y="201.213" width="1.60147" height="0.58989" rx="0.294945" transform="rotate(-180 363.13 201.213)" fill="#101010"/>
<path d="M392.793 204.725C391.292 204.963 389.745 204.901 388.239 204.756C386.406 204.565 384.586 204.263 382.789 203.851C380.882 203.432 378.995 202.931 377.123 202.379C375.349 201.853 373.59 201.283 371.844 200.668C370.446 200.176 369.055 199.657 367.683 199.097L367.27 198.926C367.169 198.898 367.064 198.955 367.032 199.055C367.005 199.156 367.062 199.261 367.161 199.293C368.486 199.846 369.83 200.354 371.18 200.838C372.901 201.455 374.637 202.028 376.388 202.558C378.269 203.128 380.167 203.645 382.08 204.084C383.914 204.517 385.772 204.846 387.643 205.071C389.204 205.248 390.799 205.341 392.364 205.157C392.538 205.137 392.711 205.113 392.882 205.086C393.128 205.047 393.023 204.672 392.778 204.712L392.793 204.725Z" fill="#101010"/>
<path d="M369.155 197.698C368.719 198.224 368.1 198.566 367.422 198.655C367.073 198.72 366.712 198.656 366.407 198.475C366.121 198.284 365.915 197.987 365.72 197.709C365.578 197.506 365.241 197.699 365.385 197.905C365.595 198.24 365.861 198.536 366.172 198.782C366.526 199.014 366.953 199.109 367.372 199.049C368.172 198.972 368.91 198.585 369.429 197.972C369.589 197.782 369.316 197.506 369.155 197.698V197.698Z" fill="#101010"/>
<path d="M362.233 195.903C361.974 196.967 361.982 198.078 362.257 199.137C362.292 199.232 362.394 199.284 362.492 199.257C362.59 199.23 362.65 199.133 362.632 199.034C362.375 198.044 362.366 197.006 362.608 196.012C362.666 195.77 362.292 195.667 362.233 195.91V195.903Z" fill="#101010"/>
<path d="M360.793 195.895C360.535 196.375 360.311 196.872 360.123 197.383C360.034 197.624 359.961 197.869 359.88 198.113C359.838 198.303 359.727 198.47 359.568 198.582C359.508 198.617 359.472 198.682 359.472 198.751C359.473 198.82 359.51 198.884 359.57 198.919C359.631 198.953 359.705 198.952 359.765 198.917C360.199 198.673 360.282 198.109 360.428 197.678C360.619 197.131 360.853 196.6 361.128 196.091C361.247 195.871 360.912 195.674 360.793 195.895V195.895Z" fill="#101010"/>
<path d="M364.239 196.292C363.851 197.068 363.713 197.946 363.516 198.779C363.459 199.022 363.833 199.126 363.89 198.883C363.988 198.465 364.084 198.046 364.186 197.629C364.273 197.235 364.403 196.852 364.574 196.487C364.686 196.264 364.351 196.068 364.239 196.292V196.292Z" fill="#101010"/>
<path d="M365.486 197.257C365.338 197.79 365.236 198.335 365.181 198.885C365.181 198.992 365.268 199.079 365.375 199.079C365.482 199.079 365.569 198.992 365.569 198.885C365.622 198.369 365.72 197.859 365.861 197.361C365.879 197.261 365.818 197.164 365.721 197.137C365.623 197.111 365.521 197.163 365.486 197.257V197.257Z" fill="#101010"/>
<path d="M354.031 195.629C354.316 196.123 354.404 196.7 354.521 197.25L354.92 199.111C354.973 199.354 355.347 199.251 355.295 199.008L354.882 197.083C354.761 196.519 354.659 195.941 354.365 195.434C354.309 195.345 354.193 195.317 354.103 195.37C354.013 195.422 353.981 195.537 354.03 195.629H354.031Z" fill="#101010"/>
<path d="M352.221 196.253C352.479 197.288 352.446 198.366 352.663 199.407C352.713 199.652 353.087 199.548 353.037 199.304C352.821 198.269 352.852 197.185 352.594 196.15C352.534 195.908 352.16 196.012 352.221 196.253Z" fill="#101010"/>
<path d="M350.668 196.264C350.831 197.113 350.956 197.967 351.043 198.827C351.045 198.933 351.131 199.019 351.237 199.021C351.344 199.021 351.431 198.934 351.431 198.827C351.345 197.933 351.216 197.045 351.043 196.161C350.997 195.916 350.621 196.02 350.669 196.264H350.668Z" fill="#101010"/>
<path d="M364.324 208.622C368.602 211.432 373.521 213.115 378.624 213.514L379.659 213.926C381.33 216.566 382.609 219.513 383.171 222.572C381.657 226.62 378.815 230.165 374.544 231.452C373.291 231.823 371.991 232.006 370.685 231.996C369.524 231.992 368.416 231.51 367.621 230.664C366.826 229.819 366.413 228.683 366.481 227.524C366.64 224.793 366.998 222.054 367.033 219.32C367.081 215.295 366.205 210.924 363.489 208.077C363.775 208.262 364.054 208.451 364.324 208.622V208.622Z" fill="#020A44"/>
<path d="M384.159 213.439C384.427 213.41 384.575 213.391 384.575 213.391C384.704 213.374 384.404 217.118 384.377 217.385C383.923 221.85 381.982 226.57 378.438 229.399C379.343 217.772 367.212 210.298 367.212 210.298C372.437 212.966 378.325 214.057 384.159 213.439Z" fill="#101010"/>
<path d="M330.32 192.41H331.962C332.229 192.411 332.481 192.286 332.642 192.073C332.802 191.86 332.854 191.584 332.78 191.328L332.53 190.453C332.384 189.939 331.914 189.584 331.379 189.584H329.71C329.442 189.584 329.189 189.71 329.027 189.924C328.865 190.138 328.814 190.416 328.888 190.674L329.117 191.505C329.27 192.042 329.761 192.412 330.32 192.41V192.41Z" fill="#E7E7E7"/>
<path d="M351.017 213C352.892 214.394 354.341 216.274 355.493 218.289C356.706 220.412 357.584 222.687 358.422 224.977C358.908 226.304 359.413 227.622 359.997 228.908C360.101 229.136 360.436 228.938 360.332 228.713C359.298 226.428 358.554 224.029 357.586 221.717C356.653 219.492 355.541 217.319 354.037 215.426C353.22 214.386 352.27 213.458 351.213 212.665C351.012 212.515 350.824 212.852 351.017 213V213Z" fill="#101010"/>
<path d="M350.131 212.472L350.188 212.417C350.207 212.399 350.22 212.378 350.228 212.353C350.24 212.331 350.246 212.305 350.245 212.28C350.246 212.253 350.24 212.228 350.228 212.204C350.22 212.18 350.207 212.158 350.188 212.141L350.149 212.111C350.119 212.094 350.085 212.085 350.051 212.085L349.999 212.092C349.967 212.101 349.938 212.118 349.914 212.141L349.857 212.198C349.839 212.215 349.825 212.237 349.817 212.26C349.794 212.308 349.794 212.363 349.817 212.41C349.825 212.434 349.839 212.455 349.857 212.472L349.897 212.503C349.926 212.52 349.96 212.529 349.994 212.529H350.046C350.078 212.521 350.108 212.503 350.131 212.479V212.472Z" fill="#101010"/>
<path d="M351.981 211.582C352.329 212.348 352.51 213.179 352.511 214.021C352.511 214.128 352.598 214.215 352.705 214.215C352.812 214.215 352.899 214.128 352.899 214.021C352.895 213.111 352.696 212.212 352.316 211.385C352.281 211.326 352.216 211.289 352.147 211.29C352.078 211.29 352.014 211.328 351.979 211.388C351.945 211.448 351.946 211.522 351.981 211.582V211.582Z" fill="#101010"/>
<path d="M327 205.841C327.802 205.58 328.641 205.451 329.484 205.461C329.591 205.461 329.678 205.374 329.678 205.267C329.678 205.159 329.591 205.073 329.484 205.073C328.606 205.06 327.732 205.191 326.896 205.461C326.66 205.537 326.761 205.912 327 205.834V205.841Z" fill="#020A44"/>
<path d="M327.229 207.794C327.717 207.537 328.258 207.397 328.809 207.384C329.059 207.384 329.059 206.996 328.809 206.996C328.189 207.011 327.581 207.169 327.032 207.459C326.811 207.576 327.007 207.911 327.229 207.794Z" fill="#020A44"/>
<path d="M330.243 207.218C330.35 207.218 330.437 207.131 330.437 207.024C330.437 206.917 330.35 206.83 330.243 206.83C330.136 206.83 330.049 206.917 330.049 207.024C330.049 207.131 330.136 207.218 330.243 207.218V207.218Z" fill="#020A44"/>
<path d="M326.112 209.831C326.22 209.831 326.307 209.745 326.307 209.637C326.307 209.53 326.22 209.443 326.112 209.443C326.005 209.443 325.918 209.53 325.918 209.637C325.918 209.745 326.005 209.831 326.112 209.831Z" fill="#020A44"/>
<path d="M365.928 92.4285L362.446 95.9083L358.964 92.4285C356.632 90.0964 353.469 88.7863 350.171 88.7863C346.873 88.7863 343.71 90.0964 341.379 92.4285C339.046 94.7604 337.736 97.9232 337.736 101.221C337.736 104.519 339.046 107.682 341.379 110.014L344.861 113.501L358.955 127.602C359.881 128.529 361.137 129.05 362.447 129.05C363.758 129.05 365.014 128.529 365.94 127.602L380.04 113.501L383.514 110.009C385.846 107.677 387.156 104.514 387.156 101.216C387.156 97.918 385.846 94.7552 383.514 92.4233C381.181 90.092 378.018 88.7827 374.72 88.7837C371.422 88.7847 368.26 90.0958 365.928 92.4285V92.4285Z" fill="#D0BCFF"/>
<path d="M322.669 132.413L320.677 134.405L318.683 132.413C317.349 131.077 315.539 130.327 313.651 130.327C311.763 130.327 309.952 131.077 308.618 132.413C307.283 133.747 306.532 135.558 306.532 137.445C306.532 139.333 307.283 141.144 308.618 142.478L310.618 144.47L318.685 152.537C319.215 153.067 319.933 153.365 320.683 153.365C321.432 153.365 322.151 153.067 322.681 152.537L330.748 144.47L332.738 142.478C334.073 141.144 334.823 139.334 334.823 137.446C334.823 135.559 334.073 133.748 332.738 132.414C331.404 131.077 329.593 130.326 327.704 130.326C325.815 130.325 324.004 131.076 322.669 132.413V132.413Z" fill="#D0BCFF"/>
<path d="M406.215 132.412L404.221 134.405L402.229 132.412C400.895 131.077 399.084 130.327 397.197 130.327C395.309 130.327 393.498 131.077 392.164 132.412C390.828 133.747 390.078 135.557 390.078 137.445C390.078 139.333 390.828 141.143 392.164 142.478L394.157 144.47L402.224 152.537C402.754 153.067 403.473 153.365 404.222 153.365C404.972 153.365 405.69 153.067 406.22 152.537L414.287 144.47L416.28 142.477C417.615 141.142 418.365 139.332 418.365 137.444C418.365 135.557 417.615 133.747 416.28 132.412C414.946 131.077 413.136 130.327 411.248 130.327C409.36 130.327 407.549 131.077 406.215 132.412V132.412Z" fill="#D0BCFF"/>
<path d="M361.161 103.668H364.105V113.717H361.161V103.668Z" fill="white"/>
<circle cx="360.476" cy="113.717" r="3.62984" fill="white"/>
<path d="M368.046 100.476L361.161 101.944V103.447V105.923V107.426L368.046 105.958V100.476Z" fill="white"/>
<path d="M361.036 158.131C361.457 158.283 361.923 158.249 362.317 158.035C362.406 157.981 362.436 157.868 362.387 157.776C362.332 157.685 362.214 157.654 362.122 157.707L362.054 157.74L362.019 157.756C362.038 157.756 362.035 157.756 362.019 157.756C361.978 157.771 361.937 157.786 361.89 157.797C361.843 157.809 361.805 157.819 361.761 157.827L361.724 157.833C361.744 157.833 361.743 157.833 361.724 157.833H361.659C361.612 157.836 361.564 157.836 361.517 157.833C361.499 157.835 361.48 157.835 361.461 157.833C361.454 157.833 361.379 157.823 361.419 157.833C361.325 157.819 361.234 157.795 361.145 157.761C361.044 157.733 360.939 157.79 360.907 157.89C360.88 157.992 360.937 158.096 361.036 158.13V158.131Z" fill="#101010"/>
<path d="M366.772 158.131C367.194 158.283 367.66 158.248 368.054 158.035C368.142 157.979 368.171 157.863 368.118 157.773C368.065 157.683 367.951 157.65 367.859 157.7L367.792 157.733L367.757 157.749H367.75C367.71 157.764 367.667 157.779 367.621 157.79C367.574 157.802 367.535 157.812 367.491 157.82L367.454 157.827C367.475 157.827 367.475 157.827 367.454 157.827H367.388C367.341 157.829 367.293 157.829 367.246 157.827C367.227 157.828 367.209 157.828 367.19 157.827C367.182 157.827 367.109 157.816 367.147 157.827C367.054 157.812 366.963 157.788 366.874 157.754C366.773 157.726 366.668 157.783 366.636 157.883C366.61 157.985 366.666 158.089 366.766 158.123L366.772 158.131Z" fill="#101010"/>
<path d="M364.63 166.199C366.412 166.323 368.179 165.801 369.606 164.728C369.803 164.579 369.606 164.241 369.411 164.393C368.044 165.428 366.348 165.934 364.636 165.816C364.388 165.799 364.389 166.187 364.636 166.204L364.63 166.199Z" fill="#101010"/>
<path d="M358.234 153.955C358.057 153.79 357.778 153.818 357.543 153.879C356.873 154.045 356.268 154.409 355.807 154.924C355.348 155.444 355.108 156.121 355.136 156.814C355.203 157.957 356.084 158.907 357.076 159.476C357.243 159.584 357.431 159.654 357.627 159.682C357.829 159.707 358.026 159.615 358.137 159.445C358.2 159.295 358.217 159.129 358.186 158.969C358.065 157.603 357.973 156.337 358.256 154.996C358.327 154.5 358.468 154.176 358.234 153.955V153.955Z" fill="#73D2DE"/>
<path d="M371.726 154.741C371.902 154.576 372.183 154.604 372.417 154.665C373.087 154.831 373.691 155.195 374.152 155.71C374.611 156.23 374.852 156.907 374.824 157.6C374.756 158.744 373.876 159.693 372.884 160.262C372.718 160.371 372.529 160.441 372.333 160.468C372.132 160.492 371.935 160.401 371.824 160.231C371.761 160.081 371.744 159.915 371.775 159.755C371.897 158.389 371.989 157.123 371.705 155.783C371.632 155.285 371.491 154.962 371.726 154.741V154.741Z" fill="#73D2DE"/>
<path d="M372.854 155.258C373.341 155.099 373.745 154.752 373.977 154.295C374.208 153.838 374.249 153.308 374.089 152.821C374.245 152.733 374.406 152.924 374.477 153.079L375.245 154.699C375.392 155.011 375.543 155.346 375.466 155.687C375.242 156.648 374.22 157.48 373.38 157.917" fill="#73D2DE"/>
<path d="M357.629 155.258C357.141 155.099 356.737 154.753 356.505 154.296C356.273 153.838 356.232 153.308 356.392 152.821C356.237 152.733 356.075 152.924 356.004 153.079L355.237 154.699C355.089 155.011 354.939 155.346 355.017 155.687C355.239 156.648 356.262 157.48 357.101 157.917" fill="#73D2DE"/>
<path d="M355.247 155.296C354.86 156.122 354.827 157.071 355.157 157.922C355.487 158.772 356.15 159.452 356.993 159.801C357.367 159.958 357.956 160.189 358.249 159.782C358.398 159.58 358.06 159.386 357.914 159.586C357.828 159.705 357.472 159.562 357.368 159.53C357.154 159.459 356.948 159.364 356.755 159.246C355.467 158.476 354.962 156.862 355.582 155.495C355.684 155.268 355.349 155.07 355.247 155.298V155.296Z" fill="#101010"/>
<path d="M371.84 160.565C372.924 160.733 373.889 159.899 374.45 159.053C375.013 158.206 375.258 157.187 375.142 156.176C375.111 155.932 374.723 155.929 374.754 156.176C374.862 157.067 374.665 157.968 374.196 158.733C373.749 159.46 372.881 160.336 371.943 160.191C371.699 160.154 371.593 160.528 371.84 160.565V160.565Z" fill="#101010"/>
<path d="M365.596 147.006C364.809 146.254 363.623 146.047 362.547 146.208C361.47 146.368 360.477 146.847 359.491 147.32L357.093 148.484C356.132 148.949 355.102 149.478 354.764 150.554C354.648 150.903 354.688 151.285 354.873 151.603C355.318 152.334 356.218 152.092 356.886 152.405C356.313 152.405 355.87 153.04 355.965 153.607C356.059 154.174 356.582 154.604 357.147 154.703C357.713 154.801 358.296 154.615 358.78 154.307C359.264 153.999 359.663 153.579 360.058 153.162C360.211 153.46 360.588 153.582 360.918 153.536C361.248 153.467 361.558 153.324 361.824 153.117C362.522 152.636 363.179 152.097 363.785 151.504C363.517 151.956 364.015 152.553 364.542 152.575C365.068 152.597 365.532 152.256 365.931 151.912C366.472 151.446 366.981 150.942 367.455 150.407C367.553 150.296 367.704 150.249 367.848 150.284C367.991 150.319 368.104 150.43 368.14 150.573C368.464 151.822 369.121 152.958 370.041 153.862C370.147 153.956 370.243 154.062 370.326 154.177C370.404 154.298 370.456 154.436 370.524 154.556C370.777 154.951 371.272 155.113 371.709 154.945C371.901 155.521 372.485 155.979 373.087 155.911C373.689 155.842 374.17 155.141 373.923 154.588C374.193 154.771 374.586 154.523 374.67 154.206C374.754 153.889 374.63 153.559 374.509 153.254C373.871 151.651 373.135 149.931 371.638 149.072C371.932 149.435 372.7 149.35 372.627 148.574C372.625 148.55 372.62 148.528 372.611 148.506C372.522 148.329 372.388 148.179 372.223 148.069C371.705 147.655 371.18 147.23 370.548 147.045C369.915 146.86 369.148 146.97 368.737 147.486C368.101 146.753 367.246 146.245 366.3 146.034C366.025 145.973 365.721 145.944 365.479 146.087C365.237 146.231 365.131 146.605 365.342 146.796" fill="#101010"/>
<path d="M422.644 231.258C422.638 237.277 425.422 242.958 430.18 246.644C430.531 246.914 430.962 247.06 431.405 247.059H452.832C453.276 247.06 453.707 246.914 454.059 246.644C458.816 242.958 461.599 237.276 461.594 231.258C461.592 230.517 461.549 229.777 461.464 229.041C461.349 228.022 460.487 227.252 459.462 227.251H424.773C423.747 227.251 422.885 228.021 422.77 229.041C422.686 229.777 422.644 230.517 422.644 231.258V231.258Z" fill="#E7E7E7"/>
<path d="M350.774 142.901C351.506 143.882 352.157 144.92 352.722 146.006C352.837 146.227 353.172 146.031 353.057 145.81C352.493 144.724 351.842 143.686 351.109 142.706C350.962 142.508 350.624 142.706 350.774 142.901V142.901Z" fill="#101010"/>
<path d="M349.168 147.514L351.108 148.694C351.321 148.823 351.517 148.488 351.303 148.359L349.363 147.179C349.149 147.05 348.954 147.385 349.168 147.514Z" fill="#101010"/>
<path d="M356.01 142.421L356.333 144.193C356.348 144.263 356.401 144.319 356.47 144.339C356.539 144.358 356.613 144.338 356.662 144.286C356.712 144.234 356.729 144.159 356.706 144.091L356.386 142.318C356.353 142.217 356.248 142.16 356.146 142.188C356.044 142.219 355.984 142.324 356.01 142.428V142.421Z" fill="#101010"/>
<path d="M359.128 144.418C359.235 144.418 359.322 144.331 359.322 144.224C359.322 144.117 359.235 144.03 359.128 144.03C359.021 144.03 358.934 144.117 358.934 144.224C358.934 144.331 359.021 144.418 359.128 144.418V144.418Z" fill="#101010"/>
<path d="M399.148 194.262C400.341 197.344 400.377 200.753 399.249 203.858C399.164 204.094 399.539 204.195 399.623 203.962C400.507 201.496 400.69 198.833 400.15 196.27C399.997 195.551 399.787 194.845 399.522 194.159C399.433 193.929 399.058 194.03 399.148 194.262V194.262Z" fill="#101010"/>
<path d="M402.763 198.731C402.931 199.414 402.968 200.122 402.873 200.819C402.846 200.92 402.903 201.025 403.002 201.058C403.103 201.087 403.209 201.03 403.241 200.929C403.351 200.164 403.314 199.385 403.131 198.634C403.072 198.392 402.698 198.495 402.757 198.738L402.763 198.731Z" fill="#101010"/>
<path d="M307.934 180.829C308.326 179.196 309.334 177.779 310.747 176.873C310.958 176.743 310.764 176.403 310.552 176.538C309.052 177.496 307.981 178.997 307.561 180.726C307.503 180.968 307.877 181.072 307.935 180.829H307.934Z" fill="#101010"/>
<path d="M305.636 177.382L306.661 176.384C306.71 176.335 306.729 176.263 306.711 176.196C306.693 176.129 306.64 176.077 306.573 176.059C306.506 176.041 306.434 176.061 306.385 176.11L305.361 177.107C305.285 177.183 305.285 177.307 305.361 177.382C305.438 177.458 305.561 177.458 305.636 177.382V177.382Z" fill="#101010"/>
<path d="M241.854 312.528H230.718V323.92H220.35V312.528H209.214V302.736H220.35V291.28H230.718V302.736H241.854V312.528ZM260.916 293.456V283.28H278.644V330H267.252V293.456H260.916ZM319.026 292.816H299.058V301.648C299.911 300.709 301.106 299.941 302.642 299.344C304.178 298.747 305.842 298.448 307.634 298.448C310.834 298.448 313.479 299.173 315.57 300.624C317.703 302.075 319.261 303.952 320.242 306.256C321.223 308.56 321.714 311.056 321.714 313.744C321.714 318.736 320.306 322.704 317.49 325.648C314.674 328.549 310.706 330 305.586 330C302.173 330 299.207 329.424 296.69 328.272C294.173 327.077 292.231 325.435 290.866 323.344C289.501 321.253 288.754 318.843 288.626 316.112H299.314C299.57 317.435 300.189 318.544 301.17 319.44C302.151 320.293 303.495 320.72 305.202 320.72C307.207 320.72 308.701 320.08 309.682 318.8C310.663 317.52 311.154 315.813 311.154 313.68C311.154 311.589 310.642 309.989 309.618 308.88C308.594 307.771 307.101 307.216 305.138 307.216C303.687 307.216 302.493 307.579 301.554 308.304C300.615 308.987 299.997 309.904 299.698 311.056H289.138V283.216H319.026V292.816ZM393.286 285.072V330H382.342V303.056L372.294 330H363.462L353.35 302.992V330H342.406V285.072H355.333L367.942 316.176L380.422 285.072H393.286ZM406.66 290.576C404.74 290.576 403.161 290.021 401.924 288.912C400.729 287.76 400.132 286.352 400.132 284.688C400.132 282.981 400.729 281.573 401.924 280.464C403.161 279.312 404.74 278.736 406.66 278.736C408.537 278.736 410.073 279.312 411.268 280.464C412.505 281.573 413.124 282.981 413.124 284.688C413.124 286.352 412.505 287.76 411.268 288.912C410.073 290.021 408.537 290.576 406.66 290.576ZM412.1 294.288V330H401.156V294.288H412.1ZM430.975 282.64V330H420.031V282.64H430.975ZM449.85 282.64V330H438.906V282.64H449.85ZM463.285 290.576C461.365 290.576 459.786 290.021 458.549 288.912C457.354 287.76 456.757 286.352 456.757 284.688C456.757 282.981 457.354 281.573 458.549 280.464C459.786 279.312 461.365 278.736 463.285 278.736C465.162 278.736 466.698 279.312 467.893 280.464C469.13 281.573 469.749 282.981 469.749 284.688C469.749 286.352 469.13 287.76 467.893 288.912C466.698 290.021 465.162 290.576 463.285 290.576ZM468.725 294.288V330H457.781V294.288H468.725ZM492.912 330.512C489.413 330.512 486.256 329.765 483.44 328.272C480.666 326.779 478.469 324.645 476.848 321.872C475.269 319.099 474.48 315.856 474.48 312.144C474.48 308.475 475.29 305.253 476.911 302.48C478.533 299.664 480.752 297.509 483.568 296.016C486.384 294.523 489.541 293.776 493.04 293.776C496.538 293.776 499.696 294.523 502.512 296.016C505.328 297.509 507.546 299.664 509.168 302.48C510.789 305.253 511.6 308.475 511.6 312.144C511.6 315.813 510.768 319.056 509.104 321.872C507.482 324.645 505.242 326.779 502.384 328.272C499.568 329.765 496.41 330.512 492.912 330.512ZM492.912 321.04C495.002 321.04 496.773 320.272 498.224 318.736C499.717 317.2 500.464 315.003 500.464 312.144C500.464 309.285 499.738 307.088 498.288 305.552C496.88 304.016 495.13 303.248 493.04 303.248C490.906 303.248 489.136 304.016 487.728 305.552C486.32 307.045 485.616 309.243 485.616 312.144C485.616 315.003 486.298 317.2 487.664 318.736C489.072 320.272 490.821 321.04 492.912 321.04ZM539.166 293.904C543.347 293.904 546.675 295.269 549.15 298C551.667 300.688 552.926 304.4 552.926 309.136V330H542.046V310.608C542.046 308.219 541.427 306.363 540.19 305.04C538.952 303.717 537.288 303.056 535.198 303.056C533.107 303.056 531.443 303.717 530.206 305.04C528.968 306.363 528.35 308.219 528.35 310.608V330H517.406V294.288H528.35V299.024C529.459 297.445 530.952 296.208 532.83 295.312C534.707 294.373 536.819 293.904 539.166 293.904Z" fill="#020A44"/>
<path d="M254.341 366.624C254.341 364.992 254.709 363.528 255.445 362.232C256.181 360.92 257.181 359.896 258.445 359.16C259.725 358.424 261.141 358.056 262.693 358.056C264.517 358.056 266.109 358.496 267.469 359.376C268.829 360.256 269.821 361.504 270.445 363.12H267.829C267.365 362.112 266.693 361.336 265.813 360.792C264.949 360.248 263.909 359.976 262.693 359.976C261.525 359.976 260.477 360.248 259.549 360.792C258.621 361.336 257.893 362.112 257.365 363.12C256.837 364.112 256.573 365.28 256.573 366.624C256.573 367.952 256.837 369.12 257.365 370.128C257.893 371.12 258.621 371.888 259.549 372.432C260.477 372.976 261.525 373.248 262.693 373.248C263.909 373.248 264.949 372.984 265.813 372.456C266.693 371.912 267.365 371.136 267.829 370.128H270.445C269.821 371.728 268.829 372.968 267.469 373.848C266.109 374.712 264.517 375.144 262.693 375.144C261.141 375.144 259.725 374.784 258.445 374.064C257.181 373.328 256.181 372.312 255.445 371.016C254.709 369.72 254.341 368.256 254.341 366.624ZM279.432 375.216C278.2 375.216 277.08 374.936 276.072 374.376C275.08 373.816 274.296 373.024 273.72 372C273.16 370.96 272.88 369.76 272.88 368.4C272.88 367.056 273.168 365.872 273.744 364.848C274.336 363.808 275.136 363.016 276.144 362.472C277.152 361.912 278.28 361.632 279.528 361.632C280.776 361.632 281.904 361.912 282.912 362.472C283.92 363.016 284.712 363.8 285.288 364.824C285.88 365.848 286.176 367.04 286.176 368.4C286.176 369.76 285.872 370.96 285.264 372C284.672 373.024 283.864 373.816 282.84 374.376C281.816 374.936 280.68 375.216 279.432 375.216ZM279.432 373.296C280.216 373.296 280.952 373.112 281.64 372.744C282.328 372.376 282.88 371.824 283.296 371.088C283.728 370.352 283.944 369.456 283.944 368.4C283.944 367.344 283.736 366.448 283.32 365.712C282.904 364.976 282.36 364.432 281.688 364.08C281.016 363.712 280.288 363.528 279.504 363.528C278.704 363.528 277.968 363.712 277.296 364.08C276.64 364.432 276.112 364.976 275.712 365.712C275.312 366.448 275.112 367.344 275.112 368.4C275.112 369.472 275.304 370.376 275.688 371.112C276.088 371.848 276.616 372.4 277.272 372.768C277.928 373.12 278.648 373.296 279.432 373.296ZM304.863 361.608C305.887 361.608 306.799 361.824 307.599 362.256C308.399 362.672 309.031 363.304 309.495 364.152C309.959 365 310.191 366.032 310.191 367.248V375H308.031V367.56C308.031 366.248 307.703 365.248 307.047 364.56C306.407 363.856 305.535 363.504 304.431 363.504C303.295 363.504 302.391 363.872 301.719 364.608C301.047 365.328 300.711 366.376 300.711 367.752V375H298.551V367.56C298.551 366.248 298.223 365.248 297.567 364.56C296.927 363.856 296.055 363.504 294.951 363.504C293.815 363.504 292.911 363.872 292.239 364.608C291.567 365.328 291.231 366.376 291.231 367.752V375H289.047V361.848H291.231V363.744C291.663 363.056 292.239 362.528 292.959 362.16C293.695 361.792 294.503 361.608 295.383 361.608C296.487 361.608 297.463 361.856 298.311 362.352C299.159 362.848 299.791 363.576 300.207 364.536C300.575 363.608 301.183 362.888 302.031 362.376C302.879 361.864 303.823 361.608 304.863 361.608ZM329.59 361.608C330.614 361.608 331.526 361.824 332.326 362.256C333.126 362.672 333.758 363.304 334.222 364.152C334.686 365 334.918 366.032 334.918 367.248V375H332.758V367.56C332.758 366.248 332.43 365.248 331.774 364.56C331.134 363.856 330.262 363.504 329.158 363.504C328.022 363.504 327.118 363.872 326.446 364.608C325.774 365.328 325.438 366.376 325.438 367.752V375H323.278V367.56C323.278 366.248 322.95 365.248 322.294 364.56C321.654 363.856 320.782 363.504 319.678 363.504C318.542 363.504 317.638 363.872 316.966 364.608C316.294 365.328 315.958 366.376 315.958 367.752V375H313.774V361.848H315.958V363.744C316.39 363.056 316.966 362.528 317.686 362.16C318.422 361.792 319.23 361.608 320.11 361.608C321.214 361.608 322.19 361.856 323.038 362.352C323.886 362.848 324.518 363.576 324.934 364.536C325.302 363.608 325.91 362.888 326.758 362.376C327.606 361.864 328.55 361.608 329.59 361.608ZM350.164 361.848V375H347.98V373.056C347.564 373.728 346.98 374.256 346.228 374.64C345.492 375.008 344.676 375.192 343.78 375.192C342.756 375.192 341.836 374.984 341.02 374.568C340.204 374.136 339.556 373.496 339.076 372.648C338.612 371.8 338.38 370.768 338.38 369.552V361.848H340.54V369.264C340.54 370.56 340.868 371.56 341.524 372.264C342.18 372.952 343.076 373.296 344.212 373.296C345.38 373.296 346.3 372.936 346.972 372.216C347.644 371.496 347.98 370.448 347.98 369.072V361.848H350.164ZM360.26 361.608C361.86 361.608 363.156 362.096 364.148 363.072C365.14 364.032 365.636 365.424 365.636 367.248V375H363.476V367.56C363.476 366.248 363.148 365.248 362.492 364.56C361.836 363.856 360.94 363.504 359.804 363.504C358.652 363.504 357.732 363.864 357.044 364.584C356.372 365.304 356.036 366.352 356.036 367.728V375H353.852V361.848H356.036V363.72C356.468 363.048 357.052 362.528 357.788 362.16C358.54 361.792 359.364 361.608 360.26 361.608ZM368.387 368.376C368.387 367.032 368.659 365.856 369.203 364.848C369.747 363.824 370.491 363.032 371.435 362.472C372.395 361.912 373.459 361.632 374.627 361.632C375.779 361.632 376.779 361.88 377.627 362.376C378.475 362.872 379.107 363.496 379.523 364.248V361.848H381.731V375H379.523V372.552C379.091 373.32 378.443 373.96 377.579 374.472C376.731 374.968 375.739 375.216 374.603 375.216C373.435 375.216 372.379 374.928 371.435 374.352C370.491 373.776 369.747 372.968 369.203 371.928C368.659 370.888 368.387 369.704 368.387 368.376ZM379.523 368.4C379.523 367.408 379.323 366.544 378.923 365.808C378.523 365.072 377.979 364.512 377.291 364.128C376.619 363.728 375.875 363.528 375.059 363.528C374.243 363.528 373.499 363.72 372.827 364.104C372.155 364.488 371.619 365.048 371.219 365.784C370.819 366.52 370.619 367.384 370.619 368.376C370.619 369.384 370.819 370.264 371.219 371.016C371.619 371.752 372.155 372.32 372.827 372.72C373.499 373.104 374.243 373.296 375.059 373.296C375.875 373.296 376.619 373.104 377.291 372.72C377.979 372.32 378.523 371.752 378.923 371.016C379.323 370.264 379.523 369.392 379.523 368.4ZM397.086 361.848V375H394.902V373.056C394.486 373.728 393.902 374.256 393.15 374.64C392.414 375.008 391.598 375.192 390.702 375.192C389.678 375.192 388.758 374.984 387.942 374.568C387.126 374.136 386.478 373.496 385.998 372.648C385.534 371.8 385.302 370.768 385.302 369.552V361.848H387.462V369.264C387.462 370.56 387.79 371.56 388.446 372.264C389.102 372.952 389.998 373.296 391.134 373.296C392.302 373.296 393.222 372.936 393.894 372.216C394.566 371.496 394.902 370.448 394.902 369.072V361.848H397.086ZM403.438 363.648V371.4C403.438 372.04 403.574 372.496 403.846 372.768C404.118 373.024 404.59 373.152 405.262 373.152H406.87V375H404.902C403.686 375 402.774 374.72 402.166 374.16C401.558 373.6 401.254 372.68 401.254 371.4V363.648H399.55V361.848H401.254V358.536H403.438V361.848H406.87V363.648H403.438ZM421.516 367.92C421.516 368.336 421.492 368.776 421.444 369.24H410.932C411.012 370.536 411.452 371.552 412.252 372.288C413.068 373.008 414.052 373.368 415.204 373.368C416.148 373.368 416.932 373.152 417.556 372.72C418.196 372.272 418.644 371.68 418.9 370.944H421.252C420.9 372.208 420.196 373.24 419.14 374.04C418.084 374.824 416.772 375.216 415.204 375.216C413.956 375.216 412.836 374.936 411.844 374.376C410.868 373.816 410.1 373.024 409.54 372C408.98 370.96 408.7 369.76 408.7 368.4C408.7 367.04 408.972 365.848 409.516 364.824C410.06 363.8 410.82 363.016 411.796 362.472C412.788 361.912 413.924 361.632 415.204 361.632C416.452 361.632 417.556 361.904 418.516 362.448C419.476 362.992 420.212 363.744 420.724 364.704C421.252 365.648 421.516 366.72 421.516 367.92ZM419.26 367.464C419.26 366.632 419.076 365.92 418.708 365.328C418.34 364.72 417.836 364.264 417.196 363.96C416.572 363.64 415.876 363.48 415.108 363.48C414.004 363.48 413.06 363.832 412.276 364.536C411.508 365.24 411.068 366.216 410.956 367.464H419.26ZM417.46 358.128L412.348 360.864V359.232L417.46 356.232V358.128ZM429.981 368.376C429.981 367.032 430.253 365.856 430.797 364.848C431.341 363.824 432.085 363.032 433.029 362.472C433.989 361.912 435.061 361.632 436.245 361.632C437.269 361.632 438.221 361.872 439.101 362.352C439.981 362.816 440.653 363.432 441.117 364.2V357.24H443.325V375H441.117V372.528C440.685 373.312 440.045 373.96 439.197 374.472C438.349 374.968 437.357 375.216 436.221 375.216C435.053 375.216 433.989 374.928 433.029 374.352C432.085 373.776 431.341 372.968 430.797 371.928C430.253 370.888 429.981 369.704 429.981 368.376ZM441.117 368.4C441.117 367.408 440.917 366.544 440.517 365.808C440.117 365.072 439.573 364.512 438.885 364.128C438.213 363.728 437.469 363.528 436.653 363.528C435.837 363.528 435.093 363.72 434.421 364.104C433.749 364.488 433.213 365.048 432.813 365.784C432.413 366.52 432.213 367.384 432.213 368.376C432.213 369.384 432.413 370.264 432.813 371.016C433.213 371.752 433.749 372.32 434.421 372.72C435.093 373.104 435.837 373.296 436.653 373.296C437.469 373.296 438.213 373.104 438.885 372.72C439.573 372.32 440.117 371.752 440.517 371.016C440.917 370.264 441.117 369.392 441.117 368.4ZM459.016 367.92C459.016 368.336 458.992 368.776 458.944 369.24H448.432C448.512 370.536 448.952 371.552 449.752 372.288C450.568 373.008 451.552 373.368 452.704 373.368C453.648 373.368 454.432 373.152 455.056 372.72C455.696 372.272 456.144 371.68 456.4 370.944H458.752C458.4 372.208 457.696 373.24 456.64 374.04C455.584 374.824 454.272 375.216 452.704 375.216C451.456 375.216 450.336 374.936 449.344 374.376C448.368 373.816 447.6 373.024 447.04 372C446.48 370.96 446.2 369.76 446.2 368.4C446.2 367.04 446.472 365.848 447.016 364.824C447.56 363.8 448.32 363.016 449.296 362.472C450.288 361.912 451.424 361.632 452.704 361.632C453.952 361.632 455.056 361.904 456.016 362.448C456.976 362.992 457.712 363.744 458.224 364.704C458.752 365.648 459.016 366.72 459.016 367.92ZM456.76 367.464C456.76 366.632 456.576 365.92 456.208 365.328C455.84 364.72 455.336 364.264 454.696 363.96C454.072 363.64 453.376 363.48 452.608 363.48C451.504 363.48 450.56 363.832 449.776 364.536C449.008 365.24 448.568 366.216 448.456 367.464H456.76ZM474.705 361.608C476.305 361.608 477.601 362.096 478.593 363.072C479.585 364.032 480.081 365.424 480.081 367.248V375H477.921V367.56C477.921 366.248 477.593 365.248 476.937 364.56C476.281 363.856 475.385 363.504 474.249 363.504C473.097 363.504 472.177 363.864 471.489 364.584C470.817 365.304 470.481 366.352 470.481 367.728V375H468.297V361.848H470.481V363.72C470.913 363.048 471.497 362.528 472.233 362.16C472.985 361.792 473.809 361.608 474.705 361.608ZM489.385 375.216C488.153 375.216 487.033 374.936 486.025 374.376C485.033 373.816 484.249 373.024 483.673 372C483.113 370.96 482.833 369.76 482.833 368.4C482.833 367.056 483.121 365.872 483.697 364.848C484.289 363.808 485.089 363.016 486.097 362.472C487.105 361.912 488.233 361.632 489.481 361.632C490.729 361.632 491.857 361.912 492.865 362.472C493.873 363.016 494.665 363.8 495.241 364.824C495.833 365.848 496.129 367.04 496.129 368.4C496.129 369.76 495.825 370.96 495.217 372C494.625 373.024 493.817 373.816 492.793 374.376C491.769 374.936 490.633 375.216 489.385 375.216ZM489.385 373.296C490.169 373.296 490.905 373.112 491.593 372.744C492.281 372.376 492.833 371.824 493.249 371.088C493.681 370.352 493.897 369.456 493.897 368.4C493.897 367.344 493.689 366.448 493.273 365.712C492.857 364.976 492.313 364.432 491.641 364.08C490.969 363.712 490.241 363.528 489.457 363.528C488.657 363.528 487.921 363.712 487.249 364.08C486.593 364.432 486.065 364.976 485.665 365.712C485.265 366.448 485.065 367.344 485.065 368.4C485.065 369.472 485.257 370.376 485.641 371.112C486.041 371.848 486.569 372.4 487.225 372.768C487.881 373.12 488.601 373.296 489.385 373.296ZM503.656 375.216C502.648 375.216 501.744 375.048 500.944 374.712C500.144 374.36 499.512 373.88 499.048 373.272C498.584 372.648 498.328 371.936 498.28 371.136H500.536C500.6 371.792 500.904 372.328 501.448 372.744C502.008 373.16 502.736 373.368 503.632 373.368C504.464 373.368 505.12 373.184 505.6 372.816C506.08 372.448 506.32 371.984 506.32 371.424C506.32 370.848 506.064 370.424 505.552 370.152C505.04 369.864 504.248 369.584 503.176 369.312C502.2 369.056 501.4 368.8 500.776 368.544C500.168 368.272 499.64 367.88 499.192 367.368C498.76 366.84 498.544 366.152 498.544 365.304C498.544 364.632 498.744 364.016 499.144 363.456C499.544 362.896 500.112 362.456 500.848 362.136C501.584 361.8 502.424 361.632 503.368 361.632C504.824 361.632 506 362 506.896 362.736C507.792 363.472 508.272 364.48 508.336 365.76H506.152C506.104 365.072 505.824 364.52 505.312 364.104C504.816 363.688 504.144 363.48 503.296 363.48C502.512 363.48 501.888 363.648 501.424 363.984C500.96 364.32 500.728 364.76 500.728 365.304C500.728 365.736 500.864 366.096 501.136 366.384C501.424 366.656 501.776 366.88 502.192 367.056C502.624 367.216 503.216 367.4 503.968 367.608C504.912 367.864 505.68 368.12 506.272 368.376C506.864 368.616 507.368 368.984 507.784 369.48C508.216 369.976 508.44 370.624 508.456 371.424C508.456 372.144 508.256 372.792 507.856 373.368C507.456 373.944 506.888 374.4 506.152 374.736C505.432 375.056 504.6 375.216 503.656 375.216ZM310.999 395.712C310.583 395.712 310.231 395.568 309.943 395.28C309.655 394.992 309.511 394.64 309.511 394.224C309.511 393.808 309.655 393.456 309.943 393.168C310.231 392.88 310.583 392.736 310.999 392.736C311.399 392.736 311.735 392.88 312.007 393.168C312.295 393.456 312.439 393.808 312.439 394.224C312.439 394.64 312.295 394.992 312.007 395.28C311.735 395.568 311.399 395.712 310.999 395.712ZM312.055 397.848V411H309.871V397.848H312.055ZM322.186 397.608C323.786 397.608 325.082 398.096 326.074 399.072C327.066 400.032 327.562 401.424 327.562 403.248V411H325.402V403.56C325.402 402.248 325.074 401.248 324.418 400.56C323.762 399.856 322.866 399.504 321.73 399.504C320.578 399.504 319.658 399.864 318.97 400.584C318.298 401.304 317.962 402.352 317.962 403.728V411H315.778V397.848H317.962V399.72C318.394 399.048 318.978 398.528 319.714 398.16C320.466 397.792 321.29 397.608 322.186 397.608ZM336.481 399.648H333.721V411H331.537V399.648H329.833V397.848H331.537V396.912C331.537 395.44 331.913 394.368 332.665 393.696C333.433 393.008 334.657 392.664 336.337 392.664V394.488C335.377 394.488 334.697 394.68 334.297 395.064C333.913 395.432 333.721 396.048 333.721 396.912V397.848H336.481V399.648ZM341.212 393.24V411H339.028V393.24H341.212ZM356.598 397.848V411H354.414V409.056C353.998 409.728 353.414 410.256 352.662 410.64C351.926 411.008 351.11 411.192 350.214 411.192C349.19 411.192 348.27 410.984 347.454 410.568C346.638 410.136 345.99 409.496 345.51 408.648C345.046 407.8 344.814 406.768 344.814 405.552V397.848H346.974V405.264C346.974 406.56 347.302 407.56 347.958 408.264C348.614 408.952 349.51 409.296 350.646 409.296C351.814 409.296 352.734 408.936 353.406 408.216C354.078 407.496 354.414 406.448 354.414 405.072V397.848H356.598ZM372.286 403.92C372.286 404.336 372.262 404.776 372.214 405.24H361.702C361.782 406.536 362.222 407.552 363.022 408.288C363.838 409.008 364.822 409.368 365.974 409.368C366.918 409.368 367.702 409.152 368.326 408.72C368.966 408.272 369.414 407.68 369.67 406.944H372.022C371.67 408.208 370.966 409.24 369.91 410.04C368.854 410.824 367.542 411.216 365.974 411.216C364.726 411.216 363.606 410.936 362.614 410.376C361.638 409.816 360.87 409.024 360.31 408C359.75 406.96 359.47 405.76 359.47 404.4C359.47 403.04 359.742 401.848 360.286 400.824C360.83 399.8 361.59 399.016 362.566 398.472C363.558 397.912 364.694 397.632 365.974 397.632C367.222 397.632 368.326 397.904 369.286 398.448C370.246 398.992 370.982 399.744 371.494 400.704C372.022 401.648 372.286 402.72 372.286 403.92ZM370.03 403.464C370.03 402.632 369.846 401.92 369.478 401.328C369.11 400.72 368.606 400.264 367.966 399.96C367.342 399.64 366.646 399.48 365.878 399.48C364.774 399.48 363.83 399.832 363.046 400.536C362.278 401.24 361.838 402.216 361.726 403.464H370.03ZM381.576 397.608C383.176 397.608 384.472 398.096 385.464 399.072C386.456 400.032 386.952 401.424 386.952 403.248V411H384.792V403.56C384.792 402.248 384.464 401.248 383.808 400.56C383.152 399.856 382.256 399.504 381.12 399.504C379.968 399.504 379.048 399.864 378.36 400.584C377.688 401.304 377.352 402.352 377.352 403.728V411H375.168V397.848H377.352V399.72C377.784 399.048 378.368 398.528 379.104 398.16C379.856 397.792 380.68 397.608 381.576 397.608ZM389.704 404.4C389.704 403.04 389.976 401.856 390.52 400.848C391.064 399.824 391.816 399.032 392.776 398.472C393.752 397.912 394.864 397.632 396.112 397.632C397.728 397.632 399.056 398.024 400.096 398.808C401.152 399.592 401.848 400.68 402.184 402.072H399.832C399.608 401.272 399.168 400.64 398.512 400.176C397.872 399.712 397.072 399.48 396.112 399.48C394.864 399.48 393.856 399.912 393.088 400.776C392.32 401.624 391.936 402.832 391.936 404.4C391.936 405.984 392.32 407.208 393.088 408.072C393.856 408.936 394.864 409.368 396.112 409.368C397.072 409.368 397.872 409.144 398.512 408.696C399.152 408.248 399.592 407.608 399.832 406.776H402.184C401.832 408.12 401.128 409.2 400.072 410.016C399.016 410.816 397.696 411.216 396.112 411.216C394.864 411.216 393.752 410.936 392.776 410.376C391.816 409.816 391.064 409.024 390.52 408C389.976 406.976 389.704 405.776 389.704 404.4ZM417.098 403.92C417.098 404.336 417.074 404.776 417.026 405.24H406.514C406.594 406.536 407.034 407.552 407.834 408.288C408.65 409.008 409.634 409.368 410.786 409.368C411.73 409.368 412.514 409.152 413.138 408.72C413.778 408.272 414.226 407.68 414.482 406.944H416.834C416.482 408.208 415.778 409.24 414.722 410.04C413.666 410.824 412.354 411.216 410.786 411.216C409.538 411.216 408.418 410.936 407.426 410.376C406.45 409.816 405.682 409.024 405.122 408C404.562 406.96 404.282 405.76 404.282 404.4C404.282 403.04 404.554 401.848 405.098 400.824C405.642 399.8 406.402 399.016 407.378 398.472C408.37 397.912 409.506 397.632 410.786 397.632C412.034 397.632 413.138 397.904 414.098 398.448C415.058 398.992 415.794 399.744 416.306 400.704C416.834 401.648 417.098 402.72 417.098 403.92ZM414.842 403.464C414.842 402.632 414.658 401.92 414.29 401.328C413.922 400.72 413.418 400.264 412.778 399.96C412.154 399.64 411.458 399.48 410.69 399.48C409.586 399.48 408.642 399.832 407.858 400.536C407.09 401.24 406.65 402.216 406.538 403.464H414.842ZM431.645 397.848V411H429.461V409.056C429.045 409.728 428.461 410.256 427.709 410.64C426.973 411.008 426.157 411.192 425.261 411.192C424.237 411.192 423.317 410.984 422.501 410.568C421.685 410.136 421.037 409.496 420.557 408.648C420.093 407.8 419.861 406.768 419.861 405.552V397.848H422.021V405.264C422.021 406.56 422.349 407.56 423.005 408.264C423.661 408.952 424.557 409.296 425.693 409.296C426.861 409.296 427.781 408.936 428.453 408.216C429.125 407.496 429.461 406.448 429.461 405.072V397.848H431.645ZM437.516 399.984C437.9 399.232 438.444 398.648 439.148 398.232C439.868 397.816 440.74 397.608 441.764 397.608V399.864H441.188C438.74 399.864 437.516 401.192 437.516 403.848V411H435.332V397.848H437.516V399.984ZM448.942 411.216C447.934 411.216 447.03 411.048 446.23 410.712C445.43 410.36 444.798 409.88 444.334 409.272C443.87 408.648 443.614 407.936 443.566 407.136H445.822C445.886 407.792 446.19 408.328 446.734 408.744C447.294 409.16 448.022 409.368 448.918 409.368C449.75 409.368 450.406 409.184 450.886 408.816C451.366 408.448 451.606 407.984 451.606 407.424C451.606 406.848 451.35 406.424 450.838 406.152C450.326 405.864 449.534 405.584 448.462 405.312C447.486 405.056 446.686 404.8 446.062 404.544C445.454 404.272 444.926 403.88 444.478 403.368C444.046 402.84 443.83 402.152 443.83 401.304C443.83 400.632 444.03 400.016 444.43 399.456C444.83 398.896 445.398 398.456 446.134 398.136C446.87 397.8 447.71 397.632 448.654 397.632C450.11 397.632 451.286 398 452.182 398.736C453.078 399.472 453.558 400.48 453.622 401.76H451.438C451.39 401.072 451.11 400.52 450.598 400.104C450.102 399.688 449.43 399.48 448.582 399.48C447.798 399.48 447.174 399.648 446.71 399.984C446.246 400.32 446.014 400.76 446.014 401.304C446.014 401.736 446.15 402.096 446.422 402.384C446.71 402.656 447.062 402.88 447.478 403.056C447.91 403.216 448.502 403.4 449.254 403.608C450.198 403.864 450.966 404.12 451.558 404.376C452.15 404.616 452.654 404.984 453.07 405.48C453.502 405.976 453.726 406.624 453.742 407.424C453.742 408.144 453.542 408.792 453.142 409.368C452.742 409.944 452.174 410.4 451.438 410.736C450.718 411.056 449.886 411.216 448.942 411.216Z" fill="#020A44"/>
<defs>
<radialGradient id="paint0_radial_1130_4" cx="0" cy="0" r="1" gradientUnits="userSpaceOnUse" gradientTransform="translate(377.021 252) rotate(55.5836) scale(187.502 172.185)">
<stop stop-color="#E9F3F2"/>
<stop offset="1" stop-color="#F5EFF7"/>
</radialGradient>
</defs>
</svg>
