<svg width="592" height="451" viewBox="0 0 592 451" fill="none" xmlns="http://www.w3.org/2000/svg">
<path fill-rule="evenodd" clip-rule="evenodd" d="M168.935 85.3421C224.94 81.0976 290.92 73.48 325.835 117.415C360.711 161.301 337.483 223.455 321.333 277.11C307.022 324.652 287.344 373.51 242.377 394.673C197.77 415.666 146.918 401.531 102.528 380.086C58.2609 358.7 17.1072 327.327 4.6421 279.822C-8.25505 230.67 6.49445 177.968 39.3027 139.132C71.0476 101.554 119.846 89.0625 168.935 85.3421Z" fill="#FBE7EE"/>
<path d="M52.8212 174.438C69.1291 173.269 84.9046 167.033 97.756 156.952C104.298 151.819 109.938 145.708 114.659 138.872C119.941 131.229 124.373 122.921 130.751 116.093C133.946 112.674 137.664 109.627 142.08 107.948C146.741 106.175 151.811 105.759 156.711 105.07C161.9 104.335 167.081 103.546 172.253 102.703C176.987 101.93 181.844 101.318 186.429 99.8601C190.184 98.6945 193.606 96.6497 196.412 93.8955C198.999 91.3574 201.152 88.4282 203.431 85.6218C205.692 82.8391 208.122 80.0812 211.195 78.1645C215.25 75.6474 219.917 75.3281 224.57 75.5126C229.035 75.6892 233.433 75.981 237.896 75.5388C241.995 75.1293 246.041 74.3012 249.971 73.0674C257.912 70.5837 265.26 66.5019 271.565 61.0729C273.136 59.7107 274.634 58.2665 276.052 56.7464C276.224 56.5619 275.948 56.2832 275.774 56.469C263.934 69.1268 246.705 76.1118 229.4 75.3648C224.894 75.1698 220.264 74.6243 215.833 75.7573C212.401 76.6338 209.463 78.6067 206.96 81.0663C201.843 86.0928 198.371 92.8581 192.215 96.796C188.234 99.342 183.537 100.364 178.946 101.176C173.844 102.078 168.735 102.887 163.618 103.662C158.647 104.413 153.631 104.97 148.675 105.834C144.129 106.619 139.875 108.05 136.108 110.767C128.975 115.913 124.082 123.623 119.41 130.915C114.638 138.359 109.722 145.555 103.276 151.671C91.2106 163.118 75.6209 170.824 59.173 173.342C57.0653 173.665 54.9459 173.895 52.8199 174.049C52.57 174.066 52.5674 174.458 52.8199 174.441L52.8212 174.438Z" fill="#E9E3E0"/>
<path d="M58.8838 183.721C75.1918 182.553 90.9673 176.316 103.819 166.234C110.36 161.102 115.999 154.991 120.722 148.156C126.002 140.512 130.435 132.205 136.814 125.376C140.008 121.956 143.727 118.91 148.143 117.232C152.804 115.459 157.874 115.042 162.773 114.354C167.962 113.621 173.142 112.832 178.315 111.988C183.049 111.215 187.907 110.601 192.491 109.144C196.246 107.979 199.669 105.934 202.475 103.181C205.06 100.641 207.214 97.712 209.494 94.907C211.755 92.1242 214.183 89.365 217.256 87.4496C221.312 84.9312 225.979 84.6119 230.632 84.7964C235.097 84.9743 239.496 85.2661 243.959 84.8226C248.061 84.4148 252.111 83.5871 256.045 82.3525C263.983 79.8696 271.33 75.7881 277.632 70.3593C279.202 68.9966 280.7 67.552 282.119 66.0315C282.292 65.847 282.014 65.5696 281.842 65.7541C270.002 78.4132 252.771 85.3969 235.468 84.6499C230.961 84.4563 226.332 83.9107 221.899 85.0424C218.468 85.9176 215.531 87.8905 213.026 90.3501C207.911 95.3766 204.437 102.142 198.282 106.08C194.301 108.627 189.604 109.649 185.013 110.461C179.911 111.363 174.808 112.173 169.685 112.947C164.714 113.699 159.699 114.255 154.743 115.12C150.195 115.905 145.943 117.335 142.174 120.054C135.041 125.198 130.15 132.909 125.476 140.202C120.705 147.645 115.795 154.84 109.344 160.956C97.2772 172.404 81.6875 180.109 65.2395 182.628C63.1332 182.95 61.0159 183.185 58.8877 183.334C58.6365 183.352 58.6352 183.744 58.8877 183.726L58.8838 183.721Z" fill="#E9E3E0"/>
<path d="M64.9531 193.004C81.261 191.835 97.0365 185.599 109.889 175.518C116.431 170.385 122.07 164.274 126.791 157.438C132.073 149.795 136.505 141.487 142.883 134.659C146.078 131.24 149.798 128.193 154.212 126.514C158.873 124.741 163.943 124.325 168.844 123.636C174.033 122.901 179.213 122.112 184.385 121.269C189.119 120.496 193.976 119.884 198.561 118.426C202.316 117.261 205.738 115.216 208.544 112.462C211.131 109.923 213.284 106.994 215.563 104.188C217.825 101.405 220.254 98.6472 223.327 96.7306C227.382 94.2121 232.049 93.8942 236.701 94.0786C241.167 94.2553 245.567 94.547 250.028 94.1048C254.127 93.6953 258.173 92.8672 262.103 91.6334C270.042 89.1489 277.388 85.0671 283.69 79.6389C285.261 78.2767 286.759 76.8325 288.178 75.3124C288.351 75.1279 288.073 74.8492 287.901 75.0337C276.059 87.6928 258.83 94.6778 241.525 93.9308C237.019 93.7359 232.389 93.1903 227.958 94.3233C224.526 95.1998 221.588 97.1728 219.085 99.6324C213.968 104.659 210.496 111.424 204.341 115.362C200.36 117.908 195.663 118.93 191.072 119.742C185.97 120.644 180.867 121.453 175.744 122.228C170.772 122.979 165.756 123.536 160.8 124.4C156.254 125.185 152.001 126.616 148.233 129.333C141.1 134.479 136.207 142.189 131.535 149.481C126.764 156.925 121.854 164.121 115.401 170.237C103.336 181.684 87.7463 189.39 71.2983 191.908C69.1907 192.231 67.0725 192.461 64.9452 192.615C64.6953 192.632 64.6927 193.024 64.9452 193.007L64.9531 193.004Z" fill="#E9E3E0"/>
<path d="M71.0196 202.286C87.3276 201.118 103.103 194.881 115.955 184.8C122.496 179.667 128.135 173.556 132.858 166.722C138.139 159.077 142.571 150.771 148.95 143.942C152.145 140.522 155.863 137.476 160.278 135.797C164.94 134.025 170.01 133.607 174.909 132.919C180.098 132.186 185.278 131.398 190.45 130.552C195.185 129.78 200.043 129.167 204.627 127.709C208.382 126.544 211.805 124.5 214.611 121.746C217.197 119.207 219.349 116.278 221.63 113.473C223.891 110.69 226.32 107.931 229.392 106.015C233.448 103.497 238.116 103.178 242.768 103.362C247.233 103.54 251.632 103.832 256.094 103.388C260.193 102.981 264.24 102.156 268.17 100.923C276.109 98.4404 283.455 94.3589 289.757 88.9301C291.328 87.5674 292.826 86.1228 294.244 84.6023C294.417 84.4178 294.14 84.1404 293.967 84.3249C282.127 96.984 264.897 103.968 247.593 103.221C243.086 103.027 238.457 102.481 234.025 103.613C230.593 104.488 227.656 106.461 225.152 108.921C220.036 113.947 216.564 120.713 210.407 124.651C206.427 127.198 201.731 128.22 197.138 129.032C192.036 129.934 186.934 130.743 181.81 131.518C176.839 132.27 171.824 132.826 166.868 133.691C162.321 134.476 158.069 135.906 154.299 138.625C147.168 143.769 142.275 151.48 137.602 158.772C132.83 166.215 127.92 173.411 121.469 179.527C109.403 190.975 93.8142 198.679 77.3649 201.199C75.2585 201.521 73.1413 201.756 71.0131 201.904C70.7619 201.923 70.7606 202.315 71.0131 202.297L71.0196 202.286Z" fill="#E9E3E0"/>
<path d="M77.0849 211.57C93.3929 210.401 109.17 204.165 122.021 194.084C128.563 188.951 134.201 182.84 138.924 176.004C144.205 168.361 148.637 160.053 155.016 153.225C158.211 149.805 161.931 146.758 166.346 145.08C171.006 143.307 176.076 142.891 180.977 142.202C186.166 141.468 191.346 140.679 196.518 139.835C201.252 139.062 206.109 138.449 210.695 136.992C214.45 135.826 217.872 133.781 220.677 131.027C223.264 128.489 225.417 125.56 227.696 122.754C229.958 119.971 232.387 117.213 235.46 115.296C239.509 112.778 244.182 112.46 248.836 112.645C253.301 112.821 257.7 113.113 262.161 112.671C266.26 112.261 270.306 111.432 274.237 110.199C282.175 107.715 289.521 103.633 295.824 98.2048C297.394 96.8426 298.892 95.3984 300.311 93.8783C300.484 93.6938 300.206 93.4152 300.034 93.5996C288.192 106.259 270.963 113.244 253.66 112.497C249.153 112.302 244.524 111.756 240.091 112.889C236.66 113.766 233.721 115.739 231.218 118.198C226.102 123.225 222.629 129.99 216.474 133.927C212.493 136.474 207.796 137.496 203.205 138.308C198.103 139.21 192.994 140.019 187.877 140.794C182.905 141.545 177.889 142.102 172.935 142.966C168.387 143.751 164.135 145.182 160.366 147.899C153.233 153.045 148.34 160.755 143.668 168.047C138.897 175.491 133.987 182.687 127.534 188.803C115.469 200.25 99.8795 207.955 83.4315 210.474C81.3238 210.797 79.2057 211.027 77.0784 211.18C76.8285 211.197 76.8272 211.59 77.0784 211.573L77.0849 211.57Z" fill="#E9E3E0"/>
<path d="M115.944 191.691C118.011 197.14 123.179 201.286 128.946 202.122C130.399 202.332 131.884 202.349 133.31 202.701C136.86 203.578 139.548 206.365 142.372 208.689C145.195 211.014 148.847 213.046 152.355 212.02C154.031 211.53 155.495 210.372 157.234 210.167C159.539 209.896 161.724 211.365 164.037 211.391C165.922 211.412 167.714 210.46 169.087 209.167C170.461 207.874 171.48 206.261 172.489 204.665C173.004 203.845 173.535 202.942 173.439 201.979C173.29 200.569 171.891 199.691 170.674 198.97C165.233 195.716 160.454 191.251 154.527 188.998C150.431 187.439 145.994 187.021 141.776 185.828C136.064 184.214 130.787 181.188 124.965 180.025C122.804 179.593 120.418 179.462 118.535 180.605" fill="#101010"/>
<path d="M141.71 91.7944C141.602 90.9356 141.284 90.1167 140.783 89.4107C139.858 88.1024 138.474 87.1932 137.082 86.3938C135.69 85.5944 134.242 84.8644 133.054 83.785C131.85 82.6821 130.961 81.2469 129.621 80.3076C127.632 78.909 124.928 78.7913 123.018 77.288C122.11 76.5737 121.498 75.5663 120.522 74.9239C119.749 74.415 118.756 74.1546 117.883 74.4608C116.305 75.0194 116.161 76.8982 114.814 77.6884C114.018 78.1554 112.779 78.264 112.622 79.1733C112.416 80.3665 114.432 80.8374 114.603 82.0358C113.877 81.6774 113.138 81.315 112.337 81.1907C111.536 81.0664 110.655 81.2155 110.067 81.7716C109.48 82.3276 109.282 83.1832 109.052 83.9656C108.585 85.5368 107.84 87.0118 106.854 88.3209C106.252 89.1203 105.518 90.0583 105.835 91.0082C106.096 91.7931 106.96 92.1739 107.748 92.4133C111.411 93.5279 115.448 93.5044 118.839 95.2915C122.186 97.0525 124.494 100.37 127.813 102.181C130.158 103.45 132.862 103.894 135.49 103.444C135.448 103.12 135.847 102.954 136.144 102.813C136.881 102.457 137.29 101.668 137.615 100.917C138.4 99.0856 138.999 97.1336 140.204 95.544C140.596 95.0207 141.058 94.5419 141.358 93.961C141.688 93.2901 141.811 92.5356 141.71 91.7944Z" fill="#020A44"/>
<path d="M175.082 107.055C174.918 106.939 174.697 106.947 174.541 107.074C174.386 107.201 174.334 107.416 174.415 107.6C174.443 107.662 174.47 107.722 174.497 107.781C174.879 108.592 175.262 109.404 175.644 110.217C174.968 109.553 174.267 108.874 173.386 108.526C173.047 108.396 172.662 108.311 172.325 108.49C172.155 108.576 172.034 108.736 171.996 108.923C171.941 109.232 172.154 109.427 172.353 109.601L172.476 109.708C172.074 109.519 171.492 109.612 171.534 110.107C171.546 110.215 171.585 110.317 171.646 110.406L172.983 112.423C172.534 111.95 172.027 111.536 171.474 111.191C171.222 111.034 170.94 110.887 170.639 110.955C170.473 110.987 170.337 111.104 170.279 111.263C170.208 111.483 170.341 111.642 170.47 111.779C170.6 111.916 170.747 112.061 170.895 112.194C170.989 112.279 171.019 112.413 170.971 112.53C170.923 112.647 170.807 112.722 170.681 112.717C170.461 112.707 170.24 112.73 170.027 112.785C169.011 113.054 168.382 114.237 168.615 115.263C168.77 115.879 169.158 116.41 169.697 116.746C170.17 117.046 170.723 117.195 171.283 117.176C173.376 117.13 175.469 116.342 176.864 114.788C177.255 114.383 177.55 113.896 177.727 113.362C177.956 112.569 177.778 111.719 177.538 110.93C177.078 109.445 176.314 107.939 175.082 107.055Z" fill="#FFD1BB"/>
<path d="M154.994 136.893C152.655 134.724 152.201 134.998 141.257 122.666L142.834 112.892C145.59 113.006 146.917 114.152 147.564 114.738C153.975 120.54 160.221 129.415 162.173 132.557C163.254 134.299 164.863 136.239 163.874 138.034C163.039 139.551 161.005 140.069 159.326 139.647C157.647 139.224 156.263 138.07 154.994 136.893Z" fill="#FFD1BB"/>
<path d="M157.592 137.436C158.502 139.791 161.551 140.445 163.383 138.701C165.858 136.346 167.177 134.539 169.357 127.057C172.332 116.869 172.808 114.988 172.808 114.988L168.86 114.007C168.86 114.007 156.729 129.267 157.055 134.764C157.095 135.677 157.277 136.578 157.592 137.436Z" fill="#FFD1BB"/>
<path d="M159.054 128.368C158.132 129.81 157.468 131.401 157.091 133.07C157.036 133.316 157.415 133.422 157.469 133.175C157.838 131.538 158.489 129.979 159.394 128.567C159.525 128.352 159.19 128.156 159.054 128.368Z" fill="#101010"/>
<path d="M172.808 109.99C173.51 110.455 174.247 110.945 174.667 111.7C174.79 111.92 175.129 111.722 175.006 111.501C174.552 110.688 173.764 110.152 173.005 109.651C172.795 109.511 172.597 109.85 172.808 109.99Z" fill="#101010"/>
<path d="M173.028 112.746C173.136 112.746 173.224 112.659 173.224 112.55C173.224 112.442 173.136 112.354 173.028 112.354C172.919 112.354 172.832 112.442 172.832 112.55C172.832 112.659 172.919 112.746 173.028 112.746Z" fill="#101010"/>
<path d="M176.039 110.985C176.148 110.985 176.236 110.897 176.236 110.789C176.236 110.68 176.148 110.592 176.039 110.592C175.931 110.592 175.843 110.68 175.843 110.789C175.843 110.897 175.931 110.985 176.039 110.985Z" fill="#101010"/>
<path d="M69.7009 105.776C69.8081 106.594 69.9965 107.443 70.5329 108.07C70.915 108.483 71.3848 108.805 71.908 109.013C73.8142 109.853 76.0566 109.701 77.9772 108.882C78.495 108.669 78.9364 108.304 79.2436 107.835C79.5935 107.307 79.7252 106.663 79.6112 106.039C79.4006 105.011 78.3396 104.192 77.3021 104.366C77.0853 104.404 76.8754 104.475 76.6793 104.575C76.5653 104.634 76.4263 104.615 76.3332 104.526C76.2402 104.437 76.2137 104.299 76.2672 104.183C76.347 104.002 76.419 103.818 76.4831 103.631C76.5472 103.444 76.5995 103.252 76.4438 103.082C76.3254 102.961 76.1519 102.912 75.9872 102.952C75.6876 103.014 75.4901 103.266 75.3331 103.512C74.9718 104.055 74.6803 104.641 74.4657 105.257C74.5939 104.461 74.7221 103.665 74.8503 102.868C74.871 102.762 74.8638 102.652 74.8294 102.55C74.6646 102.082 74.0954 102.237 73.8076 102.575L73.8743 102.426C73.9842 102.186 74.0968 101.921 73.9201 101.662C73.8091 101.506 73.6326 101.409 73.4413 101.4C73.0619 101.375 72.7427 101.609 72.4902 101.871C71.836 102.551 71.4736 103.461 71.1321 104.342C71.1435 103.445 71.1561 102.547 71.1701 101.65C71.1701 101.586 71.1701 101.519 71.1701 101.454C71.1673 101.253 71.0318 101.079 70.8382 101.027C70.6447 100.976 70.4403 101.059 70.338 101.231C69.574 102.55 69.4994 104.236 69.7009 105.776Z" fill="#FFD1BB"/>
<path d="M99.6439 124.634C102.676 123.643 102.973 124.081 118.071 117.462L120.73 107.923C118.18 106.877 116.495 107.361 115.66 107.621C107.405 110.205 98.0242 115.653 94.9366 117.695C93.2267 118.823 90.9528 119.919 91.0981 121.955C91.2197 123.682 92.8512 125.005 94.5533 125.324C96.2554 125.643 98.0019 125.172 99.6439 124.634Z" fill="#FFD1BB"/>
<path d="M98.8093 121.678C98.9545 124.201 96.4452 126.051 94.0588 125.222C90.8326 124.103 88.8871 122.998 83.8109 117.093C76.8926 109.044 75.6812 107.526 75.6812 107.526L78.8682 104.992C78.8682 104.992 96.2189 113.876 98.1944 119.02C98.5351 119.869 98.7425 120.766 98.8093 121.678Z" fill="#FFD1BB"/>
<path d="M93.5197 114.355C94.9131 115.258 96.1385 116.397 97.1411 117.721C97.2915 117.92 97.633 117.721 97.4799 117.522C96.4397 116.143 95.1663 114.956 93.7172 114.016C93.5053 113.877 93.3078 114.217 93.5197 114.355Z" fill="#101010"/>
<path d="M73.2856 102.756C72.7976 103.531 72.3162 104.34 72.239 105.273C72.218 105.524 72.6105 105.523 72.6315 105.273C72.7047 104.417 73.1809 103.663 73.6271 102.953C73.7579 102.739 73.4217 102.542 73.2882 102.756H73.2856Z" fill="#101010"/>
<path d="M74.4722 105.588C74.5806 105.588 74.6685 105.5 74.6685 105.392C74.6685 105.283 74.5806 105.195 74.4722 105.195C74.3639 105.195 74.276 105.283 74.276 105.392C74.276 105.5 74.3639 105.588 74.4722 105.588Z" fill="#101010"/>
<path d="M71.0013 105.228C71.1097 105.228 71.1976 105.141 71.1976 105.032C71.1976 104.924 71.1097 104.836 71.0013 104.836C70.8929 104.836 70.8051 104.924 70.8051 105.032C70.8051 105.141 70.8929 105.228 71.0013 105.228Z" fill="#101010"/>
<path d="M79.7447 165.635L84.4363 171.744L89.2901 169.185L83.4119 157.487C83.22 157.165 82.8203 157.036 82.4764 157.183L72.0977 161.646C71.8982 161.731 71.7793 161.938 71.806 162.154C71.8326 162.369 71.9985 162.541 72.2128 162.576L75.4718 163.099C77.1677 163.367 78.6967 164.275 79.7447 165.635Z" fill="#FFD1BB"/>
<path d="M137.002 146.248L118.113 147.346C121.8 164.734 151.017 181.635 153.384 183.174C155.75 184.712 157.178 195.856 165.646 205.361C178.274 219.53 183.21 227.263 183.21 227.263L189.228 224.592C163.628 174.439 137.002 146.248 137.002 146.248Z" fill="#FFD1BB"/>
<path d="M130.759 98.7285L126.303 113.746L133.945 116.783L136.695 105.526L130.759 98.7285Z" fill="#FFD1BB"/>
<path d="M141.506 93.6651C141.727 95.379 141.686 97.4212 142.908 98.6144C143.015 98.7134 143.075 98.8523 143.075 98.9977C143.075 99.1432 143.015 99.282 142.908 99.3811L142.65 99.6152C142.474 99.7797 142.391 100.021 142.429 100.259C142.645 101.595 142.981 106.366 138.928 106.424C135.972 106.465 132.796 106.132 130.546 104.094C126.442 100.378 125.369 92.7702 129.599 88.7184C133.515 84.9688 139.999 87.6966 141.307 92.6106C141.396 92.9574 141.462 93.3097 141.506 93.6651Z" fill="#FFD1BB"/>
<path d="M134.716 97.6989C136.63 96.8001 136.547 93.7073 136.371 91.4557C136.364 91.3731 136.407 91.2943 136.48 91.2556C136.553 91.2168 136.642 91.2255 136.707 91.2778C138.461 92.7051 139.488 93.1565 140.565 93.4443C140.763 93.5111 140.974 93.5299 141.181 93.4992C141.435 93.4237 141.654 93.2629 141.803 93.044C142.444 92.2197 142.588 91.0815 142.365 90.0637C142.143 89.0458 141.614 88.1169 141.016 87.2626C140.798 86.9512 140.548 86.6294 140.188 86.5064C139.828 86.3834 139.342 86.5692 139.293 86.946C138.873 86.492 138.684 85.8549 138.103 85.5278C137.885 85.3992 137.62 85.378 137.384 85.4702C136.801 85.7123 136.861 86.4789 136.992 87.0611C134.451 85.9477 131.331 86.39 129.119 88.062C126.906 89.734 125.637 92.539 125.71 95.3125C125.784 98.0861 125.031 100.046 127.15 101.841C127.307 101.972 129.274 103.28 129.473 103.332C129.768 103.408 130.389 102.843 130.672 102.719C131.684 102.26 132.634 101.604 133.288 100.705C133.942 99.8066 134.282 98.6461 134.06 97.5576" fill="#020A44"/>
<path d="M105.902 90.8771C105.954 89.7506 106.549 88.6425 107.508 88.0485C108.675 87.3276 110.191 87.431 111.48 87.9033C112.769 88.3756 113.906 89.1723 115.113 89.8213C116.321 90.4702 117.679 90.983 119.038 90.8064C119.711 90.7188 120.379 90.4636 121.049 90.5722C122.072 90.7384 122.772 91.6947 123.189 92.6433C123.607 93.5918 123.879 94.6437 124.561 95.4142C125.333 96.2734 126.498 96.6672 127.634 96.453C128.236 96.3327 128.899 96.0527 129.422 96.3719C129.684 96.5289 129.839 96.8037 130.076 96.9908C130.61 97.412 131.372 97.2969 132.047 97.2119C132.722 97.1268 133.532 97.1517 133.914 97.7142C134.267 98.2376 134.734 98.3985 134.437 98.9493C133.945 99.8507 135.082 98.3305 134.718 99.2907C134.064 101.024 130.916 102.847 130.314 103.107C129.006 103.674 127.505 103.091 126.192 102.527C122.777 101.06 119.097 99.6492 115.434 100.28C112.537 100.777 109.792 102.531 106.883 102.122C106.497 102.067 106.098 101.966 105.806 101.71C105.514 101.453 105.357 101.006 105.538 100.663C105.619 100.506 105.764 100.377 105.793 100.201C105.848 99.8729 105.487 99.6479 105.206 99.4687C103.871 98.6157 103.456 96.6061 104.345 95.2939C104.83 94.5769 105.606 94.1046 106.408 93.7802C105.671 92.8892 105.8 91.5914 105.968 90.4479" fill="#020A44"/>
<ellipse cx="1.61967" cy="2.11029" rx="1.61967" ry="2.11029" transform="matrix(0.81644 -0.577431 0.57743 0.81644 133.151 97.6099)" fill="#FFD1BB"/>
<path d="M137.537 143.428C137.646 143.428 137.734 143.34 137.734 143.231C137.734 143.123 137.646 143.035 137.537 143.035C137.429 143.035 137.341 143.123 137.341 143.231C137.341 143.34 137.429 143.428 137.537 143.428Z" fill="#101010"/>
<path d="M135.435 97.8881C135.381 97.8646 135.435 97.8881 135.455 97.9012C135.474 97.9143 135.489 97.9261 135.506 97.9339C135.476 97.909 135.491 97.9339 135.506 97.9339L135.529 97.9548C135.544 97.9682 135.558 97.9827 135.571 97.998L135.587 98.0163C135.569 97.9902 135.614 98.0477 135.587 98.0163L135.622 98.0673C135.644 98.1028 135.664 98.1395 135.682 98.1772C135.686 98.1872 135.69 98.1968 135.695 98.206C135.698 98.2656 135.748 98.3121 135.808 98.3107C135.867 98.3092 135.915 98.2605 135.915 98.2008C135.915 98.1411 135.867 98.0923 135.808 98.0909C135.748 98.0895 135.698 98.136 135.695 98.1956C135.705 98.2152 135.711 98.2348 135.719 98.2557C135.733 98.2963 135.746 98.3369 135.757 98.3787C135.767 98.4206 135.777 98.4611 135.787 98.503C135.787 98.503 135.797 98.5449 135.787 98.503C135.787 98.503 135.78 98.5514 135.787 98.5213C135.79 98.4999 135.8 98.4799 135.814 98.4638C135.857 98.4221 135.922 98.414 135.973 98.4441L136.071 98.6129L136.053 98.4533C136.05 98.3458 135.964 98.2591 135.856 98.2571C135.748 98.2578 135.661 98.3452 135.66 98.4533L135.676 98.5959C135.678 98.6362 135.688 98.6757 135.705 98.7123C135.734 98.7602 135.781 98.7946 135.835 98.8078C135.957 98.841 136.085 98.787 136.145 98.677C136.188 98.5798 136.193 98.4701 136.159 98.3696C136.144 98.3068 136.127 98.2387 136.108 98.1838C136.067 98.0539 136.007 97.9311 135.928 97.8201C135.834 97.6899 135.705 97.5885 135.557 97.527C135.505 97.5128 135.451 97.5204 135.405 97.548C135.361 97.5736 135.329 97.6153 135.315 97.6644C135.289 97.7668 135.345 97.8722 135.446 97.9064L135.435 97.8881Z" fill="#101010"/>
<path d="M140.052 96.7618C139.94 96.9657 139.909 97.2047 139.967 97.4303C139.996 97.5763 140.121 97.684 140.269 97.6919C140.433 97.6828 140.559 97.5433 140.552 97.3793C140.532 97.2012 140.38 97.0674 140.201 97.0705C140.093 97.0705 140.005 97.1584 140.005 97.2667C140.008 97.374 140.094 97.4602 140.201 97.463H140.227H140.175C140.19 97.4657 140.204 97.4696 140.218 97.4748L140.171 97.4551C140.184 97.4616 140.197 97.469 140.209 97.4774L140.168 97.446C140.177 97.4536 140.186 97.4619 140.193 97.4708L140.162 97.4303C140.169 97.4394 140.175 97.4495 140.179 97.4604L140.159 97.4133C140.16 97.4211 140.16 97.429 140.159 97.4368V97.3845V97.4093V97.357C140.158 97.3673 140.155 97.3774 140.151 97.3871L140.171 97.34C140.167 97.35 140.162 97.3593 140.155 97.3675L140.185 97.3282L140.17 97.3452L140.209 97.3138L140.189 97.3256L140.237 97.306H140.214L140.267 97.2994H140.26L140.312 97.306H140.289L140.336 97.3256L140.316 97.3138L140.356 97.3439C140.347 97.3375 140.34 97.3301 140.333 97.3217L140.363 97.3622C140.354 97.3479 140.346 97.333 140.339 97.3178L140.359 97.3649C140.346 97.3286 140.337 97.2908 140.332 97.2523L140.34 97.3047C140.332 97.2404 140.332 97.1754 140.34 97.1111L140.333 97.1634C140.342 97.0996 140.36 97.0372 140.384 96.9776L140.365 97.0247C140.374 97.0051 140.383 96.9855 140.394 96.9671C140.445 96.8728 140.414 96.7545 140.323 96.6976C140.229 96.6454 140.111 96.6766 140.055 96.7683L140.052 96.7618Z" fill="#101010"/>
<path d="M139.572 95.566H139.614H139.641H139.624L139.708 95.5555C139.767 95.5476 139.824 95.5411 139.883 95.5359C140 95.5228 140.118 95.5136 140.234 95.5058C140.342 95.5058 140.43 95.4179 140.43 95.3095C140.43 95.2011 140.342 95.1133 140.234 95.1133C139.972 95.1303 139.722 95.1591 139.467 95.1944C139.418 95.2082 139.376 95.2406 139.351 95.2847C139.324 95.3306 139.317 95.3853 139.331 95.4364C139.345 95.4857 139.377 95.5276 139.422 95.5529C139.468 95.5773 139.521 95.5847 139.572 95.5738V95.566Z" fill="#101010"/>
<path d="M144.997 113.483C144.813 113.032 125.242 108.728 119.063 107.377C118.559 107.268 118.033 107.379 117.616 107.683C117.2 107.986 116.933 108.453 116.882 108.966C116.338 114.356 117.944 122.126 119.136 126.9C119.853 129.771 119.664 132.794 118.593 135.553L116.127 141.905C116.127 146.469 120.216 152.193 124.303 153.801C131.629 156.679 138.375 146.922 138.375 146.922L138.244 134.996C137.511 131.713 138.697 131.565 140.237 128.576C143.482 122.274 145.154 113.86 144.997 113.483Z" fill="#FFD1BB"/>
<path d="M142.495 123.221C142.385 123.026 141.448 122.698 141.25 122.598C133.893 119.109 126.902 119.526 117.547 118.952C117.892 121.709 118.304 122.894 118.669 124.786C119.039 126.7 118.822 128.674 118.601 130.612C118.529 131.244 118.452 131.894 118.159 132.459C117.854 133.046 117.339 133.498 116.982 134.056L116.974 134.067C116.816 134.327 116.81 134.65 116.956 134.916C117.103 135.182 117.381 135.349 117.684 135.354C124.931 135.498 133.017 135.988 139.598 138.858C139.869 138.979 140.187 138.915 140.391 138.699C140.594 138.482 140.639 138.161 140.502 137.898C139.704 136.343 139.063 134.718 139.02 132.989C138.966 131.006 141.458 125.897 142.179 124.045C142.134 124.164 142.088 124.282 142.067 124.333C142.083 124.293 142.118 124.202 142.179 124.045C142.301 123.739 142.657 123.506 142.495 123.221Z" fill="#FBB13C"/>
<path d="M140.851 127.434C140.288 127.172 139.674 127.068 139.073 126.89C138.041 126.582 137.081 126.068 136.051 125.753C133.903 125.099 131.603 125.339 129.353 125.36C127.103 125.381 124.694 125.099 122.991 123.635C122.012 122.794 121.36 121.636 120.45 120.72C119.687 119.953 118.599 119.357 117.562 119.473C117.905 122.141 118.309 123.319 118.669 125.183C119.039 127.097 118.822 129.071 118.601 131.007C118.529 131.64 118.452 132.289 118.159 132.856C117.854 133.443 117.339 133.893 116.982 134.452L116.974 134.464C116.816 134.723 116.81 135.047 116.956 135.313C117.103 135.579 117.381 135.746 117.684 135.751C124.931 135.894 133.017 136.384 139.598 139.255C139.869 139.375 140.187 139.311 140.391 139.095C140.594 138.879 140.639 138.558 140.502 138.294C139.704 136.74 139.063 135.115 139.02 133.386C138.986 132.126 139.979 129.606 140.892 127.459L140.851 127.434Z" fill="#FBB13C"/>
<path d="M139.083 100.251C139.287 100.629 139.618 100.923 140.017 101.082C140.068 101.096 140.123 101.088 140.168 101.061C140.213 101.036 140.245 100.994 140.259 100.945C140.272 100.893 140.265 100.839 140.239 100.793C140.21 100.751 140.169 100.719 140.121 100.703C140.079 100.686 140.162 100.722 140.121 100.703L140.093 100.69L140.031 100.659C139.992 100.639 139.953 100.616 139.916 100.593C139.904 100.585 139.805 100.527 139.806 100.517L139.822 100.529L139.806 100.517L139.783 100.497L139.73 100.451C139.698 100.421 139.667 100.39 139.636 100.357L139.589 100.306C139.589 100.306 139.547 100.262 139.55 100.257C139.565 100.279 139.569 100.283 139.56 100.272L139.55 100.257C139.543 100.248 139.537 100.239 139.531 100.23C139.517 100.212 139.504 100.193 139.492 100.173C139.467 100.134 139.444 100.094 139.421 100.052C139.366 99.96 139.247 99.9291 139.153 99.9831C139.062 100.039 139.031 100.157 139.083 100.251Z" fill="#101010"/>
<path d="M116.127 141.898C116.127 141.898 108.712 154.727 108.369 189.406C108.369 189.406 108.566 184.975 101.124 179.063C93.2738 172.83 86.3398 163.321 86.3398 163.321L79.7407 165.19C79.7407 165.19 104.562 210.788 114.803 200.775C125.045 190.763 130.567 161.066 130.567 161.066L116.127 141.898Z" fill="#FFD1BB"/>
<path d="M108.65 186.464C108.379 188.022 108.318 189.61 108.47 191.184C108.493 191.433 108.886 191.436 108.862 191.184C108.711 189.645 108.767 188.093 109.03 186.569C109.072 186.321 108.693 186.215 108.65 186.464Z" fill="#101010"/>
<path d="M134.663 106.368C135.094 106.454 135.533 106.489 135.971 106.472C136.079 106.47 136.165 106.383 136.168 106.276C136.166 106.168 136.079 106.081 135.971 106.08C135.569 106.098 135.165 106.068 134.769 105.99C134.667 105.963 134.561 106.02 134.527 106.12C134.5 106.225 134.561 106.331 134.664 106.361L134.663 106.368Z" fill="#101010"/>
<path d="M142.902 117.963C142.907 120.6 142.43 123.216 141.493 125.682C141.226 126.379 140.924 127.062 140.586 127.728C140.471 127.953 140.81 128.152 140.925 127.926C142.491 124.84 143.303 121.427 143.294 117.967C143.294 117.858 143.206 117.771 143.098 117.771C142.989 117.771 142.902 117.858 142.902 117.967V117.963Z" fill="#101010"/>
<path d="M190.407 226.083L185.645 220.028L180.82 222.645L186.838 234.276C187.033 234.595 187.435 234.72 187.776 234.567L198.105 229.988C198.304 229.9 198.42 229.69 198.39 229.475C198.359 229.259 198.19 229.09 197.974 229.06L194.704 228.581C193.005 228.328 191.468 227.434 190.407 226.083Z" fill="#FFD1BB"/>
<path d="M180.91 201.082C180.193 199.797 179.285 198.576 178.602 197.475C176.57 194.19 174.465 190.952 172.286 187.761C167.969 181.438 163.422 175.201 158.252 169.551C150.834 161.439 146.223 157.437 141.439 147.299C140.916 146.179 141.33 144.621 140.363 143.846C139.692 143.309 136.599 142.554 135.761 142.368C127.639 140.57 123.145 139.547 116.993 140.191C116.118 140.283 115.439 140.995 115.388 141.873V141.901C115.368 142.241 115.253 142.568 115.056 142.846C110.257 149.672 108.572 158.153 108.092 166.354C107.848 170.5 108.118 174.616 108.063 178.758C108.031 181.103 106.316 184.859 108.194 186.81C108.666 187.299 109.342 187.563 109.991 187.718C112.571 188.331 115.529 187.617 118.014 188.561C123.918 190.806 129.185 194.42 134.747 197.415C142.05 201.345 149.867 204.232 157.971 205.995C162.031 206.881 166.152 207.459 170.3 207.725C172.297 207.851 174.298 207.899 176.302 207.869C178.694 207.831 182.026 208.306 182.077 204.869C182.098 203.579 181.591 202.301 180.91 201.082Z" fill="#8F2D56"/>
<path d="M135.812 90.4362C136.527 91.2283 137.334 91.9312 138.218 92.5295C139.054 93.096 140.023 93.6638 141.071 93.6063C141.605 93.5864 142.114 93.3794 142.51 93.0214C142.695 92.8474 142.416 92.5701 142.233 92.7428C141.55 93.3838 140.522 93.287 139.724 92.9429C138.835 92.5609 138.012 91.9552 137.282 91.3285C136.859 90.9645 136.459 90.5738 136.085 90.1589C135.915 89.9705 135.638 90.2492 135.808 90.4362H135.812Z" fill="#101010"/>
<path d="M133.551 90.7465C134.077 91.4637 134.761 92.0505 135.55 92.4616C135.775 92.5768 135.974 92.2379 135.749 92.1228C135.017 91.7483 134.381 91.2112 133.889 90.5528C133.833 90.4654 133.719 90.4348 133.627 90.4822C133.534 90.5373 133.503 90.6567 133.556 90.7504L133.551 90.7465Z" fill="#101010"/>
<path d="M132.572 92.1186C132.878 92.7101 133.363 93.1896 133.958 93.4884C134.019 93.5268 134.095 93.5289 134.158 93.4941C134.221 93.4592 134.26 93.3928 134.259 93.321C134.259 93.2492 134.219 93.1834 134.156 93.1495C133.888 93.0199 133.644 92.8466 133.433 92.6367C133.22 92.4288 133.043 92.187 132.91 91.921C132.876 91.8577 132.81 91.818 132.739 91.8174C132.667 91.8168 132.6 91.8555 132.565 91.9183C132.531 91.9811 132.533 92.0579 132.571 92.1186H132.572Z" fill="#101010"/>
<path d="M132.633 94.4464C132.765 94.7046 133.027 94.8704 133.317 94.8795C133.425 94.8795 133.513 94.7916 133.513 94.6832C133.513 94.5749 133.425 94.487 133.317 94.487H133.257H133.308C133.258 94.4798 133.209 94.4666 133.163 94.4478L133.21 94.4674C133.16 94.4465 133.114 94.4193 133.072 94.3863L133.112 94.4177C133.072 94.3863 133.036 94.3503 133.004 94.3104L133.036 94.3509C133.011 94.3186 132.99 94.284 132.972 94.2476C132.945 94.2034 132.903 94.1711 132.854 94.1573C132.749 94.1289 132.642 94.1904 132.613 94.2947C132.601 94.3456 132.608 94.399 132.633 94.4451V94.4464Z" fill="#101010"/>
<path d="M135.192 94.5429C135.3 94.5429 135.388 94.455 135.388 94.3466C135.388 94.2383 135.3 94.1504 135.192 94.1504C135.083 94.1504 134.995 94.2383 134.995 94.3466C134.995 94.455 135.083 94.5429 135.192 94.5429Z" fill="#101010"/>
<path d="M117.488 117.959C117.944 117.59 118.527 117.414 119.111 117.469C119.22 117.469 119.308 117.381 119.308 117.272C119.305 117.165 119.219 117.079 119.111 117.076C118.423 117.022 117.741 117.239 117.21 117.682C117.138 117.759 117.14 117.88 117.215 117.954C117.29 118.029 117.41 118.031 117.488 117.959Z" fill="#101010"/>
<path d="M120.132 118.07C120.24 118.07 120.328 117.982 120.328 117.874C120.328 117.766 120.24 117.678 120.132 117.678C120.023 117.678 119.936 117.766 119.936 117.874C119.936 117.982 120.023 118.07 120.132 118.07Z" fill="#101010"/>
<path d="M87.822 125.405C89.0175 126.747 90.6 127.686 92.3514 128.091C92.8521 128.206 93.3623 128.275 93.8755 128.299C94.128 128.31 94.128 127.918 93.8755 127.906C91.656 127.791 89.5755 126.79 88.1007 125.127C87.9332 124.938 87.6559 125.216 87.822 125.405Z" fill="#101010"/>
<path d="M87.8168 128.823C88.7233 129.594 89.8493 130.06 91.0352 130.155C91.2877 130.176 91.2864 129.782 91.0352 129.762C89.9523 129.672 88.9244 129.247 88.0942 128.546C87.9032 128.382 87.6232 128.658 87.8168 128.823Z" fill="#101010"/>
<path d="M93.364 130.346C93.4724 130.346 93.5602 130.258 93.5602 130.149C93.5602 130.041 93.4724 129.953 93.364 129.953C93.2556 129.953 93.1677 130.041 93.1677 130.149C93.1677 130.258 93.2556 130.346 93.364 130.346Z" fill="#101010"/>
<path d="M180.178 128.47C180.386 129.268 180.679 130.085 181.288 130.641C181.719 131.004 182.225 131.266 182.769 131.407C184.766 132.003 186.972 131.574 188.776 130.521C189.263 130.246 189.655 129.83 189.902 129.328C190.185 128.759 190.236 128.102 190.045 127.496C189.707 126.501 188.552 125.82 187.546 126.121C187.335 126.187 187.135 126.283 186.952 126.406C186.847 126.479 186.707 126.477 186.604 126.402C186.501 126.326 186.458 126.194 186.495 126.072C186.552 125.882 186.601 125.69 186.641 125.496C186.68 125.302 186.71 125.103 186.535 124.957C186.402 124.851 186.224 124.823 186.065 124.882C185.775 124.982 185.611 125.254 185.479 125.519C185.187 126.103 184.971 126.721 184.835 127.359C184.864 126.553 184.892 125.747 184.92 124.941C184.926 124.833 184.906 124.725 184.86 124.627C184.638 124.184 184.092 124.409 183.849 124.779C183.864 124.727 183.88 124.676 183.897 124.623C183.976 124.372 184.054 124.1 183.846 123.859C183.716 123.72 183.529 123.648 183.338 123.663C182.959 123.687 182.673 123.957 182.454 124.249C181.885 125.005 181.643 125.95 181.407 126.866C181.308 125.973 181.209 125.082 181.11 124.19C181.104 124.125 181.097 124.059 181.087 123.994C181.06 123.795 180.904 123.638 180.705 123.61C180.505 123.583 180.312 123.692 180.233 123.876C179.652 125.284 179.788 126.966 180.178 128.47Z" fill="#FFD7AD"/>
<path d="M212.968 138.811C213.826 135.739 214.357 135.737 217.233 119.503L216.309 111.601C213.204 111.994 212.567 115.561 211.958 116.783C207.287 126.136 204.598 135.173 204.579 138.873C204.568 140.921 204.211 143.416 205.99 144.43C207.495 145.287 209.501 144.664 210.711 143.427C211.921 142.189 212.502 140.479 212.968 138.811Z" fill="#FFD7AD"/>
<path d="M210.887 114.419C209.463 115.947 208.56 119.202 208.02 121.222C207.326 123.815 206.283 126.302 204.92 128.614C204.711 128.969 204.486 129.361 204.555 129.767C204.617 130.13 204.901 130.41 205.171 130.66C207.609 132.899 209.489 131.679 213.64 137.034C213.738 137.133 213.883 137.169 214.017 137.128C214.166 137.089 214.25 136.935 214.316 136.795C215.028 135.297 215.328 133.179 216.039 131.681C216.161 131.419 216.263 131.07 216.039 130.896" fill="#020A44"/>
<path d="M211.039 140.633C211.496 143.119 209.236 145.266 206.765 144.74C203.425 144.03 201.356 143.17 195.587 137.946C187.723 130.818 186.332 129.463 186.332 129.463L189.179 126.553C189.179 126.553 207.495 133.215 210.097 138.066C210.542 138.868 210.86 139.734 211.039 140.633Z" fill="#FFD7AD"/>
<path d="M204.855 134.012C206.366 134.741 207.739 135.73 208.91 136.932C209.087 137.114 209.364 136.836 209.188 136.655C207.995 135.429 206.597 134.42 205.058 133.673C204.831 133.563 204.632 133.901 204.859 134.012H204.855Z" fill="#101010"/>
<path d="M183.37 125.007C182.985 125.834 182.594 126.698 182.631 127.631C182.64 127.884 183.032 127.885 183.023 127.631C182.989 126.769 183.353 125.968 183.709 125.204C183.76 125.11 183.729 124.992 183.638 124.936C183.546 124.886 183.431 124.917 183.376 125.007H183.37Z" fill="#101010"/>
<path d="M184.864 127.691C184.972 127.691 185.06 127.603 185.06 127.495C185.06 127.387 184.972 127.299 184.864 127.299C184.756 127.299 184.668 127.387 184.668 127.495C184.668 127.603 184.756 127.691 184.864 127.691Z" fill="#101010"/>
<path d="M187.918 127.766C188.026 127.766 188.114 127.678 188.114 127.57C188.114 127.461 188.026 127.374 187.918 127.374C187.809 127.374 187.721 127.461 187.721 127.57C187.721 127.678 187.809 127.766 187.918 127.766Z" fill="#101010"/>
<path d="M243.706 69.7482C243.505 69.7437 243.326 69.8732 243.268 70.065C243.209 70.2569 243.286 70.4643 243.455 70.5724C243.51 70.609 243.566 70.643 243.622 70.6771L245.927 72.0691C244.997 71.8925 244.037 71.7145 243.112 71.9134C242.755 71.9893 242.389 72.1358 242.208 72.4707C242.114 72.637 242.102 72.837 242.174 73.0137C242.305 73.3015 242.583 73.346 242.845 73.38L243.007 73.4009C242.569 73.4676 242.136 73.868 242.446 74.2566C242.517 74.3392 242.606 74.4031 242.708 74.4423L244.932 75.3804C244.296 75.2354 243.644 75.1721 242.992 75.192C242.696 75.2011 242.379 75.2352 242.166 75.4536C242.045 75.5721 241.995 75.7456 242.035 75.9102C242.098 76.1327 242.297 76.1915 242.48 76.2334C242.663 76.2753 242.873 76.3145 243.064 76.342C243.19 76.3599 243.291 76.4553 243.316 76.5802C243.342 76.7052 243.285 76.8325 243.176 76.898C242.987 77.0117 242.816 77.1528 242.669 77.3167C241.973 78.1016 242.106 79.4387 242.867 80.1622C243.336 80.5885 243.952 80.8168 244.585 80.7993C245.145 80.7859 245.688 80.6035 246.142 80.276C247.855 79.0802 249.171 77.2578 249.466 75.1946C249.566 74.6409 249.541 74.0719 249.393 73.5291C249.145 72.7442 248.524 72.1332 247.887 71.6099C246.694 70.6313 245.222 69.8018 243.706 69.7482Z" fill="#FFD7AD"/>
<path d="M248.053 107.003C245.607 109.051 245.829 109.536 232.216 118.845L222.717 116.054C223.175 113.334 224.479 112.162 225.143 111.593C231.702 105.954 241.29 100.877 244.652 99.3342C246.515 98.4811 248.641 97.1271 250.299 98.332C251.7 99.3485 251.959 101.433 251.328 103.042C250.698 104.651 249.38 105.895 248.053 107.003Z" fill="#FFD7AD"/>
<path d="M245.986 104.73C248.05 106.188 250.947 105.038 251.507 102.574C252.265 99.2434 252.356 97.0088 250.032 89.5764C246.862 79.4475 246.214 77.6172 246.214 77.6172L242.378 78.9804C242.378 78.9804 240.738 98.4048 244.057 102.802C244.597 103.54 245.247 104.191 245.986 104.73Z" fill="#FFD7AD"/>
<path d="M242.177 96.3617C242.208 98.0729 242.536 99.7658 243.146 101.365C243.236 101.599 243.616 101.495 243.526 101.261C242.924 99.6962 242.6 98.0381 242.569 96.3617C242.569 96.1092 242.177 96.1079 242.177 96.3617H242.177Z" fill="#101010"/>
<path d="M243.43 73.4492C244.27 73.4492 245.157 73.4492 245.922 73.8417C246.147 73.9555 246.346 73.6179 246.121 73.5028C245.288 73.0763 244.345 73.0606 243.43 73.0632C243.322 73.0632 243.234 73.1511 243.234 73.2594C243.234 73.3678 243.322 73.4557 243.43 73.4557V73.4492Z" fill="#101010"/>
<path d="M245.043 75.6581C245.152 75.6581 245.24 75.5703 245.24 75.4619C245.24 75.3535 245.152 75.2656 245.043 75.2656C244.935 75.2656 244.847 75.3535 244.847 75.4619C244.847 75.5703 244.935 75.6581 245.043 75.6581Z" fill="#101010"/>
<path d="M246.574 72.5234C246.682 72.5234 246.77 72.4355 246.77 72.3271C246.77 72.2187 246.682 72.1309 246.574 72.1309C246.465 72.1309 246.378 72.2187 246.378 72.3271C246.378 72.4355 246.465 72.5234 246.574 72.5234Z" fill="#101010"/>
<path d="M274.684 173.477L268.165 177.581L264.502 173.498L274.072 164.564C274.363 164.329 274.783 164.345 275.054 164.603L283.243 172.387C283.402 172.537 283.442 172.774 283.342 172.967C283.241 173.161 283.025 173.264 282.811 173.221L279.576 172.576C277.89 172.239 276.139 172.562 274.684 173.477Z" fill="#FFD7AD"/>
<path d="M223.456 98.7285L227.912 113.747L220.271 116.783L217.521 105.526L223.456 98.7285Z" fill="#FFD7AD"/>
<path d="M212.71 93.6654C212.49 95.3792 212.529 97.4215 211.307 98.6146C211.201 98.7137 211.14 98.8525 211.14 98.998C211.14 99.1434 211.201 99.2823 211.307 99.3813L211.562 99.6155C211.739 99.7796 211.822 100.021 211.784 100.259C211.568 101.595 211.231 106.366 215.285 106.424C218.243 106.466 221.417 106.132 223.668 104.094C227.771 100.378 228.844 92.7705 224.614 88.7187C220.698 84.9652 214.209 87.693 212.902 92.6069C212.815 92.9551 212.75 93.3087 212.71 93.6654Z" fill="#FFD7AD"/>
<path d="M217.988 97.8087C218.095 96.8789 218.146 95.9435 218.139 95.0076C218.139 94.3875 218.094 93.7268 217.731 93.2231C217.484 92.8803 217.111 92.6448 216.864 92.3073C216.501 91.8049 216.458 91.1494 216.312 90.5476C216.195 90.074 215.952 89.5716 215.555 89.3257C215.423 89.2432 215.338 89.1014 215.329 88.9454C215.319 88.7893 215.386 88.6384 215.508 88.5407L215.593 88.474C218.643 86.2499 222.934 86.5442 225.622 89.1975C228.309 91.8507 229.154 96.1314 227.664 99.605C227.163 100.72 226.465 101.737 225.604 102.605C225.258 102.965 224.837 103.402 224.296 103.413C223.879 103.423 223.567 103.167 223.265 102.915C222.403 102.194 221.541 101.476 220.671 100.76C219.801 100.045 218.839 99.0934 219.053 97.9866" fill="#020A44"/>
<path d="M228.251 94.3063C227.867 94.3263 227.481 94.3215 227.097 94.2919C225.519 94.2108 223.923 94.2304 222.378 94.5679C220.833 94.9055 219.336 95.5753 218.192 96.6612L218.075 96.8117C218.052 97.1427 218.023 97.4737 217.985 97.8034L219.054 97.9839C218.835 99.0907 219.801 100.043 220.672 100.757C221.543 101.472 222.404 102.197 223.266 102.912C223.569 103.165 223.88 103.42 224.297 103.411C224.834 103.399 225.255 102.962 225.606 102.602C226.467 101.734 227.164 100.718 227.665 99.6023C228.369 97.9308 228.572 96.0911 228.251 94.3063Z" fill="#020A44"/>
<ellipse cx="219.306" cy="98.0215" rx="2.11955" ry="1.62678" transform="rotate(-54.7276 219.306 98.0215)" fill="#FFD7AD"/>
<path d="M216.678 143.428C216.786 143.428 216.874 143.34 216.874 143.231C216.874 143.123 216.786 143.035 216.678 143.035C216.57 143.035 216.482 143.123 216.482 143.231C216.482 143.34 216.57 143.428 216.678 143.428Z" fill="#101010"/>
<path d="M218.676 97.5086C218.527 97.57 218.399 97.6715 218.304 97.8016C218.225 97.9124 218.165 98.0352 218.126 98.1653C218.105 98.2262 218.088 98.2883 218.074 98.3511C218.039 98.4516 218.044 98.5613 218.087 98.6585C218.148 98.7685 218.276 98.8226 218.397 98.7894C218.442 98.7772 218.481 98.7505 218.508 98.7135C218.535 98.6749 218.55 98.6296 218.553 98.5827L218.568 98.44C218.569 98.3879 218.548 98.3378 218.511 98.3009C218.474 98.264 218.424 98.2435 218.372 98.2438C218.265 98.2466 218.179 98.3328 218.176 98.44L218.159 98.5997L218.256 98.4309C218.288 98.4128 218.327 98.4096 218.363 98.4221C218.398 98.4346 218.426 98.4616 218.44 98.4963C218.44 98.5199 218.44 98.5238 218.44 98.4963C218.43 98.5408 218.44 98.4688 218.44 98.4963C218.451 98.4518 218.459 98.4126 218.469 98.372C218.479 98.3315 218.491 98.2935 218.506 98.2543C218.52 98.215 218.52 98.215 218.528 98.1941C218.528 98.1941 218.536 98.1732 218.528 98.1941C218.531 98.1841 218.536 98.1745 218.541 98.1653C218.558 98.1295 218.578 98.0945 218.599 98.0606C218.609 98.0423 218.621 98.0253 218.633 98.0083C218.613 98.0319 218.644 97.9913 218.633 98.0083L218.652 97.9848C218.665 97.9691 218.68 97.9546 218.695 97.9416L218.712 97.9246C218.728 97.9115 218.749 97.9076 218.712 97.9246C218.728 97.9167 218.742 97.9037 218.758 97.8945C218.774 97.8853 218.838 97.8552 218.783 97.8788C218.832 97.8634 218.873 97.8314 218.901 97.7885C218.94 97.7193 218.935 97.633 218.886 97.5698C218.837 97.5065 218.755 97.4788 218.678 97.4994L218.676 97.5086Z" fill="#101010"/>
<path d="M213.826 96.9608L213.853 97.0183L213.834 96.9712C213.858 97.0308 213.876 97.0932 213.885 97.157V97.1047C213.893 97.169 213.893 97.234 213.885 97.2983V97.246C213.881 97.2844 213.872 97.3222 213.859 97.3585L213.878 97.3114C213.871 97.3266 213.862 97.3415 213.853 97.3559L213.883 97.3153C213.877 97.3237 213.87 97.3312 213.861 97.3376L213.9 97.3075L213.881 97.3192L213.928 97.2996H213.904L213.957 97.2931H213.941L213.993 97.2996H213.971L214.018 97.3192L213.999 97.3075L214.039 97.3389L214.022 97.3219L214.052 97.3611C214.046 97.3526 214.041 97.3434 214.037 97.3336L214.056 97.3807C214.052 97.371 214.05 97.3609 214.048 97.3506V97.403V97.3781V97.4304C214.048 97.4226 214.048 97.4147 214.048 97.4069L214.029 97.454C214.033 97.4434 214.039 97.4333 214.046 97.4239L214.014 97.4645L214.039 97.4396L214 97.471C214.011 97.4624 214.024 97.4549 214.037 97.4488L213.991 97.4684C214.004 97.4631 214.018 97.4591 214.033 97.4566H213.98H214.006C214.115 97.4566 214.203 97.3687 214.203 97.2604C214.203 97.152 214.115 97.0641 214.006 97.0641C213.855 97.063 213.719 97.158 213.668 97.3009C213.622 97.4592 213.711 97.6249 213.868 97.6751C213.944 97.697 214.026 97.6846 214.093 97.6411C214.157 97.5947 214.206 97.5293 214.231 97.454C214.249 97.4002 214.26 97.3444 214.264 97.2878C214.269 97.2395 214.269 97.1909 214.264 97.1426C214.255 97.0078 214.217 96.8763 214.154 96.7567C214.119 96.6962 214.054 96.6592 213.983 96.6597C213.913 96.6602 213.849 96.6981 213.814 96.7591C213.779 96.8201 213.78 96.895 213.815 96.9555L213.826 96.9608Z" fill="#101010"/>
<path d="M214.964 111.914C215.15 111.464 228.975 108.716 235.155 107.366C235.66 107.257 236.187 107.369 236.603 107.673C237.02 107.978 237.287 108.446 237.336 108.96C237.882 114.35 236.274 122.12 235.082 126.894C234.365 129.765 234.555 132.788 235.625 135.547L238.091 141.899C238.091 146.463 234.002 152.187 229.915 153.795C222.589 156.673 216.681 151.264 216.681 151.264C217.413 147.981 215.519 131.559 213.979 128.57C210.733 122.274 214.805 112.306 214.964 111.914Z" fill="#FFD7AD"/>
<path d="M269.296 169.019C269.296 169.019 259.493 175.533 249.974 178.658C240.947 181.624 239.592 185.847 239.592 185.847C247.31 161.041 238.088 141.899 238.088 141.899L225.251 155.78C225.251 155.78 223.469 181.323 229.607 194.273C235.744 207.222 274.837 173.061 274.837 173.061L269.296 169.019Z" fill="#101010"/>
<path d="M239.963 182.922C239.682 184.443 239.198 185.92 238.524 187.314C238.414 187.54 238.753 187.739 238.863 187.511C239.552 186.089 240.048 184.58 240.337 183.026C240.383 182.779 240.005 182.673 239.959 182.922H239.963Z" fill="#101010"/>
<path d="M219.449 105.99C219.053 106.067 218.649 106.097 218.247 106.08C218.138 106.08 218.05 106.168 218.05 106.276C218.052 106.384 218.139 106.471 218.247 106.472C218.685 106.49 219.124 106.454 219.555 106.368C219.657 106.336 219.715 106.23 219.686 106.127C219.652 106.027 219.547 105.97 219.445 105.996L219.449 105.99Z" fill="#101010"/>
<path d="M214.47 217.834L207.954 210.884L213.664 206.895L216.206 210.452C217.727 212.583 219.658 214.389 221.885 215.764C222.729 216.287 223.38 216.736 223.298 216.856L216.84 226.128C216.716 226.307 216.489 226.382 216.283 226.312C216.077 226.242 215.942 226.045 215.952 225.827L216.101 222.531C216.178 220.814 215.594 219.133 214.47 217.834Z" fill="#FFD7AD"/>
<path d="M229.13 151.585L218.246 147.767C218.246 147.767 185.87 164.631 184.864 176.987C183.858 189.342 213.758 215.582 213.758 215.582L216.429 211.272C216.429 211.272 208.607 196.051 204.456 187.415C202.306 182.942 199.386 180.518 197.667 179.393C197.44 179.246 197.32 178.979 197.361 178.712C197.401 178.444 197.595 178.225 197.855 178.152C205.237 176.076 235.032 166.686 229.13 151.585Z" fill="#FBB13C"/>
<path d="M229.13 151.585L218.246 147.767C218.246 147.767 217.545 148.132 216.347 148.794C213.628 155.128 213.068 162.18 214.755 168.863C214.952 169.713 215.243 170.538 215.621 171.323C224.515 166.731 232.442 160.059 229.13 151.585Z" fill="#8F2D56"/>
<path d="M241.877 150.263C241.21 147.117 240.11 144.079 238.606 141.236C238.334 140.721 238.046 140.213 237.749 139.712L217.03 144.823C218.062 146.731 215.275 147.216 217.03 148.487C219.95 150.609 228.477 163.688 231.692 165.328C234.906 166.969 238.11 161.343 241.719 161.354C241.785 161.36 241.852 161.347 241.91 161.315C241.98 161.267 242.481 160.468 242.476 160.384C241.936 152.684 242.535 153.374 241.877 150.263Z" fill="#101010"/>
<path d="M218.172 90.9806C216.654 91.7394 214.862 91.606 213.172 91.4542C212.432 91.3875 211.658 91.309 211.043 90.8943C210.428 90.4795 210.05 89.6095 210.428 88.9698C210.951 88.0749 212.391 88.2986 213.155 87.6C212.552 86.9733 212.722 85.8547 213.367 85.2712C214.012 84.6877 214.976 84.5765 215.824 84.7701C216.671 84.9637 217.431 85.4242 218.179 85.8717C218.602 85.2568 219.448 85.0396 220.18 85.1874C220.913 85.3353 221.55 85.7801 222.115 86.2681C222.657 85.631 223.705 86.0483 224.339 86.5965C226.192 88.2345 227.212 90.6181 227.117 93.0896" fill="#020A44"/>
<path d="M210.713 90.6861C211.559 91.3583 212.583 91.7677 213.658 91.8636C214.825 91.9554 215.995 91.7492 217.06 91.2644C217.292 91.1636 217.091 90.8261 216.862 90.9255C214.969 91.7497 212.644 91.7458 210.984 90.4022C210.789 90.2452 210.511 90.5212 210.707 90.6795L210.713 90.6861Z" fill="#101010"/>
<path d="M217.581 92.9744C218.439 92.9967 219.276 92.7056 219.935 92.1554C220.012 92.0788 220.012 91.9547 219.935 91.8781C219.858 91.8037 219.736 91.8037 219.658 91.8781C219.073 92.3567 218.335 92.6068 217.579 92.5819C217.327 92.5741 217.327 92.9666 217.579 92.9744H217.581Z" fill="#101010"/>
<path d="M218.889 94.2107C219.192 94.1625 219.476 94.0297 219.708 93.8273C219.784 93.7507 219.784 93.6266 219.708 93.55C219.63 93.4755 219.508 93.4755 219.43 93.55L219.393 93.5814L219.404 93.5722L219.385 93.5879L219.304 93.6429C219.247 93.6783 219.188 93.7102 219.127 93.7384L219.105 93.7475C219.082 93.758 219.143 93.7331 219.119 93.7475L219.073 93.7645C219.042 93.7763 219.012 93.7855 218.98 93.7946C218.916 93.8138 218.851 93.8278 218.784 93.8365C218.735 93.8503 218.693 93.8826 218.666 93.9268C218.612 94.0207 218.643 94.1412 218.737 94.1963C218.784 94.2197 218.837 94.2266 218.889 94.2159V94.2107Z" fill="#101010"/>
<path d="M240.049 138.022C237.504 135.51 236.054 132.094 236.017 128.518C235.998 124.611 237.683 120.782 237.269 116.895C236.972 114.1 235.61 110.243 234.25 107.782C233.658 106.712 232.934 105.543 231.744 105.254C230.974 105.067 230.174 105.3 229.413 105.53C224.011 107.188 218.783 109.367 213.802 112.035C212.056 112.968 210.501 114.416 209.859 116.288C209.367 117.728 209.44 119.29 209.681 120.788C210.248 124.306 211.689 127.613 212.716 131.026C213.469 133.527 214.286 136.01 214.87 138.56C215.224 140.117 215.575 141.7 215.616 143.297C215.647 144.061 215.578 144.825 215.41 145.571C215.226 146.328 214.951 147.067 215.158 147.855C215.202 148.058 215.301 148.246 215.443 148.398C215.784 148.733 216.266 148.529 216.678 148.507C219.828 148.376 224.83 147.158 227.812 146.133C232.18 144.631 236.629 143.086 240.32 140.308C240.531 140.172 240.706 139.986 240.828 139.767C241.113 139.147 240.537 138.498 240.049 138.022Z" fill="#020A44"/>
<path d="M240.049 138.022C237.504 135.51 236.054 132.094 236.017 128.518C235.998 124.611 237.683 120.782 237.269 116.895C237.252 116.729 237.23 116.559 237.205 116.385C237.118 116.414 237.031 116.445 236.944 116.479C230.35 119.04 225.198 124.569 218.515 126.883C216.522 127.573 214.408 127.962 212.304 127.83L211.912 128.521C212.196 129.353 212.474 130.187 212.727 131.026C213.479 133.527 214.297 136.01 214.88 138.56C215.235 140.116 215.586 141.7 215.626 143.297C215.657 144.061 215.588 144.825 215.421 145.571C215.236 146.328 214.962 147.067 215.168 147.855C215.213 148.058 215.311 148.246 215.453 148.398C215.795 148.733 216.276 148.529 216.688 148.507C219.839 148.376 224.84 147.158 227.822 146.133C232.19 144.631 236.64 143.086 240.331 140.308C240.542 140.172 240.716 139.986 240.838 139.767C241.113 139.147 240.537 138.498 240.049 138.022Z" fill="#020A44"/>
<path d="M229.364 108.773C230.075 110.927 231.797 112.56 233.246 114.302C233.9 115.094 234.514 115.922 235.093 116.772C235.136 116.897 235.24 116.99 235.368 117.019C235.496 117.049 235.63 117.01 235.723 116.918C237.565 115.823 239.428 114.76 241.218 113.572C242.512 112.713 243.685 111.704 244.948 110.805C245.264 110.58 245.576 110.316 245.522 109.889C245.468 109.463 244.528 109.282 243.654 108.463C241.762 106.692 240.446 104.52 239.417 102.153C239.27 101.813 238.877 101.652 238.533 101.792C236.832 102.492 231.903 104.524 226.605 106.696" fill="#020A44"/>
<path d="M217.936 109.964C217.834 110.457 217.855 110.948 218.198 111.296C218.435 111.515 218.737 111.649 219.059 111.678C220.2 111.835 221.303 111.241 222.251 110.589C223.8 109.523 225.228 108.198 226.176 106.592C223.374 107.574 220.624 108.7 217.936 109.964Z" fill="#FFD7AD"/>
<path d="M233.947 118.4L235.574 117.254C236.07 116.905 236.565 116.533 237.136 116.315C237.37 116.224 237.267 115.845 237.031 115.937C236.445 116.162 235.937 116.519 235.428 116.878L233.749 118.056C233.545 118.2 233.739 118.54 233.947 118.395V118.4Z" fill="#101010"/>
<path d="M210.601 120.713C210.615 122.858 210.837 124.997 211.266 127.099C211.699 129.222 212.273 131.313 212.983 133.36C213.376 134.512 213.802 135.652 214.248 136.784C214.34 137.016 214.719 136.915 214.627 136.679C213.842 134.682 213.115 132.656 212.523 130.591C211.919 128.536 211.482 126.436 211.215 124.311C211.071 123.119 210.997 121.919 210.995 120.718C210.995 120.61 210.907 120.522 210.799 120.522C210.69 120.522 210.602 120.61 210.602 120.718L210.601 120.713Z" fill="#101010"/>
<path d="M194.162 178.921C195.231 178.79 196.293 178.603 197.343 178.363C197.589 178.306 197.484 177.927 197.238 177.984C196.223 178.218 195.196 178.4 194.162 178.529C194.055 178.531 193.969 178.618 193.966 178.725C193.967 178.833 194.054 178.92 194.162 178.921Z" fill="#101010"/>
<path d="M195.186 180.116L195.983 179.896C196.054 179.881 196.111 179.827 196.13 179.758C196.15 179.688 196.129 179.613 196.077 179.563C196.025 179.513 195.949 179.495 195.88 179.518L195.082 179.738C194.981 179.77 194.923 179.876 194.951 179.979C194.985 180.079 195.09 180.136 195.193 180.109L195.186 180.116Z" fill="#101010"/>
<path d="M232.937 191.428L235.112 189.496C235.302 189.328 235.023 189.051 234.834 189.218L232.665 191.147C232.476 191.316 232.754 191.592 232.943 191.424L232.937 191.428Z" fill="#FBB13C"/>
<path d="M234.288 193.118L236.451 191.184C236.641 191.015 236.362 190.739 236.174 190.906L234.01 192.84C233.82 193.009 234.099 193.285 234.288 193.118Z" fill="#FBB13C"/>
<path d="M232.247 193.656C232.355 193.656 232.443 193.568 232.443 193.459C232.443 193.351 232.355 193.263 232.247 193.263C232.138 193.263 232.05 193.351 232.05 193.459C232.05 193.568 232.138 193.656 232.247 193.656Z" fill="#FBB13C"/>
<path d="M239.822 67.4305C242.521 65.8315 245.658 65.1298 248.781 65.4262C249.032 65.4497 249.031 65.0573 248.781 65.0337C245.588 64.7378 242.383 65.458 239.623 67.0917C239.529 67.1466 239.498 67.2669 239.553 67.3605C239.608 67.4541 239.728 67.4854 239.822 67.4305Z" fill="#101010"/>
<path d="M241.364 62.4803C242.857 61.8306 244.443 61.42 246.064 61.2636C246.313 61.2401 246.316 60.8476 246.064 60.8711C244.375 61.0341 242.722 61.4628 241.167 62.1415C240.935 62.2422 241.135 62.5811 241.364 62.4803Z" fill="#101010"/>
<path d="M251.858 66.6386C251.966 66.6386 252.054 66.5507 252.054 66.4423C252.054 66.334 251.966 66.2461 251.858 66.2461C251.75 66.2461 251.662 66.334 251.662 66.4423C251.662 66.5507 251.75 66.6386 251.858 66.6386Z" fill="#101010"/>
<path d="M213.849 95.4864C213.935 95.4257 214.026 95.3739 214.123 95.332L214.076 95.3529C214.193 95.3033 214.317 95.269 214.443 95.2509L214.391 95.2587H214.401C214.453 95.2563 214.502 95.236 214.54 95.2012C214.577 95.1642 214.597 95.1145 214.598 95.0625C214.598 95.01 214.577 94.9596 214.54 94.9225C214.503 94.8855 214.453 94.8652 214.401 94.8662C214.132 94.8956 213.874 94.9928 213.652 95.1488C213.609 95.1755 213.577 95.2169 213.561 95.2653C213.548 95.3165 213.555 95.3709 213.581 95.417C213.636 95.5056 213.75 95.5364 213.843 95.4877L213.849 95.4864Z" fill="#101010"/>
<path d="M213.346 100.758C213.652 100.654 213.941 100.503 214.203 100.312C214.319 100.208 214.458 100.133 214.608 100.091C214.87 100.073 215.108 100.24 215.18 100.492C215.241 100.74 215.207 101.003 215.084 101.228C215 101.418 214.864 101.581 214.692 101.698C214.52 101.816 214.301 101.843 214.105 101.771C214.013 101.729 213.932 101.669 213.864 101.594C213.667 101.39 213.537 101.13 213.494 100.85" fill="#101010"/>
<path d="M213.394 100.947C213.721 100.836 214.03 100.676 214.31 100.473C214.407 100.38 214.526 100.315 214.657 100.282C214.762 100.286 214.859 100.34 214.918 100.426C215.097 100.662 214.984 101.004 214.851 101.233C214.719 101.462 214.473 101.695 214.197 101.596C214.056 101.53 213.939 101.42 213.864 101.283C213.77 101.136 213.708 100.97 213.682 100.798C213.665 100.728 213.611 100.673 213.542 100.655C213.473 100.636 213.4 100.657 213.35 100.708C213.3 100.76 213.283 100.834 213.304 100.902C213.363 101.312 213.594 101.676 213.938 101.906C214.315 102.128 214.783 101.959 215.045 101.644C215.307 101.329 215.478 100.877 215.37 100.467C215.269 100.092 214.87 99.7902 214.477 99.9171C214.263 99.9865 214.097 100.149 213.908 100.266C213.713 100.389 213.504 100.49 213.287 100.566C213.186 100.6 213.129 100.706 213.156 100.808C213.187 100.91 213.294 100.968 213.397 100.939L213.394 100.947Z" fill="#101010"/>
<path d="M214.451 101.476C214.459 101.442 214.467 101.408 214.477 101.374C214.488 101.34 214.489 101.337 214.496 101.319C214.502 101.301 214.496 101.298 214.505 101.294C214.514 101.29 214.485 101.34 214.505 101.307C214.535 101.242 214.571 101.18 214.613 101.121C214.592 101.149 214.613 101.121 214.613 101.121C214.624 101.107 214.635 101.094 214.647 101.081C214.671 101.055 214.697 101.031 214.723 101.008L214.763 100.974C214.715 101.017 214.763 100.974 214.778 100.963C214.809 100.943 214.84 100.924 214.872 100.907C214.936 100.873 214.976 100.807 214.976 100.735C214.977 100.664 214.938 100.597 214.875 100.562C214.812 100.527 214.736 100.53 214.675 100.568C214.364 100.738 214.142 101.036 214.069 101.383C214.042 101.485 214.1 101.591 214.2 101.624C214.302 101.652 214.409 101.594 214.441 101.493L214.451 101.476Z" fill="#D81159"/>
<path d="M167.262 207.48C163.511 202.204 160.161 196.654 157.243 190.876C156.182 188.773 155.082 186.531 153.092 185.271C152.409 184.839 151.631 184.529 151.08 183.939C150.32 183.124 150.14 181.945 149.811 180.882C148.43 176.434 144.078 173.541 139.678 172.001C135.278 170.461 130.564 169.891 126.26 168.101C121.837 166.262 117.887 163.055 115.698 158.798C113.583 154.694 113.081 147.154 115.07 142.825L115.054 142.85C110.256 149.676 108.57 158.157 108.09 166.358C107.847 170.504 108.116 174.62 108.061 178.762C108.03 181.107 106.315 184.863 108.192 186.814C108.665 187.303 109.341 187.567 109.99 187.722C112.57 188.335 115.528 187.621 118.012 188.565C123.917 190.811 129.184 194.424 134.746 197.419C142.048 201.349 149.866 204.237 157.969 205.999C161.037 206.667 164.139 207.161 167.262 207.48Z" fill="#D81159"/>
<path d="M128.568 111.521C129.876 112.179 131.148 112.901 132.384 113.688C132.597 113.818 132.795 113.484 132.582 113.349C131.347 112.564 130.075 111.842 128.765 111.182C128.54 111.068 128.341 111.407 128.568 111.521Z" fill="#EDB59F"/>
<path d="M137.692 114.721C138.021 114.74 138.349 114.669 138.64 114.514C138.73 114.46 138.761 114.345 138.711 114.252C138.655 114.164 138.542 114.134 138.449 114.182C138.418 114.199 138.387 114.213 138.354 114.229C138.321 114.245 138.336 114.237 138.354 114.229L138.325 114.241L138.283 114.256C138.217 114.28 138.148 114.299 138.079 114.314C138.045 114.322 138.01 114.328 137.974 114.332C138.027 114.332 137.974 114.332 137.967 114.332H137.905C137.835 114.337 137.764 114.337 137.693 114.332C137.585 114.332 137.497 114.42 137.497 114.529C137.5 114.636 137.586 114.722 137.693 114.725L137.692 114.721Z" fill="#EDB59F"/>
<path d="M133.206 138.684C133.103 139.134 133.057 139.596 133.067 140.058C133.067 140.254 133.067 140.484 133.185 140.65C133.247 140.741 133.345 140.801 133.454 140.813C133.564 140.826 133.673 140.79 133.754 140.716C133.796 140.672 133.816 140.612 133.808 140.551C133.8 140.491 133.765 140.438 133.713 140.407C133.565 140.34 133.45 140.214 133.396 140.06C133.316 139.822 132.936 139.929 133.017 140.165C133.098 140.418 133.278 140.627 133.516 140.746L133.477 140.437C133.49 140.432 133.504 140.429 133.518 140.426C133.494 140.426 133.488 140.426 133.503 140.426C133.517 140.426 133.522 140.454 133.503 140.426C133.481 140.379 133.47 140.327 133.471 140.275C133.461 140.112 133.458 139.949 133.462 139.785C133.474 139.452 133.518 139.121 133.593 138.796C133.648 138.55 133.269 138.444 133.214 138.692L133.206 138.684Z" fill="#EDB59F"/>
<path d="M188.362 250.038C188.362 250.954 170.218 251.411 147.839 251.691C124.987 251.976 107.151 251.05 107.316 250.038C107.461 249.138 125.459 248.387 147.839 248.387C170.219 248.387 188.362 249.126 188.362 250.038Z" fill="#E9E3E0"/>
<ellipse cx="240.904" cy="250.038" rx="40.5233" ry="1.65105" fill="#E9E3E0"/>
<path d="M90.4473 290.528H79.3113V301.92H68.9433V290.528H57.8073V280.736H68.9433V269.28H79.3113V280.736H90.4473V290.528ZM96.7148 299.232C98.1654 298.08 98.8268 297.547 98.6988 297.632C102.88 294.176 106.165 291.339 108.555 289.12C110.987 286.901 113.035 284.576 114.699 282.144C116.363 279.712 117.195 277.344 117.195 275.04C117.195 273.291 116.789 271.925 115.979 270.944C115.168 269.963 113.952 269.472 112.331 269.472C110.709 269.472 109.429 270.091 108.491 271.328C107.595 272.523 107.147 274.229 107.147 276.448H96.5868C96.6721 272.821 97.4401 269.792 98.8908 267.36C100.384 264.928 102.325 263.136 104.715 261.984C107.147 260.832 109.835 260.256 112.779 260.256C117.856 260.256 121.675 261.557 124.235 264.16C126.837 266.763 128.139 270.155 128.139 274.336C128.139 278.901 126.581 283.147 123.467 287.072C120.352 290.955 116.384 294.752 111.563 298.464H128.843V307.36H96.7148V299.232ZM133.277 299.232C134.728 298.08 135.389 297.547 135.261 297.632C139.443 294.176 142.728 291.339 145.117 289.12C147.549 286.901 149.597 284.576 151.261 282.144C152.925 279.712 153.757 277.344 153.757 275.04C153.757 273.291 153.352 271.925 152.541 270.944C151.731 269.963 150.515 269.472 148.893 269.472C147.272 269.472 145.992 270.091 145.053 271.328C144.157 272.523 143.709 274.229 143.709 276.448H133.149C133.235 272.821 134.003 269.792 135.453 267.36C136.947 264.928 138.888 263.136 141.277 261.984C143.709 260.832 146.397 260.256 149.341 260.256C154.419 260.256 158.237 261.557 160.797 264.16C163.4 266.763 164.701 270.155 164.701 274.336C164.701 278.901 163.144 283.147 160.029 287.072C156.915 290.955 152.947 294.752 148.125 298.464H165.405V307.36H133.277V299.232ZM183.088 297.888L175.984 316.256H169.008L172.72 297.888H183.088ZM188.599 284C188.599 276.661 190.007 270.88 192.823 266.656C195.681 262.432 200.268 260.32 206.583 260.32C212.897 260.32 217.463 262.432 220.279 266.656C223.137 270.88 224.567 276.661 224.567 284C224.567 291.424 223.137 297.248 220.279 301.472C217.463 305.696 212.897 307.808 206.583 307.808C200.268 307.808 195.681 305.696 192.823 301.472C190.007 297.248 188.599 291.424 188.599 284ZM213.815 284C213.815 279.691 213.345 276.384 212.407 274.08C211.468 271.733 209.527 270.56 206.583 270.56C203.639 270.56 201.697 271.733 200.759 274.08C199.82 276.384 199.351 279.691 199.351 284C199.351 286.901 199.521 289.312 199.863 291.232C200.204 293.109 200.887 294.645 201.911 295.84C202.977 296.992 204.535 297.568 206.583 297.568C208.631 297.568 210.167 296.992 211.191 295.84C212.257 294.645 212.961 293.109 213.303 291.232C213.644 289.312 213.815 286.901 213.815 284ZM230.349 284C230.349 276.661 231.757 270.88 234.573 266.656C237.431 262.432 242.018 260.32 248.333 260.32C254.647 260.32 259.213 262.432 262.029 266.656C264.887 270.88 266.317 276.661 266.317 284C266.317 291.424 264.887 297.248 262.029 301.472C259.213 305.696 254.647 307.808 248.333 307.808C242.018 307.808 237.431 305.696 234.573 301.472C231.757 297.248 230.349 291.424 230.349 284ZM255.565 284C255.565 279.691 255.095 276.384 254.157 274.08C253.218 271.733 251.277 270.56 248.333 270.56C245.389 270.56 243.447 271.733 242.509 274.08C241.57 276.384 241.101 279.691 241.101 284C241.101 286.901 241.271 289.312 241.613 291.232C241.954 293.109 242.637 294.645 243.661 295.84C244.727 296.992 246.285 297.568 248.333 297.568C250.381 297.568 251.917 296.992 252.941 295.84C254.007 294.645 254.711 293.109 255.053 291.232C255.394 289.312 255.565 286.901 255.565 284ZM272.099 284C272.099 276.661 273.507 270.88 276.323 266.656C279.181 262.432 283.768 260.32 290.083 260.32C296.397 260.32 300.963 262.432 303.779 266.656C306.637 270.88 308.067 276.661 308.067 284C308.067 291.424 306.637 297.248 303.779 301.472C300.963 305.696 296.397 307.808 290.083 307.808C283.768 307.808 279.181 305.696 276.323 301.472C273.507 297.248 272.099 291.424 272.099 284ZM297.315 284C297.315 279.691 296.845 276.384 295.907 274.08C294.968 271.733 293.027 270.56 290.083 270.56C287.139 270.56 285.197 271.733 284.259 274.08C283.32 276.384 282.851 279.691 282.851 284C282.851 286.901 283.021 289.312 283.363 291.232C283.704 293.109 284.387 294.645 285.411 295.84C286.477 296.992 288.035 297.568 290.083 297.568C292.131 297.568 293.667 296.992 294.691 295.84C295.757 294.645 296.461 293.109 296.803 291.232C297.144 289.312 297.315 286.901 297.315 284Z" fill="#020A44"/>
<path d="M86.734 334.272V344.856C86.734 346.344 87.094 347.448 87.814 348.168C88.55 348.888 89.566 349.248 90.862 349.248C92.142 349.248 93.142 348.888 93.862 348.168C94.598 347.448 94.966 346.344 94.966 344.856V334.272H97.15V344.832C97.15 346.224 96.87 347.4 96.31 348.36C95.75 349.304 94.99 350.008 94.03 350.472C93.086 350.936 92.022 351.168 90.838 351.168C89.654 351.168 88.582 350.936 87.622 350.472C86.678 350.008 85.926 349.304 85.366 348.36C84.822 347.4 84.55 346.224 84.55 344.832V334.272H86.734ZM103.457 339.648V347.4C103.457 348.04 103.593 348.496 103.865 348.768C104.137 349.024 104.609 349.152 105.281 349.152H106.889V351H104.921C103.705 351 102.793 350.72 102.185 350.16C101.577 349.6 101.273 348.68 101.273 347.4V339.648H99.5693V337.848H101.273V334.536H103.457V337.848H106.889V339.648H103.457ZM110.664 335.712C110.248 335.712 109.896 335.568 109.608 335.28C109.32 334.992 109.176 334.64 109.176 334.224C109.176 333.808 109.32 333.456 109.608 333.168C109.896 332.88 110.248 332.736 110.664 332.736C111.064 332.736 111.4 332.88 111.672 333.168C111.96 333.456 112.104 333.808 112.104 334.224C112.104 334.64 111.96 334.992 111.672 335.28C111.4 335.568 111.064 335.712 110.664 335.712ZM111.72 337.848V351H109.536V337.848H111.72ZM117.626 333.24V351H115.442V333.24H117.626ZM122.476 335.712C122.06 335.712 121.708 335.568 121.42 335.28C121.132 334.992 120.988 334.64 120.988 334.224C120.988 333.808 121.132 333.456 121.42 333.168C121.708 332.88 122.06 332.736 122.476 332.736C122.876 332.736 123.212 332.88 123.484 333.168C123.772 333.456 123.916 333.808 123.916 334.224C123.916 334.64 123.772 334.992 123.484 335.28C123.212 335.568 122.876 335.712 122.476 335.712ZM123.532 337.848V351H121.348V337.848H123.532ZM131.91 351.216C130.902 351.216 129.998 351.048 129.198 350.712C128.398 350.36 127.766 349.88 127.302 349.272C126.838 348.648 126.582 347.936 126.534 347.136H128.79C128.854 347.792 129.158 348.328 129.702 348.744C130.262 349.16 130.99 349.368 131.886 349.368C132.718 349.368 133.374 349.184 133.854 348.816C134.334 348.448 134.574 347.984 134.574 347.424C134.574 346.848 134.318 346.424 133.806 346.152C133.294 345.864 132.502 345.584 131.43 345.312C130.454 345.056 129.654 344.8 129.03 344.544C128.422 344.272 127.894 343.88 127.446 343.368C127.014 342.84 126.798 342.152 126.798 341.304C126.798 340.632 126.998 340.016 127.398 339.456C127.798 338.896 128.366 338.456 129.102 338.136C129.838 337.8 130.678 337.632 131.622 337.632C133.078 337.632 134.254 338 135.15 338.736C136.046 339.472 136.526 340.48 136.59 341.76H134.406C134.358 341.072 134.078 340.52 133.566 340.104C133.07 339.688 132.398 339.48 131.55 339.48C130.766 339.48 130.142 339.648 129.678 339.984C129.214 340.32 128.982 340.76 128.982 341.304C128.982 341.736 129.118 342.096 129.39 342.384C129.678 342.656 130.03 342.88 130.446 343.056C130.878 343.216 131.47 343.4 132.222 343.608C133.166 343.864 133.934 344.12 134.526 344.376C135.118 344.616 135.622 344.984 136.038 345.48C136.47 345.976 136.694 346.624 136.71 347.424C136.71 348.144 136.51 348.792 136.11 349.368C135.71 349.944 135.142 350.4 134.406 350.736C133.686 351.056 132.854 351.216 131.91 351.216ZM138.977 344.376C138.977 343.032 139.249 341.856 139.793 340.848C140.337 339.824 141.081 339.032 142.025 338.472C142.985 337.912 144.049 337.632 145.217 337.632C146.369 337.632 147.369 337.88 148.217 338.376C149.065 338.872 149.697 339.496 150.113 340.248V337.848H152.321V351H150.113V348.552C149.681 349.32 149.033 349.96 148.169 350.472C147.321 350.968 146.329 351.216 145.193 351.216C144.025 351.216 142.969 350.928 142.025 350.352C141.081 349.776 140.337 348.968 139.793 347.928C139.249 346.888 138.977 345.704 138.977 344.376ZM150.113 344.4C150.113 343.408 149.913 342.544 149.513 341.808C149.113 341.072 148.569 340.512 147.881 340.128C147.209 339.728 146.465 339.528 145.649 339.528C144.833 339.528 144.089 339.72 143.417 340.104C142.745 340.488 142.209 341.048 141.809 341.784C141.409 342.52 141.209 343.384 141.209 344.376C141.209 345.384 141.409 346.264 141.809 347.016C142.209 347.752 142.745 348.32 143.417 348.72C144.089 349.104 144.833 349.296 145.649 349.296C146.465 349.296 147.209 349.104 147.881 348.72C148.569 348.32 149.113 347.752 149.513 347.016C149.913 346.264 150.113 345.392 150.113 344.4ZM158.676 339.648V347.4C158.676 348.04 158.812 348.496 159.084 348.768C159.356 349.024 159.828 349.152 160.5 349.152H162.108V351H160.14C158.924 351 158.012 350.72 157.404 350.16C156.796 349.6 156.492 348.68 156.492 347.4V339.648H154.788V337.848H156.492V334.536H158.676V337.848H162.108V339.648H158.676ZM176.754 343.92C176.754 344.336 176.73 344.776 176.682 345.24H166.17C166.25 346.536 166.69 347.552 167.49 348.288C168.306 349.008 169.29 349.368 170.442 349.368C171.386 349.368 172.17 349.152 172.794 348.72C173.434 348.272 173.882 347.68 174.138 346.944H176.49C176.138 348.208 175.434 349.24 174.378 350.04C173.322 350.824 172.01 351.216 170.442 351.216C169.194 351.216 168.074 350.936 167.082 350.376C166.106 349.816 165.338 349.024 164.778 348C164.218 346.96 163.938 345.76 163.938 344.4C163.938 343.04 164.21 341.848 164.754 340.824C165.298 339.8 166.058 339.016 167.034 338.472C168.026 337.912 169.162 337.632 170.442 337.632C171.69 337.632 172.794 337.904 173.754 338.448C174.714 338.992 175.45 339.744 175.962 340.704C176.49 341.648 176.754 342.72 176.754 343.92ZM174.498 343.464C174.498 342.632 174.314 341.92 173.946 341.328C173.578 340.72 173.074 340.264 172.434 339.96C171.81 339.64 171.114 339.48 170.346 339.48C169.242 339.48 168.298 339.832 167.514 340.536C166.746 341.24 166.306 342.216 166.194 343.464H174.498ZM191.301 337.848V351H189.117V349.056C188.701 349.728 188.117 350.256 187.365 350.64C186.629 351.008 185.813 351.192 184.917 351.192C183.893 351.192 182.973 350.984 182.157 350.568C181.341 350.136 180.693 349.496 180.213 348.648C179.749 347.8 179.517 346.768 179.517 345.552V337.848H181.677V345.264C181.677 346.56 182.005 347.56 182.661 348.264C183.317 348.952 184.213 349.296 185.349 349.296C186.517 349.296 187.437 348.936 188.109 348.216C188.781 347.496 189.117 346.448 189.117 345.072V337.848H191.301ZM197.173 339.984C197.557 339.232 198.101 338.648 198.805 338.232C199.525 337.816 200.397 337.608 201.421 337.608V339.864H200.845C198.397 339.864 197.173 341.192 197.173 343.848V351H194.989V337.848H197.173V339.984ZM208.598 351.216C207.59 351.216 206.686 351.048 205.886 350.712C205.086 350.36 204.454 349.88 203.99 349.272C203.526 348.648 203.27 347.936 203.222 347.136H205.478C205.542 347.792 205.846 348.328 206.39 348.744C206.95 349.16 207.678 349.368 208.574 349.368C209.406 349.368 210.062 349.184 210.542 348.816C211.022 348.448 211.262 347.984 211.262 347.424C211.262 346.848 211.006 346.424 210.494 346.152C209.982 345.864 209.19 345.584 208.118 345.312C207.142 345.056 206.342 344.8 205.718 344.544C205.11 344.272 204.582 343.88 204.134 343.368C203.702 342.84 203.486 342.152 203.486 341.304C203.486 340.632 203.686 340.016 204.086 339.456C204.486 338.896 205.054 338.456 205.79 338.136C206.526 337.8 207.366 337.632 208.31 337.632C209.766 337.632 210.942 338 211.838 338.736C212.734 339.472 213.214 340.48 213.278 341.76H211.094C211.046 341.072 210.766 340.52 210.254 340.104C209.758 339.688 209.086 339.48 208.238 339.48C207.454 339.48 206.83 339.648 206.366 339.984C205.902 340.32 205.67 340.76 205.67 341.304C205.67 341.736 205.806 342.096 206.078 342.384C206.366 342.656 206.718 342.88 207.134 343.056C207.566 343.216 208.158 343.4 208.91 343.608C209.854 343.864 210.622 344.12 211.214 344.376C211.806 344.616 212.31 344.984 212.726 345.48C213.158 345.976 213.382 346.624 213.398 347.424C213.398 348.144 213.198 348.792 212.798 349.368C212.398 349.944 211.83 350.4 211.094 350.736C210.374 351.056 209.542 351.216 208.598 351.216ZM224.641 328.392L218.065 355.08H215.905L222.457 328.392H224.641ZM237.351 334.272V336.048H230.079V341.688H235.983V343.464H230.079V351H227.895V334.272H237.351ZM239.173 344.376C239.173 343.032 239.445 341.856 239.989 340.848C240.533 339.824 241.277 339.032 242.221 338.472C243.181 337.912 244.245 337.632 245.413 337.632C246.565 337.632 247.565 337.88 248.413 338.376C249.261 338.872 249.893 339.496 250.309 340.248V337.848H252.517V351H250.309V348.552C249.877 349.32 249.229 349.96 248.365 350.472C247.517 350.968 246.525 351.216 245.389 351.216C244.221 351.216 243.165 350.928 242.221 350.352C241.277 349.776 240.533 348.968 239.989 347.928C239.445 346.888 239.173 345.704 239.173 344.376ZM250.309 344.4C250.309 343.408 250.109 342.544 249.709 341.808C249.309 341.072 248.765 340.512 248.077 340.128C247.405 339.728 246.661 339.528 245.845 339.528C245.029 339.528 244.285 339.72 243.613 340.104C242.941 340.488 242.405 341.048 242.005 341.784C241.605 342.52 241.405 343.384 241.405 344.376C241.405 345.384 241.605 346.264 242.005 347.016C242.405 347.752 242.941 348.32 243.613 348.72C244.285 349.104 245.029 349.296 245.845 349.296C246.661 349.296 247.405 349.104 248.077 348.72C248.765 348.32 249.309 347.752 249.709 347.016C250.109 346.264 250.309 345.392 250.309 344.4ZM262.615 337.608C264.215 337.608 265.511 338.096 266.503 339.072C267.495 340.032 267.991 341.424 267.991 343.248V351H265.831V343.56C265.831 342.248 265.503 341.248 264.847 340.56C264.191 339.856 263.295 339.504 262.159 339.504C261.007 339.504 260.087 339.864 259.399 340.584C258.727 341.304 258.391 342.352 258.391 343.728V351H256.207V337.848H258.391V339.72C258.823 339.048 259.407 338.528 260.143 338.16C260.895 337.792 261.719 337.608 262.615 337.608ZM276.215 351.216C275.207 351.216 274.303 351.048 273.503 350.712C272.703 350.36 272.071 349.88 271.607 349.272C271.143 348.648 270.887 347.936 270.839 347.136H273.095C273.159 347.792 273.463 348.328 274.007 348.744C274.567 349.16 275.295 349.368 276.191 349.368C277.023 349.368 277.679 349.184 278.159 348.816C278.639 348.448 278.879 347.984 278.879 347.424C278.879 346.848 278.623 346.424 278.111 346.152C277.599 345.864 276.807 345.584 275.735 345.312C274.759 345.056 273.959 344.8 273.335 344.544C272.727 344.272 272.199 343.88 271.751 343.368C271.319 342.84 271.103 342.152 271.103 341.304C271.103 340.632 271.303 340.016 271.703 339.456C272.103 338.896 272.671 338.456 273.407 338.136C274.143 337.8 274.983 337.632 275.927 337.632C277.383 337.632 278.559 338 279.455 338.736C280.351 339.472 280.831 340.48 280.895 341.76H278.711C278.663 341.072 278.383 340.52 277.871 340.104C277.375 339.688 276.703 339.48 275.855 339.48C275.071 339.48 274.447 339.648 273.983 339.984C273.519 340.32 273.287 340.76 273.287 341.304C273.287 341.736 273.423 342.096 273.695 342.384C273.983 342.656 274.335 342.88 274.751 343.056C275.183 343.216 275.775 343.4 276.527 343.608C277.471 343.864 278.239 344.12 278.831 344.376C279.423 344.616 279.927 344.984 280.343 345.48C280.775 345.976 280.999 346.624 281.015 347.424C281.015 348.144 280.815 348.792 280.415 349.368C280.015 349.944 279.447 350.4 278.711 350.736C277.991 351.056 277.159 351.216 276.215 351.216Z" fill="#020A44"/>
<path opacity="0.5" d="M305.776 56.44V59.848H311.272V63.016H305.776V66.712H311.992V70H301.672V53.152H311.992V56.44H305.776ZM309.52 49.768L303.736 52.192V49.36L309.52 46.576V49.768ZM313.84 63.304C313.84 61.912 314.12 60.696 314.68 59.656C315.256 58.616 316.048 57.816 317.056 57.256C318.08 56.696 319.248 56.416 320.56 56.416C322.24 56.416 323.64 56.856 324.76 57.736C325.896 58.616 326.64 59.856 326.992 61.456H322.624C322.256 60.432 321.544 59.92 320.488 59.92C319.736 59.92 319.136 60.216 318.688 60.808C318.24 61.384 318.016 62.216 318.016 63.304C318.016 64.392 318.24 65.232 318.688 65.824C319.136 66.4 319.736 66.688 320.488 66.688C321.544 66.688 322.256 66.176 322.624 65.152H326.992C326.64 66.72 325.896 67.952 324.76 68.848C323.624 69.744 322.224 70.192 320.56 70.192C319.248 70.192 318.08 69.912 317.056 69.352C316.048 68.792 315.256 67.992 314.68 66.952C314.12 65.912 313.84 64.696 313.84 63.304ZM335.283 70.192C333.971 70.192 332.787 69.912 331.731 69.352C330.691 68.792 329.867 67.992 329.259 66.952C328.667 65.912 328.371 64.696 328.371 63.304C328.371 61.928 328.675 60.72 329.283 59.68C329.891 58.624 330.723 57.816 331.779 57.256C332.835 56.696 334.019 56.416 335.331 56.416C336.643 56.416 337.827 56.696 338.883 57.256C339.939 57.816 340.771 58.624 341.379 59.68C341.987 60.72 342.291 61.928 342.291 63.304C342.291 64.68 341.979 65.896 341.355 66.952C340.747 67.992 339.907 68.792 338.835 69.352C337.779 69.912 336.595 70.192 335.283 70.192ZM335.283 66.64C336.067 66.64 336.731 66.352 337.275 65.776C337.835 65.2 338.115 64.376 338.115 63.304C338.115 62.232 337.843 61.408 337.299 60.832C336.771 60.256 336.115 59.968 335.331 59.968C334.531 59.968 333.867 60.256 333.339 60.832C332.811 61.392 332.547 62.216 332.547 63.304C332.547 64.376 332.803 65.2 333.315 65.776C333.843 66.352 334.499 66.64 335.283 66.64ZM352.628 56.464C354.196 56.464 355.444 56.976 356.372 58C357.316 59.008 357.788 60.4 357.788 62.176V70H353.708V62.728C353.708 61.832 353.476 61.136 353.012 60.64C352.548 60.144 351.924 59.896 351.14 59.896C350.356 59.896 349.732 60.144 349.268 60.64C348.804 61.136 348.572 61.832 348.572 62.728V70H344.468V56.608H348.572V58.384C348.988 57.792 349.548 57.328 350.252 56.992C350.956 56.64 351.748 56.464 352.628 56.464ZM366.736 70.192C365.424 70.192 364.24 69.912 363.184 69.352C362.144 68.792 361.32 67.992 360.712 66.952C360.12 65.912 359.824 64.696 359.824 63.304C359.824 61.928 360.128 60.72 360.736 59.68C361.344 58.624 362.176 57.816 363.232 57.256C364.288 56.696 365.472 56.416 366.784 56.416C368.096 56.416 369.28 56.696 370.336 57.256C371.392 57.816 372.224 58.624 372.832 59.68C373.44 60.72 373.744 61.928 373.744 63.304C373.744 64.68 373.432 65.896 372.808 66.952C372.2 67.992 371.36 68.792 370.288 69.352C369.232 69.912 368.048 70.192 366.736 70.192ZM366.736 66.64C367.52 66.64 368.184 66.352 368.728 65.776C369.288 65.2 369.568 64.376 369.568 63.304C369.568 62.232 369.296 61.408 368.752 60.832C368.224 60.256 367.568 59.968 366.784 59.968C365.984 59.968 365.32 60.256 364.792 60.832C364.264 61.392 364 62.216 364 63.304C364 64.376 364.256 65.2 364.768 65.776C365.296 66.352 365.952 66.64 366.736 66.64ZM393.01 56.464C394.674 56.464 395.994 56.968 396.97 57.976C397.962 58.984 398.458 60.384 398.458 62.176V70H394.378V62.728C394.378 61.864 394.146 61.2 393.682 60.736C393.234 60.256 392.61 60.016 391.81 60.016C391.01 60.016 390.378 60.256 389.914 60.736C389.466 61.2 389.242 61.864 389.242 62.728V70H385.162V62.728C385.162 61.864 384.93 61.2 384.466 60.736C384.018 60.256 383.394 60.016 382.594 60.016C381.794 60.016 381.162 60.256 380.698 60.736C380.25 61.2 380.026 61.864 380.026 62.728V70H375.922V56.608H380.026V58.288C380.442 57.728 380.986 57.288 381.658 56.968C382.33 56.632 383.09 56.464 383.938 56.464C384.946 56.464 385.842 56.68 386.626 57.112C387.426 57.544 388.05 58.16 388.498 58.96C388.962 58.224 389.594 57.624 390.394 57.16C391.194 56.696 392.066 56.464 393.01 56.464ZM403.392 55.216C402.672 55.216 402.08 55.008 401.616 54.592C401.168 54.16 400.944 53.632 400.944 53.008C400.944 52.368 401.168 51.84 401.616 51.424C402.08 50.992 402.672 50.776 403.392 50.776C404.096 50.776 404.672 50.992 405.12 51.424C405.584 51.84 405.816 52.368 405.816 53.008C405.816 53.632 405.584 54.16 405.12 54.592C404.672 55.008 404.096 55.216 403.392 55.216ZM405.432 56.608V70H401.328V56.608H405.432ZM421.03 63.088C421.03 63.472 421.006 63.872 420.958 64.288H411.67C411.734 65.12 411.998 65.76 412.462 66.208C412.942 66.64 413.526 66.856 414.214 66.856C415.238 66.856 415.95 66.424 416.35 65.56H420.718C420.494 66.44 420.086 67.232 419.494 67.936C418.918 68.64 418.19 69.192 417.31 69.592C416.43 69.992 415.446 70.192 414.358 70.192C413.046 70.192 411.878 69.912 410.854 69.352C409.83 68.792 409.03 67.992 408.454 66.952C407.878 65.912 407.59 64.696 407.59 63.304C407.59 61.912 407.87 60.696 408.43 59.656C409.006 58.616 409.806 57.816 410.83 57.256C411.854 56.696 413.03 56.416 414.358 56.416C415.654 56.416 416.806 56.688 417.814 57.232C418.822 57.776 419.606 58.552 420.166 59.56C420.742 60.568 421.03 61.744 421.03 63.088ZM416.83 62.008C416.83 61.304 416.59 60.744 416.11 60.328C415.63 59.912 415.03 59.704 414.31 59.704C413.622 59.704 413.038 59.904 412.558 60.304C412.094 60.704 411.806 61.272 411.694 62.008H416.83ZM427.465 63.304C427.465 61.912 427.745 60.696 428.305 59.656C428.881 58.616 429.673 57.816 430.681 57.256C431.705 56.696 432.873 56.416 434.185 56.416C435.865 56.416 437.265 56.856 438.385 57.736C439.521 58.616 440.265 59.856 440.617 61.456H436.249C435.881 60.432 435.169 59.92 434.113 59.92C433.361 59.92 432.761 60.216 432.313 60.808C431.865 61.384 431.641 62.216 431.641 63.304C431.641 64.392 431.865 65.232 432.313 65.824C432.761 66.4 433.361 66.688 434.113 66.688C435.169 66.688 435.881 66.176 436.249 65.152H440.617C440.265 66.72 439.521 67.952 438.385 68.848C437.249 69.744 435.849 70.192 434.185 70.192C432.873 70.192 431.705 69.912 430.681 69.352C429.673 68.792 428.881 67.992 428.305 66.952C427.745 65.912 427.465 64.696 427.465 63.304ZM448.908 70.192C447.596 70.192 446.412 69.912 445.356 69.352C444.316 68.792 443.492 67.992 442.884 66.952C442.292 65.912 441.996 64.696 441.996 63.304C441.996 61.928 442.3 60.72 442.908 59.68C443.516 58.624 444.348 57.816 445.404 57.256C446.46 56.696 447.644 56.416 448.956 56.416C450.268 56.416 451.452 56.696 452.508 57.256C453.564 57.816 454.396 58.624 455.004 59.68C455.612 60.72 455.916 61.928 455.916 63.304C455.916 64.68 455.604 65.896 454.98 66.952C454.372 67.992 453.532 68.792 452.46 69.352C451.404 69.912 450.22 70.192 448.908 70.192ZM448.908 66.64C449.692 66.64 450.356 66.352 450.9 65.776C451.46 65.2 451.74 64.376 451.74 63.304C451.74 62.232 451.468 61.408 450.924 60.832C450.396 60.256 449.74 59.968 448.956 59.968C448.156 59.968 447.492 60.256 446.964 60.832C446.436 61.392 446.172 62.216 446.172 63.304C446.172 64.376 446.428 65.2 446.94 65.776C447.468 66.352 448.124 66.64 448.908 66.64ZM462.197 52.24V70H458.093V52.24H462.197ZM469.276 52.24V70H465.172V52.24H469.276ZM471.434 63.28C471.434 61.904 471.69 60.696 472.202 59.656C472.73 58.616 473.442 57.816 474.338 57.256C475.234 56.696 476.234 56.416 477.338 56.416C478.282 56.416 479.106 56.608 479.81 56.992C480.53 57.376 481.082 57.88 481.466 58.504V56.608H485.57V70H481.466V68.104C481.066 68.728 480.506 69.232 479.786 69.616C479.082 70 478.258 70.192 477.314 70.192C476.226 70.192 475.234 69.912 474.338 69.352C473.442 68.776 472.73 67.968 472.202 66.928C471.69 65.872 471.434 64.656 471.434 63.28ZM481.466 63.304C481.466 62.28 481.178 61.472 480.602 60.88C480.042 60.288 479.354 59.992 478.538 59.992C477.722 59.992 477.026 60.288 476.45 60.88C475.89 61.456 475.61 62.256 475.61 63.28C475.61 64.304 475.89 65.12 476.45 65.728C477.026 66.32 477.722 66.616 478.538 66.616C479.354 66.616 480.042 66.32 480.602 65.728C481.178 65.136 481.466 64.328 481.466 63.304ZM492.643 58.504C493.027 57.88 493.579 57.376 494.299 56.992C495.019 56.608 495.843 56.416 496.771 56.416C497.875 56.416 498.875 56.696 499.771 57.256C500.667 57.816 501.371 58.616 501.883 59.656C502.411 60.696 502.675 61.904 502.675 63.28C502.675 64.656 502.411 65.872 501.883 66.928C501.371 67.968 500.667 68.776 499.771 69.352C498.875 69.912 497.875 70.192 496.771 70.192C495.827 70.192 495.003 70.008 494.299 69.64C493.595 69.256 493.043 68.752 492.643 68.128V70H488.539V52.24H492.643V58.504ZM498.499 63.28C498.499 62.256 498.211 61.456 497.635 60.88C497.075 60.288 496.379 59.992 495.547 59.992C494.731 59.992 494.035 60.288 493.459 60.88C492.899 61.472 492.619 62.28 492.619 63.304C492.619 64.328 492.899 65.136 493.459 65.728C494.035 66.32 494.731 66.616 495.547 66.616C496.363 66.616 497.059 66.32 497.635 65.728C498.211 65.12 498.499 64.304 498.499 63.28ZM510.924 70.192C509.612 70.192 508.428 69.912 507.372 69.352C506.332 68.792 505.508 67.992 504.9 66.952C504.308 65.912 504.012 64.696 504.012 63.304C504.012 61.928 504.316 60.72 504.924 59.68C505.532 58.624 506.364 57.816 507.42 57.256C508.476 56.696 509.66 56.416 510.972 56.416C512.284 56.416 513.468 56.696 514.524 57.256C515.58 57.816 516.412 58.624 517.02 59.68C517.628 60.72 517.932 61.928 517.932 63.304C517.932 64.68 517.62 65.896 516.996 66.952C516.388 67.992 515.548 68.792 514.476 69.352C513.42 69.912 512.236 70.192 510.924 70.192ZM510.924 66.64C511.708 66.64 512.372 66.352 512.916 65.776C513.476 65.2 513.756 64.376 513.756 63.304C513.756 62.232 513.484 61.408 512.94 60.832C512.412 60.256 511.756 59.968 510.972 59.968C510.172 59.968 509.508 60.256 508.98 60.832C508.452 61.392 508.188 62.216 508.188 63.304C508.188 64.376 508.444 65.2 508.956 65.776C509.484 66.352 510.14 66.64 510.924 66.64ZM524.213 58.84C524.693 58.104 525.293 57.528 526.013 57.112C526.733 56.68 527.533 56.464 528.413 56.464V60.808H527.285C526.261 60.808 525.493 61.032 524.981 61.48C524.469 61.912 524.213 62.68 524.213 63.784V70H520.109V56.608H524.213V58.84ZM529.559 63.28C529.559 61.904 529.815 60.696 530.327 59.656C530.855 58.616 531.567 57.816 532.463 57.256C533.359 56.696 534.359 56.416 535.463 56.416C536.407 56.416 537.231 56.608 537.935 56.992C538.655 57.376 539.207 57.88 539.591 58.504V56.608H543.695V70H539.591V68.104C539.191 68.728 538.631 69.232 537.911 69.616C537.207 70 536.383 70.192 535.439 70.192C534.351 70.192 533.359 69.912 532.463 69.352C531.567 68.776 530.855 67.968 530.327 66.928C529.815 65.872 529.559 64.656 529.559 63.28ZM539.591 63.304C539.591 62.28 539.303 61.472 538.727 60.88C538.167 60.288 537.479 59.992 536.663 59.992C535.847 59.992 535.151 60.288 534.575 60.88C534.015 61.456 533.735 62.256 533.735 63.28C533.735 64.304 534.015 65.12 534.575 65.728C535.151 66.32 535.847 66.616 536.663 66.616C537.479 66.616 538.167 66.32 538.727 65.728C539.303 65.136 539.591 64.328 539.591 63.304ZM554.128 66.52V70H552.04C550.552 70 549.392 69.64 548.56 68.92C547.728 68.184 547.312 66.992 547.312 65.344V60.016H545.68V56.608H547.312V53.344H551.416V56.608H554.104V60.016H551.416V65.392C551.416 65.792 551.512 66.08 551.704 66.256C551.896 66.432 552.216 66.52 552.664 66.52H554.128ZM558.478 55.216C557.758 55.216 557.166 55.008 556.702 54.592C556.254 54.16 556.03 53.632 556.03 53.008C556.03 52.368 556.254 51.84 556.702 51.424C557.166 50.992 557.758 50.776 558.478 50.776C559.182 50.776 559.758 50.992 560.206 51.424C560.67 51.84 560.902 52.368 560.902 53.008C560.902 53.632 560.67 54.16 560.206 54.592C559.758 55.008 559.182 55.216 558.478 55.216ZM560.518 56.608V70H556.414V56.608H560.518ZM569.516 66.16L572.42 56.608H576.788L572.036 70H566.972L562.22 56.608H566.612L569.516 66.16ZM591.139 63.088C591.139 63.472 591.115 63.872 591.067 64.288H581.779C581.843 65.12 582.107 65.76 582.571 66.208C583.051 66.64 583.635 66.856 584.323 66.856C585.347 66.856 586.059 66.424 586.459 65.56H590.827C590.603 66.44 590.195 67.232 589.603 67.936C589.027 68.64 588.299 69.192 587.419 69.592C586.539 69.992 585.555 70.192 584.467 70.192C583.155 70.192 581.987 69.912 580.963 69.352C579.939 68.792 579.139 67.992 578.563 66.952C577.987 65.912 577.699 64.696 577.699 63.304C577.699 61.912 577.979 60.696 578.539 59.656C579.115 58.616 579.915 57.816 580.939 57.256C581.963 56.696 583.139 56.416 584.467 56.416C585.763 56.416 586.915 56.688 587.923 57.232C588.931 57.776 589.715 58.552 590.275 59.56C590.851 60.568 591.139 61.744 591.139 63.088ZM586.939 62.008C586.939 61.304 586.699 60.744 586.219 60.328C585.739 59.912 585.139 59.704 584.419 59.704C583.731 59.704 583.147 59.904 582.667 60.304C582.203 60.704 581.915 61.272 581.803 62.008H586.939Z" fill="#6750A4"/>
<path opacity="0.5" d="M230.803 433.152V436.44H226.339V450H222.235V436.44H217.771V433.152H230.803ZM236.967 438.84C237.447 438.104 238.047 437.528 238.767 437.112C239.487 436.68 240.287 436.464 241.167 436.464V440.808H240.039C239.015 440.808 238.247 441.032 237.735 441.48C237.223 441.912 236.967 442.68 236.967 443.784V450H232.863V436.608H236.967V438.84ZM242.313 443.28C242.313 441.904 242.569 440.696 243.081 439.656C243.609 438.616 244.321 437.816 245.217 437.256C246.113 436.696 247.113 436.416 248.217 436.416C249.161 436.416 249.985 436.608 250.689 436.992C251.409 437.376 251.961 437.88 252.345 438.504V436.608H256.449V450H252.345V448.104C251.945 448.728 251.385 449.232 250.665 449.616C249.961 450 249.137 450.192 248.193 450.192C247.105 450.192 246.113 449.912 245.217 449.352C244.321 448.776 243.609 447.968 243.081 446.928C242.569 445.872 242.313 444.656 242.313 443.28ZM252.345 443.304C252.345 442.28 252.057 441.472 251.481 440.88C250.921 440.288 250.233 439.992 249.417 439.992C248.601 439.992 247.905 440.288 247.329 440.88C246.769 441.456 246.489 442.256 246.489 443.28C246.489 444.304 246.769 445.12 247.329 445.728C247.905 446.32 248.601 446.616 249.417 446.616C250.233 446.616 250.921 446.32 251.481 445.728C252.057 445.136 252.345 444.328 252.345 443.304ZM267.578 436.464C269.146 436.464 270.394 436.976 271.322 438C272.266 439.008 272.738 440.4 272.738 442.176V450H268.658V442.728C268.658 441.832 268.426 441.136 267.962 440.64C267.498 440.144 266.874 439.896 266.09 439.896C265.306 439.896 264.682 440.144 264.218 440.64C263.754 441.136 263.522 441.832 263.522 442.728V450H259.418V436.608H263.522V438.384C263.938 437.792 264.498 437.328 265.202 436.992C265.906 436.64 266.698 436.464 267.578 436.464ZM281.038 450.192C279.87 450.192 278.83 449.992 277.918 449.592C277.006 449.192 276.286 448.648 275.758 447.96C275.23 447.256 274.934 446.472 274.87 445.608H278.926C278.974 446.072 279.19 446.448 279.574 446.736C279.958 447.024 280.43 447.168 280.99 447.168C281.502 447.168 281.894 447.072 282.166 446.88C282.454 446.672 282.598 446.408 282.598 446.088C282.598 445.704 282.398 445.424 281.998 445.248C281.598 445.056 280.95 444.848 280.054 444.624C279.094 444.4 278.294 444.168 277.654 443.928C277.014 443.672 276.462 443.28 275.998 442.752C275.534 442.208 275.302 441.48 275.302 440.568C275.302 439.8 275.51 439.104 275.926 438.48C276.358 437.84 276.982 437.336 277.798 436.968C278.63 436.6 279.614 436.416 280.75 436.416C282.43 436.416 283.75 436.832 284.71 437.664C285.686 438.496 286.246 439.6 286.39 440.976H282.598C282.534 440.512 282.326 440.144 281.974 439.872C281.638 439.6 281.19 439.464 280.63 439.464C280.15 439.464 279.782 439.56 279.526 439.752C279.27 439.928 279.142 440.176 279.142 440.496C279.142 440.88 279.342 441.168 279.742 441.36C280.158 441.552 280.798 441.744 281.662 441.936C282.654 442.192 283.462 442.448 284.086 442.704C284.71 442.944 285.254 443.344 285.718 443.904C286.198 444.448 286.446 445.184 286.462 446.112C286.462 446.896 286.238 447.6 285.79 448.224C285.358 448.832 284.726 449.312 283.894 449.664C283.078 450.016 282.126 450.192 281.038 450.192ZM295.692 440.016H293.484V450H289.38V440.016H287.892V436.608H289.38V436.224C289.38 434.576 289.852 433.328 290.796 432.48C291.74 431.616 293.124 431.184 294.948 431.184C295.252 431.184 295.476 431.192 295.62 431.208V434.688C294.836 434.64 294.284 434.752 293.964 435.024C293.644 435.296 293.484 435.784 293.484 436.488V436.608H295.692V440.016ZM310.245 443.088C310.245 443.472 310.221 443.872 310.173 444.288H300.885C300.949 445.12 301.213 445.76 301.677 446.208C302.157 446.64 302.741 446.856 303.429 446.856C304.453 446.856 305.165 446.424 305.565 445.56H309.933C309.709 446.44 309.301 447.232 308.709 447.936C308.133 448.64 307.405 449.192 306.525 449.592C305.645 449.992 304.661 450.192 303.573 450.192C302.261 450.192 301.093 449.912 300.069 449.352C299.045 448.792 298.245 447.992 297.669 446.952C297.093 445.912 296.805 444.696 296.805 443.304C296.805 441.912 297.085 440.696 297.645 439.656C298.221 438.616 299.021 437.816 300.045 437.256C301.069 436.696 302.245 436.416 303.573 436.416C304.869 436.416 306.021 436.688 307.029 437.232C308.037 437.776 308.821 438.552 309.381 439.56C309.957 440.568 310.245 441.744 310.245 443.088ZM306.045 442.008C306.045 441.304 305.805 440.744 305.325 440.328C304.845 439.912 304.245 439.704 303.525 439.704C302.837 439.704 302.253 439.904 301.773 440.304C301.309 440.704 301.021 441.272 300.909 442.008H306.045ZM316.514 438.84C316.994 438.104 317.594 437.528 318.314 437.112C319.034 436.68 319.834 436.464 320.714 436.464V440.808H319.586C318.562 440.808 317.794 441.032 317.282 441.48C316.77 441.912 316.514 442.68 316.514 443.784V450H312.41V436.608H316.514V438.84ZM330.14 446.52V450H328.052C326.564 450 325.404 449.64 324.572 448.92C323.74 448.184 323.324 446.992 323.324 445.344V440.016H321.692V436.608H323.324V433.344H327.428V436.608H330.116V440.016H327.428V445.392C327.428 445.792 327.524 446.08 327.716 446.256C327.908 446.432 328.228 446.52 328.676 446.52H330.14ZM336.695 443.28C336.695 441.904 336.951 440.696 337.463 439.656C337.991 438.616 338.703 437.816 339.599 437.256C340.495 436.696 341.495 436.416 342.599 436.416C343.479 436.416 344.279 436.6 344.999 436.968C345.735 437.336 346.311 437.832 346.727 438.456V432.24H350.831V450H346.727V448.08C346.343 448.72 345.791 449.232 345.071 449.616C344.367 450 343.543 450.192 342.599 450.192C341.495 450.192 340.495 449.912 339.599 449.352C338.703 448.776 337.991 447.968 337.463 446.928C336.951 445.872 336.695 444.656 336.695 443.28ZM346.727 443.304C346.727 442.28 346.439 441.472 345.863 440.88C345.303 440.288 344.615 439.992 343.799 439.992C342.983 439.992 342.287 440.288 341.711 440.88C341.151 441.456 340.871 442.256 340.871 443.28C340.871 444.304 341.151 445.12 341.711 445.728C342.287 446.32 342.983 446.616 343.799 446.616C344.615 446.616 345.303 446.32 345.863 445.728C346.439 445.136 346.727 444.328 346.727 443.304ZM366.424 443.088C366.424 443.472 366.401 443.872 366.353 444.288H357.065C357.129 445.12 357.393 445.76 357.857 446.208C358.337 446.64 358.921 446.856 359.609 446.856C360.633 446.856 361.345 446.424 361.745 445.56H366.113C365.889 446.44 365.481 447.232 364.889 447.936C364.313 448.64 363.585 449.192 362.705 449.592C361.825 449.992 360.841 450.192 359.753 450.192C358.441 450.192 357.273 449.912 356.249 449.352C355.225 448.792 354.425 447.992 353.849 446.952C353.273 445.912 352.985 444.696 352.985 443.304C352.985 441.912 353.265 440.696 353.825 439.656C354.401 438.616 355.201 437.816 356.225 437.256C357.249 436.696 358.425 436.416 359.753 436.416C361.049 436.416 362.201 436.688 363.209 437.232C364.217 437.776 365.001 438.552 365.561 439.56C366.137 440.568 366.424 441.744 366.424 443.088ZM362.225 442.008C362.225 441.304 361.985 440.744 361.505 440.328C361.025 439.912 360.425 439.704 359.705 439.704C359.017 439.704 358.433 439.904 357.953 440.304C357.489 440.704 357.201 441.272 357.089 442.008H362.225ZM379.7 446.16L382.604 436.608H386.972L382.22 450H377.156L372.404 436.608H376.796L379.7 446.16ZM387.883 443.28C387.883 441.904 388.139 440.696 388.651 439.656C389.179 438.616 389.891 437.816 390.787 437.256C391.683 436.696 392.683 436.416 393.787 436.416C394.731 436.416 395.555 436.608 396.259 436.992C396.979 437.376 397.531 437.88 397.915 438.504V436.608H402.019V450H397.915V448.104C397.515 448.728 396.955 449.232 396.235 449.616C395.531 450 394.707 450.192 393.763 450.192C392.675 450.192 391.683 449.912 390.787 449.352C389.891 448.776 389.179 447.968 388.651 446.928C388.139 445.872 387.883 444.656 387.883 443.28ZM397.915 443.304C397.915 442.28 397.627 441.472 397.051 440.88C396.491 440.288 395.803 439.992 394.987 439.992C394.171 439.992 393.475 440.288 392.899 440.88C392.339 441.456 392.059 442.256 392.059 443.28C392.059 444.304 392.339 445.12 392.899 445.728C393.475 446.32 394.171 446.616 394.987 446.616C395.803 446.616 396.491 446.32 397.051 445.728C397.627 445.136 397.915 444.328 397.915 443.304ZM409.092 432.24V450H404.988V432.24H409.092ZM424.69 443.088C424.69 443.472 424.666 443.872 424.618 444.288H415.33C415.394 445.12 415.658 445.76 416.122 446.208C416.602 446.64 417.186 446.856 417.874 446.856C418.898 446.856 419.61 446.424 420.01 445.56H424.378C424.154 446.44 423.746 447.232 423.154 447.936C422.578 448.64 421.85 449.192 420.97 449.592C420.09 449.992 419.106 450.192 418.018 450.192C416.706 450.192 415.538 449.912 414.514 449.352C413.49 448.792 412.69 447.992 412.114 446.952C411.538 445.912 411.25 444.696 411.25 443.304C411.25 441.912 411.53 440.696 412.09 439.656C412.666 438.616 413.466 437.816 414.49 437.256C415.514 436.696 416.69 436.416 418.018 436.416C419.314 436.416 420.466 436.688 421.474 437.232C422.482 437.776 423.266 438.552 423.826 439.56C424.402 440.568 424.69 441.744 424.69 443.088ZM420.49 442.008C420.49 441.304 420.25 440.744 419.77 440.328C419.29 439.912 418.69 439.704 417.97 439.704C417.282 439.704 416.698 439.904 416.218 440.304C415.754 440.704 415.466 441.272 415.354 442.008H420.49ZM440.079 436.608V450H435.975V448.176C435.559 448.768 434.991 449.248 434.271 449.616C433.567 449.968 432.783 450.144 431.919 450.144C430.895 450.144 429.991 449.92 429.207 449.472C428.423 449.008 427.815 448.344 427.383 447.48C426.951 446.616 426.735 445.6 426.735 444.432V436.608H430.815V443.88C430.815 444.776 431.047 445.472 431.511 445.968C431.975 446.464 432.599 446.712 433.383 446.712C434.183 446.712 434.815 446.464 435.279 445.968C435.743 445.472 435.975 444.776 435.975 443.88V436.608H440.079ZM447.131 438.84C447.611 438.104 448.211 437.528 448.931 437.112C449.651 436.68 450.451 436.464 451.331 436.464V440.808H450.203C449.179 440.808 448.411 441.032 447.899 441.48C447.387 441.912 447.131 442.68 447.131 443.784V450H443.027V436.608H447.131V438.84Z" fill="#D81159"/>
</svg>
