<svg width="576" height="460" viewBox="0 0 576 460" fill="none" xmlns="http://www.w3.org/2000/svg">
<path opacity="0.5" d="M4.77559 86.44V89.848H10.2716V93.016H4.77559V96.712H10.9916V100H0.671594V83.152H10.9916V86.44H4.77559ZM8.51959 79.768L2.73559 82.192V79.36L8.51959 76.576V79.768ZM12.84 93.304C12.84 91.912 13.12 90.696 13.68 89.656C14.256 88.616 15.048 87.816 16.056 87.256C17.08 86.696 18.248 86.416 19.56 86.416C21.24 86.416 22.64 86.856 23.76 87.736C24.896 88.616 25.64 89.856 25.992 91.456H21.624C21.256 90.432 20.544 89.92 19.488 89.92C18.736 89.92 18.136 90.216 17.688 90.808C17.24 91.384 17.016 92.216 17.016 93.304C17.016 94.392 17.24 95.232 17.688 95.824C18.136 96.4 18.736 96.688 19.488 96.688C20.544 96.688 21.256 96.176 21.624 95.152H25.992C25.64 96.72 24.896 97.952 23.76 98.848C22.624 99.744 21.224 100.192 19.56 100.192C18.248 100.192 17.08 99.912 16.056 99.352C15.048 98.792 14.256 97.992 13.68 96.952C13.12 95.912 12.84 94.696 12.84 93.304ZM34.2832 100.192C32.9712 100.192 31.7872 99.912 30.7312 99.352C29.6912 98.792 28.8672 97.992 28.2592 96.952C27.6672 95.912 27.3712 94.696 27.3712 93.304C27.3712 91.928 27.6752 90.72 28.2832 89.68C28.8912 88.624 29.7232 87.816 30.7792 87.256C31.8352 86.696 33.0192 86.416 34.3312 86.416C35.6432 86.416 36.8272 86.696 37.8832 87.256C38.9392 87.816 39.7712 88.624 40.3792 89.68C40.9872 90.72 41.2912 91.928 41.2912 93.304C41.2912 94.68 40.9792 95.896 40.3552 96.952C39.7472 97.992 38.9072 98.792 37.8352 99.352C36.7792 99.912 35.5952 100.192 34.2832 100.192ZM34.2832 96.64C35.0672 96.64 35.7312 96.352 36.2752 95.776C36.8352 95.2 37.1152 94.376 37.1152 93.304C37.1152 92.232 36.8432 91.408 36.2992 90.832C35.7712 90.256 35.1152 89.968 34.3312 89.968C33.5312 89.968 32.8672 90.256 32.3392 90.832C31.8112 91.392 31.5472 92.216 31.5472 93.304C31.5472 94.376 31.8032 95.2 32.3152 95.776C32.8432 96.352 33.4992 96.64 34.2832 96.64ZM51.6285 86.464C53.1965 86.464 54.4445 86.976 55.3725 88C56.3165 89.008 56.7885 90.4 56.7885 92.176V100H52.7085V92.728C52.7085 91.832 52.4765 91.136 52.0125 90.64C51.5485 90.144 50.9245 89.896 50.1405 89.896C49.3565 89.896 48.7325 90.144 48.2685 90.64C47.8045 91.136 47.5725 91.832 47.5725 92.728V100H43.4685V86.608H47.5725V88.384C47.9885 87.792 48.5485 87.328 49.2525 86.992C49.9565 86.64 50.7485 86.464 51.6285 86.464ZM65.7363 100.192C64.4243 100.192 63.2403 99.912 62.1843 99.352C61.1443 98.792 60.3203 97.992 59.7123 96.952C59.1203 95.912 58.8243 94.696 58.8243 93.304C58.8243 91.928 59.1283 90.72 59.7363 89.68C60.3443 88.624 61.1763 87.816 62.2323 87.256C63.2883 86.696 64.4723 86.416 65.7843 86.416C67.0963 86.416 68.2803 86.696 69.3363 87.256C70.3923 87.816 71.2243 88.624 71.8323 89.68C72.4403 90.72 72.7443 91.928 72.7443 93.304C72.7443 94.68 72.4323 95.896 71.8083 96.952C71.2003 97.992 70.3603 98.792 69.2883 99.352C68.2323 99.912 67.0483 100.192 65.7363 100.192ZM65.7363 96.64C66.5203 96.64 67.1843 96.352 67.7283 95.776C68.2883 95.2 68.5683 94.376 68.5683 93.304C68.5683 92.232 68.2963 91.408 67.7523 90.832C67.2243 90.256 66.5683 89.968 65.7843 89.968C64.9843 89.968 64.3203 90.256 63.7923 90.832C63.2643 91.392 63.0003 92.216 63.0003 93.304C63.0003 94.376 63.2563 95.2 63.7683 95.776C64.2963 96.352 64.9523 96.64 65.7363 96.64ZM92.0096 86.464C93.6736 86.464 94.9936 86.968 95.9696 87.976C96.9616 88.984 97.4576 90.384 97.4576 92.176V100H93.3776V92.728C93.3776 91.864 93.1456 91.2 92.6816 90.736C92.2336 90.256 91.6096 90.016 90.8096 90.016C90.0096 90.016 89.3776 90.256 88.9136 90.736C88.4656 91.2 88.2416 91.864 88.2416 92.728V100H84.1616V92.728C84.1616 91.864 83.9296 91.2 83.4656 90.736C83.0176 90.256 82.3936 90.016 81.5936 90.016C80.7936 90.016 80.1616 90.256 79.6976 90.736C79.2496 91.2 79.0256 91.864 79.0256 92.728V100H74.9216V86.608H79.0256V88.288C79.4416 87.728 79.9856 87.288 80.6576 86.968C81.3296 86.632 82.0896 86.464 82.9376 86.464C83.9456 86.464 84.8416 86.68 85.6256 87.112C86.4256 87.544 87.0496 88.16 87.4976 88.96C87.9616 88.224 88.5936 87.624 89.3936 87.16C90.1936 86.696 91.0656 86.464 92.0096 86.464ZM102.392 85.216C101.672 85.216 101.08 85.008 100.616 84.592C100.168 84.16 99.9438 83.632 99.9438 83.008C99.9438 82.368 100.168 81.84 100.616 81.424C101.08 80.992 101.672 80.776 102.392 80.776C103.096 80.776 103.672 80.992 104.12 81.424C104.584 81.84 104.816 82.368 104.816 83.008C104.816 83.632 104.584 84.16 104.12 84.592C103.672 85.008 103.096 85.216 102.392 85.216ZM104.432 86.608V100H100.328V86.608H104.432ZM120.03 93.088C120.03 93.472 120.006 93.872 119.958 94.288H110.67C110.734 95.12 110.998 95.76 111.462 96.208C111.942 96.64 112.526 96.856 113.214 96.856C114.238 96.856 114.95 96.424 115.35 95.56H119.718C119.494 96.44 119.086 97.232 118.494 97.936C117.918 98.64 117.19 99.192 116.31 99.592C115.43 99.992 114.446 100.192 113.358 100.192C112.046 100.192 110.878 99.912 109.854 99.352C108.83 98.792 108.03 97.992 107.454 96.952C106.878 95.912 106.59 94.696 106.59 93.304C106.59 91.912 106.87 90.696 107.43 89.656C108.006 88.616 108.806 87.816 109.83 87.256C110.854 86.696 112.03 86.416 113.358 86.416C114.654 86.416 115.806 86.688 116.814 87.232C117.822 87.776 118.606 88.552 119.166 89.56C119.742 90.568 120.03 91.744 120.03 93.088ZM115.83 92.008C115.83 91.304 115.59 90.744 115.11 90.328C114.63 89.912 114.03 89.704 113.31 89.704C112.622 89.704 112.038 89.904 111.558 90.304C111.094 90.704 110.806 91.272 110.694 92.008H115.83ZM126.465 93.304C126.465 91.912 126.745 90.696 127.305 89.656C127.881 88.616 128.673 87.816 129.681 87.256C130.705 86.696 131.873 86.416 133.185 86.416C134.865 86.416 136.265 86.856 137.385 87.736C138.521 88.616 139.265 89.856 139.617 91.456H135.249C134.881 90.432 134.169 89.92 133.113 89.92C132.361 89.92 131.761 90.216 131.313 90.808C130.865 91.384 130.641 92.216 130.641 93.304C130.641 94.392 130.865 95.232 131.313 95.824C131.761 96.4 132.361 96.688 133.113 96.688C134.169 96.688 134.881 96.176 135.249 95.152H139.617C139.265 96.72 138.521 97.952 137.385 98.848C136.249 99.744 134.849 100.192 133.185 100.192C131.873 100.192 130.705 99.912 129.681 99.352C128.673 98.792 127.881 97.992 127.305 96.952C126.745 95.912 126.465 94.696 126.465 93.304ZM147.908 100.192C146.596 100.192 145.412 99.912 144.356 99.352C143.316 98.792 142.492 97.992 141.884 96.952C141.292 95.912 140.996 94.696 140.996 93.304C140.996 91.928 141.3 90.72 141.908 89.68C142.516 88.624 143.348 87.816 144.404 87.256C145.46 86.696 146.644 86.416 147.956 86.416C149.268 86.416 150.452 86.696 151.508 87.256C152.564 87.816 153.396 88.624 154.004 89.68C154.612 90.72 154.916 91.928 154.916 93.304C154.916 94.68 154.604 95.896 153.98 96.952C153.372 97.992 152.532 98.792 151.46 99.352C150.404 99.912 149.22 100.192 147.908 100.192ZM147.908 96.64C148.692 96.64 149.356 96.352 149.9 95.776C150.46 95.2 150.74 94.376 150.74 93.304C150.74 92.232 150.468 91.408 149.924 90.832C149.396 90.256 148.74 89.968 147.956 89.968C147.156 89.968 146.492 90.256 145.964 90.832C145.436 91.392 145.172 92.216 145.172 93.304C145.172 94.376 145.428 95.2 145.94 95.776C146.468 96.352 147.124 96.64 147.908 96.64ZM161.197 82.24V100H157.093V82.24H161.197ZM168.276 82.24V100H164.172V82.24H168.276ZM170.434 93.28C170.434 91.904 170.69 90.696 171.202 89.656C171.73 88.616 172.442 87.816 173.338 87.256C174.234 86.696 175.234 86.416 176.338 86.416C177.282 86.416 178.106 86.608 178.81 86.992C179.53 87.376 180.082 87.88 180.466 88.504V86.608H184.57V100H180.466V98.104C180.066 98.728 179.506 99.232 178.786 99.616C178.082 100 177.258 100.192 176.314 100.192C175.226 100.192 174.234 99.912 173.338 99.352C172.442 98.776 171.73 97.968 171.202 96.928C170.69 95.872 170.434 94.656 170.434 93.28ZM180.466 93.304C180.466 92.28 180.178 91.472 179.602 90.88C179.042 90.288 178.354 89.992 177.538 89.992C176.722 89.992 176.026 90.288 175.45 90.88C174.89 91.456 174.61 92.256 174.61 93.28C174.61 94.304 174.89 95.12 175.45 95.728C176.026 96.32 176.722 96.616 177.538 96.616C178.354 96.616 179.042 96.32 179.602 95.728C180.178 95.136 180.466 94.328 180.466 93.304ZM191.643 88.504C192.027 87.88 192.579 87.376 193.299 86.992C194.019 86.608 194.843 86.416 195.771 86.416C196.875 86.416 197.875 86.696 198.771 87.256C199.667 87.816 200.371 88.616 200.883 89.656C201.411 90.696 201.675 91.904 201.675 93.28C201.675 94.656 201.411 95.872 200.883 96.928C200.371 97.968 199.667 98.776 198.771 99.352C197.875 99.912 196.875 100.192 195.771 100.192C194.827 100.192 194.003 100.008 193.299 99.64C192.595 99.256 192.043 98.752 191.643 98.128V100H187.539V82.24H191.643V88.504ZM197.499 93.28C197.499 92.256 197.211 91.456 196.635 90.88C196.075 90.288 195.379 89.992 194.547 89.992C193.731 89.992 193.035 90.288 192.459 90.88C191.899 91.472 191.619 92.28 191.619 93.304C191.619 94.328 191.899 95.136 192.459 95.728C193.035 96.32 193.731 96.616 194.547 96.616C195.363 96.616 196.059 96.32 196.635 95.728C197.211 95.12 197.499 94.304 197.499 93.28ZM209.924 100.192C208.612 100.192 207.428 99.912 206.372 99.352C205.332 98.792 204.508 97.992 203.9 96.952C203.308 95.912 203.012 94.696 203.012 93.304C203.012 91.928 203.316 90.72 203.924 89.68C204.532 88.624 205.364 87.816 206.42 87.256C207.476 86.696 208.66 86.416 209.972 86.416C211.284 86.416 212.468 86.696 213.524 87.256C214.58 87.816 215.412 88.624 216.02 89.68C216.628 90.72 216.932 91.928 216.932 93.304C216.932 94.68 216.62 95.896 215.996 96.952C215.388 97.992 214.548 98.792 213.476 99.352C212.42 99.912 211.236 100.192 209.924 100.192ZM209.924 96.64C210.708 96.64 211.372 96.352 211.916 95.776C212.476 95.2 212.756 94.376 212.756 93.304C212.756 92.232 212.484 91.408 211.94 90.832C211.412 90.256 210.756 89.968 209.972 89.968C209.172 89.968 208.508 90.256 207.98 90.832C207.452 91.392 207.188 92.216 207.188 93.304C207.188 94.376 207.444 95.2 207.956 95.776C208.484 96.352 209.14 96.64 209.924 96.64ZM223.213 88.84C223.693 88.104 224.293 87.528 225.013 87.112C225.733 86.68 226.533 86.464 227.413 86.464V90.808H226.285C225.261 90.808 224.493 91.032 223.981 91.48C223.469 91.912 223.213 92.68 223.213 93.784V100H219.109V86.608H223.213V88.84ZM228.559 93.28C228.559 91.904 228.815 90.696 229.327 89.656C229.855 88.616 230.567 87.816 231.463 87.256C232.359 86.696 233.359 86.416 234.463 86.416C235.407 86.416 236.231 86.608 236.935 86.992C237.655 87.376 238.207 87.88 238.591 88.504V86.608H242.695V100H238.591V98.104C238.191 98.728 237.631 99.232 236.911 99.616C236.207 100 235.383 100.192 234.439 100.192C233.351 100.192 232.359 99.912 231.463 99.352C230.567 98.776 229.855 97.968 229.327 96.928C228.815 95.872 228.559 94.656 228.559 93.28ZM238.591 93.304C238.591 92.28 238.303 91.472 237.727 90.88C237.167 90.288 236.479 89.992 235.663 89.992C234.847 89.992 234.151 90.288 233.575 90.88C233.015 91.456 232.735 92.256 232.735 93.28C232.735 94.304 233.015 95.12 233.575 95.728C234.151 96.32 234.847 96.616 235.663 96.616C236.479 96.616 237.167 96.32 237.727 95.728C238.303 95.136 238.591 94.328 238.591 93.304ZM253.128 96.52V100H251.04C249.552 100 248.392 99.64 247.56 98.92C246.728 98.184 246.312 96.992 246.312 95.344V90.016H244.68V86.608H246.312V83.344H250.416V86.608H253.104V90.016H250.416V95.392C250.416 95.792 250.512 96.08 250.704 96.256C250.896 96.432 251.216 96.52 251.664 96.52H253.128ZM257.478 85.216C256.758 85.216 256.166 85.008 255.702 84.592C255.254 84.16 255.03 83.632 255.03 83.008C255.03 82.368 255.254 81.84 255.702 81.424C256.166 80.992 256.758 80.776 257.478 80.776C258.182 80.776 258.758 80.992 259.206 81.424C259.67 81.84 259.902 82.368 259.902 83.008C259.902 83.632 259.67 84.16 259.206 84.592C258.758 85.008 258.182 85.216 257.478 85.216ZM259.518 86.608V100H255.414V86.608H259.518ZM268.516 96.16L271.42 86.608H275.788L271.036 100H265.972L261.22 86.608H265.612L268.516 96.16ZM290.139 93.088C290.139 93.472 290.115 93.872 290.067 94.288H280.779C280.843 95.12 281.107 95.76 281.571 96.208C282.051 96.64 282.635 96.856 283.323 96.856C284.347 96.856 285.059 96.424 285.459 95.56H289.827C289.603 96.44 289.195 97.232 288.603 97.936C288.027 98.64 287.299 99.192 286.419 99.592C285.539 99.992 284.555 100.192 283.467 100.192C282.155 100.192 280.987 99.912 279.963 99.352C278.939 98.792 278.139 97.992 277.563 96.952C276.987 95.912 276.699 94.696 276.699 93.304C276.699 91.912 276.979 90.696 277.539 89.656C278.115 88.616 278.915 87.816 279.939 87.256C280.963 86.696 282.139 86.416 283.467 86.416C284.763 86.416 285.915 86.688 286.923 87.232C287.931 87.776 288.715 88.552 289.275 89.56C289.851 90.568 290.139 91.744 290.139 93.088ZM285.939 92.008C285.939 91.304 285.699 90.744 285.219 90.328C284.739 89.912 284.139 89.704 283.419 89.704C282.731 89.704 282.147 89.904 281.667 90.304C281.203 90.704 280.915 91.272 280.803 92.008H285.939Z" fill="#6750A4"/>
<path opacity="0.5" d="M202.803 442.152V445.44H198.339V459H194.235V445.44H189.771V442.152H202.803ZM208.967 447.84C209.447 447.104 210.047 446.528 210.767 446.112C211.487 445.68 212.287 445.464 213.167 445.464V449.808H212.039C211.015 449.808 210.247 450.032 209.735 450.48C209.223 450.912 208.967 451.68 208.967 452.784V459H204.863V445.608H208.967V447.84ZM214.313 452.28C214.313 450.904 214.569 449.696 215.081 448.656C215.609 447.616 216.321 446.816 217.217 446.256C218.113 445.696 219.113 445.416 220.217 445.416C221.161 445.416 221.985 445.608 222.689 445.992C223.409 446.376 223.961 446.88 224.345 447.504V445.608H228.449V459H224.345V457.104C223.945 457.728 223.385 458.232 222.665 458.616C221.961 459 221.137 459.192 220.193 459.192C219.105 459.192 218.113 458.912 217.217 458.352C216.321 457.776 215.609 456.968 215.081 455.928C214.569 454.872 214.313 453.656 214.313 452.28ZM224.345 452.304C224.345 451.28 224.057 450.472 223.481 449.88C222.921 449.288 222.233 448.992 221.417 448.992C220.601 448.992 219.905 449.288 219.329 449.88C218.769 450.456 218.489 451.256 218.489 452.28C218.489 453.304 218.769 454.12 219.329 454.728C219.905 455.32 220.601 455.616 221.417 455.616C222.233 455.616 222.921 455.32 223.481 454.728C224.057 454.136 224.345 453.328 224.345 452.304ZM239.578 445.464C241.146 445.464 242.394 445.976 243.322 447C244.266 448.008 244.738 449.4 244.738 451.176V459H240.658V451.728C240.658 450.832 240.426 450.136 239.962 449.64C239.498 449.144 238.874 448.896 238.09 448.896C237.306 448.896 236.682 449.144 236.218 449.64C235.754 450.136 235.522 450.832 235.522 451.728V459H231.418V445.608H235.522V447.384C235.938 446.792 236.498 446.328 237.202 445.992C237.906 445.64 238.698 445.464 239.578 445.464ZM253.038 459.192C251.87 459.192 250.83 458.992 249.918 458.592C249.006 458.192 248.286 457.648 247.758 456.96C247.23 456.256 246.934 455.472 246.87 454.608H250.926C250.974 455.072 251.19 455.448 251.574 455.736C251.958 456.024 252.43 456.168 252.99 456.168C253.502 456.168 253.894 456.072 254.166 455.88C254.454 455.672 254.598 455.408 254.598 455.088C254.598 454.704 254.398 454.424 253.998 454.248C253.598 454.056 252.95 453.848 252.054 453.624C251.094 453.4 250.294 453.168 249.654 452.928C249.014 452.672 248.462 452.28 247.998 451.752C247.534 451.208 247.302 450.48 247.302 449.568C247.302 448.8 247.51 448.104 247.926 447.48C248.358 446.84 248.982 446.336 249.798 445.968C250.63 445.6 251.614 445.416 252.75 445.416C254.43 445.416 255.75 445.832 256.71 446.664C257.686 447.496 258.246 448.6 258.39 449.976H254.598C254.534 449.512 254.326 449.144 253.974 448.872C253.638 448.6 253.19 448.464 252.63 448.464C252.15 448.464 251.782 448.56 251.526 448.752C251.27 448.928 251.142 449.176 251.142 449.496C251.142 449.88 251.342 450.168 251.742 450.36C252.158 450.552 252.798 450.744 253.662 450.936C254.654 451.192 255.462 451.448 256.086 451.704C256.71 451.944 257.254 452.344 257.718 452.904C258.198 453.448 258.446 454.184 258.462 455.112C258.462 455.896 258.238 456.6 257.79 457.224C257.358 457.832 256.726 458.312 255.894 458.664C255.078 459.016 254.126 459.192 253.038 459.192ZM267.692 449.016H265.484V459H261.38V449.016H259.892V445.608H261.38V445.224C261.38 443.576 261.852 442.328 262.796 441.48C263.74 440.616 265.124 440.184 266.948 440.184C267.252 440.184 267.476 440.192 267.62 440.208V443.688C266.836 443.64 266.284 443.752 265.964 444.024C265.644 444.296 265.484 444.784 265.484 445.488V445.608H267.692V449.016ZM282.245 452.088C282.245 452.472 282.221 452.872 282.173 453.288H272.885C272.949 454.12 273.213 454.76 273.677 455.208C274.157 455.64 274.741 455.856 275.429 455.856C276.453 455.856 277.165 455.424 277.565 454.56H281.933C281.709 455.44 281.301 456.232 280.709 456.936C280.133 457.64 279.405 458.192 278.525 458.592C277.645 458.992 276.661 459.192 275.573 459.192C274.261 459.192 273.093 458.912 272.069 458.352C271.045 457.792 270.245 456.992 269.669 455.952C269.093 454.912 268.805 453.696 268.805 452.304C268.805 450.912 269.085 449.696 269.645 448.656C270.221 447.616 271.021 446.816 272.045 446.256C273.069 445.696 274.245 445.416 275.573 445.416C276.869 445.416 278.021 445.688 279.029 446.232C280.037 446.776 280.821 447.552 281.381 448.56C281.957 449.568 282.245 450.744 282.245 452.088ZM278.045 451.008C278.045 450.304 277.805 449.744 277.325 449.328C276.845 448.912 276.245 448.704 275.525 448.704C274.837 448.704 274.253 448.904 273.773 449.304C273.309 449.704 273.021 450.272 272.909 451.008H278.045ZM288.514 447.84C288.994 447.104 289.594 446.528 290.314 446.112C291.034 445.68 291.834 445.464 292.714 445.464V449.808H291.586C290.562 449.808 289.794 450.032 289.282 450.48C288.77 450.912 288.514 451.68 288.514 452.784V459H284.41V445.608H288.514V447.84ZM302.14 455.52V459H300.052C298.564 459 297.404 458.64 296.572 457.92C295.74 457.184 295.324 455.992 295.324 454.344V449.016H293.692V445.608H295.324V442.344H299.428V445.608H302.116V449.016H299.428V454.392C299.428 454.792 299.524 455.08 299.716 455.256C299.908 455.432 300.228 455.52 300.676 455.52H302.14ZM308.695 452.28C308.695 450.904 308.951 449.696 309.463 448.656C309.991 447.616 310.703 446.816 311.599 446.256C312.495 445.696 313.495 445.416 314.599 445.416C315.479 445.416 316.279 445.6 316.999 445.968C317.735 446.336 318.311 446.832 318.727 447.456V441.24H322.831V459H318.727V457.08C318.343 457.72 317.791 458.232 317.071 458.616C316.367 459 315.543 459.192 314.599 459.192C313.495 459.192 312.495 458.912 311.599 458.352C310.703 457.776 309.991 456.968 309.463 455.928C308.951 454.872 308.695 453.656 308.695 452.28ZM318.727 452.304C318.727 451.28 318.439 450.472 317.863 449.88C317.303 449.288 316.615 448.992 315.799 448.992C314.983 448.992 314.287 449.288 313.711 449.88C313.151 450.456 312.871 451.256 312.871 452.28C312.871 453.304 313.151 454.12 313.711 454.728C314.287 455.32 314.983 455.616 315.799 455.616C316.615 455.616 317.303 455.32 317.863 454.728C318.439 454.136 318.727 453.328 318.727 452.304ZM338.424 452.088C338.424 452.472 338.401 452.872 338.353 453.288H329.065C329.129 454.12 329.393 454.76 329.857 455.208C330.337 455.64 330.921 455.856 331.609 455.856C332.633 455.856 333.345 455.424 333.745 454.56H338.113C337.889 455.44 337.481 456.232 336.889 456.936C336.313 457.64 335.585 458.192 334.705 458.592C333.825 458.992 332.841 459.192 331.753 459.192C330.441 459.192 329.273 458.912 328.249 458.352C327.225 457.792 326.425 456.992 325.849 455.952C325.273 454.912 324.985 453.696 324.985 452.304C324.985 450.912 325.265 449.696 325.825 448.656C326.401 447.616 327.201 446.816 328.225 446.256C329.249 445.696 330.425 445.416 331.753 445.416C333.049 445.416 334.201 445.688 335.209 446.232C336.217 446.776 337.001 447.552 337.561 448.56C338.137 449.568 338.424 450.744 338.424 452.088ZM334.225 451.008C334.225 450.304 333.985 449.744 333.505 449.328C333.025 448.912 332.425 448.704 331.705 448.704C331.017 448.704 330.433 448.904 329.953 449.304C329.489 449.704 329.201 450.272 329.089 451.008H334.225ZM351.7 455.16L354.604 445.608H358.972L354.22 459H349.156L344.404 445.608H348.796L351.7 455.16ZM359.883 452.28C359.883 450.904 360.139 449.696 360.651 448.656C361.179 447.616 361.891 446.816 362.787 446.256C363.683 445.696 364.683 445.416 365.787 445.416C366.731 445.416 367.555 445.608 368.259 445.992C368.979 446.376 369.531 446.88 369.915 447.504V445.608H374.019V459H369.915V457.104C369.515 457.728 368.955 458.232 368.235 458.616C367.531 459 366.707 459.192 365.763 459.192C364.675 459.192 363.683 458.912 362.787 458.352C361.891 457.776 361.179 456.968 360.651 455.928C360.139 454.872 359.883 453.656 359.883 452.28ZM369.915 452.304C369.915 451.28 369.627 450.472 369.051 449.88C368.491 449.288 367.803 448.992 366.987 448.992C366.171 448.992 365.475 449.288 364.899 449.88C364.339 450.456 364.059 451.256 364.059 452.28C364.059 453.304 364.339 454.12 364.899 454.728C365.475 455.32 366.171 455.616 366.987 455.616C367.803 455.616 368.491 455.32 369.051 454.728C369.627 454.136 369.915 453.328 369.915 452.304ZM381.092 441.24V459H376.988V441.24H381.092ZM396.69 452.088C396.69 452.472 396.666 452.872 396.618 453.288H387.33C387.394 454.12 387.658 454.76 388.122 455.208C388.602 455.64 389.186 455.856 389.874 455.856C390.898 455.856 391.61 455.424 392.01 454.56H396.378C396.154 455.44 395.746 456.232 395.154 456.936C394.578 457.64 393.85 458.192 392.97 458.592C392.09 458.992 391.106 459.192 390.018 459.192C388.706 459.192 387.538 458.912 386.514 458.352C385.49 457.792 384.69 456.992 384.114 455.952C383.538 454.912 383.25 453.696 383.25 452.304C383.25 450.912 383.53 449.696 384.09 448.656C384.666 447.616 385.466 446.816 386.49 446.256C387.514 445.696 388.69 445.416 390.018 445.416C391.314 445.416 392.466 445.688 393.474 446.232C394.482 446.776 395.266 447.552 395.826 448.56C396.402 449.568 396.69 450.744 396.69 452.088ZM392.49 451.008C392.49 450.304 392.25 449.744 391.77 449.328C391.29 448.912 390.69 448.704 389.97 448.704C389.282 448.704 388.698 448.904 388.218 449.304C387.754 449.704 387.466 450.272 387.354 451.008H392.49ZM412.079 445.608V459H407.975V457.176C407.559 457.768 406.991 458.248 406.271 458.616C405.567 458.968 404.783 459.144 403.919 459.144C402.895 459.144 401.991 458.92 401.207 458.472C400.423 458.008 399.815 457.344 399.383 456.48C398.951 455.616 398.735 454.6 398.735 453.432V445.608H402.815V452.88C402.815 453.776 403.047 454.472 403.511 454.968C403.975 455.464 404.599 455.712 405.383 455.712C406.183 455.712 406.815 455.464 407.279 454.968C407.743 454.472 407.975 453.776 407.975 452.88V445.608H412.079ZM419.131 447.84C419.611 447.104 420.211 446.528 420.931 446.112C421.651 445.68 422.451 445.464 423.331 445.464V449.808H422.203C421.179 449.808 420.411 450.032 419.899 450.48C419.387 450.912 419.131 451.68 419.131 452.784V459H415.027V445.608H419.131V447.84Z" fill="#D81159"/>
<path fill-rule="evenodd" clip-rule="evenodd" d="M400.935 85.3421C456.94 81.0976 522.92 73.48 557.835 117.415C592.711 161.301 569.483 223.455 553.333 277.11C539.022 324.652 519.344 373.511 474.377 394.673C429.77 415.666 378.918 401.531 334.528 380.086C290.261 358.7 249.107 327.327 236.642 279.822C223.745 230.67 238.494 177.968 271.303 139.132C303.048 101.554 351.846 89.0625 400.935 85.3421Z" fill="#FBE7EE"/>
<path d="M284.821 174.438C301.129 173.269 316.904 167.033 329.756 156.952C336.297 151.819 341.937 145.708 346.659 138.872C351.941 131.229 356.373 122.921 362.751 116.093C365.946 112.674 369.664 109.627 374.08 107.948C378.741 106.175 383.811 105.759 388.711 105.07C393.9 104.335 399.081 103.546 404.253 102.703C408.987 101.93 413.844 101.318 418.429 99.8601C422.184 98.6945 425.606 96.6497 428.412 93.8955C430.999 91.3574 433.152 88.4281 435.431 85.6218C437.692 82.8391 440.121 80.0812 443.195 78.1645C447.25 75.6474 451.917 75.3281 456.569 75.5126C461.035 75.6892 465.433 75.981 469.896 75.5388C473.995 75.1293 478.041 74.3012 481.971 73.0674C489.912 70.5837 497.26 66.5019 503.565 61.0729C505.136 59.7107 506.634 58.2665 508.052 56.7464C508.224 56.5619 507.948 56.2832 507.774 56.469C495.934 69.1268 478.705 76.1118 461.4 75.3648C456.894 75.1698 452.264 74.6243 447.833 75.7573C444.401 76.6338 441.462 78.6067 438.96 81.0663C433.843 86.0928 430.371 92.8581 424.215 96.796C420.234 99.342 415.537 100.364 410.946 101.176C405.844 102.078 400.735 102.887 395.618 103.662C390.647 104.413 385.631 104.97 380.675 105.834C376.129 106.619 371.875 108.05 368.107 110.767C360.975 115.913 356.082 123.623 351.41 130.915C346.638 138.359 341.722 145.555 335.276 151.671C323.21 163.118 307.621 170.824 291.173 173.342C289.065 173.665 286.946 173.895 284.82 174.049C284.57 174.066 284.567 174.458 284.82 174.441L284.821 174.438Z" fill="#E9E3E0"/>
<path d="M290.884 183.721C307.192 182.553 322.967 176.316 335.819 166.234C342.36 161.102 347.999 154.991 352.722 148.156C358.002 140.512 362.435 132.205 368.814 125.376C372.007 121.956 375.727 118.91 380.142 117.232C384.804 115.459 389.874 115.042 394.773 114.354C399.962 113.621 405.142 112.832 410.314 111.988C415.049 111.215 419.907 110.601 424.491 109.144C428.246 107.979 431.669 105.934 434.475 103.181C437.06 100.641 439.214 97.712 441.494 94.907C443.755 92.1242 446.183 89.365 449.256 87.4496C453.312 84.9312 457.978 84.6119 462.632 84.7964C467.097 84.9743 471.496 85.2661 475.958 84.8226C480.061 84.4148 484.111 83.5871 488.045 82.3525C495.983 79.8696 503.33 75.7881 509.631 70.3593C511.202 68.9966 512.7 67.552 514.119 66.0315C514.292 65.847 514.014 65.5696 513.842 65.7541C502.001 78.4132 484.771 85.3969 467.468 84.6499C462.96 84.4563 458.332 83.9107 453.899 85.0424C450.468 85.9176 447.53 87.8905 445.026 90.3501C439.911 95.3766 436.437 102.142 430.282 106.08C426.301 108.627 421.604 109.649 417.013 110.461C411.911 111.363 406.808 112.173 401.685 112.947C396.713 113.699 391.699 114.255 386.743 115.12C382.195 115.905 377.943 117.335 374.174 120.054C367.041 125.198 362.149 132.909 357.476 140.202C352.705 147.645 347.795 154.84 341.344 160.956C329.277 172.404 313.687 180.109 297.239 182.628C295.133 182.95 293.016 183.185 290.888 183.334C290.636 183.352 290.635 183.744 290.888 183.726L290.884 183.721Z" fill="#E9E3E0"/>
<path d="M296.953 193.004C313.261 191.835 329.037 185.599 341.889 175.518C348.431 170.385 354.07 164.274 358.791 157.438C364.073 149.795 368.505 141.487 374.883 134.659C378.078 131.24 381.798 128.193 386.212 126.514C390.873 124.741 395.943 124.325 400.844 123.636C406.033 122.901 411.213 122.112 416.385 121.269C421.119 120.496 425.976 119.884 430.561 118.426C434.316 117.261 437.738 115.216 440.544 112.462C443.131 109.923 445.284 106.994 447.563 104.188C449.825 101.405 452.254 98.6472 455.327 96.7306C459.382 94.2121 464.049 93.8942 468.701 94.0786C473.167 94.2553 477.567 94.547 482.028 94.1048C486.127 93.6953 490.173 92.8672 494.103 91.6334C502.042 89.1489 509.388 85.0671 515.69 79.6389C517.261 78.2767 518.759 76.8325 520.178 75.3124C520.351 75.1279 520.073 74.8492 519.901 75.0337C508.059 87.6928 490.83 94.6778 473.525 93.9308C469.019 93.7359 464.389 93.1903 459.958 94.3233C456.526 95.1998 453.588 97.1728 451.085 99.6324C445.968 104.659 442.496 111.424 436.341 115.362C432.36 117.908 427.663 118.93 423.072 119.742C417.97 120.644 412.867 121.453 407.744 122.228C402.772 122.979 397.756 123.536 392.8 124.4C388.254 125.185 384.001 126.616 380.233 129.333C373.1 134.479 368.207 142.189 363.535 149.481C358.764 156.925 353.854 164.121 347.401 170.237C335.336 181.684 319.746 189.39 303.298 191.908C301.191 192.231 299.073 192.461 296.945 192.615C296.695 192.632 296.693 193.024 296.945 193.007L296.953 193.004Z" fill="#E9E3E0"/>
<path d="M303.02 202.286C319.328 201.118 335.103 194.881 347.955 184.8C354.496 179.667 360.135 173.556 364.858 166.722C370.139 159.077 374.571 150.771 380.95 143.942C384.145 140.522 387.863 137.476 392.278 135.797C396.94 134.025 402.01 133.607 406.909 132.919C412.098 132.186 417.278 131.398 422.45 130.552C427.185 129.78 432.043 129.167 436.627 127.709C440.382 126.544 443.805 124.5 446.611 121.746C449.197 119.207 451.349 116.278 453.63 113.473C455.891 110.69 458.32 107.931 461.392 106.015C465.448 103.497 470.116 103.178 474.768 103.362C479.233 103.54 483.632 103.832 488.094 103.388C492.193 102.981 496.24 102.156 500.17 100.923C508.109 98.4404 515.455 94.3589 521.757 88.9301C523.328 87.5674 524.826 86.1228 526.244 84.6023C526.417 84.4178 526.14 84.1404 525.967 84.3249C514.127 96.984 496.897 103.968 479.593 103.221C475.086 103.027 470.457 102.481 466.025 103.613C462.593 104.488 459.656 106.461 457.152 108.921C452.036 113.947 448.564 120.713 442.407 124.651C438.427 127.198 433.731 128.22 429.138 129.032C424.036 129.934 418.934 130.743 413.81 131.518C408.839 132.27 403.824 132.826 398.868 133.691C394.321 134.476 390.069 135.906 386.299 138.625C379.168 143.769 374.275 151.48 369.602 158.772C364.83 166.215 359.92 173.411 353.469 179.527C341.403 190.975 325.814 198.679 309.365 201.199C307.259 201.521 305.141 201.756 303.013 201.904C302.762 201.923 302.761 202.315 303.013 202.297L303.02 202.286Z" fill="#E9E3E0"/>
<path d="M309.085 211.57C325.393 210.401 341.169 204.165 354.021 194.084C360.562 188.951 366.201 182.84 370.924 176.004C376.204 168.361 380.637 160.053 387.016 153.225C390.211 149.805 393.93 146.758 398.346 145.08C403.006 143.307 408.076 142.891 412.977 142.202C418.165 141.468 423.346 140.679 428.518 139.835C433.251 139.062 438.109 138.449 442.695 136.992C446.449 135.826 449.871 133.781 452.677 131.027C455.264 128.489 457.417 125.56 459.696 122.754C461.958 119.971 464.386 117.213 467.46 115.296C471.509 112.778 476.182 112.46 480.836 112.645C485.301 112.821 489.699 113.113 494.161 112.671C498.26 112.261 502.306 111.432 506.236 110.199C514.175 107.715 521.521 103.633 527.823 98.2048C529.394 96.8426 530.892 95.3984 532.311 93.8783C532.483 93.6938 532.206 93.4152 532.033 93.5996C520.192 106.259 502.963 113.244 485.659 112.497C481.152 112.302 476.523 111.756 472.091 112.889C468.659 113.766 465.721 115.739 463.218 118.198C458.101 123.225 454.629 129.99 448.473 133.927C444.492 136.474 439.796 137.496 435.205 138.308C430.102 139.21 424.993 140.019 419.877 140.794C414.905 141.545 409.889 142.102 404.935 142.966C400.387 143.751 396.135 145.182 392.366 147.899C385.233 153.045 380.34 160.755 375.668 168.047C370.897 175.491 365.986 182.687 359.534 188.803C347.469 200.25 331.879 207.955 315.431 210.474C313.323 210.797 311.205 211.027 309.078 211.18C308.828 211.197 308.827 211.59 309.078 211.573L309.085 211.57Z" fill="#E9E3E0"/>
<path d="M347.944 191.691C350.011 197.14 355.179 201.286 360.946 202.122C362.399 202.332 363.884 202.349 365.31 202.701C368.86 203.578 371.548 206.365 374.372 208.689C377.195 211.014 380.846 213.046 384.355 212.02C386.031 211.53 387.495 210.372 389.234 210.167C391.539 209.896 393.724 211.365 396.037 211.391C397.922 211.412 399.713 210.46 401.087 209.167C402.461 207.874 403.48 206.261 404.489 204.665C405.004 203.845 405.535 202.942 405.438 201.979C405.289 200.569 403.891 199.691 402.674 198.97C397.233 195.716 392.454 191.251 386.527 188.998C382.431 187.439 377.994 187.021 373.776 185.828C368.064 184.214 362.787 181.188 356.965 180.025C354.803 179.593 352.418 179.462 350.534 180.605" fill="#101010"/>
<path d="M373.709 91.7944C373.602 90.9356 373.284 90.1167 372.783 89.4107C371.858 88.1024 370.474 87.1932 369.082 86.3938C367.69 85.5944 366.242 84.8644 365.054 83.785C363.85 82.6821 362.96 81.2469 361.621 80.3076C359.632 78.909 356.928 78.7913 355.018 77.288C354.11 76.5737 353.498 75.5663 352.522 74.9239C351.748 74.415 350.755 74.1546 349.883 74.4608C348.305 75.0194 348.161 76.8982 346.813 77.6884C346.018 78.1554 344.779 78.264 344.622 79.1733C344.415 80.3665 346.431 80.8374 346.603 82.0358C345.877 81.6774 345.137 81.315 344.337 81.1907C343.536 81.0664 342.654 81.2155 342.067 81.7716C341.479 82.3276 341.282 83.1832 341.052 83.9656C340.584 85.5368 339.84 87.0118 338.854 88.3209C338.252 89.1203 337.518 90.0583 337.835 91.0082C338.096 91.7931 338.96 92.1739 339.747 92.4133C343.411 93.5279 347.448 93.5044 350.839 95.2915C354.186 97.0525 356.494 100.37 359.813 102.181C362.158 103.45 364.862 103.894 367.49 103.444C367.448 103.12 367.847 102.954 368.144 102.813C368.88 102.457 369.29 101.668 369.614 100.917C370.399 99.0856 370.999 97.1336 372.204 95.544C372.596 95.0207 373.058 94.5419 373.357 93.961C373.688 93.2901 373.811 92.5356 373.709 91.7944V91.7944Z" fill="#020A44"/>
<path d="M407.082 107.055C406.918 106.939 406.697 106.947 406.541 107.074C406.386 107.201 406.334 107.416 406.415 107.6C406.442 107.662 406.47 107.722 406.497 107.781C406.879 108.592 407.261 109.404 407.644 110.217C406.968 109.553 406.267 108.874 405.386 108.526C405.047 108.396 404.661 108.311 404.325 108.49C404.155 108.576 404.034 108.736 403.995 108.923C403.941 109.232 404.154 109.427 404.353 109.601L404.476 109.708C404.074 109.519 403.492 109.612 403.534 110.107C403.546 110.215 403.584 110.317 403.646 110.406L404.983 112.423C404.534 111.95 404.027 111.536 403.473 111.191C403.222 111.034 402.94 110.887 402.639 110.955C402.473 110.987 402.336 111.104 402.279 111.263C402.208 111.483 402.34 111.642 402.47 111.779C402.6 111.916 402.747 112.061 402.895 112.194C402.989 112.279 403.019 112.413 402.971 112.53C402.923 112.647 402.807 112.722 402.681 112.717C402.46 112.707 402.24 112.73 402.026 112.785C401.011 113.054 400.382 114.237 400.615 115.263C400.77 115.879 401.158 116.41 401.697 116.746C402.17 117.046 402.723 117.195 403.282 117.176C405.376 117.13 407.469 116.342 408.864 114.788C409.255 114.383 409.55 113.896 409.727 113.362C409.956 112.569 409.778 111.719 409.537 110.93C409.078 109.445 408.314 107.939 407.082 107.055V107.055Z" fill="#FFD1BB"/>
<path d="M386.994 136.893C384.655 134.724 384.201 134.998 373.257 122.666L374.833 112.892C377.59 113.006 378.917 114.152 379.564 114.738C385.975 120.54 392.221 129.415 394.173 132.557C395.253 134.299 396.862 136.239 395.873 138.034C395.039 139.551 393.004 140.069 391.326 139.647C389.647 139.224 388.263 138.07 386.994 136.893V136.893Z" fill="#FFD1BB"/>
<path d="M389.592 137.436C390.502 139.791 393.551 140.445 395.383 138.701C397.858 136.346 399.177 134.539 401.356 127.057C404.332 116.869 404.808 114.988 404.808 114.988L400.859 114.007C400.859 114.007 388.729 129.267 389.055 134.764C389.095 135.677 389.276 136.578 389.592 137.436Z" fill="#FFD1BB"/>
<path d="M391.054 128.368C390.132 129.81 389.468 131.401 389.091 133.07C389.036 133.316 389.415 133.422 389.469 133.175C389.838 131.538 390.489 129.979 391.394 128.567C391.525 128.352 391.19 128.156 391.054 128.368Z" fill="#101010"/>
<path d="M404.808 109.99C405.511 110.455 406.247 110.945 406.667 111.7C406.79 111.92 407.129 111.722 407.006 111.501C406.552 110.688 405.764 110.152 405.006 109.651C404.795 109.511 404.597 109.85 404.808 109.99V109.99Z" fill="#101010"/>
<path d="M405.028 112.746C405.136 112.746 405.224 112.659 405.224 112.55C405.224 112.442 405.136 112.354 405.028 112.354C404.919 112.354 404.832 112.442 404.832 112.55C404.832 112.659 404.919 112.746 405.028 112.746V112.746Z" fill="#101010"/>
<path d="M408.039 110.985C408.148 110.985 408.236 110.897 408.236 110.789C408.236 110.68 408.148 110.592 408.039 110.592C407.931 110.592 407.843 110.68 407.843 110.789C407.843 110.897 407.931 110.985 408.039 110.985V110.985Z" fill="#101010"/>
<path d="M301.701 105.776C301.808 106.594 301.996 107.443 302.533 108.07C302.915 108.483 303.385 108.805 303.908 109.013C305.814 109.853 308.056 109.701 309.977 108.882C310.495 108.669 310.936 108.304 311.243 107.835C311.593 107.307 311.725 106.663 311.611 106.039C311.4 105.011 310.339 104.192 309.302 104.366C309.085 104.404 308.875 104.475 308.679 104.575C308.565 104.634 308.426 104.615 308.333 104.526C308.24 104.437 308.213 104.299 308.267 104.183C308.347 104.002 308.419 103.818 308.483 103.631C308.547 103.444 308.599 103.252 308.444 103.082C308.325 102.961 308.152 102.912 307.987 102.952C307.687 103.014 307.49 103.266 307.333 103.512C306.972 104.055 306.68 104.641 306.465 105.257C306.594 104.461 306.722 103.665 306.85 102.868C306.871 102.762 306.864 102.652 306.829 102.55C306.664 102.082 306.095 102.237 305.807 102.575L305.874 102.426C305.984 102.186 306.097 101.921 305.92 101.662C305.809 101.506 305.632 101.409 305.441 101.4C305.062 101.375 304.742 101.609 304.49 101.871C303.836 102.551 303.473 103.461 303.132 104.342C303.143 103.445 303.156 102.547 303.17 101.65C303.17 101.586 303.17 101.519 303.17 101.454C303.167 101.253 303.032 101.079 302.838 101.027C302.644 100.976 302.44 101.059 302.338 101.231C301.574 102.55 301.499 104.236 301.701 105.776V105.776Z" fill="#FFD1BB"/>
<path d="M331.644 124.634C334.676 123.643 334.973 124.081 350.071 117.462L352.73 107.923C350.18 106.877 348.495 107.361 347.66 107.621C339.405 110.205 330.024 115.653 326.936 117.695C325.227 118.823 322.953 119.919 323.098 121.955C323.22 123.682 324.851 125.005 326.553 125.324C328.255 125.643 330.002 125.172 331.644 124.634V124.634Z" fill="#FFD1BB"/>
<path d="M330.809 121.678C330.954 124.201 328.445 126.051 326.058 125.222C322.832 124.103 320.887 122.998 315.81 117.093C308.892 109.044 307.681 107.526 307.681 107.526L310.868 104.992C310.868 104.992 328.218 113.876 330.194 119.02C330.535 119.869 330.742 120.766 330.809 121.678V121.678Z" fill="#FFD1BB"/>
<path d="M325.52 114.355C326.913 115.258 328.139 116.397 329.141 117.721C329.292 117.92 329.633 117.721 329.48 117.522C328.44 116.143 327.167 114.956 325.718 114.016C325.506 113.877 325.308 114.217 325.52 114.355V114.355Z" fill="#101010"/>
<path d="M305.286 102.756C304.798 103.531 304.316 104.34 304.239 105.273C304.218 105.524 304.611 105.523 304.632 105.273C304.705 104.417 305.181 103.663 305.627 102.953C305.758 102.739 305.422 102.542 305.288 102.756H305.286Z" fill="#101010"/>
<path d="M306.472 105.588C306.581 105.588 306.668 105.5 306.668 105.392C306.668 105.283 306.581 105.195 306.472 105.195C306.364 105.195 306.276 105.283 306.276 105.392C306.276 105.5 306.364 105.588 306.472 105.588V105.588Z" fill="#101010"/>
<path d="M303.001 105.228C303.11 105.228 303.198 105.141 303.198 105.032C303.198 104.924 303.11 104.836 303.001 104.836C302.893 104.836 302.805 104.924 302.805 105.032C302.805 105.141 302.893 105.228 303.001 105.228V105.228Z" fill="#101010"/>
<path d="M311.745 165.635L316.436 171.744L321.29 169.185L315.412 157.487C315.22 157.165 314.82 157.036 314.476 157.183L304.098 161.646C303.898 161.731 303.779 161.938 303.806 162.154C303.833 162.369 303.998 162.541 304.213 162.576L307.472 163.099C309.168 163.367 310.697 164.275 311.745 165.635V165.635Z" fill="#FFD1BB"/>
<path d="M369.003 146.248L350.113 147.346C353.8 164.734 383.017 181.635 385.384 183.174C387.75 184.712 389.178 195.856 397.646 205.361C410.274 219.53 415.21 227.263 415.21 227.263L421.229 224.592C395.628 174.439 369.003 146.248 369.003 146.248V146.248Z" fill="#FFD1BB"/>
<path d="M362.759 98.7285L358.303 113.746L365.945 116.783L368.695 105.526L362.759 98.7285Z" fill="#FFD1BB"/>
<path d="M373.506 93.6651C373.727 95.379 373.686 97.4212 374.908 98.6144C375.015 98.7134 375.075 98.8523 375.075 98.9977C375.075 99.1432 375.015 99.282 374.908 99.3811L374.65 99.6152C374.474 99.7797 374.391 100.021 374.429 100.259C374.645 101.595 374.981 106.366 370.928 106.424C367.972 106.465 364.796 106.132 362.546 104.094C358.442 100.378 357.369 92.7702 361.599 88.7184C365.515 84.9688 371.999 87.6966 373.307 92.6106C373.396 92.9574 373.462 93.3097 373.506 93.6651V93.6651Z" fill="#FFD1BB"/>
<path d="M366.716 97.6989C368.63 96.8001 368.547 93.7073 368.371 91.4557C368.364 91.3731 368.407 91.2943 368.48 91.2556C368.553 91.2168 368.642 91.2255 368.707 91.2778C370.461 92.7051 371.488 93.1565 372.565 93.4443C372.763 93.5111 372.974 93.5299 373.181 93.4992C373.435 93.4237 373.654 93.2629 373.803 93.044C374.444 92.2197 374.588 91.0815 374.365 90.0637C374.143 89.0458 373.614 88.1169 373.016 87.2626C372.798 86.9512 372.548 86.6294 372.188 86.5064C371.828 86.3834 371.342 86.5692 371.293 86.946C370.873 86.492 370.684 85.8549 370.103 85.5278C369.885 85.3992 369.62 85.378 369.384 85.4702C368.801 85.7123 368.861 86.4789 368.992 87.0611C366.451 85.9477 363.331 86.39 361.119 88.062C358.906 89.734 357.637 92.539 357.71 95.3125C357.784 98.0861 357.031 100.046 359.15 101.841C359.307 101.972 361.274 103.28 361.473 103.332C361.768 103.408 362.389 102.843 362.672 102.719C363.684 102.26 364.634 101.604 365.288 100.705C365.942 99.8066 366.282 98.6461 366.06 97.5576" fill="#020A44"/>
<path d="M337.902 90.8771C337.954 89.7506 338.549 88.6425 339.508 88.0485C340.675 87.3276 342.191 87.431 343.48 87.9033C344.769 88.3756 345.906 89.1723 347.113 89.8213C348.321 90.4702 349.679 90.983 351.038 90.8064C351.711 90.7188 352.379 90.4636 353.049 90.5722C354.072 90.7384 354.772 91.6947 355.189 92.6433C355.607 93.5918 355.879 94.6437 356.561 95.4142C357.333 96.2734 358.498 96.6672 359.634 96.453C360.236 96.3327 360.899 96.0527 361.422 96.3719C361.684 96.5289 361.839 96.8037 362.076 96.9908C362.61 97.412 363.372 97.2969 364.047 97.2119C364.722 97.1268 365.532 97.1517 365.914 97.7142C366.267 98.2376 366.734 98.3985 366.437 98.9493C365.945 99.8507 367.082 98.3305 366.718 99.2907C366.064 101.024 362.916 102.847 362.314 103.107C361.006 103.674 359.505 103.091 358.192 102.527C354.777 101.06 351.097 99.6492 347.434 100.28C344.537 100.777 341.792 102.531 338.883 102.122C338.497 102.067 338.098 101.966 337.806 101.71C337.514 101.453 337.357 101.006 337.538 100.663C337.619 100.506 337.764 100.377 337.793 100.201C337.848 99.8729 337.487 99.6479 337.206 99.4687C335.871 98.6157 335.456 96.6061 336.345 95.2939C336.83 94.5769 337.606 94.1046 338.408 93.7802C337.671 92.8892 337.8 91.5914 337.968 90.4479" fill="#020A44"/>
<ellipse cx="1.61967" cy="2.11029" rx="1.61967" ry="2.11029" transform="matrix(0.81644 -0.577431 0.57743 0.81644 365.151 97.6099)" fill="#FFD1BB"/>
<path d="M369.537 143.428C369.645 143.428 369.733 143.34 369.733 143.231C369.733 143.123 369.645 143.035 369.537 143.035C369.429 143.035 369.341 143.123 369.341 143.231C369.341 143.34 369.429 143.428 369.537 143.428Z" fill="#101010"/>
<path d="M367.435 97.8881C367.381 97.8646 367.435 97.8881 367.454 97.9012C367.474 97.9143 367.488 97.9261 367.505 97.9339C367.491 97.9339 367.475 97.909 367.505 97.9339L367.529 97.9548C367.544 97.9682 367.558 97.9827 367.571 97.998L367.587 98.0163C367.614 98.0477 367.568 97.9902 367.587 98.0163L367.622 98.0673C367.644 98.1028 367.664 98.1395 367.682 98.1772C367.686 98.1872 367.69 98.1968 367.695 98.206C367.698 98.2656 367.748 98.3121 367.808 98.3107C367.867 98.3092 367.915 98.2605 367.915 98.2008C367.915 98.1411 367.867 98.0923 367.808 98.0909C367.748 98.0895 367.698 98.136 367.695 98.1956C367.704 98.2152 367.711 98.2348 367.719 98.2557C367.733 98.2963 367.746 98.3369 367.757 98.3787C367.767 98.4206 367.776 98.4611 367.787 98.503C367.797 98.5449 367.787 98.503 367.787 98.503C367.787 98.503 367.78 98.5514 367.787 98.5213C367.79 98.4999 367.8 98.4799 367.814 98.4638C367.856 98.4221 367.921 98.414 367.973 98.4441L368.071 98.6129L368.052 98.4533C368.05 98.3458 367.964 98.2591 367.856 98.2571C367.748 98.2578 367.661 98.3452 367.66 98.4533L367.676 98.5959C367.678 98.6362 367.688 98.6757 367.704 98.7123C367.734 98.7602 367.781 98.7946 367.835 98.8078C367.956 98.841 368.084 98.787 368.145 98.677C368.188 98.5798 368.193 98.4701 368.158 98.3696C368.144 98.3068 368.127 98.2387 368.107 98.1838C368.067 98.0539 368.007 97.9311 367.928 97.8201C367.834 97.6899 367.705 97.5885 367.556 97.527C367.505 97.5128 367.45 97.5204 367.405 97.548C367.361 97.5736 367.328 97.6153 367.314 97.6644C367.288 97.7668 367.345 97.8722 367.445 97.9064L367.435 97.8881Z" fill="#101010"/>
<path d="M372.052 96.7618C371.939 96.9657 371.909 97.2047 371.967 97.4303C371.996 97.5763 372.12 97.684 372.269 97.6919C372.433 97.6828 372.559 97.5433 372.551 97.3793C372.532 97.2012 372.38 97.0674 372.201 97.0705C372.092 97.0705 372.004 97.1584 372.004 97.2667C372.007 97.374 372.093 97.4602 372.201 97.463H372.227H372.175C372.189 97.4657 372.204 97.4696 372.218 97.4748L372.171 97.4551C372.184 97.4616 372.196 97.469 372.209 97.4774L372.168 97.446C372.177 97.4536 372.185 97.4619 372.193 97.4708L372.161 97.4303C372.169 97.4394 372.174 97.4495 372.178 97.4604L372.159 97.4133C372.16 97.4211 372.16 97.429 372.159 97.4368V97.3845V97.4093V97.357C372.157 97.3673 372.155 97.3774 372.151 97.3871L372.171 97.34C372.167 97.35 372.162 97.3593 372.155 97.3675L372.185 97.3282L372.169 97.3452L372.209 97.3138L372.189 97.3256L372.236 97.306H372.214L372.266 97.2994H372.26L372.312 97.306H372.288L372.335 97.3256L372.316 97.3138L372.355 97.3439C372.347 97.3375 372.339 97.3301 372.333 97.3217L372.363 97.3622C372.354 97.3479 372.346 97.333 372.338 97.3178L372.359 97.3649C372.345 97.3286 372.336 97.2908 372.332 97.2523L372.339 97.3047C372.332 97.2404 372.332 97.1754 372.339 97.1111L372.333 97.1634C372.342 97.0996 372.359 97.0372 372.384 96.9776L372.364 97.0247C372.373 97.0051 372.383 96.9855 372.393 96.9671C372.445 96.8728 372.414 96.7545 372.322 96.6976C372.229 96.6454 372.11 96.6766 372.054 96.7683L372.052 96.7618Z" fill="#101010"/>
<path d="M371.571 95.566H371.613H371.641H371.624L371.708 95.5555C371.766 95.5476 371.824 95.5411 371.883 95.5359C371.999 95.5228 372.117 95.5136 372.233 95.5058C372.342 95.5058 372.43 95.4179 372.43 95.3095C372.43 95.2011 372.342 95.1133 372.233 95.1133C371.972 95.1303 371.722 95.1591 371.467 95.1944C371.418 95.2082 371.376 95.2406 371.35 95.2847C371.324 95.3306 371.317 95.3853 371.331 95.4364C371.344 95.4857 371.377 95.5276 371.421 95.5529C371.467 95.5773 371.52 95.5847 371.571 95.5738V95.566Z" fill="#101010"/>
<path d="M376.997 113.483C376.813 113.032 357.242 108.728 351.063 107.377C350.559 107.268 350.033 107.379 349.616 107.683C349.2 107.986 348.932 108.453 348.882 108.966C348.338 114.356 349.944 122.126 351.136 126.9C351.853 129.771 351.663 132.794 350.593 135.553L348.127 141.905C348.127 146.469 352.215 152.193 356.303 153.801C363.629 156.679 370.375 146.922 370.375 146.922L370.244 134.996C369.511 131.713 370.696 131.565 372.236 128.576C375.482 122.274 377.154 113.86 376.997 113.483V113.483Z" fill="#FFD1BB"/>
<path d="M374.495 123.221C374.385 123.026 373.448 122.698 373.25 122.598C365.892 119.109 358.902 119.526 349.547 118.952C349.892 121.709 350.304 122.894 350.669 124.786C351.039 126.7 350.822 128.674 350.601 130.612C350.529 131.244 350.452 131.894 350.159 132.459C349.854 133.046 349.339 133.498 348.981 134.056L348.974 134.067C348.816 134.327 348.809 134.65 348.956 134.916C349.103 135.182 349.38 135.349 349.684 135.354C356.931 135.498 365.017 135.988 371.598 138.858C371.869 138.979 372.187 138.915 372.391 138.699C372.594 138.482 372.639 138.161 372.502 137.898C371.704 136.343 371.063 134.718 371.02 132.989C370.966 131.006 373.458 125.897 374.179 124.045C374.133 124.164 374.088 124.282 374.067 124.333C374.082 124.293 374.118 124.202 374.179 124.045C374.301 123.739 374.657 123.506 374.495 123.221V123.221Z" fill="#FBB13C"/>
<path d="M372.851 127.434C372.287 127.172 371.674 127.068 371.073 126.89C370.041 126.582 369.081 126.068 368.051 125.753C365.903 125.099 363.603 125.339 361.353 125.36C359.102 125.381 356.694 125.099 354.99 123.635C354.012 122.794 353.36 121.636 352.45 120.72C351.687 119.953 350.598 119.357 349.562 119.473C349.905 122.141 350.309 123.319 350.669 125.183C351.039 127.097 350.822 129.071 350.601 131.007C350.529 131.64 350.452 132.289 350.159 132.856C349.854 133.443 349.339 133.893 348.981 134.452L348.974 134.464C348.816 134.723 348.809 135.047 348.956 135.313C349.103 135.579 349.38 135.746 349.684 135.751C356.931 135.894 365.017 136.384 371.598 139.255C371.869 139.375 372.187 139.311 372.391 139.095C372.594 138.879 372.639 138.558 372.502 138.294C371.704 136.74 371.063 135.115 371.02 133.386C370.986 132.126 371.979 129.606 372.892 127.459L372.851 127.434Z" fill="#FBB13C"/>
<path d="M371.082 100.251C371.287 100.629 371.617 100.923 372.017 101.082C372.068 101.096 372.123 101.088 372.168 101.061C372.212 101.036 372.245 100.994 372.259 100.945C372.272 100.893 372.265 100.839 372.239 100.793C372.21 100.751 372.169 100.719 372.121 100.703C372.079 100.686 372.162 100.722 372.121 100.703L372.092 100.69L372.031 100.659C371.992 100.639 371.952 100.616 371.916 100.593C371.904 100.585 371.805 100.527 371.806 100.517L371.822 100.529L371.806 100.517L371.782 100.497L371.73 100.451C371.698 100.421 371.666 100.39 371.636 100.357L371.589 100.306C371.589 100.306 371.547 100.262 371.55 100.257C371.565 100.279 371.569 100.283 371.56 100.272L371.55 100.257C371.543 100.248 371.537 100.239 371.531 100.23C371.517 100.212 371.504 100.193 371.492 100.173C371.467 100.134 371.444 100.094 371.421 100.052C371.366 99.96 371.246 99.9291 371.153 99.9831C371.062 100.039 371.031 100.157 371.082 100.251V100.251Z" fill="#101010"/>
<path d="M348.127 141.898C348.127 141.898 340.712 154.727 340.369 189.406C340.369 189.406 340.566 184.975 333.124 179.063C325.274 172.83 318.34 163.321 318.34 163.321L311.741 165.19C311.741 165.19 336.562 210.788 346.803 200.775C357.045 190.763 362.567 161.066 362.567 161.066L348.127 141.898Z" fill="#FFD1BB"/>
<path d="M340.65 186.464C340.379 188.022 340.318 189.61 340.47 191.184C340.493 191.433 340.886 191.436 340.862 191.184C340.711 189.645 340.767 188.093 341.03 186.569C341.072 186.321 340.693 186.215 340.65 186.464V186.464Z" fill="#101010"/>
<path d="M366.663 106.368C367.094 106.454 367.533 106.489 367.972 106.472C368.079 106.47 368.165 106.383 368.168 106.276C368.167 106.168 368.08 106.081 367.972 106.08C367.569 106.098 367.165 106.068 366.769 105.99C366.667 105.963 366.561 106.02 366.527 106.12C366.5 106.225 366.561 106.331 366.665 106.361L366.663 106.368Z" fill="#101010"/>
<path d="M374.902 117.963C374.908 120.6 374.43 123.216 373.493 125.682C373.227 126.379 372.924 127.062 372.586 127.728C372.471 127.953 372.81 128.152 372.925 127.926C374.491 124.84 375.303 121.427 375.294 117.967C375.294 117.858 375.206 117.771 375.098 117.771C374.99 117.771 374.902 117.858 374.902 117.967V117.963Z" fill="#101010"/>
<path d="M422.407 226.083L417.645 220.028L412.82 222.645L418.838 234.276C419.033 234.595 419.434 234.72 419.776 234.567L430.105 229.988C430.304 229.9 430.42 229.69 430.389 229.475C430.359 229.259 430.19 229.09 429.974 229.06L426.703 228.581C425.005 228.328 423.467 227.434 422.407 226.083V226.083Z" fill="#FFD1BB"/>
<path d="M412.91 201.082C412.193 199.797 411.285 198.576 410.602 197.475C408.57 194.19 406.465 190.952 404.286 187.761C399.969 181.438 395.422 175.201 390.252 169.551C382.834 161.439 378.223 157.437 373.439 147.299C372.916 146.179 373.33 144.621 372.363 143.846C371.692 143.309 368.599 142.554 367.761 142.368C359.639 140.57 355.145 139.547 348.993 140.191C348.118 140.283 347.439 140.995 347.388 141.873V141.901C347.368 142.241 347.253 142.568 347.056 142.846C342.257 149.672 340.572 158.153 340.092 166.354C339.848 170.5 340.118 174.616 340.063 178.758C340.031 181.103 338.316 184.859 340.194 186.81C340.666 187.299 341.342 187.563 341.991 187.718C344.571 188.331 347.529 187.617 350.014 188.561C355.918 190.806 361.185 194.42 366.747 197.415C374.05 201.345 381.867 204.232 389.971 205.995C394.031 206.881 398.152 207.459 402.3 207.725C404.297 207.851 406.298 207.899 408.302 207.869C410.694 207.831 414.026 208.306 414.077 204.869C414.098 203.579 413.591 202.301 412.91 201.082V201.082Z" fill="#8F2D56"/>
<path d="M367.812 90.4362C368.527 91.2283 369.335 91.9312 370.218 92.5295C371.054 93.096 372.023 93.6638 373.071 93.6063C373.605 93.5864 374.114 93.3794 374.51 93.0214C374.695 92.8474 374.416 92.5701 374.233 92.7428C373.55 93.3838 372.522 93.287 371.724 92.9429C370.835 92.5609 370.013 91.9552 369.283 91.3285C368.859 90.9645 368.459 90.5738 368.085 90.1589C367.915 89.9705 367.638 90.2492 367.808 90.4362H367.812Z" fill="#101010"/>
<path d="M365.551 90.7465C366.077 91.4637 366.761 92.0505 367.55 92.4616C367.775 92.5768 367.974 92.2379 367.749 92.1228C367.017 91.7483 366.381 91.2112 365.889 90.5528C365.833 90.4654 365.72 90.4348 365.627 90.4822C365.534 90.5373 365.503 90.6567 365.556 90.7504L365.551 90.7465Z" fill="#101010"/>
<path d="M364.572 92.1186C364.878 92.7101 365.363 93.1896 365.958 93.4884C366.018 93.5268 366.095 93.5289 366.158 93.4941C366.221 93.4592 366.259 93.3928 366.259 93.321C366.258 93.2492 366.219 93.1834 366.155 93.1495C365.888 93.0199 365.644 92.8466 365.433 92.6367C365.22 92.4288 365.043 92.187 364.91 91.921C364.876 91.8577 364.81 91.818 364.738 91.8174C364.667 91.8168 364.6 91.8555 364.565 91.9183C364.53 91.9811 364.533 92.0579 364.571 92.1186H364.572Z" fill="#101010"/>
<path d="M364.633 94.4464C364.765 94.7046 365.027 94.8704 365.317 94.8795C365.425 94.8795 365.513 94.7916 365.513 94.6832C365.513 94.5749 365.425 94.487 365.317 94.487H365.257H365.308C365.258 94.4798 365.209 94.4666 365.163 94.4478L365.21 94.4674C365.16 94.4465 365.114 94.4193 365.072 94.3863L365.112 94.4177C365.072 94.3863 365.036 94.3503 365.004 94.3104L365.036 94.3509C365.011 94.3186 364.99 94.284 364.972 94.2476C364.945 94.2034 364.903 94.1711 364.854 94.1573C364.749 94.1289 364.642 94.1904 364.613 94.2947C364.601 94.3456 364.608 94.399 364.633 94.4451V94.4464Z" fill="#101010"/>
<path d="M367.192 94.5429C367.3 94.5429 367.388 94.455 367.388 94.3466C367.388 94.2383 367.3 94.1504 367.192 94.1504C367.083 94.1504 366.996 94.2383 366.996 94.3466C366.996 94.455 367.083 94.5429 367.192 94.5429Z" fill="#101010"/>
<path d="M349.488 117.959C349.944 117.59 350.527 117.414 351.111 117.469C351.22 117.469 351.308 117.381 351.308 117.272C351.305 117.165 351.219 117.079 351.111 117.076C350.423 117.022 349.741 117.239 349.21 117.682C349.138 117.759 349.14 117.88 349.215 117.954C349.29 118.029 349.41 118.031 349.488 117.959V117.959Z" fill="#101010"/>
<path d="M352.132 118.07C352.24 118.07 352.328 117.982 352.328 117.874C352.328 117.766 352.24 117.678 352.132 117.678C352.023 117.678 351.936 117.766 351.936 117.874C351.936 117.982 352.023 118.07 352.132 118.07V118.07Z" fill="#101010"/>
<path d="M319.822 125.405C321.018 126.747 322.6 127.686 324.351 128.091C324.852 128.206 325.362 128.275 325.876 128.299C326.128 128.31 326.128 127.918 325.876 127.906C323.656 127.791 321.576 126.79 320.101 125.127C319.933 124.938 319.656 125.216 319.822 125.405Z" fill="#101010"/>
<path d="M319.817 128.823C320.723 129.594 321.849 130.06 323.035 130.155C323.288 130.176 323.286 129.782 323.035 129.762C321.952 129.672 320.924 129.247 320.094 128.546C319.903 128.382 319.623 128.658 319.817 128.823V128.823Z" fill="#101010"/>
<path d="M325.364 130.346C325.473 130.346 325.56 130.258 325.56 130.149C325.56 130.041 325.473 129.953 325.364 129.953C325.256 129.953 325.168 130.041 325.168 130.149C325.168 130.258 325.256 130.346 325.364 130.346V130.346Z" fill="#101010"/>
<path d="M412.178 128.47C412.386 129.268 412.679 130.085 413.288 130.641C413.718 131.004 414.225 131.266 414.769 131.407C416.766 132.003 418.972 131.574 420.776 130.521C421.263 130.246 421.655 129.83 421.902 129.328C422.185 128.759 422.236 128.102 422.045 127.496C421.707 126.501 420.552 125.82 419.546 126.121C419.335 126.187 419.135 126.283 418.952 126.406C418.847 126.479 418.707 126.477 418.604 126.402C418.501 126.326 418.458 126.194 418.495 126.072C418.552 125.882 418.601 125.69 418.641 125.496C418.68 125.302 418.71 125.103 418.535 124.957C418.402 124.851 418.224 124.823 418.065 124.882C417.774 124.982 417.611 125.254 417.479 125.519C417.187 126.103 416.971 126.721 416.835 127.359C416.864 126.553 416.892 125.747 416.92 124.941C416.926 124.833 416.905 124.725 416.86 124.627C416.638 124.184 416.092 124.409 415.849 124.779C415.864 124.727 415.88 124.676 415.897 124.623C415.976 124.372 416.054 124.1 415.846 123.859C415.716 123.72 415.529 123.648 415.338 123.663C414.959 123.687 414.672 123.957 414.454 124.249C413.885 125.005 413.643 125.95 413.407 126.866C413.308 125.973 413.209 125.082 413.11 124.19C413.104 124.125 413.096 124.059 413.087 123.994C413.06 123.795 412.904 123.638 412.704 123.61C412.505 123.583 412.312 123.692 412.232 123.876C411.652 125.284 411.788 126.966 412.178 128.47V128.47Z" fill="#FFD7AD"/>
<path d="M444.967 138.811C445.826 135.739 446.357 135.737 449.232 119.503L448.309 111.601C445.204 111.994 444.567 115.561 443.957 116.783C439.287 126.136 436.598 135.173 436.579 138.873C436.568 140.921 436.211 143.416 437.99 144.43C439.495 145.287 441.5 144.664 442.711 143.427C443.921 142.189 444.502 140.479 444.967 138.811V138.811Z" fill="#FFD7AD"/>
<path d="M442.887 114.419C441.462 115.947 440.56 119.202 440.019 121.222C439.326 123.815 438.283 126.302 436.92 128.614C436.711 128.969 436.486 129.361 436.555 129.767C436.617 130.13 436.9 130.41 437.171 130.66C439.609 132.899 441.489 131.679 445.64 137.034C445.738 137.133 445.883 137.169 446.017 137.128C446.166 137.089 446.25 136.935 446.316 136.795C447.028 135.297 447.328 133.179 448.039 131.681C448.161 131.419 448.263 131.07 448.039 130.896" fill="#020A44"/>
<path d="M443.039 140.633C443.496 143.119 441.236 145.266 438.765 144.74C435.425 144.03 433.356 143.17 427.587 137.946C419.723 130.818 418.332 129.463 418.332 129.463L421.179 126.553C421.179 126.553 439.495 133.215 442.097 138.066C442.542 138.868 442.86 139.734 443.039 140.633V140.633Z" fill="#FFD7AD"/>
<path d="M436.855 134.012C438.366 134.741 439.739 135.73 440.91 136.932C441.087 137.114 441.364 136.836 441.188 136.655C439.994 135.429 438.597 134.42 437.057 133.673C436.831 133.563 436.632 133.901 436.859 134.012H436.855Z" fill="#101010"/>
<path d="M415.37 125.007C414.985 125.834 414.594 126.698 414.631 127.631C414.64 127.884 415.032 127.885 415.023 127.631C414.989 126.769 415.353 125.968 415.709 125.204C415.76 125.11 415.729 124.992 415.638 124.936C415.546 124.886 415.431 124.917 415.376 125.007H415.37Z" fill="#101010"/>
<path d="M416.864 127.691C416.972 127.691 417.06 127.603 417.06 127.495C417.06 127.387 416.972 127.299 416.864 127.299C416.755 127.299 416.667 127.387 416.667 127.495C416.667 127.603 416.755 127.691 416.864 127.691V127.691Z" fill="#101010"/>
<path d="M419.917 127.766C420.026 127.766 420.114 127.678 420.114 127.57C420.114 127.461 420.026 127.374 419.917 127.374C419.809 127.374 419.721 127.461 419.721 127.57C419.721 127.678 419.809 127.766 419.917 127.766V127.766Z" fill="#101010"/>
<path d="M475.706 69.7482C475.505 69.7437 475.326 69.8732 475.268 70.065C475.209 70.2569 475.286 70.4643 475.455 70.5724C475.51 70.609 475.566 70.643 475.622 70.6771L477.927 72.0691C476.997 71.8925 476.037 71.7145 475.112 71.9134C474.755 71.9893 474.389 72.1358 474.208 72.4707C474.114 72.637 474.102 72.837 474.174 73.0137C474.305 73.3015 474.583 73.346 474.845 73.38L475.007 73.4009C474.569 73.4676 474.136 73.868 474.446 74.2566C474.517 74.3392 474.606 74.4031 474.708 74.4423L476.932 75.3804C476.296 75.2354 475.644 75.1721 474.992 75.192C474.696 75.2011 474.379 75.2352 474.166 75.4536C474.045 75.5721 473.995 75.7456 474.035 75.9102C474.098 76.1327 474.297 76.1915 474.48 76.2334C474.663 76.2753 474.873 76.3145 475.064 76.342C475.19 76.3599 475.291 76.4553 475.316 76.5802C475.342 76.7052 475.285 76.8325 475.176 76.898C474.987 77.0117 474.816 77.1528 474.669 77.3167C473.973 78.1016 474.106 79.4387 474.867 80.1622C475.336 80.5885 475.952 80.8168 476.585 80.7993C477.145 80.7859 477.688 80.6035 478.142 80.276C479.855 79.0802 481.171 77.2578 481.466 75.1946C481.566 74.6409 481.541 74.0719 481.393 73.5291C481.145 72.7442 480.524 72.1332 479.887 71.6099C478.694 70.6313 477.222 69.8018 475.706 69.7482V69.7482Z" fill="#FFD7AD"/>
<path d="M480.053 107.003C477.607 109.051 477.829 109.536 464.216 118.845L454.717 116.054C455.175 113.334 456.479 112.162 457.142 111.593C463.702 105.954 473.289 100.877 476.652 99.3342C478.515 98.4811 480.641 97.1271 482.298 98.332C483.7 99.3485 483.959 101.433 483.328 103.042C482.697 104.651 481.38 105.895 480.053 107.003V107.003Z" fill="#FFD7AD"/>
<path d="M477.986 104.73C480.05 106.188 482.947 105.038 483.507 102.574C484.265 99.2434 484.356 97.0088 482.032 89.5764C478.862 79.4475 478.214 77.6172 478.214 77.6172L474.378 78.9804C474.378 78.9804 472.738 98.4048 476.057 102.802C476.597 103.54 477.247 104.191 477.986 104.73Z" fill="#FFD7AD"/>
<path d="M474.177 96.3617C474.207 98.0729 474.535 99.7658 475.146 101.365C475.236 101.599 475.616 101.495 475.525 101.261C474.924 99.6962 474.6 98.0381 474.569 96.3617C474.569 96.1092 474.177 96.1079 474.177 96.3617H474.177Z" fill="#101010"/>
<path d="M475.43 73.4492C476.27 73.4492 477.157 73.4492 477.922 73.8417C478.147 73.9555 478.346 73.6179 478.121 73.5028C477.288 73.0763 476.344 73.0606 475.43 73.0632C475.322 73.0632 475.234 73.1511 475.234 73.2594C475.234 73.3678 475.322 73.4557 475.43 73.4557V73.4492Z" fill="#101010"/>
<path d="M477.043 75.6581C477.152 75.6581 477.239 75.5703 477.239 75.4619C477.239 75.3535 477.152 75.2656 477.043 75.2656C476.935 75.2656 476.847 75.3535 476.847 75.4619C476.847 75.5703 476.935 75.6581 477.043 75.6581V75.6581Z" fill="#101010"/>
<path d="M478.574 72.5234C478.682 72.5234 478.77 72.4355 478.77 72.3271C478.77 72.2187 478.682 72.1309 478.574 72.1309C478.465 72.1309 478.377 72.2187 478.377 72.3271C478.377 72.4355 478.465 72.5234 478.574 72.5234V72.5234Z" fill="#101010"/>
<path d="M506.684 173.477L500.165 177.581L496.501 173.498L506.072 164.564C506.363 164.329 506.783 164.345 507.054 164.603L515.243 172.387C515.402 172.537 515.442 172.774 515.342 172.967C515.241 173.161 515.025 173.264 514.811 173.221L511.576 172.576C509.89 172.239 508.139 172.562 506.684 173.477V173.477Z" fill="#FFD7AD"/>
<path d="M455.456 98.7285L459.912 113.747L452.27 116.783L449.52 105.526L455.456 98.7285Z" fill="#FFD7AD"/>
<path d="M444.71 93.6654C444.49 95.3792 444.529 97.4215 443.307 98.6146C443.201 98.7137 443.14 98.8525 443.14 98.998C443.14 99.1434 443.201 99.2823 443.307 99.3813L443.562 99.6155C443.739 99.7796 443.822 100.021 443.783 100.259C443.568 101.595 443.231 106.366 447.284 106.424C450.243 106.466 453.416 106.132 455.668 104.094C459.771 100.378 460.844 92.7705 456.614 88.7187C452.698 84.9652 446.209 87.693 444.902 92.6069C444.814 92.9551 444.75 93.3087 444.71 93.6654V93.6654Z" fill="#FFD7AD"/>
<path d="M449.987 97.8087C450.095 96.8789 450.146 95.9435 450.139 95.0076C450.139 94.3875 450.093 93.7268 449.731 93.2231C449.484 92.8803 449.111 92.6448 448.864 92.3073C448.501 91.8049 448.458 91.1494 448.312 90.5476C448.195 90.074 447.952 89.5716 447.555 89.3257C447.422 89.2432 447.338 89.1014 447.329 88.9454C447.319 88.7893 447.386 88.6384 447.508 88.5407L447.593 88.474C450.643 86.2499 454.934 86.5442 457.621 89.1975C460.309 91.8507 461.154 96.1314 459.664 99.605C459.163 100.72 458.465 101.737 457.604 102.605C457.258 102.965 456.836 103.402 456.296 103.413C455.879 103.423 455.567 103.167 455.265 102.915C454.403 102.194 453.541 101.476 452.671 100.76C451.801 100.045 450.839 99.0934 451.052 97.9866" fill="#020A44"/>
<path d="M460.251 94.3063C459.867 94.3263 459.481 94.3215 459.097 94.2919C457.519 94.2108 455.923 94.2304 454.378 94.5679C452.833 94.9055 451.336 95.5753 450.192 96.6612L450.075 96.8117C450.052 97.1427 450.023 97.4737 449.985 97.8034L451.054 97.9839C450.835 99.0907 451.801 100.043 452.672 100.757C453.543 101.472 454.404 102.197 455.266 102.912C455.569 103.165 455.88 103.42 456.297 103.411C456.834 103.399 457.255 102.962 457.606 102.602C458.467 101.734 459.164 100.718 459.665 99.6023C460.369 97.9308 460.572 96.0911 460.251 94.3063V94.3063Z" fill="#020A44"/>
<ellipse cx="451.306" cy="98.0215" rx="2.11955" ry="1.62678" transform="rotate(-54.7276 451.306 98.0215)" fill="#FFD7AD"/>
<path d="M448.678 143.428C448.786 143.428 448.874 143.34 448.874 143.231C448.874 143.123 448.786 143.035 448.678 143.035C448.569 143.035 448.481 143.123 448.481 143.231C448.481 143.34 448.569 143.428 448.678 143.428Z" fill="#101010"/>
<path d="M450.675 97.5086C450.527 97.57 450.398 97.6715 450.304 97.8016C450.225 97.9124 450.165 98.0352 450.126 98.1653C450.105 98.2262 450.088 98.2883 450.074 98.3511C450.039 98.4516 450.044 98.5613 450.087 98.6585C450.147 98.7685 450.276 98.8226 450.397 98.7894C450.441 98.7772 450.48 98.7505 450.508 98.7135C450.535 98.6749 450.55 98.6296 450.552 98.5827L450.568 98.44C450.569 98.3879 450.548 98.3378 450.511 98.3009C450.474 98.264 450.424 98.2435 450.372 98.2438C450.265 98.2466 450.178 98.3328 450.176 98.44L450.159 98.5997L450.255 98.4309C450.288 98.4128 450.327 98.4096 450.362 98.4221C450.398 98.4346 450.426 98.4616 450.44 98.4963C450.44 98.5199 450.44 98.5238 450.44 98.4963C450.44 98.4688 450.429 98.5408 450.44 98.4963C450.45 98.4518 450.458 98.4126 450.469 98.372C450.479 98.3315 450.491 98.2935 450.505 98.2543C450.52 98.215 450.52 98.215 450.528 98.1941C450.535 98.1732 450.528 98.1941 450.528 98.1941C450.531 98.1841 450.535 98.1745 450.541 98.1653C450.558 98.1295 450.577 98.0945 450.598 98.0606C450.609 98.0423 450.621 98.0253 450.632 98.0083C450.644 97.9913 450.613 98.0319 450.632 98.0083L450.652 97.9848C450.665 97.9691 450.679 97.9546 450.695 97.9416L450.712 97.9246C450.728 97.9115 450.749 97.9076 450.712 97.9246C450.728 97.9167 450.742 97.9037 450.758 97.8945C450.774 97.8853 450.838 97.8552 450.783 97.8788C450.831 97.8634 450.873 97.8314 450.9 97.7885C450.94 97.7193 450.934 97.633 450.886 97.5698C450.837 97.5065 450.755 97.4788 450.678 97.4994L450.675 97.5086Z" fill="#101010"/>
<path d="M445.826 96.9608L445.853 97.0183L445.833 96.9712C445.858 97.0308 445.875 97.0932 445.885 97.157V97.1047C445.892 97.169 445.892 97.234 445.885 97.2983V97.246C445.88 97.2844 445.872 97.3222 445.858 97.3585L445.878 97.3114C445.87 97.3266 445.862 97.3415 445.853 97.3559L445.883 97.3153C445.877 97.3237 445.869 97.3312 445.861 97.3376L445.9 97.3075L445.881 97.3192L445.928 97.2996H445.904L445.956 97.2931H445.941L445.993 97.2996H445.971L446.018 97.3192L445.998 97.3075L446.039 97.3389L446.022 97.3219L446.052 97.3611C446.046 97.3526 446.04 97.3434 446.036 97.3336L446.056 97.3807C446.052 97.371 446.049 97.3609 446.048 97.3506V97.403V97.3781V97.4304C446.047 97.4226 446.047 97.4147 446.048 97.4069L446.028 97.454C446.033 97.4434 446.039 97.4333 446.045 97.4239L446.014 97.4645L446.039 97.4396L446 97.471C446.011 97.4624 446.023 97.4549 446.036 97.4488L445.99 97.4684C446.004 97.4631 446.018 97.4591 446.032 97.4566H445.98H446.006C446.115 97.4566 446.202 97.3687 446.202 97.2604C446.202 97.152 446.115 97.0641 446.006 97.0641C445.854 97.063 445.718 97.158 445.667 97.3009C445.622 97.4592 445.711 97.6249 445.868 97.6751C445.944 97.697 446.026 97.6846 446.093 97.6411C446.157 97.5947 446.206 97.5293 446.231 97.454C446.249 97.4002 446.26 97.3444 446.264 97.2878C446.268 97.2395 446.268 97.1909 446.264 97.1426C446.254 97.0078 446.217 96.8763 446.154 96.7567C446.118 96.6962 446.053 96.6592 445.983 96.6597C445.913 96.6602 445.848 96.6981 445.814 96.7591C445.779 96.8201 445.78 96.895 445.815 96.9555L445.826 96.9608Z" fill="#101010"/>
<path d="M446.964 111.914C447.15 111.464 460.974 108.716 467.155 107.366C467.659 107.257 468.186 107.369 468.603 107.673C469.02 107.978 469.287 108.446 469.336 108.96C469.881 114.35 468.273 122.12 467.082 126.894C466.365 129.765 466.554 132.788 467.625 135.547L470.091 141.899C470.091 146.463 466.002 152.187 461.915 153.795C454.589 156.673 448.68 151.264 448.68 151.264C449.413 147.981 447.519 131.559 445.979 128.57C442.733 122.274 446.804 112.306 446.964 111.914V111.914Z" fill="#FFD7AD"/>
<path d="M501.296 169.019C501.296 169.019 491.493 175.533 481.974 178.658C472.947 181.624 471.592 185.847 471.592 185.847C479.31 161.041 470.088 141.899 470.088 141.899L457.251 155.78C457.251 155.78 455.469 181.323 461.607 194.273C467.744 207.222 506.837 173.061 506.837 173.061L501.296 169.019Z" fill="#101010"/>
<path d="M471.963 182.922C471.682 184.443 471.198 185.92 470.524 187.314C470.414 187.54 470.753 187.739 470.863 187.511C471.552 186.089 472.048 184.58 472.337 183.026C472.383 182.779 472.005 182.673 471.959 182.922H471.963Z" fill="#101010"/>
<path d="M451.449 105.99C451.053 106.067 450.649 106.097 450.247 106.08C450.138 106.08 450.05 106.168 450.05 106.276C450.052 106.384 450.139 106.471 450.247 106.472C450.685 106.49 451.124 106.454 451.555 106.368C451.657 106.336 451.715 106.23 451.686 106.127C451.652 106.027 451.547 105.97 451.445 105.996L451.449 105.99Z" fill="#101010"/>
<path d="M446.469 217.834L439.954 210.884L445.664 206.895L448.206 210.452C449.727 212.583 451.658 214.389 453.885 215.764C454.729 216.287 455.38 216.736 455.298 216.856L448.84 226.128C448.716 226.307 448.489 226.382 448.283 226.312C448.077 226.242 447.942 226.045 447.952 225.827L448.101 222.531C448.178 220.814 447.594 219.133 446.469 217.834V217.834Z" fill="#FFD7AD"/>
<path d="M461.13 151.585L450.246 147.767C450.246 147.767 417.87 164.631 416.864 176.987C415.858 189.342 445.757 215.582 445.757 215.582L448.429 211.272C448.429 211.272 440.607 196.051 436.455 187.415C434.306 182.942 431.386 180.518 429.667 179.393C429.44 179.246 429.32 178.979 429.36 178.712C429.401 178.444 429.595 178.225 429.855 178.152C437.237 176.076 467.032 166.686 461.13 151.585V151.585Z" fill="#FBB13C"/>
<path d="M461.13 151.585L450.246 147.767C450.246 147.767 449.545 148.132 448.347 148.794C445.628 155.128 445.068 162.18 446.755 168.863C446.952 169.713 447.243 170.538 447.621 171.323C456.515 166.731 464.442 160.059 461.13 151.585Z" fill="#8F2D56"/>
<path d="M473.877 150.263C473.21 147.117 472.11 144.079 470.606 141.236C470.334 140.721 470.046 140.213 469.749 139.712L449.03 144.823C450.062 146.731 447.275 147.216 449.03 148.487C451.95 150.609 460.477 163.688 463.692 165.328C466.906 166.969 470.11 161.343 473.719 161.354C473.785 161.36 473.852 161.347 473.91 161.315C473.98 161.267 474.481 160.468 474.476 160.384C473.936 152.684 474.535 153.374 473.877 150.263Z" fill="#101010"/>
<path d="M450.172 90.9806C448.654 91.7394 446.862 91.606 445.172 91.4542C444.432 91.3875 443.658 91.309 443.043 90.8943C442.428 90.4795 442.05 89.6095 442.428 88.9698C442.951 88.0749 444.39 88.2986 445.155 87.6C444.551 86.9733 444.721 85.8547 445.366 85.2712C446.011 84.6877 446.976 84.5765 447.823 84.7701C448.671 84.9637 449.431 85.4242 450.178 85.8717C450.602 85.2568 451.447 85.0396 452.18 85.1874C452.913 85.3353 453.55 85.7801 454.115 86.2681C454.657 85.631 455.705 86.0483 456.339 86.5965C458.192 88.2345 459.212 90.6181 459.117 93.0896" fill="#020A44"/>
<path d="M442.713 90.6861C443.558 91.3583 444.582 91.7677 445.658 91.8636C446.824 91.9554 447.995 91.7492 449.06 91.2644C449.291 91.1636 449.091 90.8261 448.862 90.9255C446.969 91.7497 444.644 91.7458 442.984 90.4022C442.789 90.2452 442.51 90.5212 442.707 90.6795L442.713 90.6861Z" fill="#101010"/>
<path d="M449.58 92.9744C450.439 92.9967 451.276 92.7056 451.935 92.1554C452.012 92.0788 452.012 91.9547 451.935 91.8781C451.858 91.8037 451.735 91.8037 451.658 91.8781C451.073 92.3567 450.334 92.6068 449.579 92.5819C449.327 92.5741 449.327 92.9666 449.579 92.9744H449.58Z" fill="#101010"/>
<path d="M450.889 94.2107C451.192 94.1625 451.476 94.0297 451.708 93.8273C451.784 93.7507 451.784 93.6266 451.708 93.55C451.63 93.4755 451.508 93.4755 451.43 93.55L451.392 93.5814L451.404 93.5722L451.384 93.5879L451.303 93.6429C451.246 93.6783 451.187 93.7102 451.127 93.7384L451.104 93.7475C451.082 93.758 451.142 93.7331 451.119 93.7475L451.073 93.7645C451.042 93.7763 451.012 93.7855 450.98 93.7946C450.916 93.8138 450.85 93.8278 450.784 93.8365C450.734 93.8503 450.692 93.8826 450.666 93.9268C450.612 94.0207 450.643 94.1412 450.737 94.1963C450.784 94.2197 450.837 94.2266 450.889 94.2159V94.2107Z" fill="#101010"/>
<path d="M472.049 138.022C469.503 135.51 468.054 132.094 468.017 128.518C467.997 124.611 469.682 120.782 469.269 116.895C468.972 114.1 467.61 110.243 466.249 107.782C465.658 106.712 464.933 105.543 463.744 105.254C462.973 105.067 462.174 105.3 461.413 105.53C456.011 107.188 450.783 109.367 445.802 112.035C444.055 112.968 442.501 114.416 441.859 116.288C441.367 117.728 441.44 119.29 441.681 120.788C442.247 124.306 443.689 127.613 444.716 131.026C445.468 133.527 446.286 136.01 446.87 138.56C447.224 140.116 447.575 141.7 447.615 143.297C447.647 144.061 447.578 144.825 447.41 145.571C447.225 146.328 446.951 147.067 447.157 147.855C447.202 148.058 447.301 148.246 447.443 148.398C447.784 148.733 448.266 148.529 448.678 148.507C451.828 148.376 456.83 147.158 459.811 146.133C464.18 144.631 468.629 143.086 472.32 140.308C472.531 140.172 472.706 139.986 472.828 139.767C473.113 139.147 472.537 138.498 472.049 138.022V138.022Z" fill="#020A44"/>
<path d="M472.049 138.022C469.503 135.51 468.054 132.094 468.017 128.518C467.997 124.611 469.682 120.782 469.269 116.895C469.252 116.729 469.23 116.559 469.205 116.385C469.118 116.414 469.031 116.445 468.943 116.479C462.349 119.04 457.197 124.569 450.515 126.883C448.522 127.573 446.408 127.962 444.304 127.83L443.912 128.521C444.196 129.353 444.474 130.187 444.727 131.026C445.479 133.527 446.297 136.01 446.88 138.56C447.235 140.116 447.585 141.7 447.626 143.297C447.657 144.061 447.588 144.825 447.42 145.571C447.236 146.328 446.961 147.067 447.168 147.855C447.213 148.058 447.311 148.246 447.453 148.398C447.795 148.733 448.276 148.529 448.688 148.507C451.839 148.376 456.84 147.158 459.822 146.133C464.19 144.631 468.64 143.086 472.33 140.308C472.542 140.172 472.716 139.986 472.838 139.767C473.113 139.147 472.537 138.498 472.049 138.022V138.022Z" fill="#020A44"/>
<path d="M461.364 108.773C462.075 110.927 463.797 112.56 465.246 114.302C465.9 115.094 466.514 115.922 467.093 116.772C467.136 116.897 467.24 116.99 467.368 117.019C467.496 117.049 467.63 117.01 467.723 116.918C469.565 115.823 471.428 114.76 473.218 113.572C474.512 112.713 475.685 111.704 476.948 110.805C477.264 110.58 477.576 110.316 477.522 109.889C477.468 109.463 476.528 109.282 475.654 108.463C473.762 106.692 472.446 104.52 471.417 102.153C471.27 101.813 470.877 101.652 470.533 101.792C468.832 102.492 463.903 104.524 458.605 106.696" fill="#020A44"/>
<path d="M449.936 109.964C449.834 110.457 449.855 110.948 450.198 111.296C450.434 111.515 450.737 111.649 451.059 111.678C452.2 111.835 453.303 111.241 454.251 110.589C455.8 109.523 457.227 108.198 458.176 106.592C455.374 107.574 452.623 108.7 449.936 109.964V109.964Z" fill="#FFD7AD"/>
<path d="M465.947 118.4L467.573 117.254C468.069 116.905 468.565 116.533 469.135 116.315C469.37 116.224 469.266 115.845 469.031 115.937C468.445 116.162 467.937 116.519 467.428 116.878L465.748 118.056C465.544 118.2 465.739 118.54 465.947 118.395V118.4Z" fill="#101010"/>
<path d="M442.601 120.713C442.614 122.858 442.837 124.997 443.265 127.099C443.699 129.222 444.273 131.313 444.983 133.36C445.375 134.512 445.802 135.652 446.248 136.784C446.34 137.016 446.719 136.915 446.626 136.679C445.841 134.682 445.115 132.656 444.522 130.591C443.919 128.536 443.481 126.436 443.214 124.311C443.07 123.119 442.997 121.919 442.994 120.718C442.994 120.61 442.907 120.522 442.798 120.522C442.69 120.522 442.602 120.61 442.602 120.718L442.601 120.713Z" fill="#101010"/>
<path d="M426.162 178.921C427.231 178.79 428.293 178.603 429.342 178.363C429.588 178.306 429.484 177.927 429.238 177.984C428.222 178.218 427.196 178.4 426.162 178.529C426.055 178.531 425.968 178.618 425.966 178.725C425.966 178.833 426.054 178.92 426.162 178.921V178.921Z" fill="#101010"/>
<path d="M427.186 180.116L427.983 179.896C428.054 179.881 428.11 179.827 428.13 179.758C428.15 179.688 428.129 179.613 428.077 179.563C428.024 179.513 427.949 179.495 427.88 179.518L427.082 179.738C426.98 179.77 426.923 179.876 426.951 179.979C426.984 180.079 427.09 180.136 427.193 180.109L427.186 180.116Z" fill="#101010"/>
<path d="M464.937 191.428L467.112 189.496C467.301 189.328 467.023 189.051 466.834 189.218L464.665 191.147C464.475 191.316 464.754 191.592 464.943 191.424L464.937 191.428Z" fill="#FBB13C"/>
<path d="M466.288 193.118L468.451 191.184C468.641 191.015 468.362 190.739 468.174 190.906L466.01 192.84C465.82 193.009 466.099 193.285 466.288 193.118Z" fill="#FBB13C"/>
<path d="M464.247 193.656C464.355 193.656 464.443 193.568 464.443 193.459C464.443 193.351 464.355 193.263 464.247 193.263C464.138 193.263 464.05 193.351 464.05 193.459C464.05 193.568 464.138 193.656 464.247 193.656Z" fill="#FBB13C"/>
<path d="M471.822 67.4305C474.521 65.8315 477.658 65.1298 480.781 65.4262C481.032 65.4497 481.031 65.0573 480.781 65.0337C477.587 64.7378 474.382 65.458 471.623 67.0917C471.529 67.1466 471.498 67.2669 471.553 67.3605C471.608 67.4541 471.728 67.4854 471.822 67.4305V67.4305Z" fill="#101010"/>
<path d="M473.364 62.4803C474.857 61.8306 476.443 61.42 478.063 61.2636C478.313 61.2401 478.316 60.8476 478.063 60.8711C476.374 61.0341 474.722 61.4628 473.166 62.1415C472.935 62.2422 473.135 62.5811 473.364 62.4803Z" fill="#101010"/>
<path d="M483.858 66.6386C483.966 66.6386 484.054 66.5507 484.054 66.4423C484.054 66.334 483.966 66.2461 483.858 66.2461C483.749 66.2461 483.662 66.334 483.662 66.4423C483.662 66.5507 483.749 66.6386 483.858 66.6386V66.6386Z" fill="#101010"/>
<path d="M445.849 95.4864C445.935 95.4257 446.026 95.3739 446.123 95.332L446.075 95.3529C446.193 95.3033 446.317 95.269 446.443 95.2509L446.391 95.2587H446.401C446.453 95.2563 446.502 95.236 446.54 95.2012C446.576 95.1642 446.597 95.1145 446.597 95.0625C446.598 95.01 446.577 94.9596 446.54 94.9225C446.503 94.8855 446.453 94.8652 446.401 94.8662C446.131 94.8956 445.874 94.9928 445.652 95.1488C445.608 95.1755 445.576 95.2169 445.561 95.2653C445.548 95.3165 445.555 95.3709 445.581 95.417C445.636 95.5056 445.75 95.5364 445.843 95.4877L445.849 95.4864Z" fill="#101010"/>
<path d="M445.345 100.758C445.652 100.654 445.941 100.503 446.202 100.312C446.319 100.208 446.458 100.133 446.608 100.091C446.869 100.073 447.108 100.24 447.18 100.492C447.241 100.74 447.207 101.003 447.084 101.228C447 101.418 446.864 101.581 446.692 101.698C446.519 101.816 446.3 101.843 446.104 101.771C446.013 101.729 445.931 101.669 445.864 101.594C445.666 101.39 445.537 101.13 445.493 100.85" fill="#101010"/>
<path d="M445.394 100.947C445.721 100.836 446.03 100.676 446.31 100.473C446.407 100.38 446.526 100.315 446.656 100.282C446.761 100.286 446.858 100.34 446.918 100.426C447.097 100.662 446.984 101.004 446.851 101.233C446.719 101.462 446.473 101.695 446.197 101.596C446.056 101.53 445.939 101.42 445.864 101.283C445.77 101.136 445.708 100.97 445.682 100.798C445.665 100.728 445.611 100.673 445.542 100.655C445.473 100.636 445.399 100.657 445.35 100.708C445.3 100.76 445.283 100.834 445.304 100.902C445.363 101.312 445.594 101.676 445.938 101.906C446.315 102.128 446.783 101.959 447.045 101.644C447.307 101.329 447.478 100.877 447.369 100.467C447.269 100.092 446.87 99.7902 446.477 99.9171C446.263 99.9865 446.096 100.149 445.908 100.266C445.713 100.389 445.504 100.49 445.287 100.566C445.186 100.6 445.129 100.706 445.156 100.808C445.187 100.91 445.294 100.968 445.397 100.939L445.394 100.947Z" fill="#101010"/>
<path d="M446.451 101.476C446.459 101.442 446.467 101.408 446.477 101.374C446.488 101.34 446.489 101.337 446.496 101.319C446.502 101.301 446.496 101.298 446.505 101.294C446.514 101.29 446.485 101.34 446.505 101.307C446.535 101.242 446.571 101.18 446.613 101.121C446.592 101.149 446.613 101.121 446.613 101.121C446.624 101.107 446.635 101.094 446.647 101.081C446.671 101.055 446.697 101.031 446.723 101.008L446.762 100.974C446.715 101.017 446.762 100.974 446.778 100.963C446.808 100.943 446.84 100.924 446.872 100.907C446.936 100.873 446.975 100.807 446.976 100.735C446.977 100.664 446.938 100.597 446.875 100.562C446.812 100.527 446.735 100.53 446.675 100.568C446.363 100.738 446.142 101.036 446.069 101.383C446.042 101.485 446.1 101.591 446.2 101.624C446.302 101.652 446.409 101.594 446.441 101.493L446.451 101.476Z" fill="#D81159"/>
<path d="M399.262 207.48C395.51 202.204 392.161 196.654 389.243 190.876C388.182 188.773 387.082 186.531 385.092 185.271C384.409 184.839 383.63 184.529 383.08 183.939C382.319 183.124 382.14 181.945 381.811 180.882C380.43 176.434 376.078 173.541 371.678 172.001C367.278 170.461 362.564 169.891 358.26 168.101C353.836 166.262 349.887 163.055 347.698 158.798C345.582 154.694 345.081 147.154 347.07 142.825L347.054 142.85C342.255 149.676 340.57 158.157 340.09 166.358C339.847 170.504 340.116 174.62 340.061 178.762C340.03 181.107 338.315 184.863 340.192 186.814C340.665 187.303 341.341 187.567 341.99 187.722C344.57 188.335 347.528 187.621 350.012 188.565C355.917 190.811 361.184 194.424 366.745 197.419C374.048 201.349 381.865 204.237 389.969 205.999C393.036 206.667 396.139 207.161 399.262 207.48V207.48Z" fill="#D81159"/>
<path d="M360.568 111.521C361.876 112.179 363.148 112.901 364.384 113.688C364.597 113.818 364.795 113.484 364.581 113.349C363.346 112.564 362.074 111.842 360.765 111.182C360.54 111.068 360.341 111.407 360.568 111.521Z" fill="#EDB59F"/>
<path d="M369.692 114.721C370.021 114.74 370.349 114.669 370.64 114.514C370.73 114.46 370.761 114.345 370.711 114.252C370.655 114.164 370.541 114.134 370.449 114.182C370.418 114.199 370.386 114.213 370.354 114.229C370.321 114.245 370.335 114.237 370.354 114.229L370.325 114.241L370.283 114.256C370.216 114.28 370.148 114.299 370.079 114.314C370.044 114.322 370.009 114.328 369.974 114.332C370.026 114.332 369.974 114.332 369.966 114.332H369.905C369.834 114.337 369.763 114.337 369.693 114.332C369.584 114.332 369.497 114.42 369.497 114.529C369.499 114.636 369.586 114.722 369.693 114.725L369.692 114.721Z" fill="#EDB59F"/>
<path d="M365.206 138.684C365.103 139.134 365.057 139.596 365.067 140.058C365.067 140.254 365.067 140.484 365.185 140.65C365.246 140.741 365.345 140.801 365.454 140.813C365.564 140.826 365.673 140.79 365.754 140.716C365.796 140.672 365.816 140.612 365.808 140.551C365.8 140.491 365.765 140.438 365.713 140.407C365.564 140.34 365.449 140.214 365.395 140.06C365.315 139.822 364.936 139.929 365.017 140.165C365.098 140.418 365.278 140.627 365.516 140.746L365.476 140.437C365.49 140.432 365.504 140.429 365.518 140.426C365.493 140.426 365.488 140.426 365.503 140.426C365.517 140.426 365.522 140.454 365.503 140.426C365.481 140.379 365.47 140.327 365.471 140.275C365.461 140.112 365.458 139.949 365.462 139.785C365.473 139.452 365.517 139.121 365.593 138.796C365.648 138.55 365.268 138.444 365.213 138.692L365.206 138.684Z" fill="#EDB59F"/>
<path d="M420.362 250.038C420.362 250.954 402.217 251.411 379.839 251.691C356.987 251.976 339.151 251.05 339.316 250.038C339.461 249.138 357.459 248.387 379.839 248.387C402.219 248.387 420.362 249.126 420.362 250.038Z" fill="#E9E3E0"/>
<ellipse cx="472.903" cy="250.038" rx="40.5233" ry="1.65105" fill="#E9E3E0"/>
<path d="M322.447 290.528H311.311V301.92H300.943V290.528H289.807V280.736H300.943V269.28H311.311V280.736H322.447V290.528ZM328.715 299.232C330.165 298.08 330.827 297.547 330.699 297.632C334.88 294.176 338.165 291.339 340.555 289.12C342.987 286.901 345.035 284.576 346.699 282.144C348.363 279.712 349.195 277.344 349.195 275.04C349.195 273.291 348.789 271.925 347.979 270.944C347.168 269.963 345.952 269.472 344.331 269.472C342.709 269.472 341.429 270.091 340.491 271.328C339.595 272.523 339.147 274.229 339.147 276.448H328.587C328.672 272.821 329.44 269.792 330.891 267.36C332.384 264.928 334.325 263.136 336.715 261.984C339.147 260.832 341.835 260.256 344.779 260.256C349.856 260.256 353.675 261.557 356.235 264.16C358.837 266.763 360.139 270.155 360.139 274.336C360.139 278.901 358.581 283.147 355.467 287.072C352.352 290.955 348.384 294.752 343.563 298.464H360.843V307.36H328.715V299.232ZM365.277 299.232C366.728 298.08 367.389 297.547 367.261 297.632C371.443 294.176 374.728 291.339 377.117 289.12C379.549 286.901 381.597 284.576 383.261 282.144C384.925 279.712 385.757 277.344 385.757 275.04C385.757 273.291 385.352 271.925 384.541 270.944C383.731 269.963 382.515 269.472 380.893 269.472C379.272 269.472 377.992 270.091 377.053 271.328C376.157 272.523 375.709 274.229 375.709 276.448H365.149C365.235 272.821 366.003 269.792 367.453 267.36C368.947 264.928 370.888 263.136 373.277 261.984C375.709 260.832 378.397 260.256 381.341 260.256C386.419 260.256 390.237 261.557 392.797 264.16C395.4 266.763 396.701 270.155 396.701 274.336C396.701 278.901 395.144 283.147 392.029 287.072C388.915 290.955 384.947 294.752 380.125 298.464H397.405V307.36H365.277V299.232ZM415.088 297.888L407.984 316.256H401.008L404.72 297.888H415.088ZM420.599 284C420.599 276.661 422.007 270.88 424.823 266.656C427.681 262.432 432.268 260.32 438.583 260.32C444.897 260.32 449.463 262.432 452.279 266.656C455.137 270.88 456.567 276.661 456.567 284C456.567 291.424 455.137 297.248 452.279 301.472C449.463 305.696 444.897 307.808 438.583 307.808C432.268 307.808 427.681 305.696 424.823 301.472C422.007 297.248 420.599 291.424 420.599 284ZM445.815 284C445.815 279.691 445.345 276.384 444.407 274.08C443.468 271.733 441.527 270.56 438.583 270.56C435.639 270.56 433.697 271.733 432.759 274.08C431.82 276.384 431.351 279.691 431.351 284C431.351 286.901 431.521 289.312 431.863 291.232C432.204 293.109 432.887 294.645 433.911 295.84C434.977 296.992 436.535 297.568 438.583 297.568C440.631 297.568 442.167 296.992 443.191 295.84C444.257 294.645 444.961 293.109 445.303 291.232C445.644 289.312 445.815 286.901 445.815 284ZM462.349 284C462.349 276.661 463.757 270.88 466.573 266.656C469.431 262.432 474.018 260.32 480.333 260.32C486.647 260.32 491.213 262.432 494.029 266.656C496.887 270.88 498.317 276.661 498.317 284C498.317 291.424 496.887 297.248 494.029 301.472C491.213 305.696 486.647 307.808 480.333 307.808C474.018 307.808 469.431 305.696 466.573 301.472C463.757 297.248 462.349 291.424 462.349 284ZM487.565 284C487.565 279.691 487.095 276.384 486.157 274.08C485.218 271.733 483.277 270.56 480.333 270.56C477.389 270.56 475.447 271.733 474.509 274.08C473.57 276.384 473.101 279.691 473.101 284C473.101 286.901 473.271 289.312 473.613 291.232C473.954 293.109 474.637 294.645 475.661 295.84C476.727 296.992 478.285 297.568 480.333 297.568C482.381 297.568 483.917 296.992 484.941 295.84C486.007 294.645 486.711 293.109 487.053 291.232C487.394 289.312 487.565 286.901 487.565 284ZM504.099 284C504.099 276.661 505.507 270.88 508.323 266.656C511.181 262.432 515.768 260.32 522.083 260.32C528.397 260.32 532.963 262.432 535.779 266.656C538.637 270.88 540.067 276.661 540.067 284C540.067 291.424 538.637 297.248 535.779 301.472C532.963 305.696 528.397 307.808 522.083 307.808C515.768 307.808 511.181 305.696 508.323 301.472C505.507 297.248 504.099 291.424 504.099 284ZM529.315 284C529.315 279.691 528.845 276.384 527.907 274.08C526.968 271.733 525.027 270.56 522.083 270.56C519.139 270.56 517.197 271.733 516.259 274.08C515.32 276.384 514.851 279.691 514.851 284C514.851 286.901 515.021 289.312 515.363 291.232C515.704 293.109 516.387 294.645 517.411 295.84C518.477 296.992 520.035 297.568 522.083 297.568C524.131 297.568 525.667 296.992 526.691 295.84C527.757 294.645 528.461 293.109 528.803 291.232C529.144 289.312 529.315 286.901 529.315 284Z" fill="#020A44"/>
<path d="M318.734 334.272V344.856C318.734 346.344 319.094 347.448 319.814 348.168C320.55 348.888 321.566 349.248 322.862 349.248C324.142 349.248 325.142 348.888 325.862 348.168C326.598 347.448 326.966 346.344 326.966 344.856V334.272H329.15V344.832C329.15 346.224 328.87 347.4 328.31 348.36C327.75 349.304 326.99 350.008 326.03 350.472C325.086 350.936 324.022 351.168 322.838 351.168C321.654 351.168 320.582 350.936 319.622 350.472C318.678 350.008 317.926 349.304 317.366 348.36C316.822 347.4 316.55 346.224 316.55 344.832V334.272H318.734ZM335.457 339.648V347.4C335.457 348.04 335.593 348.496 335.865 348.768C336.137 349.024 336.609 349.152 337.281 349.152H338.889V351H336.921C335.705 351 334.793 350.72 334.185 350.16C333.577 349.6 333.273 348.68 333.273 347.4V339.648H331.569V337.848H333.273V334.536H335.457V337.848H338.889V339.648H335.457ZM342.664 335.712C342.248 335.712 341.896 335.568 341.608 335.28C341.32 334.992 341.176 334.64 341.176 334.224C341.176 333.808 341.32 333.456 341.608 333.168C341.896 332.88 342.248 332.736 342.664 332.736C343.064 332.736 343.4 332.88 343.672 333.168C343.96 333.456 344.104 333.808 344.104 334.224C344.104 334.64 343.96 334.992 343.672 335.28C343.4 335.568 343.064 335.712 342.664 335.712ZM343.72 337.848V351H341.536V337.848H343.72ZM349.626 333.24V351H347.442V333.24H349.626ZM354.476 335.712C354.06 335.712 353.708 335.568 353.42 335.28C353.132 334.992 352.988 334.64 352.988 334.224C352.988 333.808 353.132 333.456 353.42 333.168C353.708 332.88 354.06 332.736 354.476 332.736C354.876 332.736 355.212 332.88 355.484 333.168C355.772 333.456 355.916 333.808 355.916 334.224C355.916 334.64 355.772 334.992 355.484 335.28C355.212 335.568 354.876 335.712 354.476 335.712ZM355.532 337.848V351H353.348V337.848H355.532ZM363.91 351.216C362.902 351.216 361.998 351.048 361.198 350.712C360.398 350.36 359.766 349.88 359.302 349.272C358.838 348.648 358.582 347.936 358.534 347.136H360.79C360.854 347.792 361.158 348.328 361.702 348.744C362.262 349.16 362.99 349.368 363.886 349.368C364.718 349.368 365.374 349.184 365.854 348.816C366.334 348.448 366.574 347.984 366.574 347.424C366.574 346.848 366.318 346.424 365.806 346.152C365.294 345.864 364.502 345.584 363.43 345.312C362.454 345.056 361.654 344.8 361.03 344.544C360.422 344.272 359.894 343.88 359.446 343.368C359.014 342.84 358.798 342.152 358.798 341.304C358.798 340.632 358.998 340.016 359.398 339.456C359.798 338.896 360.366 338.456 361.102 338.136C361.838 337.8 362.678 337.632 363.622 337.632C365.078 337.632 366.254 338 367.15 338.736C368.046 339.472 368.526 340.48 368.59 341.76H366.406C366.358 341.072 366.078 340.52 365.566 340.104C365.07 339.688 364.398 339.48 363.55 339.48C362.766 339.48 362.142 339.648 361.678 339.984C361.214 340.32 360.982 340.76 360.982 341.304C360.982 341.736 361.118 342.096 361.39 342.384C361.678 342.656 362.03 342.88 362.446 343.056C362.878 343.216 363.47 343.4 364.222 343.608C365.166 343.864 365.934 344.12 366.526 344.376C367.118 344.616 367.622 344.984 368.038 345.48C368.47 345.976 368.694 346.624 368.71 347.424C368.71 348.144 368.51 348.792 368.11 349.368C367.71 349.944 367.142 350.4 366.406 350.736C365.686 351.056 364.854 351.216 363.91 351.216ZM370.977 344.376C370.977 343.032 371.249 341.856 371.793 340.848C372.337 339.824 373.081 339.032 374.025 338.472C374.985 337.912 376.049 337.632 377.217 337.632C378.369 337.632 379.369 337.88 380.217 338.376C381.065 338.872 381.697 339.496 382.113 340.248V337.848H384.321V351H382.113V348.552C381.681 349.32 381.033 349.96 380.169 350.472C379.321 350.968 378.329 351.216 377.193 351.216C376.025 351.216 374.969 350.928 374.025 350.352C373.081 349.776 372.337 348.968 371.793 347.928C371.249 346.888 370.977 345.704 370.977 344.376ZM382.113 344.4C382.113 343.408 381.913 342.544 381.513 341.808C381.113 341.072 380.569 340.512 379.881 340.128C379.209 339.728 378.465 339.528 377.649 339.528C376.833 339.528 376.089 339.72 375.417 340.104C374.745 340.488 374.209 341.048 373.809 341.784C373.409 342.52 373.209 343.384 373.209 344.376C373.209 345.384 373.409 346.264 373.809 347.016C374.209 347.752 374.745 348.32 375.417 348.72C376.089 349.104 376.833 349.296 377.649 349.296C378.465 349.296 379.209 349.104 379.881 348.72C380.569 348.32 381.113 347.752 381.513 347.016C381.913 346.264 382.113 345.392 382.113 344.4ZM390.676 339.648V347.4C390.676 348.04 390.812 348.496 391.084 348.768C391.356 349.024 391.828 349.152 392.5 349.152H394.108V351H392.14C390.924 351 390.012 350.72 389.404 350.16C388.796 349.6 388.492 348.68 388.492 347.4V339.648H386.788V337.848H388.492V334.536H390.676V337.848H394.108V339.648H390.676ZM408.754 343.92C408.754 344.336 408.73 344.776 408.682 345.24H398.17C398.25 346.536 398.69 347.552 399.49 348.288C400.306 349.008 401.29 349.368 402.442 349.368C403.386 349.368 404.17 349.152 404.794 348.72C405.434 348.272 405.882 347.68 406.138 346.944H408.49C408.138 348.208 407.434 349.24 406.378 350.04C405.322 350.824 404.01 351.216 402.442 351.216C401.194 351.216 400.074 350.936 399.082 350.376C398.106 349.816 397.338 349.024 396.778 348C396.218 346.96 395.938 345.76 395.938 344.4C395.938 343.04 396.21 341.848 396.754 340.824C397.298 339.8 398.058 339.016 399.034 338.472C400.026 337.912 401.162 337.632 402.442 337.632C403.69 337.632 404.794 337.904 405.754 338.448C406.714 338.992 407.45 339.744 407.962 340.704C408.49 341.648 408.754 342.72 408.754 343.92ZM406.498 343.464C406.498 342.632 406.314 341.92 405.946 341.328C405.578 340.72 405.074 340.264 404.434 339.96C403.81 339.64 403.114 339.48 402.346 339.48C401.242 339.48 400.298 339.832 399.514 340.536C398.746 341.24 398.306 342.216 398.194 343.464H406.498ZM423.301 337.848V351H421.117V349.056C420.701 349.728 420.117 350.256 419.365 350.64C418.629 351.008 417.813 351.192 416.917 351.192C415.893 351.192 414.973 350.984 414.157 350.568C413.341 350.136 412.693 349.496 412.213 348.648C411.749 347.8 411.517 346.768 411.517 345.552V337.848H413.677V345.264C413.677 346.56 414.005 347.56 414.661 348.264C415.317 348.952 416.213 349.296 417.349 349.296C418.517 349.296 419.437 348.936 420.109 348.216C420.781 347.496 421.117 346.448 421.117 345.072V337.848H423.301ZM429.173 339.984C429.557 339.232 430.101 338.648 430.805 338.232C431.525 337.816 432.397 337.608 433.421 337.608V339.864H432.845C430.397 339.864 429.173 341.192 429.173 343.848V351H426.989V337.848H429.173V339.984ZM440.598 351.216C439.59 351.216 438.686 351.048 437.886 350.712C437.086 350.36 436.454 349.88 435.99 349.272C435.526 348.648 435.27 347.936 435.222 347.136H437.478C437.542 347.792 437.846 348.328 438.39 348.744C438.95 349.16 439.678 349.368 440.574 349.368C441.406 349.368 442.062 349.184 442.542 348.816C443.022 348.448 443.262 347.984 443.262 347.424C443.262 346.848 443.006 346.424 442.494 346.152C441.982 345.864 441.19 345.584 440.118 345.312C439.142 345.056 438.342 344.8 437.718 344.544C437.11 344.272 436.582 343.88 436.134 343.368C435.702 342.84 435.486 342.152 435.486 341.304C435.486 340.632 435.686 340.016 436.086 339.456C436.486 338.896 437.054 338.456 437.79 338.136C438.526 337.8 439.366 337.632 440.31 337.632C441.766 337.632 442.942 338 443.838 338.736C444.734 339.472 445.214 340.48 445.278 341.76H443.094C443.046 341.072 442.766 340.52 442.254 340.104C441.758 339.688 441.086 339.48 440.238 339.48C439.454 339.48 438.83 339.648 438.366 339.984C437.902 340.32 437.67 340.76 437.67 341.304C437.67 341.736 437.806 342.096 438.078 342.384C438.366 342.656 438.718 342.88 439.134 343.056C439.566 343.216 440.158 343.4 440.91 343.608C441.854 343.864 442.622 344.12 443.214 344.376C443.806 344.616 444.31 344.984 444.726 345.48C445.158 345.976 445.382 346.624 445.398 347.424C445.398 348.144 445.198 348.792 444.798 349.368C444.398 349.944 443.83 350.4 443.094 350.736C442.374 351.056 441.542 351.216 440.598 351.216ZM456.641 328.392L450.065 355.08H447.905L454.457 328.392H456.641ZM469.351 334.272V336.048H462.079V341.688H467.983V343.464H462.079V351H459.895V334.272H469.351ZM471.173 344.376C471.173 343.032 471.445 341.856 471.989 340.848C472.533 339.824 473.277 339.032 474.221 338.472C475.181 337.912 476.245 337.632 477.413 337.632C478.565 337.632 479.565 337.88 480.413 338.376C481.261 338.872 481.893 339.496 482.309 340.248V337.848H484.517V351H482.309V348.552C481.877 349.32 481.229 349.96 480.365 350.472C479.517 350.968 478.525 351.216 477.389 351.216C476.221 351.216 475.165 350.928 474.221 350.352C473.277 349.776 472.533 348.968 471.989 347.928C471.445 346.888 471.173 345.704 471.173 344.376ZM482.309 344.4C482.309 343.408 482.109 342.544 481.709 341.808C481.309 341.072 480.765 340.512 480.077 340.128C479.405 339.728 478.661 339.528 477.845 339.528C477.029 339.528 476.285 339.72 475.613 340.104C474.941 340.488 474.405 341.048 474.005 341.784C473.605 342.52 473.405 343.384 473.405 344.376C473.405 345.384 473.605 346.264 474.005 347.016C474.405 347.752 474.941 348.32 475.613 348.72C476.285 349.104 477.029 349.296 477.845 349.296C478.661 349.296 479.405 349.104 480.077 348.72C480.765 348.32 481.309 347.752 481.709 347.016C482.109 346.264 482.309 345.392 482.309 344.4ZM494.615 337.608C496.215 337.608 497.511 338.096 498.503 339.072C499.495 340.032 499.991 341.424 499.991 343.248V351H497.831V343.56C497.831 342.248 497.503 341.248 496.847 340.56C496.191 339.856 495.295 339.504 494.159 339.504C493.007 339.504 492.087 339.864 491.399 340.584C490.727 341.304 490.391 342.352 490.391 343.728V351H488.207V337.848H490.391V339.72C490.823 339.048 491.407 338.528 492.143 338.16C492.895 337.792 493.719 337.608 494.615 337.608ZM508.215 351.216C507.207 351.216 506.303 351.048 505.503 350.712C504.703 350.36 504.071 349.88 503.607 349.272C503.143 348.648 502.887 347.936 502.839 347.136H505.095C505.159 347.792 505.463 348.328 506.007 348.744C506.567 349.16 507.295 349.368 508.191 349.368C509.023 349.368 509.679 349.184 510.159 348.816C510.639 348.448 510.879 347.984 510.879 347.424C510.879 346.848 510.623 346.424 510.111 346.152C509.599 345.864 508.807 345.584 507.735 345.312C506.759 345.056 505.959 344.8 505.335 344.544C504.727 344.272 504.199 343.88 503.751 343.368C503.319 342.84 503.103 342.152 503.103 341.304C503.103 340.632 503.303 340.016 503.703 339.456C504.103 338.896 504.671 338.456 505.407 338.136C506.143 337.8 506.983 337.632 507.927 337.632C509.383 337.632 510.559 338 511.455 338.736C512.351 339.472 512.831 340.48 512.895 341.76H510.711C510.663 341.072 510.383 340.52 509.871 340.104C509.375 339.688 508.703 339.48 507.855 339.48C507.071 339.48 506.447 339.648 505.983 339.984C505.519 340.32 505.287 340.76 505.287 341.304C505.287 341.736 505.423 342.096 505.695 342.384C505.983 342.656 506.335 342.88 506.751 343.056C507.183 343.216 507.775 343.4 508.527 343.608C509.471 343.864 510.239 344.12 510.831 344.376C511.423 344.616 511.927 344.984 512.343 345.48C512.775 345.976 512.999 346.624 513.015 347.424C513.015 348.144 512.815 348.792 512.415 349.368C512.015 349.944 511.447 350.4 510.711 350.736C509.991 351.056 509.159 351.216 508.215 351.216Z" fill="#020A44"/>
</svg>
