<svg width="69" height="69" viewBox="0 0 69 69" fill="none" xmlns="http://www.w3.org/2000/svg">
<g clip-path="url(#clip0_159_9)">
<path fill-rule="evenodd" clip-rule="evenodd" d="M58.7756 38.7761C57.1381 43.8013 53.9631 48.1764 49.6881 51.2765C49.4881 51.414 49.2881 51.5265 49.0631 51.6015V48.1264C49.0631 47.3139 48.7506 46.5764 48.2506 46.0263C50.9131 43.6762 52.9006 40.6386 54.0131 37.2385C55.3131 33.2258 55.3131 28.8882 54.0131 24.8755C52.7131 20.8629 50.1631 17.3627 46.7506 14.8751C43.3381 12.3875 39.2131 11.05 35.0006 11.05C30.7881 11.05 26.6631 12.3875 23.2506 14.8751C19.8381 17.3627 17.2881 20.8629 15.9881 24.8755C14.6881 28.8882 14.6881 33.2258 15.9881 37.2385C17.0381 40.4636 18.8756 43.3512 21.3381 45.6513C21.1006 46.0888 20.9631 46.5889 20.9631 47.1264V51.614C20.7381 51.539 20.5256 51.4265 20.3131 51.2765C16.0381 48.1764 12.8631 43.8013 11.2256 38.7761C9.60059 33.7509 9.60059 28.3507 11.2256 23.3255C12.8631 18.3003 16.0381 13.9251 20.3131 10.825C24.5756 7.72487 29.7256 6.0498 35.0006 6.0498C40.2756 6.0498 45.4256 7.72487 49.7006 10.825C53.9756 13.9251 57.1506 18.3003 58.7881 23.3255C60.4131 28.3507 60.4131 33.7634 58.7756 38.7761Z" fill="#101010"/>
<path fill-rule="evenodd" clip-rule="evenodd" d="M25.6377 47.1264V54.0017C25.6377 54.8642 24.9377 55.5642 24.0752 55.5642C23.2127 55.5642 22.5127 54.8642 22.5127 54.0017V47.1264C22.5127 46.9889 22.5377 46.8514 22.5627 46.7264C22.7377 46.0639 23.3502 45.5763 24.0752 45.5763C24.9377 45.5638 25.6377 46.2639 25.6377 47.1264Z" fill="#101010"/>
<path fill-rule="evenodd" clip-rule="evenodd" d="M47.5127 48.126V53.1262C47.5127 53.9888 46.8127 54.6888 45.9502 54.6888C45.0877 54.6888 44.3877 53.9888 44.3877 53.1262V48.126C44.3877 47.2635 45.0877 46.5635 45.9502 46.5635C46.3752 46.5635 46.7627 46.7385 47.0502 47.0135C47.3377 47.301 47.5127 47.6885 47.5127 48.126Z" fill="#101010"/>
<path fill-rule="evenodd" clip-rule="evenodd" d="M30.0371 44.126V57.164C30.0371 58.0266 29.3371 58.7266 28.4746 58.7266C27.6121 58.7266 26.9121 58.0266 26.9121 57.164V44.126C26.9121 43.2635 27.6121 42.5635 28.4746 42.5635C29.3371 42.5635 30.0371 43.2635 30.0371 44.126Z" fill="#101010"/>
<path fill-rule="evenodd" clip-rule="evenodd" d="M32.8252 44.1885C33.6877 44.1885 34.3877 44.8885 34.3877 45.751V55.5389C34.3877 56.4014 33.6877 57.1015 32.8252 57.1015C31.9627 57.1015 31.2627 56.4014 31.2627 55.5389V45.751C31.2627 44.8885 31.9627 44.1885 32.8252 44.1885Z" fill="#101010"/>
<path fill-rule="evenodd" clip-rule="evenodd" d="M37.1748 38.1885C38.0373 38.1885 38.7373 38.8885 38.7373 39.751V61.4894C38.7373 62.3519 38.0373 63.052 37.1748 63.052C36.3123 63.052 35.6123 62.3519 35.6123 61.4894V39.751C35.6123 38.8885 36.3123 38.1885 37.1748 38.1885Z" fill="#101010"/>
<path fill-rule="evenodd" clip-rule="evenodd" d="M43.0879 44.126V57.164C43.0879 58.0266 42.3879 58.7266 41.5254 58.7266C40.6629 58.7266 39.9629 58.0266 39.9629 57.164V44.126C39.9629 43.2635 40.6629 42.5635 41.5254 42.5635C42.3879 42.5635 43.0879 43.2635 43.0879 44.126Z" fill="#101010"/>
</g>
<defs>
<clipPath id="clip0_159_9">
<rect width="50" height="57.1272" fill="white" transform="translate(10 6)"/>
</clipPath>
</defs>
</svg>
