<svg width="51" height="58" viewBox="0 0 51 58" fill="none" xmlns="http://www.w3.org/2000/svg">
<g clip-path="url(#clip0_7116_582)">
<path fill-rule="evenodd" clip-rule="evenodd" d="M48.9753 32.987C47.3378 38.0122 44.1628 42.3874 39.8878 45.4875C39.6878 45.625 39.4878 45.7375 39.2628 45.8125V42.3374C39.2628 41.5248 38.9503 40.7873 38.4503 40.2373C41.1128 37.8872 43.1003 34.8496 44.2128 31.4494C45.5128 27.4368 45.5128 23.0991 44.2128 19.0865C42.9128 15.0738 40.3628 11.5737 36.9503 9.08608C33.5378 6.59848 29.4128 5.26093 25.2003 5.26093C20.9878 5.26093 16.8628 6.59848 13.4503 9.08608C10.0378 11.5737 7.48779 15.0738 6.18779 19.0865C4.88779 23.0991 4.88779 27.4368 6.18779 31.4494C7.23779 34.6746 9.07529 37.5622 11.5378 39.8623C11.3003 40.2998 11.1628 40.7998 11.1628 41.3373V45.825C10.9378 45.75 10.7253 45.6375 10.5128 45.4875C6.23779 42.3874 3.06279 38.0122 1.42529 32.987C-0.199707 27.9618 -0.199707 22.5616 1.42529 17.5364C3.06279 12.5112 6.23779 8.13604 10.5128 5.03592C14.7753 1.93581 19.9253 0.260742 25.2003 0.260742C30.4753 0.260742 35.6253 1.93581 39.9003 5.03592C44.1753 8.13604 47.3503 12.5112 48.9878 17.5364C50.6128 22.5616 50.6128 27.9743 48.9753 32.987Z" fill="white"/>
<path fill-rule="evenodd" clip-rule="evenodd" d="M15.8379 41.3378V48.2131C15.8379 49.0756 15.1379 49.7756 14.2754 49.7756C13.4129 49.7756 12.7129 49.0756 12.7129 48.2131V41.3378C12.7129 41.2003 12.7379 41.0628 12.7629 40.9378C12.9379 40.2753 13.5504 39.7878 14.2754 39.7878C15.1379 39.7753 15.8379 40.4753 15.8379 41.3378Z" fill="white"/>
<path fill-rule="evenodd" clip-rule="evenodd" d="M37.7129 42.338V47.3381C37.7129 48.2007 37.0129 48.9007 36.1504 48.9007C35.2879 48.9007 34.5879 48.2007 34.5879 47.3381V42.338C34.5879 41.4754 35.2879 40.7754 36.1504 40.7754C36.5754 40.7754 36.9629 40.9504 37.2504 41.2254C37.5379 41.5129 37.7129 41.9004 37.7129 42.338Z" fill="white"/>
<path fill-rule="evenodd" clip-rule="evenodd" d="M20.2378 38.3375V51.3755C20.2378 52.238 19.5378 52.938 18.6753 52.938C17.8128 52.938 17.1128 52.238 17.1128 51.3755V38.3375C17.1128 37.4749 17.8128 36.7749 18.6753 36.7749C19.5378 36.7749 20.2378 37.4749 20.2378 38.3375Z" fill="white"/>
<path fill-rule="evenodd" clip-rule="evenodd" d="M23.0254 38.3999C23.8879 38.3999 24.5879 39.0999 24.5879 39.9625V49.7503C24.5879 50.6129 23.8879 51.3129 23.0254 51.3129C22.1629 51.3129 21.4629 50.6129 21.4629 49.7503V39.9625C21.4629 39.0999 22.1629 38.3999 23.0254 38.3999Z" fill="white"/>
<path fill-rule="evenodd" clip-rule="evenodd" d="M27.375 32.3999C28.2375 32.3999 28.9375 33.0999 28.9375 33.9625V55.7008C28.9375 56.5634 28.2375 57.2634 27.375 57.2634C26.5125 57.2634 25.8125 56.5634 25.8125 55.7008V33.9625C25.8125 33.0999 26.5125 32.3999 27.375 32.3999Z" fill="white"/>
<path fill-rule="evenodd" clip-rule="evenodd" d="M33.2881 38.3375V51.3755C33.2881 52.238 32.5881 52.938 31.7256 52.938C30.8631 52.938 30.1631 52.238 30.1631 51.3755V38.3375C30.1631 37.4749 30.8631 36.7749 31.7256 36.7749C32.5881 36.7749 33.2881 37.4749 33.2881 38.3375Z" fill="white"/>
</g>
<defs>
<clipPath id="clip0_7116_582">
<rect width="50" height="57.1272" fill="white" transform="translate(0.200195 0.210938)"/>
</clipPath>
</defs>
</svg>
