<svg width="189" height="49" viewBox="0 0 189 49" fill="none" xmlns="http://www.w3.org/2000/svg">
<path d="M18.7471 26.7822C18.7471 28.0461 18.5066 29.2196 18.0257 30.303C17.5648 31.3863 16.9135 32.3191 16.0719 33.1015C15.2503 33.8839 14.2684 34.5058 13.1261 34.9672C12.0039 35.4086 10.7816 35.6293 9.45899 35.6293C8.13641 35.6293 6.90401 35.4086 5.76179 34.9672C4.6396 34.5058 3.65769 33.8839 2.81605 33.1015C1.99445 32.3191 1.34318 31.3863 0.862245 30.303C0.401347 29.2196 0.170898 28.0461 0.170898 26.7822V15.8862C0.170898 14.5581 1.24751 13.4815 2.57558 13.4815C3.90365 13.4815 4.98027 14.5581 4.98027 15.8862V26.4813C4.98027 27.1433 5.09048 27.7652 5.31091 28.347C5.53134 28.9288 5.84194 29.4403 6.24272 29.8817C6.64351 30.323 7.11442 30.6741 7.65548 30.9349C8.19653 31.1756 8.7977 31.296 9.45899 31.296C10.1203 31.296 10.7214 31.1756 11.2625 30.9349C11.8036 30.6741 12.2745 30.323 12.6753 29.8817C13.076 29.4403 13.3866 28.9288 13.6071 28.347C13.8275 27.7652 13.9377 27.1433 13.9377 26.4813V15.8862C13.9377 14.5581 15.0143 13.4815 16.3424 13.4815C17.6705 13.4815 18.7471 14.5581 18.7471 15.8862V26.7822Z" fill="#101010"/>
<path d="M42.9444 22.6897L37.5152 33.4049C36.9735 34.474 35.8768 35.1478 34.6783 35.1478C33.4799 35.1478 32.3832 34.474 31.8415 33.4049L26.4122 22.6897V32.7431C26.4122 34.0712 25.3356 35.1478 24.0076 35.1478C22.6795 35.1478 21.6029 34.0712 21.6029 32.7431V16.4098C21.6029 14.7925 22.9139 13.4815 24.5312 13.4815C25.6147 13.4815 26.6096 14.0798 27.1176 15.0368L34.6783 29.2798L42.2391 15.0368C42.7471 14.0798 43.742 13.4815 44.8255 13.4815C46.4428 13.4815 47.7538 14.7925 47.7538 16.4098V32.7431C47.7538 34.0712 46.6772 35.1478 45.3491 35.1478C44.0211 35.1478 42.9444 34.0712 42.9444 32.7431V22.6897Z" fill="#101010"/>
<path d="M74.9019 17.8147C73.7053 17.8147 72.7353 16.8447 72.7353 15.6481C72.7353 14.4515 73.7053 13.4815 74.9019 13.4815H87.8824C89.079 13.4815 90.049 14.4515 90.049 15.6481C90.049 16.8447 89.079 17.8147 87.8824 17.8147H83.7968V32.7431C83.7968 34.0712 82.7202 35.1478 81.3921 35.1478C80.0641 35.1478 78.9874 34.0712 78.9874 32.7431V17.8147H74.9019Z" fill="#101010"/>
<path d="M110.138 28.1062C111.842 28.1062 112.997 29.8173 111.93 31.1455C111.208 32.0684 110.367 32.8608 109.405 33.5228C108.443 34.1848 107.381 34.7064 106.219 35.0876C105.076 35.4487 103.864 35.6293 102.582 35.6293C100.958 35.6293 99.4254 35.3384 97.9826 34.7566C96.5598 34.1548 95.3074 33.3423 94.2253 32.3191C93.1632 31.296 92.3215 30.1024 91.7003 28.7382C91.0992 27.3539 90.7986 25.8794 90.7986 24.3146C90.7986 22.7498 91.0992 21.2854 91.7003 19.9212C92.3215 18.5369 93.1632 17.3333 94.2253 16.3101C95.3074 15.287 96.5598 14.4845 97.9826 13.9028C99.4254 13.3009 100.958 13 102.582 13C103.864 13 105.086 13.1906 106.249 13.5718C107.431 13.9329 108.503 14.4545 109.465 15.1365C110.447 15.7986 111.299 16.601 112.02 17.5439C113.065 18.8802 111.91 20.5832 110.214 20.5832H109.93C109.023 20.5832 108.207 20.0901 107.574 19.4402C107.118 18.9723 106.597 18.5709 106.008 18.236C104.986 17.6342 103.844 17.3333 102.582 17.3333C101.62 17.3333 100.708 17.5238 99.8462 17.905C99.0046 18.2661 98.2631 18.7677 97.6219 19.4096C97.0007 20.0315 96.5097 20.7638 96.149 21.6063C95.7883 22.4489 95.6079 23.3517 95.6079 24.3146C95.6079 25.2776 95.7883 26.1904 96.149 27.053C96.5097 27.8956 97.0007 28.6379 97.6219 29.2798C98.2631 29.9017 99.0046 30.3932 99.8462 30.7543C100.708 31.1155 101.62 31.296 102.582 31.296C103.824 31.296 104.946 31.0051 105.948 30.4233C106.535 30.0891 107.056 29.6921 107.511 29.2321C108.144 28.5915 108.957 28.1062 109.858 28.1062H110.138Z" fill="#101010"/>
<path d="M129.81 21.8471V15.8862C129.81 14.5581 130.887 13.4815 132.215 13.4815C133.543 13.4815 134.619 14.5581 134.619 15.8862V32.7431C134.619 34.0712 133.543 35.1478 132.215 35.1478C130.887 35.1478 129.81 34.0712 129.81 32.7431V26.1803H120.492V32.7431C120.492 34.0712 119.415 35.1478 118.087 35.1478C116.759 35.1478 115.683 34.0712 115.683 32.7431V15.8862C115.683 14.5581 116.759 13.4815 118.087 13.4815C119.415 13.4815 120.492 14.5581 120.492 15.8862V21.8471H129.81Z" fill="#101010"/>
<path d="M72.1214 31.8219L64.6421 15.0543C64.1228 13.8901 62.9629 13.1396 61.6828 13.1396C60.4027 13.1396 59.2428 13.8901 58.7235 15.0543L51.2441 31.8219C50.5039 33.4814 51.7248 35.3499 53.5495 35.3499C54.5739 35.3499 55.4965 34.7334 55.8842 33.79L61.6828 19.6793L67.4814 33.79C67.869 34.7334 68.7917 35.3499 69.816 35.3499C71.6407 35.3499 72.8617 33.4815 72.1214 31.8219Z" fill="#218380"/>
<path fill-rule="evenodd" clip-rule="evenodd" d="M55.8842 33.79C55.4965 34.7334 54.5739 35.3499 53.5495 35.3499C51.7248 35.3499 50.5039 33.4814 51.2441 31.8219L58.7235 15.0543C59.2428 13.8901 60.4027 13.1396 61.6828 13.1396C62.9629 13.1396 64.1228 13.8901 64.6421 15.0543L72.1214 31.8219C72.8617 33.4815 71.6407 35.3499 69.816 35.3499C68.7917 35.3499 67.869 34.7334 67.4814 33.79L61.6828 19.6793L55.8842 33.79Z" fill="#218380"/>
<path fill-rule="evenodd" clip-rule="evenodd" d="M150.052 18.3724V30.1979C150.052 31.6814 148.862 32.8855 147.394 32.8855C145.927 32.8855 144.736 31.6814 144.736 30.1979V18.3724C144.736 18.1359 144.779 17.8994 144.821 17.6844C145.119 16.5449 146.161 15.7063 147.394 15.7063C148.862 15.6848 150.052 16.8889 150.052 18.3724Z" fill="#218380"/>
<path fill-rule="evenodd" clip-rule="evenodd" d="M187.264 20.0929V28.6932C187.264 30.1768 186.073 31.3808 184.606 31.3808C183.139 31.3808 181.948 30.1768 181.948 28.6932V20.0929C181.948 18.6093 183.139 17.4053 184.606 17.4053C185.329 17.4053 185.988 17.7063 186.477 18.1793C186.967 18.6738 187.264 19.3403 187.264 20.0929Z" fill="#218380"/>
<path fill-rule="evenodd" clip-rule="evenodd" d="M157.537 13.213V35.6383C157.537 37.1219 156.346 38.3259 154.879 38.3259C153.411 38.3259 152.221 37.1219 152.221 35.6383V13.213C152.221 11.7294 153.411 10.5254 154.879 10.5254C156.346 10.5254 157.537 11.7294 157.537 13.213Z" fill="#218380"/>
<path fill-rule="evenodd" clip-rule="evenodd" d="M162.279 13.3193C163.746 13.3193 164.937 14.5234 164.937 16.0069V32.8421C164.937 34.3256 163.746 35.5297 162.279 35.5297C160.812 35.5297 159.621 34.3256 159.621 32.8421V16.0069C159.621 14.5234 160.812 13.3193 162.279 13.3193Z" fill="#218380"/>
<path fill-rule="evenodd" clip-rule="evenodd" d="M169.679 3C171.146 3 172.337 4.20405 172.337 5.68761V43.0776C172.337 44.5611 171.146 45.7652 169.679 45.7652C168.211 45.7652 167.021 44.5611 167.021 43.0776V5.68761C167.021 4.20405 168.211 3 169.679 3Z" fill="#218380"/>
<path fill-rule="evenodd" clip-rule="evenodd" d="M179.737 13.213V35.6383C179.737 37.1219 178.546 38.3259 177.079 38.3259C175.612 38.3259 174.421 37.1219 174.421 35.6383V13.213C174.421 11.7294 175.612 10.5254 177.079 10.5254C178.546 10.5254 179.737 11.7294 179.737 13.213Z" fill="#218380"/>
</svg>
