<svg width="162" height="42" viewBox="0 0 162 42" fill="none" xmlns="http://www.w3.org/2000/svg">
<path d="M16.0401 22.9514C16.0401 24.0328 15.8343 25.037 15.4228 25.9639C15.0285 26.8908 14.4712 27.6889 13.7511 28.3583C13.0481 29.0278 12.208 29.5599 11.2307 29.9547C10.2705 30.3323 9.22464 30.5211 8.09303 30.5211C6.96141 30.5211 5.90695 30.3323 4.92964 29.9547C3.96949 29.5599 3.12935 29.0278 2.40923 28.3583C1.70625 27.6889 1.14902 26.8908 0.737523 25.9639C0.343172 25.037 0.145996 24.0328 0.145996 22.9514V13.6286C0.145996 12.4923 1.06716 11.5711 2.20348 11.5711C3.3398 11.5711 4.26096 12.4923 4.26096 13.6286V22.694C4.26096 23.2604 4.35526 23.7925 4.54387 24.2903C4.73247 24.7881 4.99823 25.2258 5.34114 25.6034C5.68406 25.981 6.08698 26.2814 6.54991 26.5045C7.01285 26.7105 7.52722 26.8135 8.09303 26.8135C8.65883 26.8135 9.1732 26.7105 9.63614 26.5045C10.0991 26.2814 10.502 25.981 10.8449 25.6034C11.1878 25.2258 11.4536 24.7881 11.6422 24.2903C11.8308 23.7925 11.9251 23.2604 11.9251 22.694V13.6286C11.9251 12.4923 12.8463 11.5711 13.9826 11.5711C15.1189 11.5711 16.0401 12.4923 16.0401 13.6286V22.9514Z" fill="#020A44"/>
<path d="M36.7437 19.4498L32.0984 28.618C31.6349 29.5327 30.6965 30.1092 29.6711 30.1092C28.6456 30.1092 27.7073 29.5327 27.2438 28.618L22.5985 19.4498V28.0517C22.5985 29.188 21.6773 30.1092 20.541 30.1092C19.4047 30.1092 18.4835 29.188 18.4835 28.0517V14.0766C18.4835 12.6929 19.6053 11.5711 20.989 11.5711C21.9161 11.5711 22.7673 12.083 23.202 12.9019L29.6711 25.0884L36.1402 12.9019C36.5748 12.083 37.4261 11.5711 38.3532 11.5711C39.7369 11.5711 40.8586 12.6929 40.8586 14.0766V28.0517C40.8586 29.188 39.9375 30.1092 38.8012 30.1092C37.6648 30.1092 36.7437 29.188 36.7437 28.0517V19.4498Z" fill="#020A44"/>
<path d="M64.087 15.2787C63.0631 15.2787 62.2332 14.4488 62.2332 13.4249C62.2332 12.4011 63.0631 11.5711 64.087 11.5711H75.1932C76.2171 11.5711 77.047 12.4011 77.047 13.4249C77.047 14.4488 76.2171 15.2787 75.1932 15.2787H71.6976V28.0517C71.6976 29.188 70.7764 30.1092 69.6401 30.1092C68.5038 30.1092 67.5826 29.188 67.5826 28.0517V15.2787H64.087Z" fill="#020A44"/>
<path d="M94.2357 24.0843C95.6936 24.0843 96.6816 25.5483 95.7685 26.6848C95.1513 27.4744 94.4312 28.1524 93.6082 28.7188C92.7852 29.2853 91.8765 29.7315 90.882 30.0577C89.9047 30.3666 88.8674 30.5211 87.7701 30.5211C86.3813 30.5211 85.0696 30.2722 83.8351 29.7744C82.6178 29.2595 81.5462 28.5643 80.6203 27.6889C79.7116 26.8135 78.9915 25.7922 78.46 24.625C77.9456 23.4406 77.6884 22.179 77.6884 20.8401C77.6884 19.5013 77.9456 18.2483 78.46 17.081C78.9915 15.8967 79.7116 14.8668 80.6203 13.9914C81.5462 13.116 82.6178 12.4294 83.8351 11.9316C85.0696 11.4167 86.3813 11.1592 87.7701 11.1592C88.8674 11.1592 89.9133 11.3222 90.9077 11.6484C91.9193 11.9573 92.8366 12.4036 93.6596 12.9872C94.4998 13.5537 95.2284 14.2403 95.8457 15.047C96.7395 16.1903 95.752 17.6475 94.3008 17.6475H94.0574C93.2814 17.6475 92.583 17.2255 92.0417 16.6695C91.6519 16.2692 91.2054 15.9258 90.702 15.6392C89.8275 15.1243 88.8502 14.8668 87.7701 14.8668C86.9471 14.8668 86.1669 15.0299 85.4297 15.356C84.7096 15.665 84.0752 16.0941 83.5265 16.6433C82.995 17.1755 82.5749 17.802 82.2663 18.5229C81.9577 19.2438 81.8034 20.0162 81.8034 20.8401C81.8034 21.6641 81.9577 22.4451 82.2663 23.1832C82.5749 23.9041 82.995 24.5392 83.5265 25.0884C84.0752 25.6206 84.7096 26.0411 85.4297 26.3501C86.1669 26.659 86.9471 26.8135 87.7701 26.8135C88.8331 26.8135 89.7933 26.5646 90.6505 26.0668C91.1528 25.7809 91.5986 25.4412 91.9877 25.0476C92.5297 24.4995 93.2251 24.0843 93.996 24.0843H94.2357Z" fill="#020A44"/>
<path d="M111.067 18.7289V13.6286C111.067 12.4923 111.988 11.5711 113.125 11.5711C114.261 11.5711 115.182 12.4923 115.182 13.6286V28.0517C115.182 29.188 114.261 30.1092 113.125 30.1092C111.988 30.1092 111.067 29.188 111.067 28.0517V22.4365H103.094V28.0517C103.094 29.188 102.173 30.1092 101.037 30.1092C99.9007 30.1092 98.9795 29.188 98.9795 28.0517V13.6286C98.9795 12.4923 99.9007 11.5711 101.037 11.5711C102.173 11.5711 103.094 12.4923 103.094 13.6286V18.7289H111.067Z" fill="#020A44"/>
<path d="M61.7081 27.2641L55.3087 12.9175C54.8644 11.9214 53.8719 11.2793 52.7767 11.2793C51.6814 11.2793 50.689 11.9214 50.2446 12.9175L43.8452 27.2641C43.2118 28.684 44.2565 30.2827 45.8178 30.2827C46.6942 30.2827 47.4836 29.7552 47.8153 28.948L52.7767 16.8747L57.738 28.948C58.0697 29.7552 58.8591 30.2827 59.7356 30.2827C61.2969 30.2827 62.3415 28.684 61.7081 27.2641Z" fill="#020A44"/>
<path fill-rule="evenodd" clip-rule="evenodd" d="M47.8153 28.948C47.4836 29.7552 46.6942 30.2827 45.8178 30.2827C44.2565 30.2827 43.2118 28.684 43.8452 27.2641L50.2446 12.9175C50.689 11.9214 51.6814 11.2793 52.7767 11.2793C53.8719 11.2793 54.8644 11.9214 55.3087 12.9175L61.7081 27.2641C62.3415 28.684 61.2969 30.2827 59.7356 30.2827C58.8591 30.2827 58.0697 29.7552 57.738 28.948L52.7767 16.8747L47.8153 28.948Z" fill="#020A44"/>
<path fill-rule="evenodd" clip-rule="evenodd" d="M128.386 15.757V25.875C128.386 27.1444 127.368 28.1746 126.112 28.1746C124.857 28.1746 123.838 27.1444 123.838 25.875V15.757C123.838 15.5546 123.874 15.3523 123.911 15.1683C124.165 14.1933 125.057 13.4758 126.112 13.4758C127.368 13.4574 128.386 14.4876 128.386 15.757Z" fill="#020A44"/>
<path fill-rule="evenodd" clip-rule="evenodd" d="M160.226 17.2283V24.5868C160.226 25.8562 159.207 26.8864 157.951 26.8864C156.696 26.8864 155.677 25.8562 155.677 24.5868V17.2283C155.677 15.9589 156.696 14.9287 157.951 14.9287C158.57 14.9287 159.134 15.1863 159.553 15.591C159.971 16.0141 160.226 16.5844 160.226 17.2283Z" fill="#020A44"/>
<path fill-rule="evenodd" clip-rule="evenodd" d="M134.79 11.3415V30.529C134.79 31.7984 133.771 32.8286 132.515 32.8286C131.26 32.8286 130.241 31.7984 130.241 30.529V11.3415C130.241 10.0722 131.26 9.04199 132.515 9.04199C133.771 9.04199 134.79 10.0722 134.79 11.3415Z" fill="#020A44"/>
<path fill-rule="evenodd" clip-rule="evenodd" d="M138.848 11.4336C140.103 11.4336 141.122 12.4638 141.122 13.7331V28.1375C141.122 29.4069 140.103 30.4371 138.848 30.4371C137.593 30.4371 136.574 29.4069 136.574 28.1375V13.7331C136.574 12.4638 137.593 11.4336 138.848 11.4336Z" fill="#020A44"/>
<path fill-rule="evenodd" clip-rule="evenodd" d="M145.179 2.60352C146.434 2.60352 147.453 3.63372 147.453 4.90307V36.8945C147.453 38.1638 146.434 39.194 145.179 39.194C143.923 39.194 142.904 38.1638 142.904 36.8945V4.90307C142.904 3.63372 143.923 2.60352 145.179 2.60352Z" fill="#020A44"/>
<path fill-rule="evenodd" clip-rule="evenodd" d="M153.785 11.3415V30.529C153.785 31.7984 152.766 32.8286 151.511 32.8286C150.256 32.8286 149.237 31.7984 149.237 30.529V11.3415C149.237 10.0722 150.256 9.04199 151.511 9.04199C152.766 9.04199 153.785 10.0722 153.785 11.3415Z" fill="#020A44"/>
</svg>
