<svg width="626" height="504" viewBox="0 0 626 504" fill="none" xmlns="http://www.w3.org/2000/svg">
<path opacity="0.5" d="M13.7135 147.152V150.44H9.24947V164H5.14547V150.44H0.681469V147.152H13.7135ZM19.8772 152.84C20.3572 152.104 20.9572 151.528 21.6772 151.112C22.3972 150.68 23.1972 150.464 24.0772 150.464V154.808H22.9492C21.9252 154.808 21.1572 155.032 20.6452 155.48C20.1332 155.912 19.8772 156.68 19.8772 157.784V164H15.7732V150.608H19.8772V152.84ZM25.2228 157.28C25.2228 155.904 25.4788 154.696 25.9908 153.656C26.5188 152.616 27.2308 151.816 28.1268 151.256C29.0228 150.696 30.0228 150.416 31.1268 150.416C32.0708 150.416 32.8948 150.608 33.5988 150.992C34.3188 151.376 34.8708 151.88 35.2548 152.504V150.608H39.3588V164H35.2548V162.104C34.8548 162.728 34.2948 163.232 33.5748 163.616C32.8708 164 32.0468 164.192 31.1028 164.192C30.0148 164.192 29.0228 163.912 28.1268 163.352C27.2308 162.776 26.5188 161.968 25.9908 160.928C25.4788 159.872 25.2228 158.656 25.2228 157.28ZM35.2548 157.304C35.2548 156.28 34.9668 155.472 34.3908 154.88C33.8308 154.288 33.1428 153.992 32.3268 153.992C31.5108 153.992 30.8148 154.288 30.2388 154.88C29.6788 155.456 29.3988 156.256 29.3988 157.28C29.3988 158.304 29.6788 159.12 30.2388 159.728C30.8148 160.32 31.5108 160.616 32.3268 160.616C33.1428 160.616 33.8308 160.32 34.3908 159.728C34.9668 159.136 35.2548 158.328 35.2548 157.304ZM50.4878 150.464C52.0558 150.464 53.3038 150.976 54.2318 152C55.1758 153.008 55.6478 154.4 55.6478 156.176V164H51.5678V156.728C51.5678 155.832 51.3358 155.136 50.8718 154.64C50.4078 154.144 49.7838 153.896 48.9998 153.896C48.2158 153.896 47.5918 154.144 47.1278 154.64C46.6638 155.136 46.4318 155.832 46.4318 156.728V164H42.3278V150.608H46.4318V152.384C46.8478 151.792 47.4078 151.328 48.1118 150.992C48.8158 150.64 49.6078 150.464 50.4878 150.464ZM63.9477 164.192C62.7797 164.192 61.7397 163.992 60.8277 163.592C59.9157 163.192 59.1957 162.648 58.6677 161.96C58.1397 161.256 57.8437 160.472 57.7797 159.608H61.8357C61.8837 160.072 62.0997 160.448 62.4837 160.736C62.8677 161.024 63.3397 161.168 63.8997 161.168C64.4117 161.168 64.8037 161.072 65.0757 160.88C65.3637 160.672 65.5077 160.408 65.5077 160.088C65.5077 159.704 65.3077 159.424 64.9077 159.248C64.5077 159.056 63.8597 158.848 62.9637 158.624C62.0037 158.4 61.2037 158.168 60.5637 157.928C59.9237 157.672 59.3717 157.28 58.9077 156.752C58.4437 156.208 58.2117 155.48 58.2117 154.568C58.2117 153.8 58.4197 153.104 58.8357 152.48C59.2677 151.84 59.8917 151.336 60.7077 150.968C61.5397 150.6 62.5237 150.416 63.6597 150.416C65.3397 150.416 66.6597 150.832 67.6197 151.664C68.5957 152.496 69.1557 153.6 69.2997 154.976H65.5077C65.4437 154.512 65.2357 154.144 64.8837 153.872C64.5477 153.6 64.0997 153.464 63.5397 153.464C63.0597 153.464 62.6917 153.56 62.4357 153.752C62.1797 153.928 62.0517 154.176 62.0517 154.496C62.0517 154.88 62.2517 155.168 62.6517 155.36C63.0677 155.552 63.7077 155.744 64.5717 155.936C65.5637 156.192 66.3717 156.448 66.9957 156.704C67.6197 156.944 68.1637 157.344 68.6277 157.904C69.1077 158.448 69.3557 159.184 69.3717 160.112C69.3717 160.896 69.1477 161.6 68.6997 162.224C68.2677 162.832 67.6357 163.312 66.8037 163.664C65.9877 164.016 65.0357 164.192 63.9477 164.192ZM75.9865 152.504C76.3865 151.88 76.9385 151.376 77.6425 150.992C78.3465 150.608 79.1705 150.416 80.1145 150.416C81.2185 150.416 82.2185 150.696 83.1145 151.256C84.0105 151.816 84.7145 152.616 85.2265 153.656C85.7545 154.696 86.0185 155.904 86.0185 157.28C86.0185 158.656 85.7545 159.872 85.2265 160.928C84.7145 161.968 84.0105 162.776 83.1145 163.352C82.2185 163.912 81.2185 164.192 80.1145 164.192C79.1865 164.192 78.3625 164 77.6425 163.616C76.9385 163.232 76.3865 162.736 75.9865 162.128V170.384H71.8825V150.608H75.9865V152.504ZM81.8425 157.28C81.8425 156.256 81.5545 155.456 80.9785 154.88C80.4185 154.288 79.7225 153.992 78.8905 153.992C78.0745 153.992 77.3785 154.288 76.8025 154.88C76.2425 155.472 75.9625 156.28 75.9625 157.304C75.9625 158.328 76.2425 159.136 76.8025 159.728C77.3785 160.32 78.0745 160.616 78.8905 160.616C79.7065 160.616 80.4025 160.32 80.9785 159.728C81.5545 159.12 81.8425 158.304 81.8425 157.28ZM87.3556 157.28C87.3556 155.904 87.6116 154.696 88.1236 153.656C88.6516 152.616 89.3636 151.816 90.2596 151.256C91.1556 150.696 92.1556 150.416 93.2596 150.416C94.2036 150.416 95.0276 150.608 95.7316 150.992C96.4516 151.376 97.0036 151.88 97.3876 152.504V150.608H101.492V164H97.3876V162.104C96.9876 162.728 96.4276 163.232 95.7076 163.616C95.0036 164 94.1796 164.192 93.2356 164.192C92.1476 164.192 91.1556 163.912 90.2596 163.352C89.3636 162.776 88.6516 161.968 88.1236 160.928C87.6116 159.872 87.3556 158.656 87.3556 157.28ZM97.3876 157.304C97.3876 156.28 97.0996 155.472 96.5236 154.88C95.9636 154.288 95.2756 153.992 94.4596 153.992C93.6436 153.992 92.9476 154.288 92.3716 154.88C91.8116 155.456 91.5316 156.256 91.5316 157.28C91.5316 158.304 91.8116 159.12 92.3716 159.728C92.9476 160.32 93.6436 160.616 94.4596 160.616C95.2756 160.616 95.9636 160.32 96.5236 159.728C97.0996 159.136 97.3876 158.328 97.3876 157.304ZM108.565 152.84C109.045 152.104 109.645 151.528 110.365 151.112C111.085 150.68 111.885 150.464 112.765 150.464V154.808H111.637C110.613 154.808 109.845 155.032 109.333 155.48C108.821 155.912 108.565 156.68 108.565 157.784V164H104.461V150.608H108.565V152.84ZM127.35 157.088C127.35 157.472 127.326 157.872 127.278 158.288H117.99C118.054 159.12 118.318 159.76 118.782 160.208C119.262 160.64 119.846 160.856 120.534 160.856C121.558 160.856 122.27 160.424 122.67 159.56H127.038C126.814 160.44 126.406 161.232 125.814 161.936C125.238 162.64 124.51 163.192 123.63 163.592C122.75 163.992 121.766 164.192 120.678 164.192C119.366 164.192 118.198 163.912 117.174 163.352C116.15 162.792 115.35 161.992 114.774 160.952C114.198 159.912 113.91 158.696 113.91 157.304C113.91 155.912 114.19 154.696 114.75 153.656C115.326 152.616 116.126 151.816 117.15 151.256C118.174 150.696 119.35 150.416 120.678 150.416C121.974 150.416 123.126 150.688 124.134 151.232C125.142 151.776 125.926 152.552 126.486 153.56C127.062 154.568 127.35 155.744 127.35 157.088ZM123.15 156.008C123.15 155.304 122.91 154.744 122.43 154.328C121.95 153.912 121.35 153.704 120.63 153.704C119.942 153.704 119.358 153.904 118.878 154.304C118.414 154.704 118.126 155.272 118.014 156.008H123.15ZM137.675 150.464C139.243 150.464 140.491 150.976 141.419 152C142.363 153.008 142.835 154.4 142.835 156.176V164H138.755V156.728C138.755 155.832 138.523 155.136 138.059 154.64C137.595 154.144 136.971 153.896 136.187 153.896C135.403 153.896 134.779 154.144 134.315 154.64C133.851 155.136 133.619 155.832 133.619 156.728V164H129.515V150.608H133.619V152.384C134.035 151.792 134.595 151.328 135.299 150.992C136.003 150.64 136.795 150.464 137.675 150.464ZM144.871 157.304C144.871 155.912 145.151 154.696 145.711 153.656C146.287 152.616 147.079 151.816 148.087 151.256C149.111 150.696 150.279 150.416 151.591 150.416C153.271 150.416 154.671 150.856 155.791 151.736C156.927 152.616 157.671 153.856 158.023 155.456H153.655C153.287 154.432 152.575 153.92 151.519 153.92C150.767 153.92 150.167 154.216 149.719 154.808C149.271 155.384 149.047 156.216 149.047 157.304C149.047 158.392 149.271 159.232 149.719 159.824C150.167 160.4 150.767 160.688 151.519 160.688C152.575 160.688 153.287 160.176 153.655 159.152H158.023C157.671 160.72 156.927 161.952 155.791 162.848C154.655 163.744 153.255 164.192 151.591 164.192C150.279 164.192 149.111 163.912 148.087 163.352C147.079 162.792 146.287 161.992 145.711 160.952C145.151 159.912 144.871 158.696 144.871 157.304ZM173.898 150.608L165.498 170.36H161.082L164.154 163.544L158.706 150.608H163.29L166.386 158.984L169.458 150.608H173.898Z" fill="#FBB13C"/>
<path fill-rule="evenodd" clip-rule="evenodd" d="M282.294 90.6622C334.434 61.5979 394.298 76.937 446.472 96.9384C490.197 113.701 519.492 147.436 538.512 188.885C559.931 235.565 582.639 288.093 556.477 336.675C528.874 387.935 469.315 418.504 411.513 424.717C358.907 430.372 319.177 396.919 280.101 366.382C236.473 332.289 180.803 301.34 181.253 244.777C181.741 183.397 225.039 122.577 282.294 90.6622Z" fill="url(#paint0_radial_1130_4)"/>
<path d="M433.122 231.552C432.992 229.883 431.355 228.784 429.819 228.117C427.574 227.143 424.889 226.258 424.025 223.967C423.934 223.768 423.905 223.546 423.942 223.33C424.017 223.11 424.161 222.92 424.353 222.789C425.646 221.761 427.68 221.829 428.897 222.943C428.035 222.943 427.426 221.877 427.75 221.079C428.073 220.281 429.088 219.903 429.915 220.147C430.742 220.392 431.352 221.138 431.607 221.959C431.184 220.341 431.525 218.619 432.533 217.286C432.936 216.769 433.472 216.296 434.122 216.181C435.531 215.934 436.646 217.369 437.155 218.704C437.846 220.517 438.1 222.466 437.897 224.396C438.543 223.442 439.464 222.365 440.599 222.573C441.671 222.77 442.178 223.996 442.423 225.054C442.952 227.352 443.124 229.719 442.931 232.069L442.943 231.212" fill="#020A44"/>
<path d="M445.939 231.657C446.036 228.708 447.533 225.981 449.97 224.316C450.313 224.887 450.455 225.555 450.376 226.216C450.068 222.695 453.093 219.813 456.068 217.917C456.297 217.772 456.545 217.623 456.816 217.631C457.462 217.651 457.733 218.478 457.707 219.125C457.643 220.529 457.041 221.854 456.025 222.826C456.305 221.624 456.958 220.129 458.188 220.23C459.022 220.297 459.603 221.18 459.621 222.017C459.64 222.854 459.241 223.641 458.827 224.368C456.827 227.875 454.207 230.99 451.094 233.561C450.661 233.92 449.846 234.169 449.681 233.632" fill="#020A44"/>
<path d="M439.726 233.189C439.444 226.482 435.791 219.994 430.2 216.287C428.957 215.46 427.601 214.742 426.636 213.604C425.671 212.465 425.195 210.736 425.989 209.471C426.783 208.206 429.094 208.14 429.581 209.548C428.465 208.921 427.382 207.818 427.58 206.552C427.778 205.287 430.013 204.851 430.233 206.113L426.094 201.884C426.624 200.638 428.762 200.634 429.297 201.884C422.803 200.02 419.853 192.681 417.784 186.247C419.692 185.729 421.89 186.617 422.905 188.316C420.333 185.765 418.783 182.36 418.548 178.744C418.467 177.411 418.643 175.911 419.663 175.049C420.636 174.23 422.08 174.262 423.294 174.635C426.641 175.663 428.898 178.734 430.682 181.75C435.914 190.602 439.169 200.482 440.221 210.711C440.926 209.103 442.801 207.219 444.041 208.46C444.362 208.783 444.5 209.237 444.583 209.688C444.888 211.34 444.602 213.047 443.776 214.511C445.156 214.212 446.242 215.992 445.864 217.357C445.486 218.721 444.253 219.638 443.098 220.452C444.65 224.786 444.909 229.477 443.845 233.955" fill="#020A44"/>
<path d="M441.208 226.82C442.114 218.389 441.708 209.868 440.005 201.561C439.401 198.62 439.168 194.621 441.986 193.583L443.424 196.04C443.178 194.673 442.937 193.238 443.369 191.918C443.801 190.597 445.149 189.46 446.502 189.777C445.914 188.373 445.315 186.849 445.666 185.368C446.017 183.887 447.794 182.676 449.091 183.473C446.159 174.855 446.923 165.046 451.161 156.985C451.855 155.666 452.774 154.283 454.215 153.904C455.549 153.553 456.954 154.181 458.052 155.015C462.224 158.184 463.365 163.953 463.462 169.192C463.644 180.309 460.548 191.234 454.558 200.602C456.073 200.204 456.628 198.229 458.051 197.564C460.061 196.62 462.285 199.14 461.973 201.338C461.661 203.535 459.87 205.184 458.191 206.641L461.148 206.53C459.8 210.231 457.348 213.429 454.124 215.691C455.345 213.545 459.169 213.952 460 216.276C460.832 218.601 458.319 221.321 455.914 220.769L457.65 222.009C455.426 223.76 452.683 224.696 450.239 226.126C447.795 227.555 445.5 229.775 445.257 232.594" fill="#020A44"/>
<path d="M378.92 164.857H360.174C351.387 164.857 343.353 169.821 339.422 177.68L331.855 192.808C329.701 197.115 328.528 201.847 328.422 206.662L328.366 209.227C328.26 214.038 325.523 218.403 321.24 220.594L313.557 224.526C309.571 226.565 307.064 230.664 307.063 235.141C307.063 241.726 312.402 247.065 318.987 247.065H384.573C401.66 247.065 415.811 233.794 416.906 216.741C417.179 212.491 416.612 208.23 415.236 204.2L409.203 186.522C404.783 173.565 392.61 164.856 378.92 164.857V164.857Z" fill="#D81159"/>
<path d="M364.136 147.447C363.114 147.11 362.268 146.125 362.324 145.051C362.381 143.977 363.557 143.042 364.568 143.412C364.228 142.483 364.421 141.442 365.071 140.696C365.721 139.95 366.725 139.616 367.692 139.825C368.299 138.135 369.87 136.982 371.664 136.908C373.458 136.833 375.118 137.853 375.863 139.487C377.081 138.39 379.227 139.01 380.053 140.425C380.88 141.84 380.607 143.682 379.822 145.119C380.76 144.312 382.348 145.266 382.562 146.485C382.775 147.705 382.101 148.893 381.388 149.907C382.294 149.691 383.044 150.813 382.859 151.718C382.674 152.624 381.923 153.292 381.215 153.889C382.007 153.697 382.553 154.863 382.157 155.57C381.761 156.278 380.906 156.578 380.126 156.814C380.683 157.164 380.505 158.107 379.96 158.472C379.416 158.837 378.704 158.819 378.047 158.779C378.765 158.976 378.823 160.088 378.285 160.606C377.747 161.125 376.936 161.198 376.191 161.212C376.487 161.689 376.398 162.311 375.979 162.685C375.559 163.059 374.932 163.078 374.491 162.729C372.869 164.023 370.047 163.09 369.503 161.093" fill="#101010"/>
<path d="M362.322 236.911L356.574 240.618L366.822 245.822L368.092 248.984C368.228 249.247 368.51 249.401 368.805 249.373C369.1 249.344 369.348 249.139 369.43 248.855L371.289 242.49C371.296 242.467 371.302 242.445 371.306 242.421C371.36 242.114 371.196 241.81 370.909 241.688C370.4 241.456 369.885 241.239 369.4 240.961L362.322 236.911Z" fill="#101010"/>
<path d="M354.539 238.755L354.608 238.711L352.57 237.676C352.918 237.857 353.662 238.26 354.539 238.755Z" fill="#101010"/>
<path d="M365.553 218.741L340.778 201.377C340.778 201.377 327.971 194.297 323.752 206.939C319.532 219.582 359.406 241.832 359.406 241.832L361.288 240.345C361.288 240.345 348.974 230.875 351.045 225.817C353.116 220.759 334.472 212.279 334.472 212.279C334.472 212.279 355.935 232.284 370.682 231.995C385.019 231.717 365.553 218.741 365.553 218.741Z" fill="#101010"/>
<path d="M354.612 172.865L359.755 182.294C353.273 192.914 341.459 203.52 340.109 197.615C338.76 191.71 354.612 172.865 354.612 172.865V172.865Z" fill="#73D2DE"/>
<path d="M359.013 179.715C356.952 179.715 355.107 178.611 355.107 182.89C355.107 183.938 351.995 191.285 352.176 192.197C354.485 189.728 356.594 187.078 358.481 184.273C357.802 182.58 360.163 179.715 359.013 179.715Z" fill="#101010"/>
<path d="M336.749 196.516C339.175 195.497 339.668 194.964 342.135 194.048C344.602 193.132 348.185 192.401 351.697 192.307C351.901 192.31 352.097 192.382 352.254 192.512C352.424 192.668 352.55 192.868 352.616 193.089C352.903 193.831 353.111 194.602 353.234 195.388C353.317 195.913 353.364 196.467 353.162 196.961C353.013 197.293 352.801 197.592 352.537 197.842C351.502 198.895 350.144 199.582 348.734 200.016C347.324 200.451 345.854 200.65 344.391 200.847L339.279 201.535C338.528 201.636 337.768 201.738 337.018 201.632C336.267 201.526 335.52 201.187 335.085 200.568C334.813 200.179 334.683 199.71 334.557 199.252C334.447 198.851 334.38 198.33 334.73 198.106" fill="#73D2DE"/>
<path d="M356.906 240.706L360.422 246.36C360.568 246.596 360.534 246.901 360.339 247.098L358.249 249.204C358.04 249.413 357.98 249.728 358.097 250C358.214 250.271 358.485 250.444 358.78 250.436L366.502 250.235C366.525 250.236 366.549 250.236 366.573 250.235C366.783 250.201 366.967 250.073 367.069 249.886C367.172 249.699 367.183 249.475 367.098 249.28L363.384 240.354L356.906 240.706Z" fill="#BD7B63"/>
<path d="M382.036 197.295C381.963 196.017 385.298 192.816 385.221 191.538C385.124 189.931 385.032 188.323 384.963 186.714C384.851 184.187 386.016 181.463 385.386 178.992C382.981 169.562 369.931 167.917 361.363 170.015C357.417 170.981 354.58 171.241 353.262 175.331C352.615 177.356 353.427 178.944 354.102 180.821C355.047 183.442 354.807 186.42 355.655 189.108C356.474 191.71 358.578 193.796 358.783 196.611C358.854 197.58 355.177 212.065 355.065 212.043C362.64 213.535 377.703 215.121 384.956 213.292C385.667 213.116 386.161 212.472 386.149 211.74C386.061 206.282 382.351 202.748 382.036 197.295Z" fill="#73D2DE"/>
<path d="M384.871 213.206C385.581 213.029 386.076 212.386 386.063 211.654C385.992 207.134 383.44 203.933 382.383 199.874C381.082 199.384 379.734 199.025 378.361 198.803C376.58 198.508 374.755 198.398 373.041 197.835C370.628 197.041 368.539 195.377 366.063 194.817C364.319 194.42 363.881 194.123 362.11 193.869C360.339 193.616 356.59 191.6 355.917 189.94C356.869 192.14 358.519 194.045 358.697 196.518C358.768 197.487 355.092 211.972 354.979 211.95C362.554 213.449 377.619 215.035 384.871 213.206Z" fill="#73D2DE"/>
<path d="M382.495 200.29C380.814 199.877 379.067 199.727 377.333 199.622C375.598 199.518 373.823 199.453 372.066 199.431C371.091 199.418 370.107 199.419 369.149 199.606C367.367 199.952 365.73 200.929 363.922 201.093C361.86 201.28 359.668 200.405 357.754 201.106C357.431 202.479 357.058 204.005 356.692 205.472C357.425 206.206 358.556 206.438 359.6 206.61C365.914 207.645 372.277 208.422 378.666 208.769C380.714 208.883 382.779 208.953 384.806 208.64C385.074 208.597 385.341 208.547 385.606 208.491C384.846 205.623 383.318 203.158 382.495 200.29Z" fill="#101010"/>
<path d="M361.363 170.015C361.142 170.07 360.927 170.122 360.716 170.172C360.692 173.241 361.084 176.922 364.538 177.067C369.841 177.292 371.363 172.944 372.338 169.481C368.678 168.984 364.958 169.165 361.363 170.015Z" fill="#BD7B63"/>
<path d="M348.094 195.287L349.227 193.836C350.381 192.684 351.971 192.079 353.599 192.174C354.088 192.205 354.602 192.315 354.959 192.65C355.183 192.883 355.355 193.16 355.463 193.465C356.179 195.197 356.307 197.117 355.828 198.929C355.788 199.091 355.646 199.207 355.48 199.215C355.247 199.215 355.173 199.01 355.124 198.827C354.829 197.75 354.535 196.672 354.241 195.593C354.167 196.587 354.092 197.581 354.017 198.576C353.995 198.877 353.968 199.194 353.758 199.427C353.641 199.564 353.459 199.628 353.281 199.595C352.982 199.527 352.893 199.197 352.839 198.912C352.659 197.902 352.555 196.88 352.528 195.854C352.58 196.911 352.565 197.97 352.483 199.025C352.46 199.321 352.383 199.682 352.066 199.736C351.936 199.756 351.804 199.716 351.707 199.627C351.492 199.445 351.438 199.172 351.387 198.911C351.206 197.962 351.024 197.014 350.843 196.065C350.791 196.927 350.739 197.79 350.686 198.652C350.667 198.982 350.606 199.375 350.298 199.514C350.137 199.573 349.96 199.576 349.797 199.523C349.492 199.444 349.214 199.285 348.99 199.063C348.447 198.528 348.232 197.806 348.101 197.087C347.909 196.021 347.246 195.968 348.094 195.287Z" fill="#BD7B63"/>
<path d="M370.796 194.587C370.796 194.587 378.321 194.244 376.896 185.899C375.757 179.245 382.617 187.063 385.443 190.513C385.48 191.19 385.52 191.867 385.56 192.544C385.637 193.824 385.715 195.102 385.789 196.38L385.836 197.192L370.796 194.587Z" fill="#73D2DE"/>
<path d="M376.896 185.899L385.158 189.687C385.192 190.303 385.228 190.92 385.265 191.538C385.341 192.816 385.42 194.095 385.494 195.373L385.541 196.184L379.639 195.162C378.602 191.893 376.896 185.899 376.896 185.899Z" fill="#101010"/>
<path d="M381.621 173.113C386.001 177.501 390.011 182.564 393.032 187.977C394.552 190.701 396.078 193.553 396.677 196.644C397.049 198.564 396.946 200.813 395.976 202.554C395.459 203.491 394.57 204.279 393.518 204.455C392.806 204.572 392.066 204.407 391.411 204.098C389.859 203.362 388.794 201.891 387.918 200.411C384.507 194.641 379.795 189.466 375.321 184.47L381.621 173.113Z" fill="#73D2DE"/>
<path d="M384.404 194.883L378.308 187.397C377.783 186.75 377.229 186.117 376.845 185.375C376.731 185.152 376.396 185.349 376.51 185.57C376.85 186.228 377.324 186.8 377.789 187.371L379.334 189.267L382.382 193.011L384.129 195.157C384.287 195.351 384.56 195.074 384.404 194.883Z" fill="#101010"/>
<path d="M369.011 158.357L370.697 170.888L363.013 171.355L361.793 160.566L369.011 158.357Z" fill="#BD7B63"/>
<path d="M372.165 150.695C371.584 149.09 370.176 148.271 368.525 147.752C367.061 147.301 365.521 147.149 363.997 147.305C361.37 147.563 358.443 148.441 357.945 151.385C357.773 152.395 357.815 153.438 357.784 154.458C357.737 156.047 357.797 157.637 357.964 159.218C358.084 160.335 358.266 161.474 358.8 162.463C359.516 163.79 360.731 164.653 362.124 165.27C362.49 165.432 362.868 165.577 363.252 165.709C364.473 166.126 365.798 166.126 367.019 165.709C367.407 165.579 367.781 165.432 368.146 165.27C369.539 164.653 370.755 163.79 371.472 162.463C372.006 161.474 372.187 160.335 372.308 159.218C372.451 157.873 372.517 156.522 372.507 155.17C372.496 153.9 372.593 152.544 372.331 151.296C372.29 151.092 372.234 150.891 372.165 150.695Z" fill="#BD7B63"/>
<ellipse cx="1.73601" cy="1.97014" rx="1.73601" ry="1.97014" transform="matrix(0.943629 -0.331005 0.331012 0.943627 355.799 155.6)" fill="#BD7B63"/>
<ellipse cx="1.97014" cy="1.73601" rx="1.97014" ry="1.73601" transform="matrix(0.331011 -0.943627 0.943629 0.331006 369.908 158.18)" fill="#BD7B63"/>
<path d="M357.842 155.878C358.435 155.749 358.877 155.218 359.048 154.636C359.219 154.054 359.158 153.431 359.057 152.825C359.045 152.755 359.016 152.669 358.945 152.666C358.536 153.239 358.148 153.826 357.78 154.428" fill="#101010"/>
<path d="M370.231 152.956C370.065 153.625 370.122 154.33 370.394 154.963C370.653 155.557 371.121 156.084 371.735 156.279C371.902 156.335 372.078 156.358 372.253 156.348C372.293 156.35 372.333 156.333 372.359 156.302C372.375 156.272 372.38 156.237 372.372 156.204C372.261 155.17 372.078 154.146 371.822 153.138C371.795 153.035 371.741 152.909 371.635 152.909" fill="#101010"/>
<path d="M357.568 156.405C357.568 156.454 357.527 156.513 357.472 156.51L357.445 156.502C357.433 156.488 357.466 156.502 357.445 156.502C357.454 156.51 357.462 156.518 357.47 156.528C357.454 156.506 357.49 156.55 357.47 156.528C357.485 156.55 357.503 156.576 357.519 156.6C357.548 156.647 357.574 156.696 357.598 156.746C357.612 156.776 357.589 156.724 357.598 156.754C357.607 156.784 357.607 156.779 357.612 156.79C357.617 156.802 357.631 156.846 357.639 156.874C357.654 156.924 357.666 156.975 357.675 157.027C357.675 157.027 357.683 157.08 357.675 157.059C357.668 157.039 357.675 157.079 357.675 157.081V157.16V157.326C357.675 157.338 357.675 157.353 357.675 157.326L357.668 157.374C357.668 157.403 357.656 157.432 357.648 157.46L357.973 157.375L357.951 157.352C357.964 157.371 357.965 157.372 357.951 157.352C357.943 157.338 357.935 157.325 357.929 157.31C357.948 157.353 357.929 157.3 357.929 157.291V157.268C357.929 157.292 357.929 157.295 357.929 157.268C357.929 157.24 357.929 157.237 357.929 157.221C357.929 157.272 357.929 157.207 357.939 157.195C357.93 157.226 357.939 157.195 357.939 157.185C357.944 157.176 357.951 157.167 357.957 157.159C357.942 157.177 357.943 157.178 357.957 157.159C358.029 157.083 358.026 156.963 357.953 156.89C357.879 156.816 357.76 156.814 357.683 156.885C357.482 157.098 357.487 157.434 357.696 157.64C357.746 157.688 357.816 157.706 357.883 157.688C357.949 157.67 358.001 157.619 358.021 157.554C358.102 157.222 358.07 156.874 357.931 156.563C357.872 156.406 357.773 156.267 357.643 156.16C357.553 156.095 357.436 156.084 357.335 156.13C357.235 156.177 357.168 156.274 357.159 156.384C357.161 156.491 357.247 156.577 357.353 156.578C357.459 156.575 357.545 156.49 357.547 156.384L357.568 156.405Z" fill="#101010"/>
<path d="M373.099 156.404C373.091 156.295 373.026 156.199 372.927 156.152C372.829 156.104 372.713 156.113 372.623 156.175C372.488 156.281 372.385 156.422 372.327 156.583C372.188 156.894 372.156 157.243 372.237 157.574C372.257 157.64 372.309 157.691 372.375 157.708C372.442 157.726 372.513 157.708 372.562 157.661C372.771 157.454 372.777 157.119 372.575 156.905C372.499 156.834 372.379 156.836 372.306 156.91C372.232 156.984 372.23 157.103 372.301 157.179C372.315 157.195 372.315 157.196 372.301 157.179C372.307 157.187 372.313 157.196 372.318 157.205C372.327 157.221 372.331 157.249 372.318 157.216C372.318 157.216 372.334 157.279 372.328 157.25C372.321 157.222 372.328 157.281 372.328 157.288C372.328 157.331 372.338 157.261 372.328 157.3C372.328 157.309 372.303 157.371 372.328 157.327C372.321 157.341 372.314 157.355 372.306 157.368C372.293 157.386 372.294 157.385 372.306 157.368L372.284 157.391L372.607 157.477C372.607 157.451 372.596 157.426 372.591 157.401L372.583 157.351C372.583 157.319 372.583 157.379 372.583 157.351C372.579 157.296 372.579 157.241 372.583 157.186C372.583 157.16 372.583 157.134 372.583 157.108V157.069C372.583 157.102 372.583 157.059 372.583 157.053C372.591 156.998 372.604 156.944 372.62 156.891C372.62 156.866 372.636 156.84 372.644 156.817L372.658 156.78C372.658 156.771 372.669 156.754 372.658 156.772C372.68 156.721 372.706 156.672 372.735 156.626C372.75 156.601 372.766 156.576 372.783 156.552C372.8 156.527 372.801 156.531 372.783 156.552L372.808 156.525C372.826 156.507 372.82 156.525 372.799 156.525C372.739 156.539 372.695 156.476 372.693 156.423C372.693 156.53 372.78 156.617 372.887 156.617C372.994 156.617 373.081 156.53 373.081 156.423L373.099 156.404Z" fill="#101010"/>
<path d="M363.953 159.153V159.467L364.199 159.279C363.966 159.245 363.731 159.332 363.578 159.511C363.421 159.672 363.364 159.906 363.431 160.122C363.583 160.538 364.077 160.657 364.482 160.631C364.707 160.632 364.918 160.526 365.051 160.345C365.105 160.252 365.074 160.134 364.982 160.079C364.889 160.027 364.772 160.058 364.716 160.149C364.703 160.167 364.703 160.168 364.716 160.149L364.693 160.173C364.668 160.2 364.715 160.164 364.68 160.184L364.636 160.208L364.613 160.216C364.593 160.222 364.573 160.228 364.553 160.231C364.544 160.231 364.494 160.242 364.535 160.231C364.492 160.237 364.449 160.239 364.406 160.239C364.24 160.249 364.075 160.215 363.926 160.141C363.87 160.112 363.825 160.067 363.797 160.012C363.778 159.978 363.797 160.025 363.789 159.99C363.785 159.978 363.782 159.966 363.78 159.953C363.78 159.971 363.78 159.974 363.78 159.953C363.78 159.935 363.788 159.893 363.78 159.926C363.784 159.906 363.79 159.887 363.797 159.868C363.788 159.894 363.811 159.84 363.815 159.832C363.819 159.824 363.852 159.777 363.838 159.797C363.851 159.781 363.865 159.766 363.879 159.752C363.879 159.752 363.926 159.711 363.904 159.728C363.927 159.711 363.951 159.696 363.976 159.684L363.995 159.675H364.007C364.007 159.675 364.068 159.661 364.036 159.666C364.045 159.666 364.115 159.666 364.088 159.666C364.146 159.681 364.208 159.668 364.256 159.631C364.303 159.595 364.332 159.539 364.333 159.479V159.164C364.333 159.057 364.246 158.971 364.139 158.97C364.033 158.972 363.947 159.058 363.945 159.164L363.953 159.153Z" fill="#101010"/>
<path d="M360.965 155.298C361.387 155.298 361.81 155.278 362.23 155.243C362.336 155.24 362.421 155.155 362.424 155.049C362.423 154.942 362.337 154.856 362.23 154.854C361.81 154.889 361.387 154.908 360.965 154.91C360.858 154.91 360.771 154.997 360.771 155.104C360.771 155.211 360.858 155.298 360.965 155.298Z" fill="#101010"/>
<path d="M368.023 154.91C367.6 154.91 367.178 154.892 366.758 154.854C366.706 154.854 366.656 154.874 366.62 154.911C366.583 154.947 366.563 154.997 366.563 155.049C366.566 155.155 366.652 155.24 366.758 155.243C367.178 155.277 367.6 155.296 368.023 155.298C368.129 155.297 368.215 155.211 368.217 155.104C368.214 154.998 368.129 154.913 368.023 154.91Z" fill="#101010"/>
<path d="M366.737 160.689C366.708 160.734 366.677 160.777 366.644 160.818C366.644 160.811 366.66 160.798 366.644 160.818L366.618 160.849C366.601 160.87 366.583 160.891 366.565 160.91C366.493 160.99 366.414 161.065 366.331 161.133L366.305 161.153C366.262 161.187 366.336 161.131 366.293 161.163L366.227 161.21C366.184 161.239 366.142 161.266 366.098 161.292C366.054 161.318 366.003 161.345 365.955 161.369L365.882 161.403C365.851 161.416 365.865 161.411 365.882 161.403L365.836 161.421C365.738 161.454 365.683 161.557 365.71 161.657C365.737 161.756 365.838 161.817 365.939 161.795C366.408 161.617 366.809 161.294 367.082 160.873C367.131 160.782 367.101 160.669 367.014 160.614C366.92 160.563 366.803 160.594 366.747 160.684L366.737 160.689Z" fill="#101010"/>
<path d="M394.906 203.821C394.906 203.821 393.591 198.757 390.556 196.609C387.662 194.558 371.54 193.773 368.306 193.375C367.992 193.335 367.674 193.405 367.407 193.575C366.631 194.068 365.363 195.375 366.436 198.325C366.569 198.688 366.852 198.977 367.212 199.117C370.795 200.518 390.808 208.071 394.906 203.821Z" fill="#73D2DE"/>
<path d="M390.654 196.44C390.271 196.191 389.856 195.996 389.419 195.861C388.823 195.659 388.216 195.492 387.601 195.36C385.993 194.998 384.357 194.759 382.723 194.547C380.863 194.305 378.998 194.112 377.13 193.94C375.434 193.783 373.737 193.646 372.038 193.51C370.874 193.417 369.716 193.337 368.558 193.212L368.3 193.182C368.052 193.152 368.054 193.54 368.3 193.57C369.351 193.699 370.413 193.769 371.469 193.853C373.118 193.983 374.768 194.112 376.416 194.263C378.267 194.429 380.115 194.613 381.959 194.838C383.627 195.043 385.296 195.276 386.944 195.614C387.591 195.743 388.248 195.9 388.885 196.094C389.349 196.221 389.798 196.4 390.222 196.628C390.301 196.673 390.377 196.721 390.452 196.773C390.657 196.918 390.851 196.581 390.648 196.438L390.654 196.44Z" fill="white"/>
<path d="M358.85 198.564C358.875 198.76 359.026 198.916 359.222 198.946C359.417 198.976 359.608 198.873 359.691 198.694C359.719 198.634 359.745 198.573 359.77 198.515C360.12 197.699 360.47 196.884 360.819 196.068C360.772 197.003 360.731 197.967 361.05 198.846C361.18 199.185 361.367 199.524 361.721 199.655C361.896 199.724 362.094 199.71 362.257 199.615C362.516 199.453 362.525 199.167 362.524 198.907C362.524 198.853 362.524 198.8 362.524 198.746C362.653 199.166 363.099 199.535 363.437 199.179C363.509 199.1 363.559 199.004 363.585 198.901C363.789 198.13 363.994 197.359 364.199 196.588C364.144 197.23 364.17 197.877 364.279 198.513C364.328 198.802 364.409 199.108 364.651 199.289C364.784 199.39 364.961 199.414 365.116 199.352C365.326 199.26 365.356 199.06 365.375 198.874C365.394 198.687 365.401 198.486 365.402 198.288C365.402 198.162 365.482 198.049 365.601 198.007C365.72 197.966 365.852 198.003 365.931 198.101C366.068 198.271 366.229 198.419 366.41 198.541C367.277 199.114 368.564 198.8 369.169 197.958C369.522 197.44 369.661 196.806 369.557 196.188C369.466 195.643 369.212 195.138 368.83 194.739C367.425 193.224 365.467 192.184 363.397 192.177C362.841 192.153 362.287 192.255 361.776 192.475C361.04 192.826 360.528 193.51 360.102 194.211C359.308 195.515 358.696 197.068 358.85 198.564Z" fill="#BD7B63"/>
<path d="M322.021 202.491H351.108L344.751 180.216C344.623 179.766 344.211 179.456 343.743 179.456H315.016C314.857 179.456 314.707 179.53 314.611 179.657C314.515 179.784 314.483 179.949 314.526 180.102L320.606 201.422C320.786 202.055 321.364 202.491 322.021 202.491Z" fill="#101010"/>
<path d="M367.076 202.491H328.581V199.349H368.15C368.453 199.349 368.698 199.594 368.698 199.897V200.87C368.698 201.766 367.972 202.492 367.076 202.492V202.491Z" fill="#E7E7E7"/>
<path d="M320.837 202.491H349.929L343.572 180.216C343.443 179.767 343.033 179.456 342.565 179.456H313.835C313.677 179.458 313.528 179.534 313.433 179.66C313.337 179.786 313.304 179.949 313.344 180.102L319.424 201.422C319.603 202.054 320.18 202.491 320.837 202.491Z" fill="#E7E7E7"/>
<path d="M383.598 219.134L363.486 208.078C363.486 208.078 344.299 194.519 337.02 201.632C329.741 208.746 357.768 242.885 357.768 242.885H364.859C364.859 242.885 361.866 233.993 358.768 225.597C361.315 228.544 364.658 231.103 368.875 231.862C380.459 233.947 384.391 220.768 383.598 219.134Z" fill="#020A44"/>
<rect x="365.66" y="201.213" width="1.60149" height="0.58989" rx="0.294945" transform="rotate(-180 365.66 201.213)" fill="#101010"/>
<rect x="363.13" y="201.213" width="1.60147" height="0.58989" rx="0.294945" transform="rotate(-180 363.13 201.213)" fill="#101010"/>
<path d="M392.793 204.725C391.292 204.963 389.745 204.901 388.239 204.756C386.406 204.565 384.586 204.263 382.789 203.851C380.882 203.432 378.995 202.931 377.123 202.379C375.349 201.853 373.59 201.283 371.844 200.668C370.446 200.176 369.055 199.657 367.683 199.097L367.27 198.926C367.169 198.898 367.064 198.955 367.032 199.055C367.005 199.156 367.062 199.261 367.161 199.293C368.486 199.846 369.83 200.354 371.18 200.838C372.901 201.455 374.637 202.028 376.388 202.558C378.269 203.128 380.167 203.645 382.08 204.084C383.914 204.517 385.772 204.846 387.643 205.071C389.204 205.248 390.799 205.341 392.364 205.157C392.538 205.137 392.711 205.113 392.882 205.086C393.128 205.047 393.023 204.672 392.778 204.712L392.793 204.725Z" fill="#101010"/>
<path d="M369.155 197.698C368.719 198.224 368.1 198.566 367.422 198.655C367.073 198.72 366.712 198.656 366.407 198.475C366.121 198.284 365.915 197.987 365.72 197.709C365.578 197.506 365.241 197.699 365.385 197.905C365.595 198.24 365.861 198.536 366.172 198.782C366.526 199.014 366.953 199.109 367.372 199.049C368.172 198.972 368.91 198.585 369.429 197.972C369.589 197.782 369.316 197.506 369.155 197.698Z" fill="#101010"/>
<path d="M362.233 195.903C361.974 196.967 361.982 198.078 362.257 199.137C362.292 199.232 362.394 199.284 362.492 199.257C362.59 199.23 362.65 199.133 362.632 199.034C362.375 198.044 362.366 197.006 362.608 196.012C362.666 195.77 362.292 195.667 362.233 195.91V195.903Z" fill="#101010"/>
<path d="M360.793 195.895C360.535 196.375 360.311 196.872 360.123 197.383C360.034 197.624 359.961 197.869 359.88 198.113C359.838 198.303 359.727 198.47 359.568 198.582C359.508 198.617 359.472 198.682 359.472 198.751C359.473 198.82 359.51 198.884 359.57 198.919C359.631 198.953 359.705 198.952 359.765 198.917C360.199 198.673 360.282 198.109 360.428 197.678C360.619 197.131 360.853 196.6 361.128 196.091C361.247 195.871 360.912 195.674 360.793 195.895Z" fill="#101010"/>
<path d="M364.239 196.292C363.851 197.068 363.713 197.946 363.516 198.779C363.459 199.022 363.833 199.126 363.89 198.883C363.988 198.465 364.084 198.046 364.186 197.629C364.273 197.235 364.403 196.852 364.574 196.487C364.686 196.264 364.351 196.068 364.239 196.292Z" fill="#101010"/>
<path d="M365.486 197.257C365.338 197.79 365.236 198.335 365.181 198.885C365.181 198.992 365.268 199.079 365.375 199.079C365.482 199.079 365.569 198.992 365.569 198.885C365.622 198.369 365.72 197.859 365.861 197.361C365.879 197.261 365.818 197.164 365.721 197.137C365.623 197.111 365.521 197.163 365.486 197.257Z" fill="#101010"/>
<path d="M354.031 195.629C354.316 196.123 354.404 196.7 354.521 197.25L354.92 199.111C354.973 199.354 355.347 199.251 355.295 199.008L354.882 197.083C354.761 196.519 354.659 195.941 354.365 195.434C354.309 195.345 354.193 195.317 354.103 195.37C354.013 195.422 353.981 195.537 354.03 195.629H354.031Z" fill="#101010"/>
<path d="M352.221 196.253C352.479 197.288 352.446 198.366 352.663 199.407C352.713 199.652 353.087 199.548 353.037 199.304C352.821 198.269 352.852 197.185 352.594 196.15C352.534 195.908 352.16 196.012 352.221 196.253Z" fill="#101010"/>
<path d="M350.668 196.264C350.831 197.113 350.956 197.967 351.043 198.827C351.045 198.933 351.131 199.019 351.237 199.021C351.344 199.021 351.431 198.934 351.431 198.827C351.345 197.933 351.216 197.045 351.043 196.161C350.997 195.916 350.621 196.02 350.669 196.264H350.668Z" fill="#101010"/>
<path d="M364.324 208.622C368.602 211.432 373.521 213.115 378.624 213.514L379.659 213.926C381.33 216.566 382.609 219.513 383.171 222.572C381.657 226.62 378.815 230.165 374.544 231.452C373.291 231.823 371.991 232.006 370.685 231.996C369.524 231.992 368.416 231.51 367.621 230.664C366.826 229.819 366.413 228.683 366.481 227.524C366.64 224.793 366.998 222.054 367.033 219.32C367.081 215.295 366.205 210.924 363.489 208.077C363.775 208.262 364.054 208.451 364.324 208.622Z" fill="#020A44"/>
<path d="M384.159 213.439C384.427 213.41 384.575 213.391 384.575 213.391C384.704 213.374 384.404 217.118 384.377 217.385C383.923 221.85 381.982 226.57 378.438 229.399C379.343 217.772 367.212 210.298 367.212 210.298C372.437 212.966 378.325 214.057 384.159 213.439Z" fill="#101010"/>
<path d="M330.32 192.41H331.962C332.229 192.411 332.481 192.286 332.642 192.073C332.802 191.86 332.854 191.584 332.78 191.328L332.53 190.453C332.384 189.939 331.914 189.584 331.379 189.584H329.71C329.442 189.584 329.189 189.71 329.027 189.924C328.865 190.138 328.814 190.416 328.888 190.674L329.117 191.505C329.27 192.042 329.761 192.412 330.32 192.41Z" fill="#E7E7E7"/>
<path d="M351.017 213C352.892 214.394 354.341 216.274 355.493 218.289C356.706 220.412 357.584 222.687 358.422 224.977C358.908 226.304 359.413 227.622 359.997 228.908C360.101 229.136 360.436 228.938 360.332 228.713C359.298 226.428 358.554 224.029 357.586 221.717C356.653 219.492 355.541 217.319 354.037 215.426C353.22 214.386 352.27 213.458 351.213 212.665C351.012 212.515 350.824 212.852 351.017 213Z" fill="#101010"/>
<path d="M350.131 212.472L350.188 212.417C350.207 212.399 350.22 212.378 350.228 212.353C350.24 212.331 350.246 212.305 350.245 212.28C350.246 212.253 350.24 212.228 350.228 212.204C350.22 212.18 350.207 212.158 350.188 212.141L350.149 212.111C350.119 212.094 350.085 212.085 350.051 212.085L349.999 212.092C349.967 212.101 349.938 212.118 349.914 212.141L349.857 212.198C349.839 212.215 349.825 212.237 349.817 212.26C349.794 212.308 349.794 212.363 349.817 212.41C349.825 212.434 349.839 212.455 349.857 212.472L349.897 212.503C349.926 212.52 349.96 212.529 349.994 212.529H350.046C350.078 212.521 350.108 212.503 350.131 212.479V212.472Z" fill="#101010"/>
<path d="M351.981 211.582C352.329 212.348 352.51 213.179 352.511 214.021C352.511 214.128 352.598 214.215 352.705 214.215C352.812 214.215 352.899 214.128 352.899 214.021C352.895 213.111 352.696 212.212 352.316 211.385C352.281 211.326 352.216 211.289 352.147 211.29C352.078 211.29 352.014 211.328 351.979 211.388C351.945 211.448 351.946 211.522 351.981 211.582Z" fill="#101010"/>
<path d="M327 205.841C327.802 205.58 328.641 205.451 329.484 205.461C329.591 205.461 329.678 205.374 329.678 205.267C329.678 205.159 329.591 205.073 329.484 205.073C328.606 205.06 327.732 205.191 326.896 205.461C326.66 205.537 326.761 205.912 327 205.834V205.841Z" fill="#020A44"/>
<path d="M327.229 207.794C327.717 207.537 328.258 207.397 328.809 207.384C329.059 207.384 329.059 206.996 328.809 206.996C328.189 207.011 327.581 207.169 327.032 207.459C326.811 207.576 327.007 207.911 327.229 207.794Z" fill="#020A44"/>
<path d="M330.243 207.218C330.35 207.218 330.437 207.131 330.437 207.024C330.437 206.917 330.35 206.83 330.243 206.83C330.136 206.83 330.049 206.917 330.049 207.024C330.049 207.131 330.136 207.218 330.243 207.218Z" fill="#020A44"/>
<path d="M326.112 209.831C326.22 209.831 326.307 209.745 326.307 209.637C326.307 209.53 326.22 209.443 326.112 209.443C326.005 209.443 325.918 209.53 325.918 209.637C325.918 209.745 326.005 209.831 326.112 209.831Z" fill="#020A44"/>
<path d="M365.928 92.4285L362.446 95.9083L358.964 92.4285C356.632 90.0964 353.469 88.7863 350.171 88.7863C346.873 88.7863 343.71 90.0964 341.379 92.4285C339.046 94.7604 337.736 97.9232 337.736 101.221C337.736 104.519 339.046 107.682 341.379 110.014L344.861 113.501L358.955 127.602C359.881 128.529 361.137 129.05 362.447 129.05C363.758 129.05 365.014 128.529 365.94 127.602L380.04 113.501L383.514 110.009C385.846 107.677 387.156 104.514 387.156 101.216C387.156 97.918 385.846 94.7552 383.514 92.4233C381.181 90.092 378.018 88.7827 374.72 88.7837C371.422 88.7847 368.26 90.0958 365.928 92.4285Z" fill="#D0BCFF"/>
<path d="M322.669 132.413L320.677 134.405L318.683 132.413C317.349 131.077 315.539 130.327 313.651 130.327C311.763 130.327 309.952 131.077 308.618 132.413C307.283 133.747 306.532 135.558 306.532 137.445C306.532 139.333 307.283 141.144 308.618 142.478L310.618 144.47L318.685 152.537C319.215 153.067 319.933 153.365 320.683 153.365C321.432 153.365 322.151 153.067 322.681 152.537L330.748 144.47L332.738 142.478C334.073 141.144 334.823 139.334 334.823 137.446C334.823 135.559 334.073 133.748 332.738 132.414C331.404 131.077 329.593 130.326 327.704 130.326C325.815 130.325 324.004 131.076 322.669 132.413Z" fill="#D0BCFF"/>
<path d="M406.215 132.412L404.221 134.405L402.229 132.412C400.895 131.077 399.084 130.327 397.197 130.327C395.309 130.327 393.498 131.077 392.164 132.412C390.828 133.747 390.078 135.557 390.078 137.445C390.078 139.333 390.828 141.143 392.164 142.478L394.157 144.47L402.224 152.537C402.754 153.067 403.473 153.365 404.222 153.365C404.972 153.365 405.69 153.067 406.22 152.537L414.287 144.47L416.28 142.477C417.615 141.142 418.365 139.332 418.365 137.444C418.365 135.557 417.615 133.747 416.28 132.412C414.946 131.077 413.136 130.327 411.248 130.327C409.36 130.327 407.549 131.077 406.215 132.412Z" fill="#D0BCFF"/>
<path d="M361.161 103.668H364.105V113.717H361.161V103.668Z" fill="white"/>
<circle cx="360.476" cy="113.717" r="3.62984" fill="white"/>
<path d="M368.046 100.476L361.161 101.944V103.447V105.923V107.426L368.046 105.958V100.476Z" fill="white"/>
<path d="M361.036 158.131C361.457 158.283 361.923 158.249 362.317 158.035C362.406 157.981 362.436 157.868 362.387 157.776C362.332 157.685 362.214 157.654 362.122 157.707L362.054 157.74L362.019 157.756C362.035 157.756 362.038 157.756 362.019 157.756C361.978 157.771 361.937 157.786 361.89 157.797C361.843 157.809 361.805 157.819 361.761 157.827L361.724 157.833C361.743 157.833 361.744 157.833 361.724 157.833H361.659C361.612 157.836 361.564 157.836 361.517 157.833C361.499 157.835 361.48 157.835 361.461 157.833C361.454 157.833 361.379 157.823 361.419 157.833C361.325 157.819 361.234 157.795 361.145 157.761C361.044 157.733 360.939 157.79 360.907 157.89C360.88 157.992 360.937 158.096 361.036 158.13V158.131Z" fill="#101010"/>
<path d="M366.772 158.131C367.194 158.283 367.66 158.248 368.054 158.035C368.142 157.979 368.171 157.863 368.118 157.773C368.065 157.683 367.951 157.65 367.859 157.7L367.792 157.733L367.757 157.749H367.75C367.71 157.764 367.667 157.779 367.621 157.79C367.574 157.802 367.535 157.812 367.491 157.82L367.454 157.827C367.475 157.827 367.475 157.827 367.454 157.827H367.388C367.341 157.829 367.293 157.829 367.246 157.827C367.227 157.828 367.209 157.828 367.19 157.827C367.182 157.827 367.109 157.816 367.147 157.827C367.054 157.812 366.963 157.788 366.874 157.754C366.773 157.726 366.668 157.783 366.636 157.883C366.61 157.985 366.666 158.089 366.766 158.123L366.772 158.131Z" fill="#101010"/>
<path d="M364.63 166.199C366.412 166.323 368.179 165.801 369.606 164.728C369.803 164.579 369.606 164.241 369.411 164.393C368.044 165.428 366.348 165.934 364.636 165.816C364.388 165.799 364.389 166.187 364.636 166.204L364.63 166.199Z" fill="#101010"/>
<path d="M358.234 153.955C358.057 153.79 357.778 153.818 357.543 153.879C356.873 154.045 356.268 154.409 355.807 154.924C355.348 155.444 355.108 156.121 355.136 156.814C355.203 157.957 356.084 158.907 357.076 159.476C357.243 159.584 357.431 159.654 357.627 159.682C357.829 159.707 358.026 159.615 358.137 159.445C358.2 159.295 358.217 159.129 358.186 158.969C358.065 157.603 357.973 156.337 358.256 154.996C358.327 154.5 358.468 154.176 358.234 153.955Z" fill="#73D2DE"/>
<path d="M371.726 154.741C371.902 154.576 372.183 154.604 372.417 154.665C373.087 154.831 373.691 155.195 374.152 155.71C374.611 156.23 374.852 156.907 374.824 157.6C374.756 158.744 373.876 159.693 372.884 160.262C372.718 160.371 372.529 160.441 372.333 160.468C372.132 160.492 371.935 160.401 371.824 160.231C371.761 160.081 371.744 159.915 371.775 159.755C371.897 158.389 371.989 157.123 371.705 155.783C371.632 155.285 371.491 154.962 371.726 154.741Z" fill="#73D2DE"/>
<path d="M372.854 155.258C373.341 155.099 373.745 154.752 373.977 154.295C374.208 153.838 374.249 153.308 374.089 152.821C374.245 152.733 374.406 152.924 374.477 153.079L375.245 154.699C375.392 155.011 375.543 155.346 375.466 155.687C375.242 156.648 374.22 157.48 373.38 157.917" fill="#73D2DE"/>
<path d="M357.629 155.258C357.141 155.099 356.737 154.753 356.505 154.296C356.273 153.838 356.232 153.308 356.392 152.821C356.237 152.733 356.075 152.924 356.004 153.079L355.237 154.699C355.089 155.011 354.939 155.346 355.017 155.687C355.239 156.648 356.262 157.48 357.101 157.917" fill="#73D2DE"/>
<path d="M355.247 155.296C354.86 156.122 354.827 157.071 355.157 157.922C355.487 158.772 356.15 159.452 356.993 159.801C357.367 159.958 357.956 160.189 358.249 159.782C358.398 159.58 358.06 159.386 357.914 159.586C357.828 159.705 357.472 159.562 357.368 159.53C357.154 159.459 356.948 159.364 356.755 159.246C355.467 158.476 354.962 156.862 355.582 155.495C355.684 155.268 355.349 155.07 355.247 155.298V155.296Z" fill="#101010"/>
<path d="M371.84 160.565C372.924 160.733 373.889 159.899 374.45 159.053C375.013 158.206 375.258 157.187 375.142 156.176C375.111 155.932 374.723 155.929 374.754 156.176C374.862 157.067 374.665 157.968 374.196 158.733C373.749 159.46 372.881 160.336 371.943 160.191C371.699 160.154 371.593 160.528 371.84 160.565Z" fill="#101010"/>
<path d="M365.596 147.006C364.809 146.254 363.623 146.047 362.547 146.208C361.47 146.368 360.477 146.847 359.491 147.32L357.093 148.484C356.132 148.949 355.102 149.478 354.764 150.554C354.648 150.903 354.688 151.285 354.873 151.603C355.318 152.334 356.218 152.092 356.886 152.405C356.313 152.405 355.87 153.04 355.965 153.607C356.059 154.174 356.582 154.604 357.147 154.703C357.713 154.801 358.296 154.615 358.78 154.307C359.264 153.999 359.663 153.579 360.058 153.162C360.211 153.46 360.588 153.582 360.918 153.536C361.248 153.467 361.558 153.324 361.824 153.117C362.522 152.636 363.179 152.097 363.785 151.504C363.517 151.956 364.015 152.553 364.542 152.575C365.068 152.597 365.532 152.256 365.931 151.912C366.472 151.446 366.981 150.942 367.455 150.407C367.553 150.296 367.704 150.249 367.848 150.284C367.991 150.319 368.104 150.43 368.14 150.573C368.464 151.822 369.121 152.958 370.041 153.862C370.147 153.956 370.243 154.062 370.326 154.177C370.404 154.298 370.456 154.436 370.524 154.556C370.777 154.951 371.272 155.113 371.709 154.945C371.901 155.521 372.485 155.979 373.087 155.911C373.689 155.842 374.17 155.141 373.923 154.588C374.193 154.771 374.586 154.523 374.67 154.206C374.754 153.889 374.63 153.559 374.509 153.254C373.871 151.651 373.135 149.931 371.638 149.072C371.932 149.435 372.7 149.35 372.626 148.574C372.625 148.55 372.62 148.528 372.611 148.506C372.522 148.329 372.388 148.179 372.223 148.069C371.705 147.655 371.18 147.23 370.548 147.045C369.915 146.86 369.148 146.97 368.737 147.486C368.101 146.753 367.246 146.245 366.3 146.034C366.025 145.973 365.721 145.944 365.479 146.087C365.237 146.231 365.131 146.605 365.342 146.796" fill="#101010"/>
<path d="M422.644 231.258C422.638 237.277 425.422 242.958 430.18 246.644C430.531 246.914 430.962 247.06 431.405 247.059H452.832C453.276 247.06 453.707 246.914 454.059 246.644C458.816 242.958 461.599 237.276 461.594 231.258C461.592 230.517 461.549 229.777 461.464 229.041C461.349 228.022 460.487 227.252 459.462 227.251H424.773C423.747 227.251 422.885 228.021 422.77 229.041C422.686 229.777 422.644 230.517 422.644 231.258Z" fill="#E7E7E7"/>
<path d="M350.774 142.901C351.506 143.882 352.157 144.92 352.722 146.006C352.837 146.227 353.172 146.031 353.057 145.81C352.493 144.724 351.842 143.686 351.109 142.706C350.962 142.508 350.624 142.706 350.774 142.901Z" fill="#101010"/>
<path d="M349.168 147.514L351.108 148.694C351.321 148.823 351.517 148.488 351.303 148.359L349.363 147.179C349.149 147.05 348.954 147.385 349.168 147.514Z" fill="#101010"/>
<path d="M356.01 142.421L356.333 144.193C356.348 144.263 356.401 144.319 356.47 144.339C356.539 144.358 356.613 144.338 356.662 144.286C356.712 144.234 356.729 144.159 356.706 144.091L356.386 142.318C356.353 142.217 356.248 142.16 356.146 142.188C356.044 142.219 355.984 142.324 356.01 142.428V142.421Z" fill="#101010"/>
<path d="M359.128 144.418C359.235 144.418 359.322 144.331 359.322 144.224C359.322 144.117 359.235 144.03 359.128 144.03C359.021 144.03 358.934 144.117 358.934 144.224C358.934 144.331 359.021 144.418 359.128 144.418Z" fill="#101010"/>
<path d="M399.148 194.262C400.341 197.344 400.377 200.753 399.249 203.858C399.164 204.094 399.539 204.195 399.623 203.962C400.507 201.496 400.69 198.833 400.15 196.27C399.997 195.551 399.787 194.845 399.522 194.159C399.433 193.929 399.058 194.03 399.148 194.262Z" fill="#101010"/>
<path d="M402.763 198.731C402.931 199.414 402.968 200.122 402.873 200.819C402.846 200.92 402.903 201.025 403.002 201.058C403.103 201.087 403.209 201.03 403.241 200.929C403.351 200.164 403.314 199.385 403.131 198.634C403.072 198.392 402.698 198.495 402.757 198.738L402.763 198.731Z" fill="#101010"/>
<path d="M307.934 180.829C308.326 179.196 309.334 177.779 310.747 176.873C310.958 176.743 310.764 176.403 310.552 176.538C309.052 177.496 307.981 178.997 307.561 180.726C307.503 180.968 307.877 181.072 307.935 180.829H307.934Z" fill="#101010"/>
<path d="M305.636 177.382L306.661 176.384C306.71 176.335 306.729 176.263 306.711 176.196C306.693 176.129 306.64 176.077 306.573 176.059C306.506 176.041 306.434 176.061 306.385 176.11L305.361 177.107C305.285 177.183 305.285 177.307 305.361 177.382C305.438 177.458 305.561 177.458 305.636 177.382Z" fill="#101010"/>
<path d="M241.854 312.528H230.718V323.92H220.35V312.528H209.214V302.736H220.35V291.28H230.718V302.736H241.854V312.528ZM260.916 293.456V283.28H278.644V330H267.252V293.456H260.916ZM319.026 292.816H299.058V301.648C299.911 300.709 301.106 299.941 302.642 299.344C304.178 298.747 305.842 298.448 307.634 298.448C310.834 298.448 313.479 299.173 315.57 300.624C317.703 302.075 319.261 303.952 320.242 306.256C321.223 308.56 321.714 311.056 321.714 313.744C321.714 318.736 320.306 322.704 317.49 325.648C314.674 328.549 310.706 330 305.586 330C302.173 330 299.207 329.424 296.69 328.272C294.173 327.077 292.231 325.435 290.866 323.344C289.501 321.253 288.754 318.843 288.626 316.112H299.314C299.57 317.435 300.189 318.544 301.17 319.44C302.151 320.293 303.495 320.72 305.202 320.72C307.207 320.72 308.701 320.08 309.682 318.8C310.663 317.52 311.154 315.813 311.154 313.68C311.154 311.589 310.642 309.989 309.618 308.88C308.594 307.771 307.101 307.216 305.138 307.216C303.687 307.216 302.493 307.579 301.554 308.304C300.615 308.987 299.997 309.904 299.698 311.056H289.138V283.216H319.026V292.816ZM393.286 285.072V330H382.342V303.056L372.294 330H363.462L353.35 302.992V330H342.406V285.072H355.333L367.942 316.176L380.422 285.072H393.286ZM406.66 290.576C404.74 290.576 403.161 290.021 401.924 288.912C400.729 287.76 400.132 286.352 400.132 284.688C400.132 282.981 400.729 281.573 401.924 280.464C403.161 279.312 404.74 278.736 406.66 278.736C408.537 278.736 410.073 279.312 411.268 280.464C412.505 281.573 413.124 282.981 413.124 284.688C413.124 286.352 412.505 287.76 411.268 288.912C410.073 290.021 408.537 290.576 406.66 290.576ZM412.1 294.288V330H401.156V294.288H412.1ZM430.975 282.64V330H420.031V282.64H430.975ZM449.85 282.64V330H438.906V282.64H449.85ZM463.285 290.576C461.365 290.576 459.786 290.021 458.549 288.912C457.354 287.76 456.757 286.352 456.757 284.688C456.757 282.981 457.354 281.573 458.549 280.464C459.786 279.312 461.365 278.736 463.285 278.736C465.162 278.736 466.698 279.312 467.893 280.464C469.13 281.573 469.749 282.981 469.749 284.688C469.749 286.352 469.13 287.76 467.893 288.912C466.698 290.021 465.162 290.576 463.285 290.576ZM468.725 294.288V330H457.781V294.288H468.725ZM492.912 330.512C489.413 330.512 486.256 329.765 483.44 328.272C480.666 326.779 478.469 324.645 476.848 321.872C475.269 319.099 474.48 315.856 474.48 312.144C474.48 308.475 475.29 305.253 476.911 302.48C478.533 299.664 480.752 297.509 483.568 296.016C486.384 294.523 489.541 293.776 493.04 293.776C496.538 293.776 499.696 294.523 502.512 296.016C505.328 297.509 507.546 299.664 509.168 302.48C510.789 305.253 511.6 308.475 511.6 312.144C511.6 315.813 510.768 319.056 509.104 321.872C507.482 324.645 505.242 326.779 502.384 328.272C499.568 329.765 496.41 330.512 492.912 330.512ZM492.912 321.04C495.002 321.04 496.773 320.272 498.224 318.736C499.717 317.2 500.464 315.003 500.464 312.144C500.464 309.285 499.738 307.088 498.288 305.552C496.88 304.016 495.13 303.248 493.04 303.248C490.906 303.248 489.136 304.016 487.728 305.552C486.32 307.045 485.616 309.243 485.616 312.144C485.616 315.003 486.298 317.2 487.664 318.736C489.072 320.272 490.821 321.04 492.912 321.04ZM539.166 293.904C543.347 293.904 546.675 295.269 549.15 298C551.667 300.688 552.926 304.4 552.926 309.136V330H542.046V310.608C542.046 308.219 541.427 306.363 540.19 305.04C538.952 303.717 537.288 303.056 535.198 303.056C533.107 303.056 531.443 303.717 530.206 305.04C528.968 306.363 528.35 308.219 528.35 310.608V330H517.406V294.288H528.35V299.024C529.459 297.445 530.952 296.208 532.83 295.312C534.707 294.373 536.819 293.904 539.166 293.904Z" fill="#020A44"/>
<path d="M273.571 366.624C273.571 364.992 273.939 363.528 274.675 362.232C275.411 360.92 276.411 359.896 277.675 359.16C278.955 358.424 280.371 358.056 281.923 358.056C283.747 358.056 285.339 358.496 286.699 359.376C288.059 360.256 289.051 361.504 289.675 363.12H287.059C286.595 362.112 285.923 361.336 285.043 360.792C284.179 360.248 283.139 359.976 281.923 359.976C280.755 359.976 279.707 360.248 278.779 360.792C277.851 361.336 277.123 362.112 276.595 363.12C276.067 364.112 275.803 365.28 275.803 366.624C275.803 367.952 276.067 369.12 276.595 370.128C277.123 371.12 277.851 371.888 278.779 372.432C279.707 372.976 280.755 373.248 281.923 373.248C283.139 373.248 284.179 372.984 285.043 372.456C285.923 371.912 286.595 371.136 287.059 370.128H289.675C289.051 371.728 288.059 372.968 286.699 373.848C285.339 374.712 283.747 375.144 281.923 375.144C280.371 375.144 278.955 374.784 277.675 374.064C276.411 373.328 275.411 372.312 274.675 371.016C273.939 369.72 273.571 368.256 273.571 366.624ZM298.662 375.216C297.43 375.216 296.31 374.936 295.302 374.376C294.31 373.816 293.526 373.024 292.95 372C292.39 370.96 292.11 369.76 292.11 368.4C292.11 367.056 292.398 365.872 292.974 364.848C293.566 363.808 294.366 363.016 295.374 362.472C296.382 361.912 297.51 361.632 298.758 361.632C300.006 361.632 301.134 361.912 302.142 362.472C303.15 363.016 303.942 363.8 304.518 364.824C305.11 365.848 305.406 367.04 305.406 368.4C305.406 369.76 305.102 370.96 304.494 372C303.902 373.024 303.094 373.816 302.07 374.376C301.046 374.936 299.91 375.216 298.662 375.216ZM298.662 373.296C299.446 373.296 300.182 373.112 300.87 372.744C301.558 372.376 302.11 371.824 302.526 371.088C302.958 370.352 303.174 369.456 303.174 368.4C303.174 367.344 302.966 366.448 302.55 365.712C302.134 364.976 301.59 364.432 300.918 364.08C300.246 363.712 299.518 363.528 298.734 363.528C297.934 363.528 297.198 363.712 296.526 364.08C295.87 364.432 295.342 364.976 294.942 365.712C294.542 366.448 294.342 367.344 294.342 368.4C294.342 369.472 294.534 370.376 294.918 371.112C295.318 371.848 295.846 372.4 296.502 372.768C297.158 373.12 297.878 373.296 298.662 373.296ZM324.094 361.608C325.118 361.608 326.03 361.824 326.83 362.256C327.63 362.672 328.262 363.304 328.726 364.152C329.19 365 329.422 366.032 329.422 367.248V375H327.262V367.56C327.262 366.248 326.934 365.248 326.278 364.56C325.638 363.856 324.766 363.504 323.662 363.504C322.526 363.504 321.622 363.872 320.95 364.608C320.278 365.328 319.942 366.376 319.942 367.752V375H317.782V367.56C317.782 366.248 317.454 365.248 316.798 364.56C316.158 363.856 315.286 363.504 314.182 363.504C313.046 363.504 312.142 363.872 311.47 364.608C310.798 365.328 310.462 366.376 310.462 367.752V375H308.278V361.848H310.462V363.744C310.894 363.056 311.47 362.528 312.19 362.16C312.926 361.792 313.734 361.608 314.614 361.608C315.718 361.608 316.694 361.856 317.542 362.352C318.39 362.848 319.022 363.576 319.438 364.536C319.806 363.608 320.414 362.888 321.262 362.376C322.11 361.864 323.054 361.608 324.094 361.608ZM348.82 361.608C349.844 361.608 350.756 361.824 351.556 362.256C352.356 362.672 352.988 363.304 353.452 364.152C353.916 365 354.148 366.032 354.148 367.248V375H351.988V367.56C351.988 366.248 351.66 365.248 351.004 364.56C350.364 363.856 349.492 363.504 348.388 363.504C347.252 363.504 346.348 363.872 345.676 364.608C345.004 365.328 344.668 366.376 344.668 367.752V375H342.508V367.56C342.508 366.248 342.18 365.248 341.524 364.56C340.884 363.856 340.012 363.504 338.908 363.504C337.772 363.504 336.868 363.872 336.196 364.608C335.524 365.328 335.188 366.376 335.188 367.752V375H333.004V361.848H335.188V363.744C335.62 363.056 336.196 362.528 336.916 362.16C337.652 361.792 338.46 361.608 339.34 361.608C340.444 361.608 341.42 361.856 342.268 362.352C343.116 362.848 343.748 363.576 344.164 364.536C344.532 363.608 345.14 362.888 345.988 362.376C346.836 361.864 347.78 361.608 348.82 361.608ZM369.395 361.848V375H367.211V373.056C366.795 373.728 366.211 374.256 365.459 374.64C364.723 375.008 363.907 375.192 363.011 375.192C361.987 375.192 361.067 374.984 360.251 374.568C359.435 374.136 358.787 373.496 358.307 372.648C357.843 371.8 357.611 370.768 357.611 369.552V361.848H359.771V369.264C359.771 370.56 360.099 371.56 360.755 372.264C361.411 372.952 362.307 373.296 363.443 373.296C364.611 373.296 365.531 372.936 366.203 372.216C366.875 371.496 367.211 370.448 367.211 369.072V361.848H369.395ZM379.49 361.608C381.09 361.608 382.386 362.096 383.378 363.072C384.37 364.032 384.866 365.424 384.866 367.248V375H382.706V367.56C382.706 366.248 382.378 365.248 381.722 364.56C381.066 363.856 380.17 363.504 379.034 363.504C377.882 363.504 376.962 363.864 376.274 364.584C375.602 365.304 375.266 366.352 375.266 367.728V375H373.082V361.848H375.266V363.72C375.698 363.048 376.282 362.528 377.018 362.16C377.77 361.792 378.594 361.608 379.49 361.608ZM389.562 359.712C389.146 359.712 388.794 359.568 388.506 359.28C388.218 358.992 388.074 358.64 388.074 358.224C388.074 357.808 388.218 357.456 388.506 357.168C388.794 356.88 389.146 356.736 389.562 356.736C389.962 356.736 390.298 356.88 390.57 357.168C390.858 357.456 391.002 357.808 391.002 358.224C391.002 358.64 390.858 358.992 390.57 359.28C390.298 359.568 389.962 359.712 389.562 359.712ZM390.618 361.848V375H388.434V361.848H390.618ZM397.004 363.648V371.4C397.004 372.04 397.14 372.496 397.412 372.768C397.684 373.024 398.156 373.152 398.828 373.152H400.436V375H398.468C397.252 375 396.34 374.72 395.732 374.16C395.124 373.6 394.82 372.68 394.82 371.4V363.648H393.116V361.848H394.82V358.536H397.004V361.848H400.436V363.648H397.004ZM414.41 361.848L406.49 381.192H404.234L406.826 374.856L401.522 361.848H403.946L408.074 372.504L412.154 361.848H414.41ZM428.74 375.216C427.508 375.216 426.388 374.936 425.38 374.376C424.388 373.816 423.604 373.024 423.028 372C422.468 370.96 422.188 369.76 422.188 368.4C422.188 367.056 422.476 365.872 423.052 364.848C423.644 363.808 424.444 363.016 425.452 362.472C426.46 361.912 427.588 361.632 428.836 361.632C430.084 361.632 431.212 361.912 432.22 362.472C433.228 363.016 434.02 363.8 434.596 364.824C435.188 365.848 435.484 367.04 435.484 368.4C435.484 369.76 435.18 370.96 434.572 372C433.98 373.024 433.172 373.816 432.148 374.376C431.124 374.936 429.988 375.216 428.74 375.216ZM428.74 373.296C429.524 373.296 430.26 373.112 430.948 372.744C431.636 372.376 432.188 371.824 432.604 371.088C433.036 370.352 433.252 369.456 433.252 368.4C433.252 367.344 433.044 366.448 432.628 365.712C432.212 364.976 431.668 364.432 430.996 364.08C430.324 363.712 429.596 363.528 428.812 363.528C428.012 363.528 427.276 363.712 426.604 364.08C425.948 364.432 425.42 364.976 425.02 365.712C424.62 366.448 424.42 367.344 424.42 368.4C424.42 369.472 424.612 370.376 424.996 371.112C425.396 371.848 425.924 372.4 426.58 372.768C427.236 373.12 427.956 373.296 428.74 373.296ZM443.708 363.648H440.948V375H438.764V363.648H437.06V361.848H438.764V360.912C438.764 359.44 439.14 358.368 439.892 357.696C440.66 357.008 441.884 356.664 443.564 356.664V358.488C442.604 358.488 441.924 358.68 441.524 359.064C441.14 359.432 440.948 360.048 440.948 360.912V361.848H443.708V363.648ZM458.389 375.216C457.157 375.216 456.037 374.936 455.029 374.376C454.037 373.816 453.253 373.024 452.677 372C452.117 370.96 451.837 369.76 451.837 368.4C451.837 367.056 452.125 365.872 452.701 364.848C453.293 363.808 454.093 363.016 455.101 362.472C456.109 361.912 457.237 361.632 458.485 361.632C459.733 361.632 460.861 361.912 461.869 362.472C462.877 363.016 463.669 363.8 464.245 364.824C464.837 365.848 465.133 367.04 465.133 368.4C465.133 369.76 464.829 370.96 464.221 372C463.629 373.024 462.821 373.816 461.797 374.376C460.773 374.936 459.637 375.216 458.389 375.216ZM458.389 373.296C459.173 373.296 459.909 373.112 460.597 372.744C461.285 372.376 461.837 371.824 462.253 371.088C462.685 370.352 462.901 369.456 462.901 368.4C462.901 367.344 462.693 366.448 462.277 365.712C461.861 364.976 461.317 364.432 460.645 364.08C459.973 363.712 459.245 363.528 458.461 363.528C457.661 363.528 456.925 363.712 456.253 364.08C455.597 364.432 455.069 364.976 454.669 365.712C454.269 366.448 454.069 367.344 454.069 368.4C454.069 369.472 454.261 370.376 454.645 371.112C455.045 371.848 455.573 372.4 456.229 372.768C456.885 373.12 457.605 373.296 458.389 373.296ZM479.668 361.848V375H477.484V373.056C477.068 373.728 476.484 374.256 475.732 374.64C474.996 375.008 474.18 375.192 473.284 375.192C472.26 375.192 471.34 374.984 470.524 374.568C469.708 374.136 469.06 373.496 468.58 372.648C468.116 371.8 467.884 370.768 467.884 369.552V361.848H470.044V369.264C470.044 370.56 470.372 371.56 471.028 372.264C471.684 372.952 472.58 373.296 473.716 373.296C474.884 373.296 475.804 372.936 476.476 372.216C477.148 371.496 477.484 370.448 477.484 369.072V361.848H479.668ZM485.54 363.984C485.924 363.232 486.468 362.648 487.172 362.232C487.892 361.816 488.764 361.608 489.788 361.608V363.864H489.212C486.764 363.864 485.54 365.192 485.54 367.848V375H483.356V361.848H485.54V363.984ZM318.675 395.712C318.259 395.712 317.907 395.568 317.619 395.28C317.331 394.992 317.187 394.64 317.187 394.224C317.187 393.808 317.331 393.456 317.619 393.168C317.907 392.88 318.259 392.736 318.675 392.736C319.075 392.736 319.411 392.88 319.683 393.168C319.971 393.456 320.115 393.808 320.115 394.224C320.115 394.64 319.971 394.992 319.683 395.28C319.411 395.568 319.075 395.712 318.675 395.712ZM319.731 397.848V411H317.547V397.848H319.731ZM329.861 397.608C331.461 397.608 332.757 398.096 333.749 399.072C334.741 400.032 335.237 401.424 335.237 403.248V411H333.077V403.56C333.077 402.248 332.749 401.248 332.093 400.56C331.437 399.856 330.541 399.504 329.405 399.504C328.253 399.504 327.333 399.864 326.645 400.584C325.973 401.304 325.637 402.352 325.637 403.728V411H323.453V397.848H325.637V399.72C326.069 399.048 326.653 398.528 327.389 398.16C328.141 397.792 328.965 397.608 329.861 397.608ZM344.157 399.648H341.397V411H339.213V399.648H337.509V397.848H339.213V396.912C339.213 395.44 339.589 394.368 340.341 393.696C341.109 393.008 342.333 392.664 344.013 392.664V394.488C343.053 394.488 342.373 394.68 341.973 395.064C341.589 395.432 341.397 396.048 341.397 396.912V397.848H344.157V399.648ZM348.887 393.24V411H346.703V393.24H348.887ZM364.274 397.848V411H362.09V409.056C361.674 409.728 361.09 410.256 360.338 410.64C359.602 411.008 358.786 411.192 357.89 411.192C356.866 411.192 355.946 410.984 355.13 410.568C354.314 410.136 353.666 409.496 353.186 408.648C352.722 407.8 352.49 406.768 352.49 405.552V397.848H354.65V405.264C354.65 406.56 354.978 407.56 355.634 408.264C356.29 408.952 357.186 409.296 358.322 409.296C359.49 409.296 360.41 408.936 361.082 408.216C361.754 407.496 362.09 406.448 362.09 405.072V397.848H364.274ZM379.961 403.92C379.961 404.336 379.937 404.776 379.889 405.24H369.377C369.457 406.536 369.897 407.552 370.697 408.288C371.513 409.008 372.497 409.368 373.649 409.368C374.593 409.368 375.377 409.152 376.001 408.72C376.641 408.272 377.089 407.68 377.345 406.944H379.697C379.345 408.208 378.641 409.24 377.585 410.04C376.529 410.824 375.217 411.216 373.649 411.216C372.401 411.216 371.281 410.936 370.289 410.376C369.313 409.816 368.545 409.024 367.985 408C367.425 406.96 367.145 405.76 367.145 404.4C367.145 403.04 367.417 401.848 367.961 400.824C368.505 399.8 369.265 399.016 370.241 398.472C371.233 397.912 372.369 397.632 373.649 397.632C374.897 397.632 376.001 397.904 376.961 398.448C377.921 398.992 378.657 399.744 379.169 400.704C379.697 401.648 379.961 402.72 379.961 403.92ZM377.705 403.464C377.705 402.632 377.521 401.92 377.153 401.328C376.785 400.72 376.281 400.264 375.641 399.96C375.017 399.64 374.321 399.48 373.553 399.48C372.449 399.48 371.505 399.832 370.721 400.536C369.953 401.24 369.513 402.216 369.401 403.464H377.705ZM389.252 397.608C390.852 397.608 392.148 398.096 393.14 399.072C394.132 400.032 394.628 401.424 394.628 403.248V411H392.468V403.56C392.468 402.248 392.14 401.248 391.484 400.56C390.828 399.856 389.932 399.504 388.796 399.504C387.644 399.504 386.724 399.864 386.036 400.584C385.364 401.304 385.028 402.352 385.028 403.728V411H382.844V397.848H385.028V399.72C385.46 399.048 386.044 398.528 386.78 398.16C387.532 397.792 388.356 397.608 389.252 397.608ZM397.38 404.4C397.38 403.04 397.652 401.856 398.196 400.848C398.74 399.824 399.492 399.032 400.452 398.472C401.428 397.912 402.54 397.632 403.788 397.632C405.404 397.632 406.732 398.024 407.772 398.808C408.828 399.592 409.524 400.68 409.86 402.072H407.508C407.284 401.272 406.844 400.64 406.188 400.176C405.548 399.712 404.748 399.48 403.788 399.48C402.54 399.48 401.532 399.912 400.764 400.776C399.996 401.624 399.612 402.832 399.612 404.4C399.612 405.984 399.996 407.208 400.764 408.072C401.532 408.936 402.54 409.368 403.788 409.368C404.748 409.368 405.548 409.144 406.188 408.696C406.828 408.248 407.268 407.608 407.508 406.776H409.86C409.508 408.12 408.804 409.2 407.748 410.016C406.692 410.816 405.372 411.216 403.788 411.216C402.54 411.216 401.428 410.936 400.452 410.376C399.492 409.816 398.74 409.024 398.196 408C397.652 406.976 397.38 405.776 397.38 404.4ZM424.774 403.92C424.774 404.336 424.75 404.776 424.702 405.24H414.19C414.27 406.536 414.71 407.552 415.51 408.288C416.326 409.008 417.31 409.368 418.462 409.368C419.406 409.368 420.19 409.152 420.814 408.72C421.454 408.272 421.902 407.68 422.158 406.944H424.51C424.158 408.208 423.454 409.24 422.398 410.04C421.342 410.824 420.03 411.216 418.462 411.216C417.214 411.216 416.094 410.936 415.102 410.376C414.126 409.816 413.358 409.024 412.798 408C412.238 406.96 411.958 405.76 411.958 404.4C411.958 403.04 412.23 401.848 412.774 400.824C413.318 399.8 414.078 399.016 415.054 398.472C416.046 397.912 417.182 397.632 418.462 397.632C419.71 397.632 420.814 397.904 421.774 398.448C422.734 398.992 423.47 399.744 423.982 400.704C424.51 401.648 424.774 402.72 424.774 403.92ZM422.518 403.464C422.518 402.632 422.334 401.92 421.966 401.328C421.598 400.72 421.094 400.264 420.454 399.96C419.83 399.64 419.134 399.48 418.366 399.48C417.262 399.48 416.318 399.832 415.534 400.536C414.766 401.24 414.326 402.216 414.214 403.464H422.518ZM429.841 399.984C430.225 399.232 430.769 398.648 431.473 398.232C432.193 397.816 433.065 397.608 434.089 397.608V399.864H433.513C431.065 399.864 429.841 401.192 429.841 403.848V411H427.657V397.848H429.841V399.984ZM441.266 411.216C440.258 411.216 439.354 411.048 438.554 410.712C437.754 410.36 437.122 409.88 436.658 409.272C436.194 408.648 435.938 407.936 435.89 407.136H438.146C438.21 407.792 438.514 408.328 439.058 408.744C439.618 409.16 440.346 409.368 441.242 409.368C442.074 409.368 442.73 409.184 443.21 408.816C443.69 408.448 443.93 407.984 443.93 407.424C443.93 406.848 443.674 406.424 443.162 406.152C442.65 405.864 441.858 405.584 440.786 405.312C439.81 405.056 439.01 404.8 438.386 404.544C437.778 404.272 437.25 403.88 436.802 403.368C436.37 402.84 436.154 402.152 436.154 401.304C436.154 400.632 436.354 400.016 436.754 399.456C437.154 398.896 437.722 398.456 438.458 398.136C439.194 397.8 440.034 397.632 440.978 397.632C442.434 397.632 443.61 398 444.506 398.736C445.402 399.472 445.882 400.48 445.946 401.76H443.762C443.714 401.072 443.434 400.52 442.922 400.104C442.426 399.688 441.754 399.48 440.906 399.48C440.122 399.48 439.498 399.648 439.034 399.984C438.57 400.32 438.338 400.76 438.338 401.304C438.338 401.736 438.474 402.096 438.746 402.384C439.034 402.656 439.386 402.88 439.802 403.056C440.234 403.216 440.826 403.4 441.578 403.608C442.522 403.864 443.29 404.12 443.882 404.376C444.474 404.616 444.978 404.984 445.394 405.48C445.826 405.976 446.05 406.624 446.066 407.424C446.066 408.144 445.866 408.792 445.466 409.368C445.066 409.944 444.498 410.4 443.762 410.736C443.042 411.056 442.21 411.216 441.266 411.216Z" fill="#020A44"/>
<defs>
<radialGradient id="paint0_radial_1130_4" cx="0" cy="0" r="1" gradientUnits="userSpaceOnUse" gradientTransform="translate(377.021 252) rotate(55.5836) scale(187.502 172.185)">
<stop stop-color="#E9F3F2"/>
<stop offset="1" stop-color="#F5EFF7"/>
</radialGradient>
</defs>
</svg>
