<svg width="592" height="451" viewBox="0 0 592 451" fill="none" xmlns="http://www.w3.org/2000/svg">
<path fill-rule="evenodd" clip-rule="evenodd" d="M168.935 85.3421C224.94 81.0976 290.92 73.48 325.835 117.415C360.711 161.301 337.483 223.455 321.333 277.11C307.022 324.652 287.344 373.51 242.377 394.673C197.77 415.666 146.918 401.531 102.528 380.086C58.2609 358.7 17.1072 327.327 4.6421 279.822C-8.25505 230.67 6.49445 177.968 39.3027 139.132C71.0476 101.554 119.846 89.0625 168.935 85.3421Z" fill="#FBE7EE"/>
<path d="M52.8212 174.438C69.1291 173.269 84.9046 167.033 97.756 156.952C104.298 151.819 109.938 145.708 114.659 138.872C119.941 131.229 124.373 122.921 130.751 116.093C133.946 112.674 137.664 109.627 142.08 107.948C146.741 106.175 151.811 105.759 156.711 105.07C161.9 104.335 167.081 103.546 172.253 102.703C176.987 101.93 181.844 101.318 186.429 99.8601C190.184 98.6945 193.606 96.6497 196.412 93.8955C198.999 91.3574 201.152 88.4282 203.431 85.6218C205.692 82.8391 208.122 80.0812 211.195 78.1645C215.25 75.6474 219.917 75.3281 224.57 75.5126C229.035 75.6892 233.433 75.981 237.896 75.5388C241.995 75.1293 246.041 74.3012 249.971 73.0674C257.912 70.5837 265.26 66.5019 271.565 61.0729C273.136 59.7107 274.634 58.2665 276.052 56.7464C276.224 56.5619 275.948 56.2832 275.774 56.469C263.934 69.1268 246.705 76.1118 229.4 75.3648C224.894 75.1698 220.264 74.6243 215.833 75.7573C212.401 76.6338 209.463 78.6067 206.96 81.0663C201.843 86.0928 198.371 92.8581 192.215 96.796C188.234 99.342 183.537 100.364 178.946 101.176C173.844 102.078 168.735 102.887 163.618 103.662C158.647 104.413 153.631 104.97 148.675 105.834C144.129 106.619 139.875 108.05 136.108 110.767C128.975 115.913 124.082 123.623 119.41 130.915C114.638 138.359 109.722 145.555 103.276 151.671C91.2106 163.118 75.6209 170.824 59.173 173.342C57.0653 173.665 54.9459 173.895 52.8199 174.049C52.57 174.066 52.5674 174.458 52.8199 174.441L52.8212 174.438Z" fill="#E9E3E0"/>
<path d="M58.8838 183.721C75.1918 182.553 90.9673 176.316 103.819 166.234C110.36 161.102 115.999 154.991 120.722 148.156C126.002 140.512 130.435 132.205 136.814 125.376C140.008 121.956 143.727 118.91 148.143 117.232C152.804 115.459 157.874 115.042 162.773 114.354C167.962 113.621 173.142 112.832 178.315 111.988C183.049 111.215 187.907 110.601 192.491 109.144C196.246 107.979 199.669 105.934 202.475 103.181C205.06 100.641 207.214 97.712 209.494 94.907C211.755 92.1242 214.183 89.365 217.256 87.4496C221.312 84.9312 225.979 84.6119 230.632 84.7964C235.097 84.9743 239.496 85.2661 243.959 84.8226C248.061 84.4148 252.111 83.5871 256.045 82.3525C263.983 79.8696 271.33 75.7881 277.632 70.3593C279.202 68.9966 280.7 67.552 282.119 66.0315C282.292 65.847 282.014 65.5696 281.842 65.7541C270.002 78.4132 252.771 85.3969 235.468 84.6499C230.961 84.4563 226.332 83.9107 221.899 85.0424C218.468 85.9176 215.531 87.8905 213.026 90.3501C207.911 95.3766 204.437 102.142 198.282 106.08C194.301 108.627 189.604 109.649 185.013 110.461C179.911 111.363 174.808 112.173 169.685 112.947C164.714 113.699 159.699 114.255 154.743 115.12C150.195 115.905 145.943 117.335 142.174 120.054C135.041 125.198 130.15 132.909 125.476 140.202C120.705 147.645 115.795 154.84 109.344 160.956C97.2772 172.404 81.6875 180.109 65.2395 182.628C63.1332 182.95 61.0159 183.185 58.8877 183.334C58.6365 183.352 58.6352 183.744 58.8877 183.726L58.8838 183.721Z" fill="#E9E3E0"/>
<path d="M64.9531 193.004C81.261 191.835 97.0365 185.599 109.889 175.518C116.431 170.385 122.07 164.274 126.791 157.438C132.073 149.795 136.505 141.487 142.883 134.659C146.078 131.24 149.798 128.193 154.212 126.514C158.873 124.741 163.943 124.325 168.844 123.636C174.033 122.901 179.213 122.112 184.385 121.269C189.119 120.496 193.976 119.884 198.561 118.426C202.316 117.261 205.738 115.216 208.544 112.462C211.131 109.923 213.284 106.994 215.563 104.188C217.825 101.405 220.254 98.6472 223.327 96.7306C227.382 94.2121 232.049 93.8942 236.701 94.0786C241.167 94.2553 245.567 94.547 250.028 94.1048C254.127 93.6953 258.173 92.8672 262.103 91.6334C270.042 89.1489 277.388 85.0671 283.69 79.6389C285.261 78.2767 286.759 76.8325 288.178 75.3124C288.351 75.1279 288.073 74.8492 287.901 75.0337C276.059 87.6928 258.83 94.6778 241.525 93.9308C237.019 93.7359 232.389 93.1903 227.958 94.3233C224.526 95.1998 221.588 97.1728 219.085 99.6324C213.968 104.659 210.496 111.424 204.341 115.362C200.36 117.908 195.663 118.93 191.072 119.742C185.97 120.644 180.867 121.453 175.744 122.228C170.772 122.979 165.756 123.536 160.8 124.4C156.254 125.185 152.001 126.616 148.233 129.333C141.1 134.479 136.207 142.189 131.535 149.481C126.764 156.925 121.854 164.121 115.401 170.237C103.336 181.684 87.7463 189.39 71.2983 191.908C69.1907 192.231 67.0725 192.461 64.9452 192.615C64.6953 192.632 64.6927 193.024 64.9452 193.007L64.9531 193.004Z" fill="#E9E3E0"/>
<path d="M71.0196 202.286C87.3276 201.118 103.103 194.881 115.955 184.8C122.496 179.667 128.135 173.556 132.858 166.722C138.139 159.077 142.571 150.771 148.95 143.942C152.145 140.522 155.863 137.476 160.278 135.797C164.94 134.025 170.01 133.607 174.909 132.919C180.098 132.186 185.278 131.398 190.45 130.552C195.185 129.78 200.043 129.167 204.627 127.709C208.382 126.544 211.805 124.5 214.611 121.746C217.197 119.207 219.349 116.278 221.63 113.473C223.891 110.69 226.32 107.931 229.392 106.015C233.448 103.497 238.116 103.178 242.768 103.362C247.233 103.54 251.632 103.832 256.094 103.388C260.193 102.981 264.24 102.156 268.17 100.923C276.109 98.4404 283.455 94.3589 289.757 88.9301C291.328 87.5674 292.826 86.1228 294.244 84.6023C294.417 84.4178 294.14 84.1404 293.967 84.3249C282.127 96.984 264.897 103.968 247.593 103.221C243.086 103.027 238.457 102.481 234.025 103.613C230.593 104.488 227.656 106.461 225.152 108.921C220.036 113.947 216.564 120.713 210.407 124.651C206.427 127.198 201.731 128.22 197.138 129.032C192.036 129.934 186.934 130.743 181.81 131.518C176.839 132.27 171.824 132.826 166.868 133.691C162.321 134.476 158.069 135.906 154.299 138.625C147.168 143.769 142.275 151.48 137.602 158.772C132.83 166.215 127.92 173.411 121.469 179.527C109.403 190.975 93.8142 198.679 77.3649 201.199C75.2585 201.521 73.1413 201.756 71.0131 201.904C70.7619 201.923 70.7606 202.315 71.0131 202.297L71.0196 202.286Z" fill="#E9E3E0"/>
<path d="M77.0849 211.57C93.3929 210.401 109.17 204.165 122.021 194.084C128.563 188.951 134.201 182.84 138.924 176.004C144.205 168.361 148.637 160.053 155.016 153.225C158.211 149.805 161.931 146.758 166.346 145.08C171.006 143.307 176.076 142.891 180.977 142.202C186.166 141.468 191.346 140.679 196.518 139.835C201.252 139.062 206.109 138.449 210.695 136.992C214.45 135.826 217.872 133.781 220.677 131.027C223.264 128.489 225.417 125.56 227.696 122.754C229.958 119.971 232.387 117.213 235.46 115.296C239.509 112.778 244.182 112.46 248.836 112.645C253.301 112.821 257.7 113.113 262.161 112.671C266.26 112.261 270.306 111.432 274.237 110.199C282.175 107.715 289.521 103.633 295.824 98.2048C297.394 96.8426 298.892 95.3984 300.311 93.8783C300.484 93.6938 300.206 93.4152 300.034 93.5996C288.192 106.259 270.963 113.244 253.66 112.497C249.153 112.302 244.524 111.756 240.091 112.889C236.66 113.766 233.721 115.739 231.218 118.198C226.102 123.225 222.629 129.99 216.474 133.927C212.493 136.474 207.796 137.496 203.205 138.308C198.103 139.21 192.994 140.019 187.877 140.794C182.905 141.545 177.889 142.102 172.935 142.966C168.387 143.751 164.135 145.182 160.366 147.899C153.233 153.045 148.34 160.755 143.668 168.047C138.897 175.491 133.987 182.687 127.534 188.803C115.469 200.25 99.8795 207.955 83.4315 210.474C81.3238 210.797 79.2057 211.027 77.0784 211.18C76.8285 211.197 76.8272 211.59 77.0784 211.573L77.0849 211.57Z" fill="#E9E3E0"/>
<path d="M115.944 191.691C118.011 197.14 123.179 201.286 128.946 202.122C130.399 202.332 131.884 202.349 133.31 202.701C136.86 203.578 139.548 206.365 142.372 208.689C145.195 211.014 148.847 213.046 152.355 212.02C154.031 211.53 155.495 210.372 157.234 210.167C159.539 209.896 161.724 211.365 164.037 211.391C165.922 211.412 167.714 210.46 169.087 209.167C170.461 207.874 171.48 206.261 172.489 204.665C173.004 203.845 173.535 202.942 173.439 201.979C173.29 200.569 171.891 199.691 170.674 198.97C165.233 195.716 160.454 191.251 154.527 188.998C150.431 187.439 145.994 187.021 141.776 185.828C136.064 184.214 130.787 181.188 124.965 180.025C122.804 179.593 120.418 179.462 118.535 180.605" fill="#101010"/>
<path d="M141.71 91.7944C141.602 90.9356 141.284 90.1167 140.783 89.4107C139.858 88.1024 138.474 87.1932 137.082 86.3938C135.69 85.5944 134.242 84.8644 133.054 83.785C131.85 82.6821 130.961 81.2469 129.621 80.3076C127.632 78.909 124.928 78.7913 123.018 77.288C122.11 76.5737 121.498 75.5663 120.522 74.9239C119.749 74.415 118.756 74.1546 117.883 74.4608C116.305 75.0194 116.161 76.8982 114.814 77.6884C114.018 78.1554 112.779 78.264 112.622 79.1733C112.416 80.3665 114.432 80.8374 114.603 82.0358C113.877 81.6774 113.138 81.315 112.337 81.1907C111.536 81.0664 110.655 81.2155 110.067 81.7716C109.48 82.3276 109.282 83.1832 109.052 83.9656C108.585 85.5368 107.84 87.0118 106.854 88.3209C106.252 89.1203 105.518 90.0583 105.835 91.0082C106.096 91.7931 106.96 92.1739 107.748 92.4133C111.411 93.5279 115.448 93.5044 118.839 95.2915C122.186 97.0525 124.494 100.37 127.813 102.181C130.158 103.45 132.862 103.894 135.49 103.444C135.448 103.12 135.847 102.954 136.144 102.813C136.881 102.457 137.29 101.668 137.615 100.917C138.4 99.0856 138.999 97.1336 140.204 95.544C140.596 95.0207 141.058 94.5419 141.358 93.961C141.688 93.2901 141.811 92.5356 141.71 91.7944Z" fill="#020A44"/>
<path d="M175.082 107.055C174.918 106.939 174.697 106.947 174.541 107.074C174.386 107.201 174.334 107.416 174.415 107.6C174.443 107.662 174.47 107.722 174.497 107.781C174.879 108.592 175.262 109.404 175.644 110.217C174.968 109.553 174.267 108.874 173.386 108.526C173.047 108.396 172.662 108.311 172.325 108.49C172.155 108.576 172.034 108.736 171.996 108.923C171.941 109.232 172.154 109.427 172.353 109.601L172.476 109.708C172.074 109.519 171.492 109.612 171.534 110.107C171.546 110.215 171.585 110.317 171.646 110.406L172.983 112.423C172.534 111.95 172.027 111.536 171.474 111.191C171.222 111.034 170.94 110.887 170.639 110.955C170.473 110.987 170.337 111.104 170.279 111.263C170.208 111.483 170.341 111.642 170.47 111.779C170.6 111.916 170.747 112.061 170.895 112.194C170.989 112.279 171.019 112.413 170.971 112.53C170.923 112.647 170.807 112.722 170.681 112.717C170.461 112.707 170.24 112.73 170.027 112.785C169.011 113.054 168.382 114.237 168.615 115.263C168.77 115.879 169.158 116.41 169.697 116.746C170.17 117.046 170.723 117.195 171.283 117.176C173.376 117.13 175.469 116.342 176.864 114.788C177.255 114.383 177.55 113.896 177.727 113.362C177.956 112.569 177.778 111.719 177.538 110.93C177.078 109.445 176.314 107.939 175.082 107.055Z" fill="#FFD1BB"/>
<path d="M154.994 136.893C152.655 134.724 152.201 134.998 141.257 122.666L142.834 112.892C145.59 113.006 146.917 114.152 147.564 114.738C153.975 120.54 160.221 129.415 162.173 132.557C163.254 134.299 164.863 136.239 163.874 138.034C163.039 139.551 161.005 140.069 159.326 139.647C157.647 139.224 156.263 138.07 154.994 136.893Z" fill="#FFD1BB"/>
<path d="M157.592 137.436C158.502 139.791 161.551 140.445 163.383 138.701C165.858 136.346 167.177 134.539 169.357 127.057C172.332 116.869 172.808 114.988 172.808 114.988L168.86 114.007C168.86 114.007 156.729 129.267 157.055 134.764C157.095 135.677 157.277 136.578 157.592 137.436Z" fill="#FFD1BB"/>
<path d="M159.054 128.368C158.132 129.81 157.468 131.401 157.091 133.07C157.036 133.316 157.415 133.422 157.469 133.175C157.838 131.538 158.489 129.979 159.394 128.567C159.525 128.352 159.19 128.156 159.054 128.368Z" fill="#101010"/>
<path d="M172.808 109.99C173.51 110.455 174.247 110.945 174.667 111.7C174.79 111.92 175.129 111.722 175.006 111.501C174.552 110.688 173.764 110.152 173.005 109.651C172.795 109.511 172.597 109.85 172.808 109.99Z" fill="#101010"/>
<path d="M173.028 112.746C173.136 112.746 173.224 112.659 173.224 112.55C173.224 112.442 173.136 112.354 173.028 112.354C172.919 112.354 172.832 112.442 172.832 112.55C172.832 112.659 172.919 112.746 173.028 112.746Z" fill="#101010"/>
<path d="M176.039 110.985C176.148 110.985 176.236 110.897 176.236 110.789C176.236 110.68 176.148 110.592 176.039 110.592C175.931 110.592 175.843 110.68 175.843 110.789C175.843 110.897 175.931 110.985 176.039 110.985Z" fill="#101010"/>
<path d="M69.7009 105.776C69.8081 106.594 69.9965 107.443 70.5329 108.07C70.915 108.483 71.3848 108.805 71.908 109.013C73.8142 109.853 76.0566 109.701 77.9772 108.882C78.495 108.669 78.9364 108.304 79.2436 107.835C79.5935 107.307 79.7252 106.663 79.6112 106.039C79.4006 105.011 78.3396 104.192 77.3021 104.366C77.0853 104.404 76.8754 104.475 76.6793 104.575C76.5653 104.634 76.4263 104.615 76.3332 104.526C76.2402 104.437 76.2137 104.299 76.2672 104.183C76.347 104.002 76.419 103.818 76.4831 103.631C76.5472 103.444 76.5995 103.252 76.4438 103.082C76.3254 102.961 76.1519 102.912 75.9872 102.952C75.6876 103.014 75.4901 103.266 75.3331 103.512C74.9718 104.055 74.6803 104.641 74.4657 105.257C74.5939 104.461 74.7221 103.665 74.8503 102.868C74.871 102.762 74.8638 102.652 74.8294 102.55C74.6646 102.082 74.0954 102.237 73.8076 102.575L73.8743 102.426C73.9842 102.186 74.0968 101.921 73.9201 101.662C73.8091 101.506 73.6326 101.409 73.4413 101.4C73.0619 101.375 72.7427 101.609 72.4902 101.871C71.836 102.551 71.4736 103.461 71.1321 104.342C71.1435 103.445 71.1561 102.547 71.1701 101.65C71.1701 101.586 71.1701 101.519 71.1701 101.454C71.1673 101.253 71.0318 101.079 70.8382 101.027C70.6447 100.976 70.4403 101.059 70.338 101.231C69.574 102.55 69.4994 104.236 69.7009 105.776Z" fill="#FFD1BB"/>
<path d="M99.6439 124.634C102.676 123.643 102.973 124.081 118.071 117.462L120.73 107.923C118.18 106.877 116.495 107.361 115.66 107.621C107.405 110.205 98.0242 115.653 94.9366 117.695C93.2267 118.823 90.9528 119.919 91.0981 121.955C91.2197 123.682 92.8512 125.005 94.5533 125.324C96.2554 125.643 98.0019 125.172 99.6439 124.634Z" fill="#FFD1BB"/>
<path d="M98.8093 121.678C98.9545 124.201 96.4452 126.051 94.0588 125.222C90.8326 124.103 88.8871 122.998 83.8109 117.093C76.8926 109.044 75.6812 107.526 75.6812 107.526L78.8682 104.992C78.8682 104.992 96.2189 113.876 98.1944 119.02C98.5351 119.869 98.7425 120.766 98.8093 121.678Z" fill="#FFD1BB"/>
<path d="M93.5197 114.355C94.9131 115.258 96.1385 116.397 97.1411 117.721C97.2915 117.92 97.633 117.721 97.4799 117.522C96.4397 116.143 95.1663 114.956 93.7172 114.016C93.5053 113.877 93.3078 114.217 93.5197 114.355Z" fill="#101010"/>
<path d="M73.2856 102.756C72.7976 103.531 72.3162 104.34 72.239 105.273C72.218 105.524 72.6105 105.523 72.6315 105.273C72.7047 104.417 73.1809 103.663 73.6271 102.953C73.7579 102.739 73.4217 102.542 73.2882 102.756H73.2856Z" fill="#101010"/>
<path d="M74.4722 105.588C74.5806 105.588 74.6685 105.5 74.6685 105.392C74.6685 105.283 74.5806 105.195 74.4722 105.195C74.3639 105.195 74.276 105.283 74.276 105.392C74.276 105.5 74.3639 105.588 74.4722 105.588Z" fill="#101010"/>
<path d="M71.0013 105.228C71.1097 105.228 71.1976 105.141 71.1976 105.032C71.1976 104.924 71.1097 104.836 71.0013 104.836C70.8929 104.836 70.8051 104.924 70.8051 105.032C70.8051 105.141 70.8929 105.228 71.0013 105.228Z" fill="#101010"/>
<path d="M79.7447 165.635L84.4363 171.744L89.2901 169.185L83.4119 157.487C83.22 157.165 82.8203 157.036 82.4764 157.183L72.0977 161.646C71.8982 161.731 71.7793 161.938 71.806 162.154C71.8326 162.369 71.9985 162.541 72.2128 162.576L75.4718 163.099C77.1677 163.367 78.6967 164.275 79.7447 165.635Z" fill="#FFD1BB"/>
<path d="M137.002 146.248L118.113 147.346C121.8 164.734 151.017 181.635 153.384 183.174C155.75 184.712 157.178 195.856 165.646 205.361C178.274 219.53 183.21 227.263 183.21 227.263L189.228 224.592C163.628 174.439 137.002 146.248 137.002 146.248Z" fill="#FFD1BB"/>
<path d="M130.759 98.7285L126.303 113.746L133.945 116.783L136.695 105.526L130.759 98.7285Z" fill="#FFD1BB"/>
<path d="M141.506 93.6651C141.727 95.379 141.686 97.4212 142.908 98.6144C143.015 98.7134 143.075 98.8523 143.075 98.9977C143.075 99.1432 143.015 99.282 142.908 99.3811L142.65 99.6152C142.474 99.7797 142.391 100.021 142.429 100.259C142.645 101.595 142.981 106.366 138.928 106.424C135.972 106.465 132.796 106.132 130.546 104.094C126.442 100.378 125.369 92.7702 129.599 88.7184C133.515 84.9688 139.999 87.6966 141.307 92.6106C141.396 92.9574 141.462 93.3097 141.506 93.6651Z" fill="#FFD1BB"/>
<path d="M134.716 97.6989C136.63 96.8001 136.547 93.7073 136.371 91.4557C136.364 91.3731 136.407 91.2943 136.48 91.2556C136.553 91.2168 136.642 91.2255 136.707 91.2778C138.461 92.7051 139.488 93.1565 140.565 93.4443C140.763 93.5111 140.974 93.5299 141.181 93.4992C141.435 93.4237 141.654 93.2629 141.803 93.044C142.444 92.2197 142.588 91.0815 142.365 90.0637C142.143 89.0458 141.614 88.1169 141.016 87.2626C140.798 86.9512 140.548 86.6294 140.188 86.5064C139.828 86.3834 139.342 86.5692 139.293 86.946C138.873 86.492 138.684 85.8549 138.103 85.5278C137.885 85.3992 137.62 85.378 137.384 85.4702C136.801 85.7123 136.861 86.4789 136.992 87.0611C134.451 85.9477 131.331 86.39 129.119 88.062C126.906 89.734 125.637 92.539 125.71 95.3125C125.784 98.0861 125.031 100.046 127.15 101.841C127.307 101.972 129.274 103.28 129.473 103.332C129.768 103.408 130.389 102.843 130.672 102.719C131.684 102.26 132.634 101.604 133.288 100.705C133.942 99.8066 134.282 98.6461 134.06 97.5576" fill="#020A44"/>
<path d="M105.902 90.8771C105.954 89.7506 106.549 88.6425 107.508 88.0485C108.675 87.3276 110.191 87.431 111.48 87.9033C112.769 88.3756 113.906 89.1723 115.113 89.8213C116.321 90.4702 117.679 90.983 119.038 90.8064C119.711 90.7188 120.379 90.4636 121.049 90.5722C122.072 90.7384 122.772 91.6947 123.189 92.6433C123.607 93.5918 123.879 94.6437 124.561 95.4142C125.333 96.2734 126.498 96.6672 127.634 96.453C128.236 96.3327 128.899 96.0527 129.422 96.3719C129.684 96.5289 129.839 96.8037 130.076 96.9908C130.61 97.412 131.372 97.2969 132.047 97.2119C132.722 97.1268 133.532 97.1517 133.914 97.7142C134.267 98.2376 134.734 98.3985 134.437 98.9493C133.945 99.8507 135.082 98.3305 134.718 99.2907C134.064 101.024 130.916 102.847 130.314 103.107C129.006 103.674 127.505 103.091 126.192 102.527C122.777 101.06 119.097 99.6492 115.434 100.28C112.537 100.777 109.792 102.531 106.883 102.122C106.497 102.067 106.098 101.966 105.806 101.71C105.514 101.453 105.357 101.006 105.538 100.663C105.619 100.506 105.764 100.377 105.793 100.201C105.848 99.8729 105.487 99.6479 105.206 99.4687C103.871 98.6157 103.456 96.6061 104.345 95.2939C104.83 94.5769 105.606 94.1046 106.408 93.7802C105.671 92.8892 105.8 91.5914 105.968 90.4479" fill="#020A44"/>
<ellipse cx="1.61967" cy="2.11029" rx="1.61967" ry="2.11029" transform="matrix(0.81644 -0.577431 0.57743 0.81644 133.151 97.6099)" fill="#FFD1BB"/>
<path d="M137.537 143.428C137.646 143.428 137.734 143.34 137.734 143.231C137.734 143.123 137.646 143.035 137.537 143.035C137.429 143.035 137.341 143.123 137.341 143.231C137.341 143.34 137.429 143.428 137.537 143.428Z" fill="#101010"/>
<path d="M135.435 97.8881C135.381 97.8646 135.435 97.8881 135.455 97.9012C135.474 97.9143 135.489 97.9261 135.506 97.9339C135.476 97.909 135.491 97.9339 135.506 97.9339L135.529 97.9548C135.544 97.9682 135.558 97.9827 135.571 97.998L135.587 98.0163C135.569 97.9902 135.614 98.0477 135.587 98.0163L135.622 98.0673C135.644 98.1028 135.664 98.1395 135.682 98.1772C135.686 98.1872 135.69 98.1968 135.695 98.206C135.698 98.2656 135.748 98.3121 135.808 98.3107C135.867 98.3092 135.915 98.2605 135.915 98.2008C135.915 98.1411 135.867 98.0923 135.808 98.0909C135.748 98.0895 135.698 98.136 135.695 98.1956C135.705 98.2152 135.711 98.2348 135.719 98.2557C135.733 98.2963 135.746 98.3369 135.757 98.3787C135.767 98.4206 135.777 98.4611 135.787 98.503C135.787 98.503 135.797 98.5449 135.787 98.503C135.787 98.503 135.78 98.5514 135.787 98.5213C135.79 98.4999 135.8 98.4799 135.814 98.4638C135.857 98.4221 135.922 98.414 135.973 98.4441L136.071 98.6129L136.053 98.4533C136.05 98.3458 135.964 98.2591 135.856 98.2571C135.748 98.2578 135.661 98.3452 135.66 98.4533L135.676 98.5959C135.678 98.6362 135.688 98.6757 135.705 98.7123C135.734 98.7602 135.781 98.7946 135.835 98.8078C135.957 98.841 136.085 98.787 136.145 98.677C136.188 98.5798 136.193 98.4701 136.159 98.3696C136.144 98.3068 136.127 98.2387 136.108 98.1838C136.067 98.0539 136.007 97.9311 135.928 97.8201C135.834 97.6899 135.705 97.5885 135.557 97.527C135.505 97.5128 135.451 97.5204 135.405 97.548C135.361 97.5736 135.329 97.6153 135.315 97.6644C135.289 97.7668 135.345 97.8722 135.446 97.9064L135.435 97.8881Z" fill="#101010"/>
<path d="M140.052 96.7618C139.94 96.9657 139.909 97.2047 139.967 97.4303C139.996 97.5763 140.121 97.684 140.269 97.6919C140.433 97.6828 140.559 97.5433 140.552 97.3793C140.532 97.2012 140.38 97.0674 140.201 97.0705C140.093 97.0705 140.005 97.1584 140.005 97.2667C140.008 97.374 140.094 97.4602 140.201 97.463H140.227H140.175C140.19 97.4657 140.204 97.4696 140.218 97.4748L140.171 97.4551C140.184 97.4616 140.197 97.469 140.209 97.4774L140.168 97.446C140.177 97.4536 140.186 97.4619 140.193 97.4708L140.162 97.4303C140.169 97.4394 140.175 97.4495 140.179 97.4604L140.159 97.4133C140.16 97.4211 140.16 97.429 140.159 97.4368V97.3845V97.4093V97.357C140.158 97.3673 140.155 97.3774 140.151 97.3871L140.171 97.34C140.167 97.35 140.162 97.3593 140.155 97.3675L140.185 97.3282L140.17 97.3452L140.209 97.3138L140.189 97.3256L140.237 97.306H140.214L140.267 97.2994H140.26L140.312 97.306H140.289L140.336 97.3256L140.316 97.3138L140.356 97.3439C140.347 97.3375 140.34 97.3301 140.333 97.3217L140.363 97.3622C140.354 97.3479 140.346 97.333 140.339 97.3178L140.359 97.3649C140.346 97.3286 140.337 97.2908 140.332 97.2523L140.34 97.3047C140.332 97.2404 140.332 97.1754 140.34 97.1111L140.333 97.1634C140.342 97.0996 140.36 97.0372 140.384 96.9776L140.365 97.0247C140.374 97.0051 140.383 96.9855 140.394 96.9671C140.445 96.8728 140.414 96.7545 140.323 96.6976C140.229 96.6454 140.111 96.6766 140.055 96.7683L140.052 96.7618Z" fill="#101010"/>
<path d="M139.572 95.566H139.614H139.641H139.624L139.708 95.5555C139.767 95.5476 139.824 95.5411 139.883 95.5359C140 95.5228 140.118 95.5136 140.234 95.5058C140.342 95.5058 140.43 95.4179 140.43 95.3095C140.43 95.2011 140.342 95.1133 140.234 95.1133C139.972 95.1303 139.722 95.1591 139.467 95.1944C139.418 95.2082 139.376 95.2406 139.351 95.2847C139.324 95.3306 139.317 95.3853 139.331 95.4364C139.345 95.4857 139.377 95.5276 139.422 95.5529C139.468 95.5773 139.521 95.5847 139.572 95.5738V95.566Z" fill="#101010"/>
<path d="M144.997 113.483C144.813 113.032 125.242 108.728 119.063 107.377C118.559 107.268 118.033 107.379 117.616 107.683C117.2 107.986 116.933 108.453 116.882 108.966C116.338 114.356 117.944 122.126 119.136 126.9C119.853 129.771 119.664 132.794 118.593 135.553L116.127 141.905C116.127 146.469 120.216 152.193 124.303 153.801C131.629 156.679 138.375 146.922 138.375 146.922L138.244 134.996C137.511 131.713 138.697 131.565 140.237 128.576C143.482 122.274 145.154 113.86 144.997 113.483Z" fill="#FFD1BB"/>
<path d="M142.495 123.221C142.385 123.026 141.448 122.698 141.25 122.598C133.893 119.109 126.902 119.526 117.547 118.952C117.892 121.709 118.304 122.894 118.669 124.786C119.039 126.7 118.822 128.674 118.601 130.612C118.529 131.244 118.452 131.894 118.159 132.459C117.854 133.046 117.339 133.498 116.982 134.056L116.974 134.067C116.816 134.327 116.81 134.65 116.956 134.916C117.103 135.182 117.381 135.349 117.684 135.354C124.931 135.498 133.017 135.988 139.598 138.858C139.869 138.979 140.187 138.915 140.391 138.699C140.594 138.482 140.639 138.161 140.502 137.898C139.704 136.343 139.063 134.718 139.02 132.989C138.966 131.006 141.458 125.897 142.179 124.045C142.134 124.164 142.088 124.282 142.067 124.333C142.083 124.293 142.118 124.202 142.179 124.045C142.301 123.739 142.657 123.506 142.495 123.221Z" fill="#FBB13C"/>
<path d="M140.851 127.434C140.288 127.172 139.674 127.068 139.073 126.89C138.041 126.582 137.081 126.068 136.051 125.753C133.903 125.099 131.603 125.339 129.353 125.36C127.103 125.381 124.694 125.099 122.991 123.635C122.012 122.794 121.36 121.636 120.45 120.72C119.687 119.953 118.599 119.357 117.562 119.473C117.905 122.141 118.309 123.319 118.669 125.183C119.039 127.097 118.822 129.071 118.601 131.007C118.529 131.64 118.452 132.289 118.159 132.856C117.854 133.443 117.339 133.893 116.982 134.452L116.974 134.464C116.816 134.723 116.81 135.047 116.956 135.313C117.103 135.579 117.381 135.746 117.684 135.751C124.931 135.894 133.017 136.384 139.598 139.255C139.869 139.375 140.187 139.311 140.391 139.095C140.594 138.879 140.639 138.558 140.502 138.294C139.704 136.74 139.063 135.115 139.02 133.386C138.986 132.126 139.979 129.606 140.892 127.459L140.851 127.434Z" fill="#FBB13C"/>
<path d="M139.083 100.251C139.287 100.629 139.618 100.923 140.017 101.082C140.068 101.096 140.123 101.088 140.168 101.061C140.213 101.036 140.245 100.994 140.259 100.945C140.272 100.893 140.265 100.839 140.239 100.793C140.21 100.751 140.169 100.719 140.121 100.703C140.079 100.686 140.162 100.722 140.121 100.703L140.093 100.69L140.031 100.659C139.992 100.639 139.953 100.616 139.916 100.593C139.904 100.585 139.805 100.527 139.806 100.517L139.822 100.529L139.806 100.517L139.783 100.497L139.73 100.451C139.698 100.421 139.667 100.39 139.636 100.357L139.589 100.306C139.589 100.306 139.547 100.262 139.55 100.257C139.565 100.279 139.569 100.283 139.56 100.272L139.55 100.257C139.543 100.248 139.537 100.239 139.531 100.23C139.517 100.212 139.504 100.193 139.492 100.173C139.467 100.134 139.444 100.094 139.421 100.052C139.366 99.96 139.247 99.9291 139.153 99.9831C139.062 100.039 139.031 100.157 139.083 100.251Z" fill="#101010"/>
<path d="M116.127 141.898C116.127 141.898 108.712 154.727 108.369 189.406C108.369 189.406 108.566 184.975 101.124 179.063C93.2738 172.83 86.3398 163.321 86.3398 163.321L79.7407 165.19C79.7407 165.19 104.562 210.788 114.803 200.775C125.045 190.763 130.567 161.066 130.567 161.066L116.127 141.898Z" fill="#FFD1BB"/>
<path d="M108.65 186.464C108.379 188.022 108.318 189.61 108.47 191.184C108.493 191.433 108.886 191.436 108.862 191.184C108.711 189.645 108.767 188.093 109.03 186.569C109.072 186.321 108.693 186.215 108.65 186.464Z" fill="#101010"/>
<path d="M134.663 106.368C135.094 106.454 135.533 106.489 135.971 106.472C136.079 106.47 136.165 106.383 136.168 106.276C136.166 106.168 136.079 106.081 135.971 106.08C135.569 106.098 135.165 106.068 134.769 105.99C134.667 105.963 134.561 106.02 134.527 106.12C134.5 106.225 134.561 106.331 134.664 106.361L134.663 106.368Z" fill="#101010"/>
<path d="M142.902 117.963C142.907 120.6 142.43 123.216 141.493 125.682C141.226 126.379 140.924 127.062 140.586 127.728C140.471 127.953 140.81 128.152 140.925 127.926C142.491 124.84 143.303 121.427 143.294 117.967C143.294 117.858 143.206 117.771 143.098 117.771C142.989 117.771 142.902 117.858 142.902 117.967V117.963Z" fill="#101010"/>
<path d="M190.407 226.083L185.645 220.028L180.82 222.645L186.838 234.276C187.033 234.595 187.435 234.72 187.776 234.567L198.105 229.988C198.304 229.9 198.42 229.69 198.39 229.475C198.359 229.259 198.19 229.09 197.974 229.06L194.704 228.581C193.005 228.328 191.468 227.434 190.407 226.083Z" fill="#FFD1BB"/>
<path d="M180.91 201.082C180.193 199.797 179.285 198.576 178.602 197.475C176.57 194.19 174.465 190.952 172.286 187.761C167.969 181.438 163.422 175.201 158.252 169.551C150.834 161.439 146.223 157.437 141.439 147.299C140.916 146.179 141.33 144.621 140.363 143.846C139.692 143.309 136.599 142.554 135.761 142.368C127.639 140.57 123.145 139.547 116.993 140.191C116.118 140.283 115.439 140.995 115.388 141.873V141.901C115.368 142.241 115.253 142.568 115.056 142.846C110.257 149.672 108.572 158.153 108.092 166.354C107.848 170.5 108.118 174.616 108.063 178.758C108.031 181.103 106.316 184.859 108.194 186.81C108.666 187.299 109.342 187.563 109.991 187.718C112.571 188.331 115.529 187.617 118.014 188.561C123.918 190.806 129.185 194.42 134.747 197.415C142.05 201.345 149.867 204.232 157.971 205.995C162.031 206.881 166.152 207.459 170.3 207.725C172.297 207.851 174.298 207.899 176.302 207.869C178.694 207.831 182.026 208.306 182.077 204.869C182.098 203.579 181.591 202.301 180.91 201.082Z" fill="#8F2D56"/>
<path d="M135.812 90.4362C136.527 91.2283 137.334 91.9312 138.218 92.5295C139.054 93.096 140.023 93.6638 141.071 93.6063C141.605 93.5864 142.114 93.3794 142.51 93.0214C142.695 92.8474 142.416 92.5701 142.233 92.7428C141.55 93.3838 140.522 93.287 139.724 92.9429C138.835 92.5609 138.012 91.9552 137.282 91.3285C136.859 90.9645 136.459 90.5738 136.085 90.1589C135.915 89.9705 135.638 90.2492 135.808 90.4362H135.812Z" fill="#101010"/>
<path d="M133.551 90.7465C134.077 91.4637 134.761 92.0505 135.55 92.4616C135.775 92.5768 135.974 92.2379 135.749 92.1228C135.017 91.7483 134.381 91.2112 133.889 90.5528C133.833 90.4654 133.719 90.4348 133.627 90.4822C133.534 90.5373 133.503 90.6567 133.556 90.7504L133.551 90.7465Z" fill="#101010"/>
<path d="M132.572 92.1186C132.878 92.7101 133.363 93.1896 133.958 93.4884C134.019 93.5268 134.095 93.5289 134.158 93.4941C134.221 93.4592 134.26 93.3928 134.259 93.321C134.259 93.2492 134.219 93.1834 134.156 93.1495C133.888 93.0199 133.644 92.8466 133.433 92.6367C133.22 92.4288 133.043 92.187 132.91 91.921C132.876 91.8577 132.81 91.818 132.739 91.8174C132.667 91.8168 132.6 91.8555 132.565 91.9183C132.531 91.9811 132.533 92.0579 132.571 92.1186H132.572Z" fill="#101010"/>
<path d="M132.633 94.4464C132.765 94.7046 133.027 94.8704 133.317 94.8795C133.425 94.8795 133.513 94.7916 133.513 94.6832C133.513 94.5749 133.425 94.487 133.317 94.487H133.257H133.308C133.258 94.4798 133.209 94.4666 133.163 94.4478L133.21 94.4674C133.16 94.4465 133.114 94.4193 133.072 94.3863L133.112 94.4177C133.072 94.3863 133.036 94.3503 133.004 94.3104L133.036 94.3509C133.011 94.3186 132.99 94.284 132.972 94.2476C132.945 94.2034 132.903 94.1711 132.854 94.1573C132.749 94.1289 132.642 94.1904 132.613 94.2947C132.601 94.3456 132.608 94.399 132.633 94.4451V94.4464Z" fill="#101010"/>
<path d="M135.192 94.5429C135.3 94.5429 135.388 94.455 135.388 94.3466C135.388 94.2383 135.3 94.1504 135.192 94.1504C135.083 94.1504 134.995 94.2383 134.995 94.3466C134.995 94.455 135.083 94.5429 135.192 94.5429Z" fill="#101010"/>
<path d="M117.488 117.959C117.944 117.59 118.527 117.414 119.111 117.469C119.22 117.469 119.308 117.381 119.308 117.272C119.305 117.165 119.219 117.079 119.111 117.076C118.423 117.022 117.741 117.239 117.21 117.682C117.138 117.759 117.14 117.88 117.215 117.954C117.29 118.029 117.41 118.031 117.488 117.959Z" fill="#101010"/>
<path d="M120.132 118.07C120.24 118.07 120.328 117.982 120.328 117.874C120.328 117.766 120.24 117.678 120.132 117.678C120.023 117.678 119.936 117.766 119.936 117.874C119.936 117.982 120.023 118.07 120.132 118.07Z" fill="#101010"/>
<path d="M87.822 125.405C89.0175 126.747 90.6 127.686 92.3514 128.091C92.8521 128.206 93.3623 128.275 93.8755 128.299C94.128 128.31 94.128 127.918 93.8755 127.906C91.656 127.791 89.5755 126.79 88.1007 125.127C87.9332 124.938 87.6559 125.216 87.822 125.405Z" fill="#101010"/>
<path d="M87.8168 128.823C88.7233 129.594 89.8493 130.06 91.0352 130.155C91.2877 130.176 91.2864 129.782 91.0352 129.762C89.9523 129.672 88.9244 129.247 88.0942 128.546C87.9032 128.382 87.6232 128.658 87.8168 128.823Z" fill="#101010"/>
<path d="M93.364 130.346C93.4724 130.346 93.5602 130.258 93.5602 130.149C93.5602 130.041 93.4724 129.953 93.364 129.953C93.2556 129.953 93.1677 130.041 93.1677 130.149C93.1677 130.258 93.2556 130.346 93.364 130.346Z" fill="#101010"/>
<path d="M180.178 128.47C180.386 129.268 180.679 130.085 181.288 130.641C181.719 131.004 182.225 131.266 182.769 131.407C184.766 132.003 186.972 131.574 188.776 130.521C189.263 130.246 189.655 129.83 189.902 129.328C190.185 128.759 190.236 128.102 190.045 127.496C189.707 126.501 188.552 125.82 187.546 126.121C187.335 126.187 187.135 126.283 186.952 126.406C186.847 126.479 186.707 126.477 186.604 126.402C186.501 126.326 186.458 126.194 186.495 126.072C186.552 125.882 186.601 125.69 186.641 125.496C186.68 125.302 186.71 125.103 186.535 124.957C186.402 124.851 186.224 124.823 186.065 124.882C185.775 124.982 185.611 125.254 185.479 125.519C185.187 126.103 184.971 126.721 184.835 127.359C184.864 126.553 184.892 125.747 184.92 124.941C184.926 124.833 184.906 124.725 184.86 124.627C184.638 124.184 184.092 124.409 183.849 124.779C183.864 124.727 183.88 124.676 183.897 124.623C183.976 124.372 184.054 124.1 183.846 123.859C183.716 123.72 183.529 123.648 183.338 123.663C182.959 123.687 182.673 123.957 182.454 124.249C181.885 125.005 181.643 125.95 181.407 126.866C181.308 125.973 181.209 125.082 181.11 124.19C181.104 124.125 181.097 124.059 181.087 123.994C181.06 123.795 180.904 123.638 180.705 123.61C180.505 123.583 180.312 123.692 180.233 123.876C179.652 125.284 179.788 126.966 180.178 128.47Z" fill="#FFD7AD"/>
<path d="M212.968 138.811C213.826 135.739 214.357 135.737 217.233 119.503L216.309 111.601C213.204 111.994 212.567 115.561 211.958 116.783C207.287 126.136 204.598 135.173 204.579 138.873C204.568 140.921 204.211 143.416 205.99 144.43C207.495 145.287 209.501 144.664 210.711 143.427C211.921 142.189 212.502 140.479 212.968 138.811Z" fill="#FFD7AD"/>
<path d="M210.887 114.419C209.463 115.947 208.56 119.202 208.02 121.222C207.326 123.815 206.283 126.302 204.92 128.614C204.711 128.969 204.486 129.361 204.555 129.767C204.617 130.13 204.901 130.41 205.171 130.66C207.609 132.899 209.489 131.679 213.64 137.034C213.738 137.133 213.883 137.169 214.017 137.128C214.166 137.089 214.25 136.935 214.316 136.795C215.028 135.297 215.328 133.179 216.039 131.681C216.161 131.419 216.263 131.07 216.039 130.896" fill="#020A44"/>
<path d="M211.039 140.633C211.496 143.119 209.236 145.266 206.765 144.74C203.425 144.03 201.356 143.17 195.587 137.946C187.723 130.818 186.332 129.463 186.332 129.463L189.179 126.553C189.179 126.553 207.495 133.215 210.097 138.066C210.542 138.868 210.86 139.734 211.039 140.633Z" fill="#FFD7AD"/>
<path d="M204.855 134.012C206.366 134.741 207.739 135.73 208.91 136.932C209.087 137.114 209.364 136.836 209.188 136.655C207.995 135.429 206.597 134.42 205.058 133.673C204.831 133.563 204.632 133.901 204.859 134.012H204.855Z" fill="#101010"/>
<path d="M183.37 125.007C182.985 125.834 182.594 126.698 182.631 127.631C182.64 127.884 183.032 127.885 183.023 127.631C182.989 126.769 183.353 125.968 183.709 125.204C183.76 125.11 183.729 124.992 183.638 124.936C183.546 124.886 183.431 124.917 183.376 125.007H183.37Z" fill="#101010"/>
<path d="M184.864 127.691C184.972 127.691 185.06 127.603 185.06 127.495C185.06 127.387 184.972 127.299 184.864 127.299C184.756 127.299 184.668 127.387 184.668 127.495C184.668 127.603 184.756 127.691 184.864 127.691Z" fill="#101010"/>
<path d="M187.918 127.766C188.026 127.766 188.114 127.678 188.114 127.57C188.114 127.461 188.026 127.374 187.918 127.374C187.809 127.374 187.721 127.461 187.721 127.57C187.721 127.678 187.809 127.766 187.918 127.766Z" fill="#101010"/>
<path d="M243.706 69.7482C243.505 69.7437 243.326 69.8732 243.268 70.065C243.209 70.2569 243.286 70.4643 243.455 70.5724C243.51 70.609 243.566 70.643 243.622 70.6771L245.927 72.0691C244.997 71.8925 244.037 71.7145 243.112 71.9134C242.755 71.9893 242.389 72.1358 242.208 72.4707C242.114 72.637 242.102 72.837 242.174 73.0137C242.305 73.3015 242.583 73.346 242.845 73.38L243.007 73.4009C242.569 73.4676 242.136 73.868 242.446 74.2566C242.517 74.3392 242.606 74.4031 242.708 74.4423L244.932 75.3804C244.296 75.2354 243.644 75.1721 242.992 75.192C242.696 75.2011 242.379 75.2352 242.166 75.4536C242.045 75.5721 241.995 75.7456 242.035 75.9102C242.098 76.1327 242.297 76.1915 242.48 76.2334C242.663 76.2753 242.873 76.3145 243.064 76.342C243.19 76.3599 243.291 76.4553 243.316 76.5802C243.342 76.7052 243.285 76.8325 243.176 76.898C242.987 77.0117 242.816 77.1528 242.669 77.3167C241.973 78.1016 242.106 79.4387 242.867 80.1622C243.336 80.5885 243.952 80.8168 244.585 80.7993C245.145 80.7859 245.688 80.6035 246.142 80.276C247.855 79.0802 249.171 77.2578 249.466 75.1946C249.566 74.6409 249.541 74.0719 249.393 73.5291C249.145 72.7442 248.524 72.1332 247.887 71.6099C246.694 70.6313 245.222 69.8018 243.706 69.7482Z" fill="#FFD7AD"/>
<path d="M248.053 107.003C245.607 109.051 245.829 109.536 232.216 118.845L222.717 116.054C223.175 113.334 224.479 112.162 225.143 111.593C231.702 105.954 241.29 100.877 244.652 99.3342C246.515 98.4811 248.641 97.1271 250.299 98.332C251.7 99.3485 251.959 101.433 251.328 103.042C250.698 104.651 249.38 105.895 248.053 107.003Z" fill="#FFD7AD"/>
<path d="M245.986 104.73C248.05 106.188 250.947 105.038 251.507 102.574C252.265 99.2434 252.356 97.0088 250.032 89.5764C246.862 79.4475 246.214 77.6172 246.214 77.6172L242.378 78.9804C242.378 78.9804 240.738 98.4048 244.057 102.802C244.597 103.54 245.247 104.191 245.986 104.73Z" fill="#FFD7AD"/>
<path d="M242.177 96.3617C242.208 98.0729 242.536 99.7658 243.146 101.365C243.236 101.599 243.616 101.495 243.526 101.261C242.924 99.6962 242.6 98.0381 242.569 96.3617C242.569 96.1092 242.177 96.1079 242.177 96.3617H242.177Z" fill="#101010"/>
<path d="M243.43 73.4492C244.27 73.4492 245.157 73.4492 245.922 73.8417C246.147 73.9555 246.346 73.6179 246.121 73.5028C245.288 73.0763 244.345 73.0606 243.43 73.0632C243.322 73.0632 243.234 73.1511 243.234 73.2594C243.234 73.3678 243.322 73.4557 243.43 73.4557V73.4492Z" fill="#101010"/>
<path d="M245.043 75.6581C245.152 75.6581 245.24 75.5703 245.24 75.4619C245.24 75.3535 245.152 75.2656 245.043 75.2656C244.935 75.2656 244.847 75.3535 244.847 75.4619C244.847 75.5703 244.935 75.6581 245.043 75.6581Z" fill="#101010"/>
<path d="M246.574 72.5234C246.682 72.5234 246.77 72.4355 246.77 72.3271C246.77 72.2187 246.682 72.1309 246.574 72.1309C246.465 72.1309 246.378 72.2187 246.378 72.3271C246.378 72.4355 246.465 72.5234 246.574 72.5234Z" fill="#101010"/>
<path d="M274.684 173.477L268.165 177.581L264.502 173.498L274.072 164.564C274.363 164.329 274.783 164.345 275.054 164.603L283.243 172.387C283.402 172.537 283.442 172.774 283.342 172.967C283.241 173.161 283.025 173.264 282.811 173.221L279.576 172.576C277.89 172.239 276.139 172.562 274.684 173.477Z" fill="#FFD7AD"/>
<path d="M223.456 98.7285L227.912 113.747L220.271 116.783L217.521 105.526L223.456 98.7285Z" fill="#FFD7AD"/>
<path d="M212.71 93.6654C212.49 95.3792 212.529 97.4215 211.307 98.6146C211.201 98.7137 211.14 98.8525 211.14 98.998C211.14 99.1434 211.201 99.2823 211.307 99.3813L211.562 99.6155C211.739 99.7796 211.822 100.021 211.784 100.259C211.568 101.595 211.231 106.366 215.285 106.424C218.243 106.466 221.417 106.132 223.668 104.094C227.771 100.378 228.844 92.7705 224.614 88.7187C220.698 84.9652 214.209 87.693 212.902 92.6069C212.815 92.9551 212.75 93.3087 212.71 93.6654Z" fill="#FFD7AD"/>
<path d="M217.988 97.8087C218.095 96.8789 218.146 95.9435 218.139 95.0076C218.139 94.3875 218.094 93.7268 217.731 93.2231C217.484 92.8803 217.111 92.6448 216.864 92.3073C216.501 91.8049 216.458 91.1494 216.312 90.5476C216.195 90.074 215.952 89.5716 215.555 89.3257C215.423 89.2432 215.338 89.1014 215.329 88.9454C215.319 88.7893 215.386 88.6384 215.508 88.5407L215.593 88.474C218.643 86.2499 222.934 86.5442 225.622 89.1975C228.309 91.8507 229.154 96.1314 227.664 99.605C227.163 100.72 226.465 101.737 225.604 102.605C225.258 102.965 224.837 103.402 224.296 103.413C223.879 103.423 223.567 103.167 223.265 102.915C222.403 102.194 221.541 101.476 220.671 100.76C219.801 100.045 218.839 99.0934 219.053 97.9866" fill="#020A44"/>
<path d="M228.251 94.3063C227.867 94.3263 227.481 94.3215 227.097 94.2919C225.519 94.2108 223.923 94.2304 222.378 94.5679C220.833 94.9055 219.336 95.5753 218.192 96.6612L218.075 96.8117C218.052 97.1427 218.023 97.4737 217.985 97.8034L219.054 97.9839C218.835 99.0907 219.801 100.043 220.672 100.757C221.543 101.472 222.404 102.197 223.266 102.912C223.569 103.165 223.88 103.42 224.297 103.411C224.834 103.399 225.255 102.962 225.606 102.602C226.467 101.734 227.164 100.718 227.665 99.6023C228.369 97.9308 228.572 96.0911 228.251 94.3063Z" fill="#020A44"/>
<ellipse cx="219.306" cy="98.0215" rx="2.11955" ry="1.62678" transform="rotate(-54.7276 219.306 98.0215)" fill="#FFD7AD"/>
<path d="M216.678 143.428C216.786 143.428 216.874 143.34 216.874 143.231C216.874 143.123 216.786 143.035 216.678 143.035C216.57 143.035 216.482 143.123 216.482 143.231C216.482 143.34 216.57 143.428 216.678 143.428Z" fill="#101010"/>
<path d="M218.676 97.5086C218.527 97.57 218.399 97.6715 218.304 97.8016C218.225 97.9124 218.165 98.0352 218.126 98.1653C218.105 98.2262 218.088 98.2883 218.074 98.3511C218.039 98.4516 218.044 98.5613 218.087 98.6585C218.148 98.7685 218.276 98.8226 218.397 98.7894C218.442 98.7772 218.481 98.7505 218.508 98.7135C218.535 98.6749 218.55 98.6296 218.553 98.5827L218.568 98.44C218.569 98.3879 218.548 98.3378 218.511 98.3009C218.474 98.264 218.424 98.2435 218.372 98.2438C218.265 98.2466 218.179 98.3328 218.176 98.44L218.159 98.5997L218.256 98.4309C218.288 98.4128 218.327 98.4096 218.363 98.4221C218.398 98.4346 218.426 98.4616 218.44 98.4963C218.44 98.5199 218.44 98.5238 218.44 98.4963C218.43 98.5408 218.44 98.4688 218.44 98.4963C218.451 98.4518 218.459 98.4126 218.469 98.372C218.479 98.3315 218.491 98.2935 218.506 98.2543C218.52 98.215 218.52 98.215 218.528 98.1941C218.528 98.1941 218.536 98.1732 218.528 98.1941C218.531 98.1841 218.536 98.1745 218.541 98.1653C218.558 98.1295 218.578 98.0945 218.599 98.0606C218.609 98.0423 218.621 98.0253 218.633 98.0083C218.613 98.0319 218.644 97.9913 218.633 98.0083L218.652 97.9848C218.665 97.9691 218.68 97.9546 218.695 97.9416L218.712 97.9246C218.728 97.9115 218.749 97.9076 218.712 97.9246C218.728 97.9167 218.742 97.9037 218.758 97.8945C218.774 97.8853 218.838 97.8552 218.783 97.8788C218.832 97.8634 218.873 97.8314 218.901 97.7885C218.94 97.7193 218.935 97.633 218.886 97.5698C218.837 97.5065 218.755 97.4788 218.678 97.4994L218.676 97.5086Z" fill="#101010"/>
<path d="M213.826 96.9608L213.853 97.0183L213.834 96.9712C213.858 97.0308 213.876 97.0932 213.885 97.157V97.1047C213.893 97.169 213.893 97.234 213.885 97.2983V97.246C213.881 97.2844 213.872 97.3222 213.859 97.3585L213.878 97.3114C213.871 97.3266 213.862 97.3415 213.853 97.3559L213.883 97.3153C213.877 97.3237 213.87 97.3312 213.861 97.3376L213.9 97.3075L213.881 97.3192L213.928 97.2996H213.904L213.957 97.2931H213.941L213.993 97.2996H213.971L214.018 97.3192L213.999 97.3075L214.039 97.3389L214.022 97.3219L214.052 97.3611C214.046 97.3526 214.041 97.3434 214.037 97.3336L214.056 97.3807C214.052 97.371 214.05 97.3609 214.048 97.3506V97.403V97.3781V97.4304C214.048 97.4226 214.048 97.4147 214.048 97.4069L214.029 97.454C214.033 97.4434 214.039 97.4333 214.046 97.4239L214.014 97.4645L214.039 97.4396L214 97.471C214.011 97.4624 214.024 97.4549 214.037 97.4488L213.991 97.4684C214.004 97.4631 214.018 97.4591 214.033 97.4566H213.98H214.006C214.115 97.4566 214.203 97.3687 214.203 97.2604C214.203 97.152 214.115 97.0641 214.006 97.0641C213.855 97.063 213.719 97.158 213.668 97.3009C213.622 97.4592 213.711 97.6249 213.868 97.6751C213.944 97.697 214.026 97.6846 214.093 97.6411C214.157 97.5947 214.206 97.5293 214.231 97.454C214.249 97.4002 214.26 97.3444 214.264 97.2878C214.269 97.2395 214.269 97.1909 214.264 97.1426C214.255 97.0078 214.217 96.8763 214.154 96.7567C214.119 96.6962 214.054 96.6592 213.983 96.6597C213.913 96.6602 213.849 96.6981 213.814 96.7591C213.779 96.8201 213.78 96.895 213.815 96.9555L213.826 96.9608Z" fill="#101010"/>
<path d="M214.964 111.914C215.15 111.464 228.975 108.716 235.155 107.366C235.66 107.257 236.187 107.369 236.603 107.673C237.02 107.978 237.287 108.446 237.336 108.96C237.882 114.35 236.274 122.12 235.082 126.894C234.365 129.765 234.555 132.788 235.625 135.547L238.091 141.899C238.091 146.463 234.002 152.187 229.915 153.795C222.589 156.673 216.681 151.264 216.681 151.264C217.413 147.981 215.519 131.559 213.979 128.57C210.733 122.274 214.805 112.306 214.964 111.914Z" fill="#FFD7AD"/>
<path d="M269.296 169.019C269.296 169.019 259.493 175.533 249.974 178.658C240.947 181.624 239.592 185.847 239.592 185.847C247.31 161.041 238.088 141.899 238.088 141.899L225.251 155.78C225.251 155.78 223.469 181.323 229.607 194.273C235.744 207.222 274.837 173.061 274.837 173.061L269.296 169.019Z" fill="#101010"/>
<path d="M239.963 182.922C239.682 184.443 239.198 185.92 238.524 187.314C238.414 187.54 238.753 187.739 238.863 187.511C239.552 186.089 240.048 184.58 240.337 183.026C240.383 182.779 240.005 182.673 239.959 182.922H239.963Z" fill="#101010"/>
<path d="M219.449 105.99C219.053 106.067 218.649 106.097 218.247 106.08C218.138 106.08 218.05 106.168 218.05 106.276C218.052 106.384 218.139 106.471 218.247 106.472C218.685 106.49 219.124 106.454 219.555 106.368C219.657 106.336 219.715 106.23 219.686 106.127C219.652 106.027 219.547 105.97 219.445 105.996L219.449 105.99Z" fill="#101010"/>
<path d="M214.47 217.834L207.954 210.884L213.664 206.895L216.206 210.452C217.727 212.583 219.658 214.389 221.885 215.764C222.729 216.287 223.38 216.736 223.298 216.856L216.84 226.128C216.716 226.307 216.489 226.382 216.283 226.312C216.077 226.242 215.942 226.045 215.952 225.827L216.101 222.531C216.178 220.814 215.594 219.133 214.47 217.834Z" fill="#FFD7AD"/>
<path d="M229.13 151.585L218.246 147.767C218.246 147.767 185.87 164.631 184.864 176.987C183.858 189.342 213.758 215.582 213.758 215.582L216.429 211.272C216.429 211.272 208.607 196.051 204.456 187.415C202.306 182.942 199.386 180.518 197.667 179.393C197.44 179.246 197.32 178.979 197.361 178.712C197.401 178.444 197.595 178.225 197.855 178.152C205.237 176.076 235.032 166.686 229.13 151.585Z" fill="#FBB13C"/>
<path d="M229.13 151.585L218.246 147.767C218.246 147.767 217.545 148.132 216.347 148.794C213.628 155.128 213.068 162.18 214.755 168.863C214.952 169.713 215.243 170.538 215.621 171.323C224.515 166.731 232.442 160.059 229.13 151.585Z" fill="#8F2D56"/>
<path d="M241.877 150.263C241.21 147.117 240.11 144.079 238.606 141.236C238.334 140.721 238.046 140.213 237.749 139.712L217.03 144.823C218.062 146.731 215.275 147.216 217.03 148.487C219.95 150.609 228.477 163.688 231.692 165.328C234.906 166.969 238.11 161.343 241.719 161.354C241.785 161.36 241.852 161.347 241.91 161.315C241.98 161.267 242.481 160.468 242.476 160.384C241.936 152.684 242.535 153.374 241.877 150.263Z" fill="#101010"/>
<path d="M218.172 90.9806C216.654 91.7394 214.862 91.606 213.172 91.4542C212.432 91.3875 211.658 91.309 211.043 90.8943C210.428 90.4795 210.05 89.6095 210.428 88.9698C210.951 88.0749 212.391 88.2986 213.155 87.6C212.552 86.9733 212.722 85.8547 213.367 85.2712C214.012 84.6877 214.976 84.5765 215.824 84.7701C216.671 84.9637 217.431 85.4242 218.179 85.8717C218.602 85.2568 219.448 85.0396 220.18 85.1874C220.913 85.3353 221.55 85.7801 222.115 86.2681C222.657 85.631 223.705 86.0483 224.339 86.5965C226.192 88.2345 227.212 90.6181 227.117 93.0896" fill="#020A44"/>
<path d="M210.713 90.6861C211.559 91.3583 212.583 91.7677 213.658 91.8636C214.825 91.9554 215.995 91.7492 217.06 91.2644C217.292 91.1636 217.091 90.8261 216.862 90.9255C214.969 91.7497 212.644 91.7458 210.984 90.4022C210.789 90.2452 210.511 90.5212 210.707 90.6795L210.713 90.6861Z" fill="#101010"/>
<path d="M217.581 92.9744C218.439 92.9967 219.276 92.7056 219.935 92.1554C220.012 92.0788 220.012 91.9547 219.935 91.8781C219.858 91.8037 219.736 91.8037 219.658 91.8781C219.073 92.3567 218.335 92.6068 217.579 92.5819C217.327 92.5741 217.327 92.9666 217.579 92.9744H217.581Z" fill="#101010"/>
<path d="M218.889 94.2107C219.192 94.1625 219.476 94.0297 219.708 93.8273C219.784 93.7507 219.784 93.6266 219.708 93.55C219.63 93.4755 219.508 93.4755 219.43 93.55L219.393 93.5814L219.404 93.5722L219.385 93.5879L219.304 93.6429C219.247 93.6783 219.188 93.7102 219.127 93.7384L219.105 93.7475C219.082 93.758 219.143 93.7331 219.119 93.7475L219.073 93.7645C219.042 93.7763 219.012 93.7855 218.98 93.7946C218.916 93.8138 218.851 93.8278 218.784 93.8365C218.735 93.8503 218.693 93.8826 218.666 93.9268C218.612 94.0207 218.643 94.1412 218.737 94.1963C218.784 94.2197 218.837 94.2266 218.889 94.2159V94.2107Z" fill="#101010"/>
<path d="M240.049 138.022C237.504 135.51 236.054 132.094 236.017 128.518C235.998 124.611 237.683 120.782 237.269 116.895C236.972 114.1 235.61 110.243 234.25 107.782C233.658 106.712 232.934 105.543 231.744 105.254C230.974 105.067 230.174 105.3 229.413 105.53C224.011 107.188 218.783 109.367 213.802 112.035C212.056 112.968 210.501 114.416 209.859 116.288C209.367 117.728 209.44 119.29 209.681 120.788C210.248 124.306 211.689 127.613 212.716 131.026C213.469 133.527 214.286 136.01 214.87 138.56C215.224 140.117 215.575 141.7 215.616 143.297C215.647 144.061 215.578 144.825 215.41 145.571C215.226 146.328 214.951 147.067 215.158 147.855C215.202 148.058 215.301 148.246 215.443 148.398C215.784 148.733 216.266 148.529 216.678 148.507C219.828 148.376 224.83 147.158 227.812 146.133C232.18 144.631 236.629 143.086 240.32 140.308C240.531 140.172 240.706 139.986 240.828 139.767C241.113 139.147 240.537 138.498 240.049 138.022Z" fill="#020A44"/>
<path d="M240.049 138.022C237.504 135.51 236.054 132.094 236.017 128.518C235.998 124.611 237.683 120.782 237.269 116.895C237.252 116.729 237.23 116.559 237.205 116.385C237.118 116.414 237.031 116.445 236.944 116.479C230.35 119.04 225.198 124.569 218.515 126.883C216.522 127.573 214.408 127.962 212.304 127.83L211.912 128.521C212.196 129.353 212.474 130.187 212.727 131.026C213.479 133.527 214.297 136.01 214.88 138.56C215.235 140.116 215.586 141.7 215.626 143.297C215.657 144.061 215.588 144.825 215.421 145.571C215.236 146.328 214.962 147.067 215.168 147.855C215.213 148.058 215.311 148.246 215.453 148.398C215.795 148.733 216.276 148.529 216.688 148.507C219.839 148.376 224.84 147.158 227.822 146.133C232.19 144.631 236.64 143.086 240.331 140.308C240.542 140.172 240.716 139.986 240.838 139.767C241.113 139.147 240.537 138.498 240.049 138.022Z" fill="#020A44"/>
<path d="M229.364 108.773C230.075 110.927 231.797 112.56 233.246 114.302C233.9 115.094 234.514 115.922 235.093 116.772C235.136 116.897 235.24 116.99 235.368 117.019C235.496 117.049 235.63 117.01 235.723 116.918C237.565 115.823 239.428 114.76 241.218 113.572C242.512 112.713 243.685 111.704 244.948 110.805C245.264 110.58 245.576 110.316 245.522 109.889C245.468 109.463 244.528 109.282 243.654 108.463C241.762 106.692 240.446 104.52 239.417 102.153C239.27 101.813 238.877 101.652 238.533 101.792C236.832 102.492 231.903 104.524 226.605 106.696" fill="#020A44"/>
<path d="M217.936 109.964C217.834 110.457 217.855 110.948 218.198 111.296C218.435 111.515 218.737 111.649 219.059 111.678C220.2 111.835 221.303 111.241 222.251 110.589C223.8 109.523 225.228 108.198 226.176 106.592C223.374 107.574 220.624 108.7 217.936 109.964Z" fill="#FFD7AD"/>
<path d="M233.947 118.4L235.574 117.254C236.07 116.905 236.565 116.533 237.136 116.315C237.37 116.224 237.267 115.845 237.031 115.937C236.445 116.162 235.937 116.519 235.428 116.878L233.749 118.056C233.545 118.2 233.739 118.54 233.947 118.395V118.4Z" fill="#101010"/>
<path d="M210.601 120.713C210.615 122.858 210.837 124.997 211.266 127.099C211.699 129.222 212.273 131.313 212.983 133.36C213.376 134.512 213.802 135.652 214.248 136.784C214.34 137.016 214.719 136.915 214.627 136.679C213.842 134.682 213.115 132.656 212.523 130.591C211.919 128.536 211.482 126.436 211.215 124.311C211.071 123.119 210.997 121.919 210.995 120.718C210.995 120.61 210.907 120.522 210.799 120.522C210.69 120.522 210.602 120.61 210.602 120.718L210.601 120.713Z" fill="#101010"/>
<path d="M194.162 178.921C195.231 178.79 196.293 178.603 197.343 178.363C197.589 178.306 197.484 177.927 197.238 177.984C196.223 178.218 195.196 178.4 194.162 178.529C194.055 178.531 193.969 178.618 193.966 178.725C193.967 178.833 194.054 178.92 194.162 178.921Z" fill="#101010"/>
<path d="M195.186 180.116L195.983 179.896C196.054 179.881 196.111 179.827 196.13 179.758C196.15 179.688 196.129 179.613 196.077 179.563C196.025 179.513 195.949 179.495 195.88 179.518L195.082 179.738C194.981 179.77 194.923 179.876 194.951 179.979C194.985 180.079 195.09 180.136 195.193 180.109L195.186 180.116Z" fill="#101010"/>
<path d="M232.937 191.428L235.112 189.496C235.302 189.328 235.023 189.051 234.834 189.218L232.665 191.147C232.476 191.316 232.754 191.592 232.943 191.424L232.937 191.428Z" fill="#FBB13C"/>
<path d="M234.288 193.118L236.451 191.184C236.641 191.015 236.362 190.739 236.174 190.906L234.01 192.84C233.82 193.009 234.099 193.285 234.288 193.118Z" fill="#FBB13C"/>
<path d="M232.247 193.656C232.355 193.656 232.443 193.568 232.443 193.459C232.443 193.351 232.355 193.263 232.247 193.263C232.138 193.263 232.05 193.351 232.05 193.459C232.05 193.568 232.138 193.656 232.247 193.656Z" fill="#FBB13C"/>
<path d="M239.822 67.4305C242.521 65.8315 245.658 65.1298 248.781 65.4262C249.032 65.4497 249.031 65.0573 248.781 65.0337C245.588 64.7378 242.383 65.458 239.623 67.0917C239.529 67.1466 239.498 67.2669 239.553 67.3605C239.608 67.4541 239.728 67.4854 239.822 67.4305Z" fill="#101010"/>
<path d="M241.364 62.4803C242.857 61.8306 244.443 61.42 246.064 61.2636C246.313 61.2401 246.316 60.8476 246.064 60.8711C244.375 61.0341 242.722 61.4628 241.167 62.1415C240.935 62.2422 241.135 62.5811 241.364 62.4803Z" fill="#101010"/>
<path d="M251.858 66.6386C251.966 66.6386 252.054 66.5507 252.054 66.4423C252.054 66.334 251.966 66.2461 251.858 66.2461C251.75 66.2461 251.662 66.334 251.662 66.4423C251.662 66.5507 251.75 66.6386 251.858 66.6386Z" fill="#101010"/>
<path d="M213.849 95.4864C213.935 95.4257 214.026 95.3739 214.123 95.332L214.076 95.3529C214.193 95.3033 214.317 95.269 214.443 95.2509L214.391 95.2587H214.401C214.453 95.2563 214.502 95.236 214.54 95.2012C214.577 95.1642 214.597 95.1145 214.598 95.0625C214.598 95.01 214.577 94.9596 214.54 94.9225C214.503 94.8855 214.453 94.8652 214.401 94.8662C214.132 94.8956 213.874 94.9928 213.652 95.1488C213.609 95.1755 213.577 95.2169 213.561 95.2653C213.548 95.3165 213.555 95.3709 213.581 95.417C213.636 95.5056 213.75 95.5364 213.843 95.4877L213.849 95.4864Z" fill="#101010"/>
<path d="M213.346 100.758C213.652 100.654 213.941 100.503 214.203 100.312C214.319 100.208 214.458 100.133 214.608 100.091C214.87 100.073 215.108 100.24 215.18 100.492C215.241 100.74 215.207 101.003 215.084 101.228C215 101.418 214.864 101.581 214.692 101.698C214.52 101.816 214.301 101.843 214.105 101.771C214.013 101.729 213.932 101.669 213.864 101.594C213.667 101.39 213.537 101.13 213.494 100.85" fill="#101010"/>
<path d="M213.394 100.947C213.721 100.836 214.03 100.676 214.31 100.473C214.407 100.38 214.526 100.315 214.657 100.282C214.762 100.286 214.859 100.34 214.918 100.426C215.097 100.662 214.984 101.004 214.851 101.233C214.719 101.462 214.473 101.695 214.197 101.596C214.056 101.53 213.939 101.42 213.864 101.283C213.77 101.136 213.708 100.97 213.682 100.798C213.665 100.728 213.611 100.673 213.542 100.655C213.473 100.636 213.4 100.657 213.35 100.708C213.3 100.76 213.283 100.834 213.304 100.902C213.363 101.312 213.594 101.676 213.938 101.906C214.315 102.128 214.783 101.959 215.045 101.644C215.307 101.329 215.478 100.877 215.37 100.467C215.269 100.092 214.87 99.7902 214.477 99.9171C214.263 99.9865 214.097 100.149 213.908 100.266C213.713 100.389 213.504 100.49 213.287 100.566C213.186 100.6 213.129 100.706 213.156 100.808C213.187 100.91 213.294 100.968 213.397 100.939L213.394 100.947Z" fill="#101010"/>
<path d="M214.451 101.476C214.459 101.442 214.467 101.408 214.477 101.374C214.488 101.34 214.489 101.337 214.496 101.319C214.502 101.301 214.496 101.298 214.505 101.294C214.514 101.29 214.485 101.34 214.505 101.307C214.535 101.242 214.571 101.18 214.613 101.121C214.592 101.149 214.613 101.121 214.613 101.121C214.624 101.107 214.635 101.094 214.647 101.081C214.671 101.055 214.697 101.031 214.723 101.008L214.763 100.974C214.715 101.017 214.763 100.974 214.778 100.963C214.809 100.943 214.84 100.924 214.872 100.907C214.936 100.873 214.976 100.807 214.976 100.735C214.977 100.664 214.938 100.597 214.875 100.562C214.812 100.527 214.736 100.53 214.675 100.568C214.364 100.738 214.142 101.036 214.069 101.383C214.042 101.485 214.1 101.591 214.2 101.624C214.302 101.652 214.409 101.594 214.441 101.493L214.451 101.476Z" fill="#D81159"/>
<path d="M167.262 207.48C163.511 202.204 160.161 196.654 157.243 190.876C156.182 188.773 155.082 186.531 153.092 185.271C152.409 184.839 151.631 184.529 151.08 183.939C150.32 183.124 150.14 181.945 149.811 180.882C148.43 176.434 144.078 173.541 139.678 172.001C135.278 170.461 130.564 169.891 126.26 168.101C121.837 166.262 117.887 163.055 115.698 158.798C113.583 154.694 113.081 147.154 115.07 142.825L115.054 142.85C110.256 149.676 108.57 158.157 108.09 166.358C107.847 170.504 108.116 174.62 108.061 178.762C108.03 181.107 106.315 184.863 108.192 186.814C108.665 187.303 109.341 187.567 109.99 187.722C112.57 188.335 115.528 187.621 118.012 188.565C123.917 190.811 129.184 194.424 134.746 197.419C142.048 201.349 149.866 204.237 157.969 205.999C161.037 206.667 164.139 207.161 167.262 207.48Z" fill="#D81159"/>
<path d="M128.568 111.521C129.876 112.179 131.148 112.901 132.384 113.688C132.597 113.818 132.795 113.484 132.582 113.349C131.347 112.564 130.075 111.842 128.765 111.182C128.54 111.068 128.341 111.407 128.568 111.521Z" fill="#EDB59F"/>
<path d="M137.692 114.721C138.021 114.74 138.349 114.669 138.64 114.514C138.73 114.46 138.761 114.345 138.711 114.252C138.655 114.164 138.542 114.134 138.449 114.182C138.418 114.199 138.387 114.213 138.354 114.229C138.321 114.245 138.336 114.237 138.354 114.229L138.325 114.241L138.283 114.256C138.217 114.28 138.148 114.299 138.079 114.314C138.045 114.322 138.01 114.328 137.974 114.332C138.027 114.332 137.974 114.332 137.967 114.332H137.905C137.835 114.337 137.764 114.337 137.693 114.332C137.585 114.332 137.497 114.42 137.497 114.529C137.5 114.636 137.586 114.722 137.693 114.725L137.692 114.721Z" fill="#EDB59F"/>
<path d="M133.206 138.684C133.103 139.134 133.057 139.596 133.067 140.058C133.067 140.254 133.067 140.484 133.185 140.65C133.247 140.741 133.345 140.801 133.454 140.813C133.564 140.826 133.673 140.79 133.754 140.716C133.796 140.672 133.816 140.612 133.808 140.551C133.8 140.491 133.765 140.438 133.713 140.407C133.565 140.34 133.45 140.214 133.396 140.06C133.316 139.822 132.936 139.929 133.017 140.165C133.098 140.418 133.278 140.627 133.516 140.746L133.477 140.437C133.49 140.432 133.504 140.429 133.518 140.426C133.494 140.426 133.488 140.426 133.503 140.426C133.517 140.426 133.522 140.454 133.503 140.426C133.481 140.379 133.47 140.327 133.471 140.275C133.461 140.112 133.458 139.949 133.462 139.785C133.474 139.452 133.518 139.121 133.593 138.796C133.648 138.55 133.269 138.444 133.214 138.692L133.206 138.684Z" fill="#EDB59F"/>
<path d="M188.362 250.038C188.362 250.954 170.218 251.411 147.839 251.691C124.987 251.976 107.151 251.05 107.316 250.038C107.461 249.138 125.459 248.387 147.839 248.387C170.219 248.387 188.362 249.126 188.362 250.038Z" fill="#E9E3E0"/>
<ellipse cx="240.904" cy="250.038" rx="40.5233" ry="1.65105" fill="#E9E3E0"/>
<path d="M90.4473 290.528H79.3113V301.92H68.9433V290.528H57.8073V280.736H68.9433V269.28H79.3113V280.736H90.4473V290.528ZM96.7148 299.232C98.1654 298.08 98.8268 297.547 98.6988 297.632C102.88 294.176 106.165 291.339 108.555 289.12C110.987 286.901 113.035 284.576 114.699 282.144C116.363 279.712 117.195 277.344 117.195 275.04C117.195 273.291 116.789 271.925 115.979 270.944C115.168 269.963 113.952 269.472 112.331 269.472C110.709 269.472 109.429 270.091 108.491 271.328C107.595 272.523 107.147 274.229 107.147 276.448H96.5868C96.6721 272.821 97.4401 269.792 98.8908 267.36C100.384 264.928 102.325 263.136 104.715 261.984C107.147 260.832 109.835 260.256 112.779 260.256C117.856 260.256 121.675 261.557 124.235 264.16C126.837 266.763 128.139 270.155 128.139 274.336C128.139 278.901 126.581 283.147 123.467 287.072C120.352 290.955 116.384 294.752 111.563 298.464H128.843V307.36H96.7148V299.232ZM133.277 299.232C134.728 298.08 135.389 297.547 135.261 297.632C139.443 294.176 142.728 291.339 145.117 289.12C147.549 286.901 149.597 284.576 151.261 282.144C152.925 279.712 153.757 277.344 153.757 275.04C153.757 273.291 153.352 271.925 152.541 270.944C151.731 269.963 150.515 269.472 148.893 269.472C147.272 269.472 145.992 270.091 145.053 271.328C144.157 272.523 143.709 274.229 143.709 276.448H133.149C133.235 272.821 134.003 269.792 135.453 267.36C136.947 264.928 138.888 263.136 141.277 261.984C143.709 260.832 146.397 260.256 149.341 260.256C154.419 260.256 158.237 261.557 160.797 264.16C163.4 266.763 164.701 270.155 164.701 274.336C164.701 278.901 163.144 283.147 160.029 287.072C156.915 290.955 152.947 294.752 148.125 298.464H165.405V307.36H133.277V299.232ZM183.088 297.888L175.984 316.256H169.008L172.72 297.888H183.088ZM188.599 284C188.599 276.661 190.007 270.88 192.823 266.656C195.681 262.432 200.268 260.32 206.583 260.32C212.897 260.32 217.463 262.432 220.279 266.656C223.137 270.88 224.567 276.661 224.567 284C224.567 291.424 223.137 297.248 220.279 301.472C217.463 305.696 212.897 307.808 206.583 307.808C200.268 307.808 195.681 305.696 192.823 301.472C190.007 297.248 188.599 291.424 188.599 284ZM213.815 284C213.815 279.691 213.345 276.384 212.407 274.08C211.468 271.733 209.527 270.56 206.583 270.56C203.639 270.56 201.697 271.733 200.759 274.08C199.82 276.384 199.351 279.691 199.351 284C199.351 286.901 199.521 289.312 199.863 291.232C200.204 293.109 200.887 294.645 201.911 295.84C202.977 296.992 204.535 297.568 206.583 297.568C208.631 297.568 210.167 296.992 211.191 295.84C212.257 294.645 212.961 293.109 213.303 291.232C213.644 289.312 213.815 286.901 213.815 284ZM230.349 284C230.349 276.661 231.757 270.88 234.573 266.656C237.431 262.432 242.018 260.32 248.333 260.32C254.647 260.32 259.213 262.432 262.029 266.656C264.887 270.88 266.317 276.661 266.317 284C266.317 291.424 264.887 297.248 262.029 301.472C259.213 305.696 254.647 307.808 248.333 307.808C242.018 307.808 237.431 305.696 234.573 301.472C231.757 297.248 230.349 291.424 230.349 284ZM255.565 284C255.565 279.691 255.095 276.384 254.157 274.08C253.218 271.733 251.277 270.56 248.333 270.56C245.389 270.56 243.447 271.733 242.509 274.08C241.57 276.384 241.101 279.691 241.101 284C241.101 286.901 241.271 289.312 241.613 291.232C241.954 293.109 242.637 294.645 243.661 295.84C244.727 296.992 246.285 297.568 248.333 297.568C250.381 297.568 251.917 296.992 252.941 295.84C254.007 294.645 254.711 293.109 255.053 291.232C255.394 289.312 255.565 286.901 255.565 284ZM272.099 284C272.099 276.661 273.507 270.88 276.323 266.656C279.181 262.432 283.768 260.32 290.083 260.32C296.397 260.32 300.963 262.432 303.779 266.656C306.637 270.88 308.067 276.661 308.067 284C308.067 291.424 306.637 297.248 303.779 301.472C300.963 305.696 296.397 307.808 290.083 307.808C283.768 307.808 279.181 305.696 276.323 301.472C273.507 297.248 272.099 291.424 272.099 284ZM297.315 284C297.315 279.691 296.845 276.384 295.907 274.08C294.968 271.733 293.027 270.56 290.083 270.56C287.139 270.56 285.197 271.733 284.259 274.08C283.32 276.384 282.851 279.691 282.851 284C282.851 286.901 283.021 289.312 283.363 291.232C283.704 293.109 284.387 294.645 285.411 295.84C286.477 296.992 288.035 297.568 290.083 297.568C292.131 297.568 293.667 296.992 294.691 295.84C295.757 294.645 296.461 293.109 296.803 291.232C297.144 289.312 297.315 286.901 297.315 284Z" fill="#020A44"/>
<path d="M120.121 334.272V344.856C120.121 346.344 120.481 347.448 121.201 348.168C121.937 348.888 122.953 349.248 124.249 349.248C125.529 349.248 126.529 348.888 127.249 348.168C127.985 347.448 128.353 346.344 128.353 344.856V334.272H130.537V344.832C130.537 346.224 130.257 347.4 129.697 348.36C129.137 349.304 128.377 350.008 127.417 350.472C126.473 350.936 125.409 351.168 124.225 351.168C123.041 351.168 121.969 350.936 121.009 350.472C120.065 350.008 119.313 349.304 118.753 348.36C118.209 347.4 117.937 346.224 117.937 344.832V334.272H120.121ZM138.836 351.216C137.828 351.216 136.924 351.048 136.124 350.712C135.324 350.36 134.692 349.88 134.228 349.272C133.764 348.648 133.508 347.936 133.46 347.136H135.716C135.78 347.792 136.084 348.328 136.628 348.744C137.188 349.16 137.916 349.368 138.812 349.368C139.644 349.368 140.3 349.184 140.78 348.816C141.26 348.448 141.5 347.984 141.5 347.424C141.5 346.848 141.244 346.424 140.732 346.152C140.22 345.864 139.428 345.584 138.356 345.312C137.38 345.056 136.58 344.8 135.956 344.544C135.348 344.272 134.82 343.88 134.372 343.368C133.94 342.84 133.724 342.152 133.724 341.304C133.724 340.632 133.924 340.016 134.324 339.456C134.724 338.896 135.292 338.456 136.028 338.136C136.764 337.8 137.604 337.632 138.548 337.632C140.004 337.632 141.18 338 142.076 338.736C142.972 339.472 143.452 340.48 143.516 341.76H141.332C141.284 341.072 141.004 340.52 140.492 340.104C139.996 339.688 139.324 339.48 138.476 339.48C137.692 339.48 137.068 339.648 136.604 339.984C136.14 340.32 135.908 340.76 135.908 341.304C135.908 341.736 136.044 342.096 136.316 342.384C136.604 342.656 136.956 342.88 137.372 343.056C137.804 343.216 138.396 343.4 139.148 343.608C140.092 343.864 140.86 344.12 141.452 344.376C142.044 344.616 142.548 344.984 142.964 345.48C143.396 345.976 143.62 346.624 143.636 347.424C143.636 348.144 143.436 348.792 143.036 349.368C142.636 349.944 142.068 350.4 141.332 350.736C140.612 351.056 139.78 351.216 138.836 351.216ZM158.719 343.92C158.719 344.336 158.695 344.776 158.647 345.24H148.135C148.215 346.536 148.655 347.552 149.455 348.288C150.271 349.008 151.255 349.368 152.407 349.368C153.351 349.368 154.135 349.152 154.759 348.72C155.399 348.272 155.847 347.68 156.103 346.944H158.455C158.103 348.208 157.399 349.24 156.343 350.04C155.287 350.824 153.975 351.216 152.407 351.216C151.159 351.216 150.039 350.936 149.047 350.376C148.071 349.816 147.303 349.024 146.743 348C146.183 346.96 145.903 345.76 145.903 344.4C145.903 343.04 146.175 341.848 146.719 340.824C147.263 339.8 148.023 339.016 148.999 338.472C149.991 337.912 151.127 337.632 152.407 337.632C153.655 337.632 154.759 337.904 155.719 338.448C156.679 338.992 157.415 339.744 157.927 340.704C158.455 341.648 158.719 342.72 158.719 343.92ZM156.463 343.464C156.463 342.632 156.279 341.92 155.911 341.328C155.543 340.72 155.039 340.264 154.399 339.96C153.775 339.64 153.079 339.48 152.311 339.48C151.207 339.48 150.263 339.832 149.479 340.536C148.711 341.24 148.271 342.216 148.159 343.464H156.463ZM163.786 339.984C164.17 339.232 164.714 338.648 165.418 338.232C166.138 337.816 167.01 337.608 168.034 337.608V339.864H167.458C165.01 339.864 163.786 341.192 163.786 343.848V351H161.602V337.848H163.786V339.984ZM175.211 351.216C174.203 351.216 173.299 351.048 172.499 350.712C171.699 350.36 171.067 349.88 170.603 349.272C170.139 348.648 169.883 347.936 169.835 347.136H172.091C172.155 347.792 172.459 348.328 173.003 348.744C173.563 349.16 174.291 349.368 175.187 349.368C176.019 349.368 176.675 349.184 177.155 348.816C177.635 348.448 177.875 347.984 177.875 347.424C177.875 346.848 177.619 346.424 177.107 346.152C176.595 345.864 175.803 345.584 174.731 345.312C173.755 345.056 172.955 344.8 172.331 344.544C171.723 344.272 171.195 343.88 170.747 343.368C170.315 342.84 170.099 342.152 170.099 341.304C170.099 340.632 170.299 340.016 170.699 339.456C171.099 338.896 171.667 338.456 172.403 338.136C173.139 337.8 173.979 337.632 174.923 337.632C176.379 337.632 177.555 338 178.451 338.736C179.347 339.472 179.827 340.48 179.891 341.76H177.707C177.659 341.072 177.379 340.52 176.867 340.104C176.371 339.688 175.699 339.48 174.851 339.48C174.067 339.48 173.443 339.648 172.979 339.984C172.515 340.32 172.283 340.76 172.283 341.304C172.283 341.736 172.419 342.096 172.691 342.384C172.979 342.656 173.331 342.88 173.747 343.056C174.179 343.216 174.771 343.4 175.523 343.608C176.467 343.864 177.235 344.12 177.827 344.376C178.419 344.616 178.923 344.984 179.339 345.48C179.771 345.976 179.995 346.624 180.011 347.424C180.011 348.144 179.811 348.792 179.411 349.368C179.011 349.944 178.443 350.4 177.707 350.736C176.987 351.056 176.155 351.216 175.211 351.216ZM191.254 328.392L184.678 355.08H182.518L189.07 328.392H191.254ZM203.964 334.272V336.048H196.692V341.688H202.596V343.464H196.692V351H194.508V334.272H203.964ZM205.786 344.376C205.786 343.032 206.058 341.856 206.602 340.848C207.146 339.824 207.89 339.032 208.834 338.472C209.794 337.912 210.858 337.632 212.026 337.632C213.178 337.632 214.178 337.88 215.026 338.376C215.874 338.872 216.506 339.496 216.922 340.248V337.848H219.13V351H216.922V348.552C216.49 349.32 215.842 349.96 214.978 350.472C214.13 350.968 213.138 351.216 212.002 351.216C210.834 351.216 209.778 350.928 208.834 350.352C207.89 349.776 207.146 348.968 206.602 347.928C206.058 346.888 205.786 345.704 205.786 344.376ZM216.922 344.4C216.922 343.408 216.722 342.544 216.322 341.808C215.922 341.072 215.378 340.512 214.69 340.128C214.018 339.728 213.274 339.528 212.458 339.528C211.642 339.528 210.898 339.72 210.226 340.104C209.554 340.488 209.018 341.048 208.618 341.784C208.218 342.52 208.018 343.384 208.018 344.376C208.018 345.384 208.218 346.264 208.618 347.016C209.018 347.752 209.554 348.32 210.226 348.72C210.898 349.104 211.642 349.296 212.458 349.296C213.274 349.296 214.018 349.104 214.69 348.72C215.378 348.32 215.922 347.752 216.322 347.016C216.722 346.264 216.922 345.392 216.922 344.4ZM229.229 337.608C230.829 337.608 232.125 338.096 233.117 339.072C234.109 340.032 234.605 341.424 234.605 343.248V351H232.445V343.56C232.445 342.248 232.117 341.248 231.461 340.56C230.805 339.856 229.909 339.504 228.773 339.504C227.621 339.504 226.701 339.864 226.013 340.584C225.341 341.304 225.005 342.352 225.005 343.728V351H222.821V337.848H225.005V339.72C225.437 339.048 226.021 338.528 226.757 338.16C227.509 337.792 228.333 337.608 229.229 337.608ZM242.828 351.216C241.82 351.216 240.916 351.048 240.116 350.712C239.316 350.36 238.684 349.88 238.22 349.272C237.756 348.648 237.5 347.936 237.452 347.136H239.708C239.772 347.792 240.076 348.328 240.62 348.744C241.18 349.16 241.908 349.368 242.804 349.368C243.636 349.368 244.292 349.184 244.772 348.816C245.252 348.448 245.492 347.984 245.492 347.424C245.492 346.848 245.236 346.424 244.724 346.152C244.212 345.864 243.42 345.584 242.348 345.312C241.372 345.056 240.572 344.8 239.948 344.544C239.34 344.272 238.812 343.88 238.364 343.368C237.932 342.84 237.716 342.152 237.716 341.304C237.716 340.632 237.916 340.016 238.316 339.456C238.716 338.896 239.284 338.456 240.02 338.136C240.756 337.8 241.596 337.632 242.54 337.632C243.996 337.632 245.172 338 246.068 338.736C246.964 339.472 247.444 340.48 247.508 341.76H245.324C245.276 341.072 244.996 340.52 244.484 340.104C243.988 339.688 243.316 339.48 242.468 339.48C241.684 339.48 241.06 339.648 240.596 339.984C240.132 340.32 239.9 340.76 239.9 341.304C239.9 341.736 240.036 342.096 240.308 342.384C240.596 342.656 240.948 342.88 241.364 343.056C241.796 343.216 242.388 343.4 243.14 343.608C244.084 343.864 244.852 344.12 245.444 344.376C246.036 344.616 246.54 344.984 246.956 345.48C247.388 345.976 247.612 346.624 247.628 347.424C247.628 348.144 247.428 348.792 247.028 349.368C246.628 349.944 246.06 350.4 245.324 350.736C244.604 351.056 243.772 351.216 242.828 351.216Z" fill="#020A44"/>
<path opacity="0.5" d="M302.05 61.552C302.05 59.888 302.41 58.408 303.13 57.112C303.85 55.8 304.85 54.784 306.13 54.064C307.426 53.328 308.89 52.96 310.522 52.96C312.522 52.96 314.234 53.488 315.658 54.544C317.082 55.6 318.034 57.04 318.514 58.864H314.002C313.666 58.16 313.186 57.624 312.562 57.256C311.954 56.888 311.258 56.704 310.474 56.704C309.21 56.704 308.186 57.144 307.402 58.024C306.618 58.904 306.226 60.08 306.226 61.552C306.226 63.024 306.618 64.2 307.402 65.08C308.186 65.96 309.21 66.4 310.474 66.4C311.258 66.4 311.954 66.216 312.562 65.848C313.186 65.48 313.666 64.944 314.002 64.24H318.514C318.034 66.064 317.082 67.504 315.658 68.56C314.234 69.6 312.522 70.12 310.522 70.12C308.89 70.12 307.426 69.76 306.13 69.04C304.85 68.304 303.85 67.288 303.13 65.992C302.41 64.696 302.05 63.216 302.05 61.552ZM327.123 70.192C325.811 70.192 324.627 69.912 323.571 69.352C322.531 68.792 321.707 67.992 321.099 66.952C320.507 65.912 320.211 64.696 320.211 63.304C320.211 61.928 320.515 60.72 321.123 59.68C321.731 58.624 322.563 57.816 323.619 57.256C324.675 56.696 325.859 56.416 327.171 56.416C328.483 56.416 329.667 56.696 330.723 57.256C331.779 57.816 332.611 58.624 333.219 59.68C333.827 60.72 334.131 61.928 334.131 63.304C334.131 64.68 333.819 65.896 333.195 66.952C332.587 67.992 331.747 68.792 330.675 69.352C329.619 69.912 328.435 70.192 327.123 70.192ZM327.123 66.64C327.907 66.64 328.571 66.352 329.115 65.776C329.675 65.2 329.955 64.376 329.955 63.304C329.955 62.232 329.683 61.408 329.139 60.832C328.611 60.256 327.955 59.968 327.171 59.968C326.371 59.968 325.707 60.256 325.179 60.832C324.651 61.392 324.387 62.216 324.387 63.304C324.387 64.376 324.643 65.2 325.155 65.776C325.683 66.352 326.339 66.64 327.123 66.64ZM340.412 52.24V70H336.308V52.24H340.412ZM347.49 52.24V70H343.386V52.24H347.49ZM349.649 63.28C349.649 61.904 349.905 60.696 350.417 59.656C350.945 58.616 351.657 57.816 352.553 57.256C353.449 56.696 354.449 56.416 355.553 56.416C356.497 56.416 357.321 56.608 358.025 56.992C358.745 57.376 359.297 57.88 359.681 58.504V56.608H363.785V70H359.681V68.104C359.281 68.728 358.721 69.232 358.001 69.616C357.297 70 356.473 70.192 355.529 70.192C354.441 70.192 353.449 69.912 352.553 69.352C351.657 68.776 350.945 67.968 350.417 66.928C349.905 65.872 349.649 64.656 349.649 63.28ZM359.681 63.304C359.681 62.28 359.393 61.472 358.817 60.88C358.257 60.288 357.569 59.992 356.753 59.992C355.937 59.992 355.241 60.288 354.665 60.88C354.105 61.456 353.825 62.256 353.825 63.28C353.825 64.304 354.105 65.12 354.665 65.728C355.241 66.32 355.937 66.616 356.753 66.616C357.569 66.616 358.257 66.32 358.817 65.728C359.393 65.136 359.681 64.328 359.681 63.304ZM370.858 58.504C371.242 57.88 371.794 57.376 372.514 56.992C373.234 56.608 374.058 56.416 374.986 56.416C376.09 56.416 377.09 56.696 377.986 57.256C378.882 57.816 379.586 58.616 380.098 59.656C380.626 60.696 380.89 61.904 380.89 63.28C380.89 64.656 380.626 65.872 380.098 66.928C379.586 67.968 378.882 68.776 377.986 69.352C377.09 69.912 376.09 70.192 374.986 70.192C374.042 70.192 373.218 70.008 372.514 69.64C371.81 69.256 371.258 68.752 370.858 68.128V70H366.754V52.24H370.858V58.504ZM376.714 63.28C376.714 62.256 376.426 61.456 375.85 60.88C375.29 60.288 374.594 59.992 373.762 59.992C372.946 59.992 372.25 60.288 371.674 60.88C371.114 61.472 370.834 62.28 370.834 63.304C370.834 64.328 371.114 65.136 371.674 65.728C372.25 66.32 372.946 66.616 373.762 66.616C374.578 66.616 375.274 66.32 375.85 65.728C376.426 65.12 376.714 64.304 376.714 63.28ZM389.139 70.192C387.827 70.192 386.643 69.912 385.587 69.352C384.547 68.792 383.723 67.992 383.115 66.952C382.523 65.912 382.227 64.696 382.227 63.304C382.227 61.928 382.531 60.72 383.139 59.68C383.747 58.624 384.579 57.816 385.635 57.256C386.691 56.696 387.875 56.416 389.187 56.416C390.499 56.416 391.683 56.696 392.739 57.256C393.795 57.816 394.627 58.624 395.235 59.68C395.843 60.72 396.147 61.928 396.147 63.304C396.147 64.68 395.835 65.896 395.211 66.952C394.603 67.992 393.763 68.792 392.691 69.352C391.635 69.912 390.451 70.192 389.139 70.192ZM389.139 66.64C389.923 66.64 390.587 66.352 391.131 65.776C391.691 65.2 391.971 64.376 391.971 63.304C391.971 62.232 391.699 61.408 391.155 60.832C390.627 60.256 389.971 59.968 389.187 59.968C388.387 59.968 387.723 60.256 387.195 60.832C386.667 61.392 386.403 62.216 386.403 63.304C386.403 64.376 386.659 65.2 387.171 65.776C387.699 66.352 388.355 66.64 389.139 66.64ZM402.428 58.84C402.908 58.104 403.508 57.528 404.228 57.112C404.948 56.68 405.748 56.464 406.628 56.464V60.808H405.5C404.476 60.808 403.708 61.032 403.196 61.48C402.684 61.912 402.428 62.68 402.428 63.784V70H398.324V56.608H402.428V58.84ZM407.774 63.28C407.774 61.904 408.03 60.696 408.542 59.656C409.07 58.616 409.782 57.816 410.678 57.256C411.574 56.696 412.574 56.416 413.678 56.416C414.622 56.416 415.446 56.608 416.15 56.992C416.87 57.376 417.422 57.88 417.806 58.504V56.608H421.91V70H417.806V68.104C417.406 68.728 416.846 69.232 416.126 69.616C415.422 70 414.598 70.192 413.654 70.192C412.566 70.192 411.574 69.912 410.678 69.352C409.782 68.776 409.07 67.968 408.542 66.928C408.03 65.872 407.774 64.656 407.774 63.28ZM417.806 63.304C417.806 62.28 417.518 61.472 416.942 60.88C416.382 60.288 415.694 59.992 414.878 59.992C414.062 59.992 413.366 60.288 412.79 60.88C412.23 61.456 411.95 62.256 411.95 63.28C411.95 64.304 412.23 65.12 412.79 65.728C413.366 66.32 414.062 66.616 414.878 66.616C415.694 66.616 416.382 66.32 416.942 65.728C417.518 65.136 417.806 64.328 417.806 63.304ZM432.343 66.52V70H430.255C428.767 70 427.607 69.64 426.775 68.92C425.943 68.184 425.527 66.992 425.527 65.344V60.016H423.895V56.608H425.527V53.344H429.631V56.608H432.319V60.016H429.631V65.392C429.631 65.792 429.727 66.08 429.919 66.256C430.111 66.432 430.431 66.52 430.879 66.52H432.343ZM436.693 55.216C435.973 55.216 435.381 55.008 434.917 54.592C434.469 54.16 434.245 53.632 434.245 53.008C434.245 52.368 434.469 51.84 434.917 51.424C435.381 50.992 435.973 50.776 436.693 50.776C437.397 50.776 437.973 50.992 438.421 51.424C438.885 51.84 439.117 52.368 439.117 53.008C439.117 53.632 438.885 54.16 438.421 54.592C437.973 55.008 437.397 55.216 436.693 55.216ZM438.733 56.608V70H434.629V56.608H438.733ZM447.731 66.16L450.635 56.608H455.003L450.251 70H445.187L440.435 56.608H444.827L447.731 66.16ZM469.354 63.088C469.354 63.472 469.33 63.872 469.282 64.288H459.994C460.058 65.12 460.322 65.76 460.786 66.208C461.266 66.64 461.85 66.856 462.538 66.856C463.562 66.856 464.274 66.424 464.674 65.56H469.042C468.818 66.44 468.41 67.232 467.818 67.936C467.242 68.64 466.514 69.192 465.634 69.592C464.754 69.992 463.77 70.192 462.682 70.192C461.37 70.192 460.202 69.912 459.178 69.352C458.154 68.792 457.354 67.992 456.778 66.952C456.202 65.912 455.914 64.696 455.914 63.304C455.914 61.912 456.194 60.696 456.754 59.656C457.33 58.616 458.13 57.816 459.154 57.256C460.178 56.696 461.354 56.416 462.682 56.416C463.978 56.416 465.13 56.688 466.138 57.232C467.146 57.776 467.93 58.552 468.49 59.56C469.066 60.568 469.354 61.744 469.354 63.088ZM465.154 62.008C465.154 61.304 464.914 60.744 464.434 60.328C463.954 59.912 463.354 59.704 462.634 59.704C461.946 59.704 461.362 59.904 460.882 60.304C460.418 60.704 460.13 61.272 460.018 62.008H465.154ZM489.229 63.088C489.229 63.472 489.205 63.872 489.157 64.288H479.869C479.933 65.12 480.197 65.76 480.661 66.208C481.141 66.64 481.725 66.856 482.413 66.856C483.437 66.856 484.149 66.424 484.549 65.56H488.917C488.693 66.44 488.285 67.232 487.693 67.936C487.117 68.64 486.389 69.192 485.509 69.592C484.629 69.992 483.645 70.192 482.557 70.192C481.245 70.192 480.077 69.912 479.053 69.352C478.029 68.792 477.229 67.992 476.653 66.952C476.077 65.912 475.789 64.696 475.789 63.304C475.789 61.912 476.069 60.696 476.629 59.656C477.205 58.616 478.005 57.816 479.029 57.256C480.053 56.696 481.229 56.416 482.557 56.416C483.853 56.416 485.005 56.688 486.013 57.232C487.021 57.776 487.805 58.552 488.365 59.56C488.941 60.568 489.229 61.744 489.229 63.088ZM485.029 62.008C485.029 61.304 484.789 60.744 484.309 60.328C483.829 59.912 483.229 59.704 482.509 59.704C481.821 59.704 481.237 59.904 480.757 60.304C480.293 60.704 480.005 61.272 479.893 62.008H485.029ZM490.578 63.304C490.578 61.912 490.858 60.696 491.418 59.656C491.994 58.616 492.786 57.816 493.794 57.256C494.818 56.696 495.986 56.416 497.298 56.416C498.978 56.416 500.378 56.856 501.498 57.736C502.634 58.616 503.378 59.856 503.73 61.456H499.362C498.994 60.432 498.282 59.92 497.226 59.92C496.474 59.92 495.874 60.216 495.426 60.808C494.978 61.384 494.754 62.216 494.754 63.304C494.754 64.392 494.978 65.232 495.426 65.824C495.874 66.4 496.474 66.688 497.226 66.688C498.282 66.688 498.994 66.176 499.362 65.152H503.73C503.378 66.72 502.634 67.952 501.498 68.848C500.362 69.744 498.962 70.192 497.298 70.192C495.986 70.192 494.818 69.912 493.794 69.352C492.786 68.792 491.994 67.992 491.418 66.952C490.858 65.912 490.578 64.696 490.578 63.304ZM512.022 70.192C510.71 70.192 509.526 69.912 508.47 69.352C507.43 68.792 506.606 67.992 505.998 66.952C505.406 65.912 505.11 64.696 505.11 63.304C505.11 61.928 505.414 60.72 506.021 59.68C506.63 58.624 507.462 57.816 508.518 57.256C509.574 56.696 510.758 56.416 512.07 56.416C513.382 56.416 514.566 56.696 515.622 57.256C516.678 57.816 517.51 58.624 518.118 59.68C518.726 60.72 519.03 61.928 519.03 63.304C519.03 64.68 518.718 65.896 518.094 66.952C517.486 67.992 516.646 68.792 515.574 69.352C514.518 69.912 513.334 70.192 512.022 70.192ZM512.022 66.64C512.806 66.64 513.47 66.352 514.014 65.776C514.574 65.2 514.854 64.376 514.854 63.304C514.854 62.232 514.582 61.408 514.038 60.832C513.51 60.256 512.854 59.968 512.07 59.968C511.27 59.968 510.606 60.256 510.078 60.832C509.55 61.392 509.286 62.216 509.286 63.304C509.286 64.376 509.542 65.2 510.054 65.776C510.582 66.352 511.238 66.64 512.022 66.64ZM529.367 56.464C530.935 56.464 532.183 56.976 533.111 58C534.055 59.008 534.527 60.4 534.527 62.176V70H530.447V62.728C530.447 61.832 530.215 61.136 529.751 60.64C529.287 60.144 528.663 59.896 527.879 59.896C527.095 59.896 526.471 60.144 526.007 60.64C525.543 61.136 525.311 61.832 525.311 62.728V70H521.207V56.608H525.311V58.384C525.727 57.792 526.287 57.328 526.991 56.992C527.695 56.64 528.487 56.464 529.367 56.464ZM543.475 70.192C542.163 70.192 540.979 69.912 539.923 69.352C538.883 68.792 538.059 67.992 537.451 66.952C536.859 65.912 536.563 64.696 536.563 63.304C536.563 61.928 536.867 60.72 537.475 59.68C538.083 58.624 538.915 57.816 539.971 57.256C541.027 56.696 542.211 56.416 543.523 56.416C544.835 56.416 546.019 56.696 547.075 57.256C548.131 57.816 548.963 58.624 549.571 59.68C550.179 60.72 550.483 61.928 550.483 63.304C550.483 64.68 550.171 65.896 549.547 66.952C548.939 67.992 548.099 68.792 547.027 69.352C545.971 69.912 544.787 70.192 543.475 70.192ZM543.475 66.64C544.259 66.64 544.923 66.352 545.467 65.776C546.027 65.2 546.307 64.376 546.307 63.304C546.307 62.232 546.035 61.408 545.491 60.832C544.963 60.256 544.307 59.968 543.523 59.968C542.723 59.968 542.059 60.256 541.531 60.832C541.003 61.392 540.739 62.216 540.739 63.304C540.739 64.376 540.995 65.2 541.507 65.776C542.035 66.352 542.691 66.64 543.475 66.64ZM569.748 56.464C571.412 56.464 572.732 56.968 573.708 57.976C574.7 58.984 575.196 60.384 575.196 62.176V70H571.116V62.728C571.116 61.864 570.884 61.2 570.42 60.736C569.972 60.256 569.348 60.016 568.548 60.016C567.748 60.016 567.116 60.256 566.652 60.736C566.204 61.2 565.98 61.864 565.98 62.728V70H561.9V62.728C561.9 61.864 561.668 61.2 561.204 60.736C560.756 60.256 560.132 60.016 559.332 60.016C558.532 60.016 557.9 60.256 557.436 60.736C556.988 61.2 556.764 61.864 556.764 62.728V70H552.66V56.608H556.764V58.288C557.18 57.728 557.724 57.288 558.396 56.968C559.068 56.632 559.828 56.464 560.676 56.464C561.684 56.464 562.58 56.68 563.364 57.112C564.164 57.544 564.788 58.16 565.236 58.96C565.7 58.224 566.332 57.624 567.132 57.16C567.932 56.696 568.804 56.464 569.748 56.464ZM591.746 56.608L583.346 76.36H578.93L582.002 69.544L576.554 56.608H581.138L584.234 64.984L587.306 56.608H591.746Z" fill="#6750A4"/>
<path opacity="0.5" d="M263.55 433.152L257.574 450H252.438L246.462 433.152H250.83L255.006 445.872L259.206 433.152H263.55ZM264.449 443.28C264.449 441.904 264.705 440.696 265.217 439.656C265.745 438.616 266.457 437.816 267.353 437.256C268.249 436.696 269.249 436.416 270.353 436.416C271.297 436.416 272.121 436.608 272.825 436.992C273.545 437.376 274.097 437.88 274.481 438.504V436.608H278.585V450H274.481V448.104C274.081 448.728 273.521 449.232 272.801 449.616C272.097 450 271.273 450.192 270.329 450.192C269.241 450.192 268.249 449.912 267.353 449.352C266.457 448.776 265.745 447.968 265.217 446.928C264.705 445.872 264.449 444.656 264.449 443.28ZM274.481 443.304C274.481 442.28 274.193 441.472 273.617 440.88C273.057 440.288 272.369 439.992 271.553 439.992C270.737 439.992 270.041 440.288 269.465 440.88C268.905 441.456 268.625 442.256 268.625 443.28C268.625 444.304 268.905 445.12 269.465 445.728C270.041 446.32 270.737 446.616 271.553 446.616C272.369 446.616 273.057 446.32 273.617 445.728C274.193 445.136 274.481 444.328 274.481 443.304ZM285.658 432.24V450H281.554V432.24H285.658ZM301.857 436.608V450H297.753V448.176C297.337 448.768 296.769 449.248 296.049 449.616C295.345 449.968 294.561 450.144 293.697 450.144C292.673 450.144 291.769 449.92 290.985 449.472C290.201 449.008 289.593 448.344 289.161 447.48C288.729 446.616 288.513 445.6 288.513 444.432V436.608H292.593V443.88C292.593 444.776 292.825 445.472 293.289 445.968C293.753 446.464 294.377 446.712 295.161 446.712C295.961 446.712 296.593 446.464 297.057 445.968C297.521 445.472 297.753 444.776 297.753 443.88V436.608H301.857ZM317.428 443.088C317.428 443.472 317.404 443.872 317.356 444.288H308.068C308.132 445.12 308.396 445.76 308.86 446.208C309.34 446.64 309.924 446.856 310.612 446.856C311.636 446.856 312.348 446.424 312.748 445.56H317.116C316.892 446.44 316.484 447.232 315.892 447.936C315.316 448.64 314.588 449.192 313.708 449.592C312.828 449.992 311.844 450.192 310.756 450.192C309.444 450.192 308.276 449.912 307.252 449.352C306.228 448.792 305.428 447.992 304.852 446.952C304.276 445.912 303.988 444.696 303.988 443.304C303.988 441.912 304.268 440.696 304.828 439.656C305.404 438.616 306.204 437.816 307.228 437.256C308.252 436.696 309.428 436.416 310.756 436.416C312.052 436.416 313.204 436.688 314.212 437.232C315.22 437.776 316.004 438.552 316.564 439.56C317.14 440.568 317.428 441.744 317.428 443.088ZM313.228 442.008C313.228 441.304 312.988 440.744 312.508 440.328C312.028 439.912 311.428 439.704 310.708 439.704C310.02 439.704 309.436 439.904 308.956 440.304C308.492 440.704 308.204 441.272 308.092 442.008H313.228ZM332.143 446.52V450H330.055C328.567 450 327.407 449.64 326.575 448.92C325.743 448.184 325.327 446.992 325.327 445.344V440.016H323.695V436.608H325.327V433.344H329.431V436.608H332.119V440.016H329.431V445.392C329.431 445.792 329.527 446.08 329.719 446.256C329.911 446.432 330.231 446.52 330.679 446.52H332.143ZM338.533 438.84C339.013 438.104 339.613 437.528 340.333 437.112C341.053 436.68 341.853 436.464 342.733 436.464V440.808H341.605C340.581 440.808 339.813 441.032 339.301 441.48C338.789 441.912 338.533 442.68 338.533 443.784V450H334.429V436.608H338.533V438.84ZM343.879 443.28C343.879 441.904 344.135 440.696 344.647 439.656C345.175 438.616 345.887 437.816 346.783 437.256C347.679 436.696 348.679 436.416 349.783 436.416C350.727 436.416 351.551 436.608 352.255 436.992C352.975 437.376 353.527 437.88 353.911 438.504V436.608H358.015V450H353.911V448.104C353.511 448.728 352.951 449.232 352.231 449.616C351.527 450 350.703 450.192 349.759 450.192C348.671 450.192 347.679 449.912 346.783 449.352C345.887 448.776 345.175 447.968 344.647 446.928C344.135 445.872 343.879 444.656 343.879 443.28ZM353.911 443.304C353.911 442.28 353.623 441.472 353.047 440.88C352.487 440.288 351.799 439.992 350.983 439.992C350.167 439.992 349.471 440.288 348.895 440.88C348.335 441.456 348.055 442.256 348.055 443.28C348.055 444.304 348.335 445.12 348.895 445.728C349.471 446.32 350.167 446.616 350.983 446.616C351.799 446.616 352.487 446.32 353.047 445.728C353.623 445.136 353.911 444.328 353.911 443.304ZM369.144 436.464C370.712 436.464 371.96 436.976 372.888 438C373.832 439.008 374.304 440.4 374.304 442.176V450H370.224V442.728C370.224 441.832 369.992 441.136 369.528 440.64C369.064 440.144 368.44 439.896 367.656 439.896C366.872 439.896 366.248 440.144 365.784 440.64C365.32 441.136 365.088 441.832 365.088 442.728V450H360.984V436.608H365.088V438.384C365.504 437.792 366.064 437.328 366.768 436.992C367.472 436.64 368.264 436.464 369.144 436.464ZM382.604 450.192C381.436 450.192 380.396 449.992 379.484 449.592C378.572 449.192 377.852 448.648 377.324 447.96C376.796 447.256 376.5 446.472 376.436 445.608H380.492C380.54 446.072 380.756 446.448 381.14 446.736C381.524 447.024 381.996 447.168 382.556 447.168C383.068 447.168 383.46 447.072 383.732 446.88C384.02 446.672 384.164 446.408 384.164 446.088C384.164 445.704 383.964 445.424 383.564 445.248C383.164 445.056 382.516 444.848 381.62 444.624C380.66 444.4 379.86 444.168 379.22 443.928C378.58 443.672 378.028 443.28 377.564 442.752C377.1 442.208 376.868 441.48 376.868 440.568C376.868 439.8 377.076 439.104 377.492 438.48C377.924 437.84 378.548 437.336 379.364 436.968C380.196 436.6 381.18 436.416 382.316 436.416C383.996 436.416 385.316 436.832 386.276 437.664C387.252 438.496 387.812 439.6 387.956 440.976H384.164C384.1 440.512 383.892 440.144 383.54 439.872C383.204 439.6 382.756 439.464 382.196 439.464C381.716 439.464 381.348 439.56 381.092 439.752C380.836 439.928 380.708 440.176 380.708 440.496C380.708 440.88 380.908 441.168 381.308 441.36C381.724 441.552 382.364 441.744 383.228 441.936C384.22 442.192 385.028 442.448 385.652 442.704C386.276 442.944 386.82 443.344 387.284 443.904C387.764 444.448 388.012 445.184 388.028 446.112C388.028 446.896 387.804 447.6 387.356 448.224C386.924 448.832 386.292 449.312 385.46 449.664C384.644 450.016 383.692 450.192 382.604 450.192ZM397.259 440.016H395.051V450H390.947V440.016H389.459V436.608H390.947V436.224C390.947 434.576 391.419 433.328 392.363 432.48C393.307 431.616 394.691 431.184 396.515 431.184C396.819 431.184 397.043 431.192 397.187 431.208V434.688C396.403 434.64 395.851 434.752 395.531 435.024C395.211 435.296 395.051 435.784 395.051 436.488V436.608H397.259V440.016ZM411.811 443.088C411.811 443.472 411.787 443.872 411.739 444.288H402.451C402.515 445.12 402.779 445.76 403.243 446.208C403.723 446.64 404.307 446.856 404.995 446.856C406.019 446.856 406.731 446.424 407.131 445.56H411.499C411.275 446.44 410.867 447.232 410.275 447.936C409.699 448.64 408.971 449.192 408.091 449.592C407.211 449.992 406.227 450.192 405.139 450.192C403.827 450.192 402.659 449.912 401.635 449.352C400.611 448.792 399.811 447.992 399.235 446.952C398.659 445.912 398.371 444.696 398.371 443.304C398.371 441.912 398.651 440.696 399.211 439.656C399.787 438.616 400.587 437.816 401.611 437.256C402.635 436.696 403.811 436.416 405.139 436.416C406.435 436.416 407.587 436.688 408.595 437.232C409.603 437.776 410.387 438.552 410.947 439.56C411.523 440.568 411.811 441.744 411.811 443.088ZM407.611 442.008C407.611 441.304 407.371 440.744 406.891 440.328C406.411 439.912 405.811 439.704 405.091 439.704C404.403 439.704 403.819 439.904 403.339 440.304C402.875 440.704 402.587 441.272 402.475 442.008H407.611ZM418.08 438.84C418.56 438.104 419.16 437.528 419.88 437.112C420.6 436.68 421.4 436.464 422.28 436.464V440.808H421.152C420.128 440.808 419.36 441.032 418.848 441.48C418.336 441.912 418.08 442.68 418.08 443.784V450H413.976V436.608H418.08V438.84Z" fill="#D81159"/>
</svg>
